<svg width="244" height="460" viewBox="0 0 244 460" fill="none" xmlns="http://www.w3.org/2000/svg">
<path d="M41.8819 201.329L43.6603 199.39M42.3425 211.996L54.3273 198.929M42.803 222.663L64.9942 198.469M43.2601 233.249L60.5027 214.45M207.108 54.6996L214.372 46.6946M70.1679 203.913L75.6612 198.008M43.7206 243.916L60.9633 225.117M207.568 65.3665L224.807 46.487M80.8349 203.452L86.3282 197.548M44.1811 254.583L61.4238 235.784M208.029 76.0335L225.268 57.154M91.5018 202.992L96.9143 197.091M44.6417 265.25L61.8843 246.451M228.976 64.2803L234.466 58.2951M102.169 202.531L107.581 196.63M208.486 86.6196L225.728 67.8209M45.1022 275.917L62.3449 257.118M239.643 63.8198L245.133 57.8346M112.836 202.071L118.248 196.17M208.946 97.2866L226.189 78.4879M45.5628 286.584L62.8054 267.785M250.31 63.3593L255.8 57.374M123.503 201.61L128.915 195.709M209.407 107.954L226.649 89.1548M46.0233 297.251L63.2625 278.371M260.977 62.8987L266.386 56.917M134.089 201.153L139.582 195.249M217.673 110.025L227.11 99.8218M46.4838 307.918L63.723 289.038M271.644 62.4382L277.053 56.4564M144.756 200.692L150.249 194.788M222.077 116.393L227.57 110.489M46.9409 318.504L64.1835 299.705M282.311 61.9777L287.72 55.9959M155.423 200.232L160.916 194.327M222.538 127.06L228.031 121.156M47.4014 329.171L64.6441 310.372M292.978 61.5171L298.387 55.5354M166.09 199.771L171.583 193.867M47.862 339.838L65.1046 321.039M303.564 61.0601L309.054 55.0748M170.107 206.561L175.597 200.575L182.169 193.41M48.3225 350.505L65.5652 331.706M314.231 60.5995L319.72 54.6143M170.568 217.227L176.057 211.242L192.836 192.949M48.783 361.171L66.0257 342.373M324.898 60.139L330.387 54.1537M171.028 227.894L176.518 221.909M186.26 211.287L203.503 192.489M49.2436 371.838L66.4862 353.04M335.565 59.6785L341.054 53.6932M171.489 238.561L176.978 232.576M224.837 180.314L230.33 174.41M196.927 210.827L214.17 192.028M49.7041 382.505L66.9433 363.626M346.232 59.2179L351.641 53.2362M171.946 249.148L177.439 243.243M225.297 190.981L230.791 185.077M207.594 210.366L224.837 191.568M50.1612 393.092L67.4038 374.293M356.898 58.7574L362.307 52.7756M218.261 209.906L231.251 195.744M50.6217 403.759L67.8644 384.96M367.565 58.2968L372.974 52.3151M228.847 209.449L231.708 206.33M51.0822 414.425L68.3249 395.627M378.232 57.8363L383.641 51.8545M57.1099 419.023L74.3526 400.224M388.819 57.3793L394.308 51.394M173.788 291.815L175.644 289.792M67.7769 418.562L85.0195 399.764M399.486 56.9187L404.975 50.9335M174.248 302.482L179.738 296.497M78.363 418.105L95.6865 399.303M410.152 56.4582L415.642 50.4729M174.709 313.149L180.199 307.164L184.68 302.194M89.03 417.645L106.273 398.846M420.819 55.9976L426.309 50.0124M175.166 323.735L180.659 317.831L195.347 301.733M99.6969 417.184L116.94 398.386M431.486 55.5371L436.895 49.5553M175.627 334.402L181.12 328.498M188.771 320.072L206.014 301.273M110.364 416.724L127.607 397.925M442.153 55.0766L447.562 49.0948M176.087 345.069L181.58 339.165M199.438 319.611L214.055 303.759M121.031 416.263L138.274 397.464M464.724 41.5531L471.065 34.6406M176.548 355.736L182.041 349.832M452.82 54.616L458.229 48.6343M210.105 319.15L214.516 314.426M131.698 415.803L148.94 397.004M478.952 37.2956L465.185 52.2201L463.487 54.1555M177.008 366.403L182.498 360.418M142.365 415.342L159.607 396.543M465.645 62.8871L482.888 44.0883M177.469 377.07L182.958 371.085M152.951 414.885L170.274 396.083M466.106 73.554L483.349 54.7553M177.929 387.737L183.419 381.752M252.618 306.223L259.349 298.97M160.683 417.709L183.88 392.419M466.566 84.221L483.806 65.3414M253.079 316.89L269.935 298.513M161.144 428.376L184.34 403.086M467.027 94.8879L484.266 76.0084M263.359 316.851L280.602 298.053M170.493 429.267L184.801 413.753M467.484 105.474L484.727 86.6754M274.026 316.391L291.269 297.592M180.622 429.478L185.261 424.42M467.945 116.141L485.187 97.3423M284.693 315.93L301.936 297.131M295.36 315.47L312.603 296.671M468.405 126.808L485.648 108.009M306.027 315.009L323.27 296.21M468.866 137.475L486.108 118.676M316.613 314.552L333.936 295.75M469.326 148.142L486.569 129.343M327.28 314.092L342.59 297.4L344.523 295.293M469.787 158.809L487.029 140.01M337.947 313.631L343.05 308.067M470.247 169.476L487.486 150.596M343.44 307.727L345.373 305.619M359.442 301.449L365.857 294.372M470.708 180.143L487.947 161.263M364.693 306.809L376.524 293.911M471.165 190.729L488.408 171.93M375.36 306.348L387.19 293.451M471.625 201.396L488.868 182.597M386.027 305.888L397.857 292.99M472.086 212.063L489.329 193.264M396.694 305.427L408.524 292.53M472.546 222.73L489.789 203.931M407.361 304.967L419.191 292.069M482.749 222.775L490.25 214.598M418.028 304.506L429.777 291.612M428.695 304.046L440.444 291.151M439.281 303.589L451.111 290.691M449.948 303.128L461.778 290.23M474.846 275.984L479.949 270.42M460.615 302.668L472.445 289.77M475.306 286.651L490.616 269.96M471.282 302.207L475.767 297.318L493.009 278.519M476.227 307.985L493.47 289.186M476.688 318.652L493.93 299.853M477.148 329.319L494.388 310.439M484.954 331.977L494.848 321.106" stroke="#6B7537" stroke-width="0.72" stroke-linecap="round" stroke-linejoin="round"/>
<path d="M176.078 211.727L231.837 209.32L230.198 171.339" stroke="#6B7537" stroke-width="1.08" stroke-linecap="round" stroke-linejoin="round"/>
<path d="M228.352 128.59L225.582 64.4268L465.265 54.0787L475.435 289.641L359.149 294.661M344.927 295.275L252.318 299.274M213.933 300.931L179.993 302.396L179.441 289.628M177.802 251.647L176.078 211.727M175.3 193.706L225.322 191.547M209.511 110.378L206.779 47.1033M225.334 58.6893L465.017 48.3411M482.504 35.1991L493.99 301.227M475.969 302.005L359.683 307.025M345.46 307.639L343.036 307.744M343.28 313.401L253.096 317.294M214.711 318.951L180.771 320.417" stroke="#6B7537" stroke-width="1.08" stroke-linecap="round" stroke-linejoin="round"/>
<path d="M68.0107 388.354L69.2513 387.086M73.736 382.196L70.4077 385.74L67.7944 383.343M68.4154 397.728L69.6561 396.46M74.1407 391.57L70.8124 395.114L68.1991 392.717M78.6253 386.681L75.297 390.225L71.7565 386.978M83.11 381.792L79.7817 385.336L76.2411 382.088M79.03 396.055L75.7017 399.599L72.1612 396.352M83.5147 391.166L80.1864 394.71L76.6458 391.462M87.9993 386.276L84.671 389.82L81.1305 386.573M92.484 381.387L89.1557 384.931L85.6151 381.684M85.385 398.857L85.0757 399.194L83.7269 397.957M90.1824 393.711L92.8887 390.761M97.3733 385.872L94.045 389.416L90.5044 386.168M101.858 380.982L98.5297 384.526L94.9891 381.279M86.7803 397.421L88.404 395.65M97.778 395.246L94.4497 398.79L90.99 395.539M102.263 390.356L98.9344 393.9L95.3938 390.653M103.96 388.421L103.5 389.007L99.8784 385.763M104.368 397.876L103.905 398.381L100.283 395.137M141.924 386.377L144.243 383.848M148.728 378.959L145.48 382.499L141.94 379.252M142.328 395.751L144.648 393.222M149.133 388.333L145.885 391.873L142.345 388.626M153.617 383.443L150.37 386.984L146.829 383.736M158.102 378.554L154.854 382.095L151.314 378.847M154.022 392.817L150.775 396.358L147.234 393.11M158.507 387.928L155.259 391.469L151.719 388.221M162.991 383.039L159.744 386.579L156.203 383.332M167.476 378.149L164.228 381.69L160.688 378.442M163.396 392.413L160.148 395.953L156.608 392.706M167.881 387.523L164.633 391.064L161.093 387.816M172.365 382.634L169.118 386.174L165.577 382.927M176.85 377.745L173.602 381.285L170.062 378.038M172.77 392.008L169.522 395.548L165.982 392.301M177.255 387.119L174.007 390.659L170.467 387.412M82.2061 396.485L81.5352 395.947M89.4761 394.228L86.5221 391.441M178.222 394.525L175.356 391.896M177.817 385.151L174.951 382.522" stroke="#6B7537" stroke-width="0.72" stroke-linecap="round" stroke-linejoin="round"/>
<path d="M172.064 251.895L169.807 199.611L60.0664 204.349L68.534 400.475L178.274 395.737L173.704 289.876" stroke="#6B7537" stroke-width="1.08" stroke-linecap="round" stroke-linejoin="round"/>
<path d="M160.547 414.557L51.2914 419.274L41.8015 199.47L175.3 193.706L177.802 251.647L172.064 251.895M184.79 413.51L179.441 289.628L173.704 289.876M225.322 191.547L224.46 171.586M222.614 128.838L221.794 109.847L209.511 110.378M342.502 295.38L343.28 313.4M225.582 64.4267L224.8 46.3252M465.265 54.0785L464.483 35.977" stroke="#6B7537" stroke-width="1.08" stroke-linecap="round" stroke-linejoin="round"/>
<path d="M206.779 47.1032L207.63 46.1759L208.017 45.7544L208.565 45.3259L209.12 45.0591L209.759 44.8695L210.402 44.7608L211.052 44.8137L211.706 44.9474L212.282 45.1654L212.862 45.4643L213.36 45.7666L214.288 46.6171L215.373 47.3798L215.872 47.6822L216.452 47.981L217.681 48.3327L218.985 48.5193L220.281 48.5443L220.924 48.4356L221.567 48.3268L222.126 48.1408L222.762 47.8705L223.314 47.5228L223.784 47.1786L224.8 46.3252M464.483 35.977L465.334 35.0497L465.801 34.6247L466.269 34.1997L466.905 33.9294L467.463 33.7434L468.106 33.6346L468.756 33.6875L469.41 33.8213L470.067 34.0358L470.566 34.3381L471.064 34.6404L472.073 35.4874L473.077 36.2537L473.657 36.5525L474.236 36.8513L475.466 37.203L476.769 37.3896L478.066 37.4146L478.709 37.3059L479.271 37.2007L479.911 37.0111L480.466 36.7443L481.018 36.3966L481.569 36.049L482.504 35.199" stroke="#6B7537" stroke-width="0.72" stroke-linecap="round" stroke-linejoin="round"/>
<path d="M184.79 413.51L185.408 427.814M160.547 414.557L161.165 428.86" stroke="#6B7537" stroke-width="1.08" stroke-linecap="round" stroke-linejoin="round"/>
<path d="M161.165 428.86L161.703 428.189L162.325 427.596L162.95 427.083L163.664 426.729L164.384 426.535L165.276 426.578L166.091 426.705L166.913 426.993L167.735 427.281L168.484 427.735L169.741 428.733L170.412 429.271L171.076 429.647L171.817 429.939L172.555 430.15L173.37 430.277L174.262 430.319L175.96 430.246L177.572 430.095L179.178 429.783L180.78 429.39L182.298 428.92L185.408 427.814" stroke="#6B7537" stroke-width="0.72" stroke-linecap="round" stroke-linejoin="round"/>
<path d="M109.344 398.713L104.201 393.997M116.778 398.392L103.88 386.562M124.294 398.068L103.559 379.128M131.728 397.747L103.235 371.612M139.163 397.426L102.914 364.178M142.214 393.084L102.593 356.743M141.889 385.569L102.268 349.228M141.568 378.134L101.948 341.793M141.247 370.7L101.627 334.359M140.923 363.184L101.302 326.843M140.602 355.75L100.981 319.409M140.281 348.315L100.66 311.974M139.956 340.8L100.339 304.54M139.635 333.365L107.264 303.674M139.314 325.931L114.78 303.35M138.99 318.416L122.214 303.029M138.669 310.981L129.649 302.708M138.348 303.546L137.164 302.383" stroke="#6B7537" stroke-width="0.72" stroke-linecap="round" stroke-linejoin="round"/>
<path d="M67.7141 381.485L103.594 379.936M141.575 378.296L177.455 376.747M100.314 303.974L138.295 302.334L142.395 397.286L104.414 398.926L100.314 303.974Z" stroke="#6B7537" stroke-width="0.84" stroke-linecap="round" stroke-linejoin="round"/>
<path d="M60.3178 210.167L61.5584 208.899M65.8849 204.098L62.7147 207.554L60.1015 205.157M60.726 219.622L61.9631 218.273M66.4478 213.384L63.1194 216.928L60.5062 214.531M70.9324 208.495L67.6041 212.039L64.0635 208.791M75.3397 203.689L72.0887 207.149L68.6325 203.979M61.1307 228.996L62.3678 227.647M66.8525 222.758L63.5242 226.302L60.9109 223.905M71.3371 217.868L68.0088 221.413L64.4682 218.165M75.8217 212.979L72.4934 216.523L68.9529 213.276M79.3012 209.186L76.9781 211.634L73.4375 208.386M61.5354 238.37L62.7725 237.021M67.2572 232.132L63.9289 235.676L61.3156 233.279M71.7418 227.242L68.4135 230.787L64.8729 227.539M76.2265 222.353L72.8982 225.897L69.3576 222.65M79.7059 218.56L77.3828 221.008L73.8422 217.76M61.9401 247.744L63.1773 246.395M67.6619 241.506L64.3336 245.05L61.7203 242.653M72.1465 236.616L68.8182 240.161L65.2777 236.913M76.6312 231.727L73.3029 235.271L69.7623 232.024M80.1106 227.934L77.7875 230.382L74.2469 227.134M67.3672 251.558L68.0666 250.88M72.5513 245.99L69.2229 249.535L65.6824 246.287M77.0359 241.101L73.7076 244.645L70.167 241.398M80.5154 237.308L78.1922 239.756L74.6517 236.508M76.7412 251.153L77.4406 250.475M80.9201 246.682L78.5969 249.13L75.0564 245.882M71.2461 251.39L70.5717 250.772M80.6201 250.986L79.9457 250.367M80.7212 242.075L79.541 240.993M80.3165 232.701L79.1363 231.619M79.9118 223.327L78.7316 222.245M79.5071 213.953L78.3269 212.871M79.1023 204.579L78.0064 203.574" stroke="#6B7537" stroke-width="0.72" stroke-linecap="round" stroke-linejoin="round"/>
<path d="M60.0666 204.349L79.057 203.529L81.105 250.964L62.1146 251.784L60.0666 204.349ZM150.817 200.431L169.807 199.611L171.855 247.046L152.865 247.866L150.817 200.431Z" stroke="#6B7537" stroke-width="0.84" stroke-linecap="round" stroke-linejoin="round"/>
<path d="M89.2781 399.013L88.3996 399.294L88.4136 399.617L91.646 399.478L91.632 399.154L90.8135 398.947M89.2781 399.013L90.8135 398.947M89.2781 399.013L89.2223 397.72L90.7576 397.654L90.8135 398.947M89.3839 397.713L89.3699 397.39L90.5013 397.341L90.5152 397.664L89.3839 397.713ZM89.1275 397.4L89.0752 396.188L90.7722 396.115L90.8245 397.327L89.1275 397.4Z" stroke="#6B7537" stroke-width="1.08" stroke-linecap="round" stroke-linejoin="round"/>
<path d="M89.0612 394.732C88.947 395.106 89.1034 395.51 89.4398 395.71C89.7763 395.91 90.2057 395.854 90.4798 395.575M90.6715 395.271C90.8113 394.887 90.6583 394.458 90.3072 394.25C89.9562 394.041 89.5064 394.112 89.2364 394.418" stroke="#6B7537" stroke-width="1.08" stroke-linecap="round" stroke-linejoin="round"/>
<path d="M89.4793 396.171L89.4618 395.767M90.2874 396.136L90.2699 395.732M89.4763 394.228L89.1606 392.541L90.292 392.492L90.1228 394.2M90.8391 395.788L88.6787 394.505L88.8264 394.175L90.9867 395.458L90.8391 395.788Z" stroke="#6B7537" stroke-width="1.08" stroke-linecap="round" stroke-linejoin="round"/>
<path d="M82.1667 399.32L81.2883 399.601L81.3023 399.924L84.5347 399.784L84.5207 399.461L83.7021 399.254M82.1667 399.32L83.7021 399.254M82.1667 399.32L82.1109 398.027L83.6463 397.961L83.7021 399.254M82.2725 398.02L82.2586 397.697L83.3899 397.648L83.4039 397.971L82.2725 398.02ZM82.0162 397.707L81.9638 396.495L83.6608 396.422L83.7132 397.634L82.0162 397.707Z" stroke="#6B7537" stroke-width="1.08" stroke-linecap="round" stroke-linejoin="round"/>
<path d="M81.9498 395.039C81.8357 395.413 81.992 395.817 82.3285 396.017C82.665 396.217 83.0944 396.161 83.3685 395.882M83.5601 395.578C83.6999 395.194 83.547 394.765 83.1959 394.557C82.8448 394.348 82.3951 394.419 82.1251 394.725" stroke="#6B7537" stroke-width="1.08" stroke-linecap="round" stroke-linejoin="round"/>
<path d="M82.3674 396.478L82.35 396.074M83.1755 396.443L83.1581 396.039M82.3645 394.535L82.0488 392.848L83.1802 392.799L83.011 394.507M83.7273 396.095L81.5669 394.812L81.7145 394.482L83.8749 395.765L83.7273 396.095Z" stroke="#6B7537" stroke-width="1.08" stroke-linecap="round" stroke-linejoin="round"/>
<path d="M82.918 399.854L90.0293 399.547M86.6579 394.592L87.3852 394.561L87.466 394.557M86.794 397.744L86.8783 397.821L87.1277 397.972L87.2963 398.127L87.3875 398.366L87.4788 398.605L87.412 398.931L87.3416 399.177L87.187 399.346L86.9515 399.518L86.7161 399.69" stroke="#6B7537" stroke-width="0.72" stroke-linecap="round" stroke-linejoin="round"/>
<path d="M86.3255 390.64L86.5011 390.956L86.543 391.926L86.5674 392.491L86.6197 393.703L86.6511 394.431L86.6825 395.158L86.714 395.885L86.7663 397.097L86.7907 397.663L86.8361 398.714L86.7657 398.96L86.7622 398.879M86.7163 399.69L86.4739 399.701" stroke="#6B7537" stroke-width="0.72" stroke-linecap="round" stroke-linejoin="round"/>
<path d="M86.0799 390.569L86.3258 390.64L86.3537 391.286L86.3711 391.69L86.427 392.983L86.4549 393.629L86.4898 394.438L86.5212 395.165L86.5561 395.973L86.5875 396.7L86.6962 397.343L86.7206 397.909L86.766 398.959L86.4497 399.135M86.0799 390.569L85.7601 390.664M86.0799 390.569L86.1043 391.135L86.1252 391.62L86.1811 392.913L86.2125 393.64L86.2473 394.448L86.2787 395.175L86.3136 395.983L86.345 396.711L86.3764 397.438L86.4009 398.004L86.4497 399.135M86.4497 399.135L86.6078 399.047M86.4497 399.135L86.2003 398.984L86.2846 399.061M86.4741 399.701L86.2317 399.711L85.9823 399.56M85.8503 394.627L85.6078 394.638" stroke="#6B7537" stroke-width="0.72" stroke-linecap="round" stroke-linejoin="round"/>
<path d="M86.1121 398.826L86.0278 398.748M86.0278 398.748L86.1999 398.984L86.0737 397.937L86.0493 397.371L86.0214 396.725L85.99 395.997L85.9551 395.189L85.9237 394.462L85.8888 393.654L85.8609 393.007L85.8051 391.714L85.7876 391.31L85.7597 390.664L85.6929 390.991L85.7173 391.556L85.7347 391.96L85.7836 393.092L85.8115 393.738L85.8429 394.465L85.8743 395.193L85.9057 395.92L85.9336 396.567L85.9615 397.213L85.9825 397.698L86.0278 398.748ZM85.9819 399.56L85.7325 399.409L85.5639 399.254L85.4726 399.015L85.3813 398.776L85.4482 398.45L85.5185 398.204L85.6732 398.035L85.9086 397.863L85.9859 397.779M85.6074 394.638L85.365 394.648L85.2034 394.655L85.0418 394.662M215.82 252.759L177.92 254.395L177.801 251.647L215.701 250.011L215.82 252.759Z" stroke="#6B7537" stroke-width="0.72" stroke-linecap="round" stroke-linejoin="round"/>
<path d="M179.374 289.565C198.789 287.611 214.075 272.137 215.792 252.7" stroke="#6B7537" stroke-width="0.72" stroke-linecap="round" stroke-linejoin="round"/>
<path d="M92.0117 226.044L101.547 225.632L101.143 216.258L91.607 216.67L92.0117 226.044Z" stroke="#6B7537" stroke-width="0.72" stroke-linecap="round" stroke-linejoin="round"/>
<path d="M96.2814 217.115C94.0723 217.211 92.3587 219.079 92.454 221.288C92.5494 223.497 94.4177 225.211 96.6268 225.116C98.836 225.02 100.55 223.152 100.454 220.943C100.359 218.734 98.4906 217.02 96.2814 217.115Z" stroke="#6B7537" stroke-width="0.72" stroke-linecap="round" stroke-linejoin="round"/>
<path d="M96.3436 220.432C95.9643 220.449 95.67 220.769 95.6864 221.149C95.7028 221.528 96.0236 221.822 96.403 221.806C96.7823 221.79 97.0766 221.469 97.0602 221.089C97.0438 220.71 96.723 220.416 96.3436 220.432Z" stroke="#6B7537" stroke-width="0.72" stroke-linecap="round" stroke-linejoin="round"/>
<path d="M95.9872 220.609L95.3382 205.579L96.2271 205.54L96.8796 220.652M99.7049 207.333L101.806 207.242L101.733 205.545L99.6316 205.636M99.7049 207.333L99.6316 205.636M99.7049 207.333L96.3109 207.48M99.6316 205.636L99.3892 205.647M92.0279 207.665L95.422 207.518M94.4673 204.159L91.4773 204.288L91.439 203.399L94.4289 203.27L94.4673 204.159ZM94.4673 204.159L97.2149 204.04M97.2149 204.04L99.9624 203.922L99.924 203.033L97.1765 203.151L97.2149 204.04ZM97.2149 204.04L97.2323 204.444L99.3334 204.354M94.4394 203.512L97.187 203.394M95.7603 204.103L95.7045 202.81M98.5078 203.985L98.4346 202.288M92.9319 204.225L92.8586 202.528M92.1238 204.26L92.1971 205.957L91.9547 205.968M99.3892 205.647L99.3159 203.95L99.3967 203.946L99.47 205.643L99.3892 205.647ZM92.1413 204.664L94.2423 204.573L94.2249 204.169M92.1692 205.311L93.7854 205.241L93.7958 205.483L94.2807 205.462M94.3016 205.947L95.2714 205.905M95.1592 205.182L95.1138 204.131M99.3613 205L97.8259 205.066L97.8364 205.309L97.2707 205.333M97.2916 205.818L96.3219 205.86M96.4521 205.126L96.4068 204.075M89.9269 207.755L92.1087 207.661L92.0355 205.964L89.8536 206.058L89.9269 207.755ZM94.2702 205.22L95.24 205.178L95.3063 206.713L94.3365 206.755L94.2702 205.22ZM97.2602 205.091L96.2905 205.133L96.3568 206.668L97.3265 206.626L97.2602 205.091ZM96.6026 224.55C96.491 224.555 96.4044 224.649 96.4093 224.761C96.4141 224.872 96.5084 224.959 96.62 224.954C96.7316 224.949 96.8181 224.855 96.8133 224.743C96.8085 224.632 96.7142 224.545 96.6026 224.55ZM93.9713 223.611C93.8597 223.616 93.7732 223.71 93.778 223.822C93.7828 223.933 93.8771 224.02 93.9887 224.015C94.1003 224.01 94.1868 223.916 94.182 223.804C94.1772 223.693 94.0829 223.606 93.9713 223.611ZM92.8091 221.07C92.6975 221.075 92.611 221.17 92.6158 221.281C92.6206 221.393 92.715 221.479 92.8266 221.474C92.9381 221.47 93.0247 221.375 93.0199 221.264C93.015 221.152 92.9207 221.066 92.8091 221.07ZM93.8288 218.436C93.7172 218.44 93.6307 218.535 93.6355 218.646C93.6403 218.758 93.7347 218.845 93.8462 218.84C93.9578 218.835 94.0444 218.741 94.0396 218.629C94.0347 218.517 93.9404 218.431 93.8288 218.436ZM98.7582 218.223C98.6466 218.228 98.5601 218.322 98.5649 218.434C98.5697 218.545 98.6641 218.632 98.7757 218.627C98.8873 218.622 98.9738 218.528 98.969 218.416C98.9642 218.305 98.8698 218.218 98.7582 218.223ZM99.9204 220.763C99.8088 220.768 99.7223 220.863 99.7271 220.974C99.7319 221.086 99.8263 221.172 99.9379 221.167C100.049 221.163 100.136 221.068 100.131 220.957C100.126 220.845 100.032 220.759 99.9204 220.763ZM98.9815 223.395C98.8699 223.4 98.7834 223.494 98.7882 223.605C98.793 223.717 98.8874 223.804 98.999 223.799C99.1106 223.794 99.1971 223.7 99.1923 223.588C99.1875 223.476 99.0931 223.39 98.9815 223.395Z" stroke="#6B7537" stroke-width="0.72" stroke-linecap="round" stroke-linejoin="round"/>
<path d="M92.6534 229.659L92.4778 229.343L92.3831 229.023L91.9651 228.717L91.3186 228.745L90.7669 229.093L90.2291 229.764L89.7896 230.835L89.5751 231.492L89.6204 232.543L89.8908 233.179L90.2315 233.569L90.8779 233.541L91.4262 233.113L92.0447 232.438" stroke="#6B7537" stroke-width="0.72" stroke-linecap="round" stroke-linejoin="round"/>
<path d="M92.8539 228.679L91.6331 234.156L91.1936 235.227L90.8843 235.565L90.4134 235.909L89.6861 235.94L89.3489 235.631M93.9852 228.63L94.1911 233.398M94.1911 233.398L96.5712 228.518M94.1911 233.398L93.4388 234.726L92.9045 235.477L92.3528 235.825L92.1104 235.835M101.06 233.101L102.147 228.278M101.324 231.714L100.477 232.722L99.9286 233.15L99.5246 233.168L99.1031 232.781L99.142 231.808M99.142 231.808L99.8844 228.375M99.142 231.808L98.295 232.816L97.7467 233.244L97.3427 233.262L96.9212 232.875L96.9601 231.902L97.7025 228.47" stroke="#6B7537" stroke-width="0.72" stroke-linecap="round" stroke-linejoin="round"/>
<path d="M151.068 206.249L152.309 204.981M156.716 200.176L153.465 203.636L150.852 201.239M151.476 215.704L152.714 214.355M157.198 209.466L153.87 213.01L151.257 210.613M161.683 204.577L158.355 208.121L154.814 204.873M166.09 199.771L162.839 203.231L159.383 200.061M151.881 225.078L153.118 223.729M157.603 218.84L154.275 222.384L151.661 219.987M162.088 213.951L158.759 217.495L155.219 214.247M166.572 209.061L163.244 212.605L159.703 209.358M170.052 205.268L167.809 207.712L164.188 204.468M152.286 234.452L153.523 233.103M158.008 228.214L154.679 231.758L152.066 229.361M162.492 223.325L159.164 226.869L155.623 223.621M166.977 218.435L163.649 221.979L160.108 218.732M170.456 214.642L168.214 217.086L164.593 213.842M152.691 243.826L153.928 242.477M158.412 237.588L155.084 241.132L152.471 238.735M162.897 232.699L159.569 236.243L156.028 232.995M167.382 227.809L164.053 231.353L160.513 228.106M170.861 224.016L168.619 226.46L164.997 223.216M158.118 247.64L158.817 246.962M163.302 242.073L159.973 245.617L156.433 242.369M167.786 237.183L164.458 240.727L160.918 237.48M171.266 233.39L169.024 235.834L165.402 232.59M167.492 247.235L168.191 246.557M171.671 242.764L169.428 245.208L165.807 241.964M162.077 247.469L161.322 246.854M171.451 247.064L170.696 246.449M171.472 238.157L170.291 237.075M171.067 228.784L169.887 227.701M170.662 219.41L169.482 218.327M170.258 210.036L169.077 208.953M169.853 200.662L168.757 199.656M139.932 223.975L130.316 224.39L129.911 215.016L139.528 214.601L139.932 223.975Z" stroke="#6B7537" stroke-width="0.72" stroke-linecap="round" stroke-linejoin="round"/>
<path d="M135.093 223.455C137.302 223.359 139.015 221.491 138.92 219.282C138.825 217.073 136.956 215.359 134.747 215.454C132.538 215.55 130.824 217.418 130.92 219.627C131.015 221.837 132.883 223.55 135.093 223.455Z" stroke="#6B7537" stroke-width="0.72" stroke-linecap="round" stroke-linejoin="round"/>
<path d="M135.03 220.138C135.41 220.122 135.704 219.801 135.688 219.422C135.671 219.042 135.35 218.748 134.971 218.764C134.592 218.781 134.297 219.101 134.314 219.481C134.33 219.86 134.651 220.154 135.03 220.138Z" stroke="#6B7537" stroke-width="0.72" stroke-linecap="round" stroke-linejoin="round"/>
<path d="M135.422 218.907L134.773 203.876L133.884 203.915L134.537 219.026M130.574 206.001L128.473 206.091L128.4 204.394L130.501 204.304M130.574 206.001L130.501 204.304M130.574 206.001L133.968 205.854M130.501 204.304L130.743 204.293L130.67 202.596M138.251 205.669L134.857 205.816M135.519 202.387L138.509 202.258L138.47 201.369L135.48 201.498L135.519 202.387ZM135.519 202.387L132.771 202.505M132.771 202.505L130.024 202.624L129.985 201.735L132.733 201.616L132.771 202.505ZM132.771 202.505L132.789 202.909L130.688 203M135.491 201.74L132.743 201.859M134.307 202.439L134.251 201.146M131.478 202.561L131.405 200.864M137.054 202.32L136.981 200.623M137.935 203.983L137.862 202.286L137.943 202.282L138.016 203.979L137.935 203.983ZM137.935 203.983L138.178 203.972M130.589 202.6L130.663 204.297M137.88 202.69L135.779 202.78L135.761 202.376M137.908 203.336L136.372 203.402L136.383 203.645L135.817 203.669M135.838 204.154L134.868 204.196M134.918 203.465L134.872 202.415M130.715 203.647L132.332 203.577L132.342 203.819L132.827 203.798M132.848 204.283L133.818 204.241M133.705 203.518L133.66 202.467M140.352 205.578L138.17 205.673L138.097 203.976L140.279 203.881L140.352 205.578ZM135.806 203.427L134.837 203.469L134.903 205.004L135.873 204.962L135.806 203.427ZM132.816 203.556L133.786 203.514L133.852 205.049L132.883 205.091L132.816 203.556Z" stroke="#6B7537" stroke-width="0.72" stroke-linecap="round" stroke-linejoin="round"/>
<path d="M135.166 223.29C135.278 223.285 135.364 223.19 135.36 223.079C135.355 222.967 135.26 222.881 135.149 222.886C135.037 222.89 134.951 222.985 134.955 223.096C134.96 223.208 135.055 223.294 135.166 223.29Z" stroke="#6B7537" stroke-width="0.72" stroke-linecap="round" stroke-linejoin="round"/>
<path d="M137.626 222.131C137.737 222.126 137.824 222.032 137.819 221.92C137.814 221.809 137.72 221.722 137.608 221.727C137.497 221.732 137.41 221.826 137.415 221.938C137.42 222.049 137.514 222.136 137.626 222.131Z" stroke="#6B7537" stroke-width="0.72" stroke-linecap="round" stroke-linejoin="round"/>
<path d="M138.565 219.5C138.676 219.495 138.763 219.401 138.758 219.289C138.753 219.177 138.659 219.091 138.547 219.096C138.436 219.101 138.349 219.195 138.354 219.307C138.359 219.418 138.453 219.505 138.565 219.5Z" stroke="#6B7537" stroke-width="0.72" stroke-linecap="round" stroke-linejoin="round"/>
<path d="M137.322 216.963C137.434 216.958 137.52 216.864 137.515 216.752C137.51 216.64 137.416 216.554 137.305 216.559C137.193 216.563 137.106 216.658 137.111 216.769C137.116 216.881 137.21 216.968 137.322 216.963Z" stroke="#6B7537" stroke-width="0.72" stroke-linecap="round" stroke-linejoin="round"/>
<path d="M132.392 217.176C132.504 217.171 132.59 217.076 132.586 216.965C132.581 216.853 132.486 216.767 132.375 216.772C132.263 216.776 132.177 216.871 132.182 216.982C132.186 217.094 132.281 217.18 132.392 217.176Z" stroke="#6B7537" stroke-width="0.72" stroke-linecap="round" stroke-linejoin="round"/>
<path d="M131.453 219.807C131.565 219.802 131.651 219.708 131.647 219.596C131.642 219.485 131.547 219.398 131.436 219.403C131.324 219.408 131.238 219.502 131.243 219.614C131.247 219.725 131.342 219.812 131.453 219.807Z" stroke="#6B7537" stroke-width="0.72" stroke-linecap="round" stroke-linejoin="round"/>
<path d="M132.616 222.347C132.728 222.342 132.814 222.248 132.809 222.136C132.804 222.025 132.71 221.938 132.599 221.943C132.487 221.948 132.4 222.042 132.405 222.154C132.41 222.266 132.504 222.352 132.616 222.347Z" stroke="#6B7537" stroke-width="0.72" stroke-linecap="round" stroke-linejoin="round"/>
<path d="M130.957 228.005L130.782 227.689L130.687 227.369L130.35 227.06L129.622 227.091L129.151 227.436L128.533 228.11L128.093 229.182L127.96 229.835L127.924 230.889L128.194 231.525L128.616 231.912L129.262 231.884L129.73 231.459L130.348 230.784" stroke="#6B7537" stroke-width="0.72" stroke-linecap="round" stroke-linejoin="round"/>
<path d="M131.158 227.025L129.937 232.502L129.497 233.574L129.188 233.911L128.717 234.255L128.071 234.283L127.653 233.977M132.289 226.976L132.576 231.741M132.576 231.741L134.956 226.861M132.576 231.741L131.823 233.068L131.208 233.824L130.657 234.171L130.495 234.178M139.364 231.447L140.451 226.624M139.708 230.056L138.781 231.068L138.313 231.493L137.828 231.514L137.488 231.124L137.446 230.154M137.446 230.154L138.269 226.718M137.446 230.154L136.599 231.162L136.05 231.59L135.646 231.608L135.306 231.218L135.264 230.248L136.006 226.816" stroke="#6B7537" stroke-width="0.72" stroke-linecap="round" stroke-linejoin="round"/>
<path d="M213.933 300.931L214.711 318.952M252.318 299.274L253.096 317.294M230.197 171.339L224.46 171.587M228.352 128.59L222.614 128.838" stroke="#6B7537" stroke-width="1.08" stroke-linecap="round" stroke-linejoin="round"/>
<path d="M222.59 128.839C199.041 131.208 180.499 149.977 178.417 173.553M178.479 173.572L224.46 171.587L224.603 174.9L178.622 176.885L178.479 173.572ZM254.886 358.75L253.096 317.294L256.086 317.165L257.876 358.621L254.886 358.75Z" stroke="#6B7537" stroke-width="0.72" stroke-linecap="round" stroke-linejoin="round"/>
<path d="M214.622 318.941C216.754 340.133 233.645 356.819 254.861 358.693" stroke="#6B7537" stroke-width="0.72" stroke-linecap="round" stroke-linejoin="round"/>
<path d="M177.718 249.708L233.478 247.301L231.838 209.32" stroke="#6B7537" stroke-width="0.84" stroke-linecap="round" stroke-linejoin="round"/>
<path d="M176.079 211.727L233.478 247.301M231.838 209.32L177.718 249.708" stroke="#6B7537" stroke-width="0.72" stroke-linecap="round" stroke-linejoin="round"/>
<path d="M110.238 276.909L110.059 276.512L109.964 276.193L109.546 275.887L108.819 275.918L108.267 276.266L107.652 277.021L107.213 278.093L107.002 278.83L107.051 279.962L107.324 280.678L107.742 280.984L108.389 280.956L108.941 280.609L109.637 279.85" stroke="#6B7537" stroke-width="0.72" stroke-linecap="round" stroke-linejoin="round"/>
<path d="M110.516 275.845L109.228 281.649L108.712 282.805L108.402 283.142L107.854 283.57L107.127 283.602L106.786 283.212M111.647 275.796L111.945 280.803M111.945 280.803L114.476 275.674M111.945 280.803L111.118 282.296L110.503 283.051L109.955 283.479L109.713 283.49M119.217 280.489L120.375 275.419M119.559 279.017L118.638 280.19L118.086 280.538L117.601 280.559L117.183 280.253L117.215 279.118M117.215 279.118L118.031 275.52M117.215 279.118L116.294 280.291L115.743 280.639L115.258 280.66L114.84 280.354L114.872 279.219L115.688 275.622M121.516 277.475L124.345 277.353L124.475 276.619L124.443 275.891L124.268 275.575L123.931 275.266L123.203 275.297L122.652 275.645L122.037 276.4L121.516 277.475ZM121.516 277.475L121.386 278.209L121.354 279.344L121.628 280.061L122.046 280.367L122.773 280.335L123.325 279.988L123.94 279.232M126.239 276.219L126.854 275.463L127.405 275.116M127.405 275.116L128.263 274.35L128.716 273.602L128.604 272.878L128.425 272.481L127.779 272.509L127.23 272.937L126.921 273.275L125.7 278.752L125.732 279.479L125.911 279.876L126.248 280.185L126.975 280.154L127.527 279.806L128.142 279.051L128.659 277.895L128.789 277.161L128.825 276.107L128.551 275.39L128.133 275.084L127.405 275.116ZM132.667 278.856L131.972 279.614L131.42 279.962L130.773 279.99L130.355 279.684L130.176 279.287L130.082 278.967L130.033 277.836L130.244 277.098L130.683 276.027L131.298 275.272L131.85 274.924L132.577 274.892L132.995 275.198L133.269 275.915M133.547 274.851L132.39 279.92M134.006 279.85L135.384 278.01M135.384 278.01L134.962 277.623L134.867 277.303L134.755 276.58L134.818 276.172L135.272 275.424L135.581 275.087L136.133 274.739L137.507 274.68L136.43 279.746M135.384 278.01L136.757 277.95M337.032 217.408L336.758 216.691L336.34 216.385L335.612 216.417L335.061 216.764L334.446 217.519L334.01 218.672L333.795 219.329L333.844 220.46L334.118 221.177L334.536 221.483L335.182 221.455L335.734 221.107L336.43 220.348M340.39 220.177L339.774 220.933L339.223 221.28L338.495 221.312L338.158 221.002L337.979 220.605L337.804 220.289L337.836 219.154L337.969 218.501L338.486 217.345L339.101 216.59L339.653 216.242L340.38 216.211L340.717 216.52L341.072 217.233M341.269 216.172L340.112 221.242M342.481 216.12L342.698 221.13M342.698 221.13L345.31 215.998M342.698 221.13L341.952 222.62L341.337 223.375L340.789 223.803L340.547 223.814M345.903 218.482L348.489 218.37M349.027 215.837L347.869 220.907M346.441 215.949L345.284 221.019M352.592 219.651L351.977 220.406L351.425 220.753L350.698 220.785L350.361 220.476L350.182 220.078L350.006 219.762L350.038 218.627L350.172 217.974L350.688 216.818L351.304 216.063L351.855 215.715L352.583 215.684L353.001 215.99L353.274 216.707M353.552 215.642L352.395 220.712" stroke="#6B7537" stroke-width="0.72" stroke-linecap="round" stroke-linejoin="round"/>
<path d="M125.516 169.463L126.804 163.659L124.864 163.742L123.851 168.401L123.552 168.981L123.32 169.233L122.849 169.578M127.28 167.2L129.381 167.11L129.519 166.537L129.413 165.975L129.322 165.736L128.988 165.507L128.504 165.528L128.11 165.788L127.569 166.378L127.28 167.2ZM127.28 167.2L127.143 167.773L127.097 168.585L127.361 169.059L127.617 169.372L128.183 169.347L128.573 169.007L129.037 168.501M132.741 166.155L132.565 165.839L132.474 165.6L132.221 165.368L131.655 165.392L131.262 165.652L130.801 166.239L130.432 167.064L130.295 167.637L130.33 168.445L130.512 168.923L130.849 169.232L131.334 169.211L131.724 168.871L132.269 168.361" stroke="#6B7537" stroke-width="0.72" stroke-linecap="round" stroke-linejoin="round"/>
<path d="M132.867 165.34L131.921 169.672L131.555 170.578L131.323 170.831L130.929 171.091L130.364 171.115L130.111 170.883M137.266 165.96L137.564 165.38L138.2 165.11L138.685 165.089L139.181 165.31L139.205 165.876L138.906 166.455L138.513 166.715L137.553 167L137.163 167.34L136.861 167.839L136.794 168.166L136.896 168.647L137.314 168.953L137.88 168.929L138.431 168.581L138.734 168.082M140.129 166.646L142.23 166.555L142.367 165.982L142.262 165.42L142.171 165.181L141.918 164.949L141.352 164.974L140.958 165.233L140.498 165.82L140.129 166.646ZM140.129 166.646L139.992 167.218L140.027 168.026L140.209 168.504L140.546 168.813L141.031 168.793L141.421 168.452L141.966 167.943M143.372 166.748L145.311 166.665M145.797 164.782L144.91 168.625M143.857 164.865L142.971 168.709M146.674 166.363L148.776 166.272L148.913 165.7L148.808 165.137L148.716 164.898L148.383 164.67L147.898 164.691L147.504 164.951L146.963 165.541L146.674 166.363ZM146.674 166.363L146.537 166.936L146.491 167.747L146.755 168.222L147.011 168.534L147.577 168.51L147.967 168.169L148.431 167.663M150.322 164.586L149.112 170.306M150.195 165.401L150.656 164.815L151.049 164.555L151.615 164.53L151.868 164.762L152.135 165.318L152.089 166.129L151.952 166.702L151.663 167.524L151.118 168.033L150.728 168.374L150.244 168.395L149.906 168.086L149.724 167.608M154.976 167.381L154.513 167.887L154.122 168.227L153.557 168.252L153.3 167.939L153.128 167.704L153.037 167.465L153.083 166.653L153.139 166.084L153.508 165.258L153.969 164.672L154.443 164.408L154.928 164.387L155.262 164.616L155.448 165.175M155.655 164.356L154.769 168.199M157.029 164.297L156.224 168.137M156.832 165.358L157.525 164.518L157.918 164.258L158.322 164.241L158.575 164.473L158.61 165.281M158.61 165.281L158.001 168.06M158.61 165.281L159.302 164.441L159.696 164.182L160.019 164.168L160.353 164.396L160.307 165.208L159.698 167.987M165.353 163.937L164.062 169.66M165.145 164.756L165.606 164.169L166.08 163.906L166.565 163.885L166.899 164.113L167.085 164.672L167.119 165.48L166.982 166.053L166.613 166.878L166.149 167.384L165.759 167.725L165.193 167.749L164.937 167.437L164.674 166.962M135.049 165.246L135.534 165.225L135.867 165.453L136.053 166.012L136.088 166.82L135.951 167.393L135.582 168.218L135.118 168.724L134.728 169.065L134.162 169.089L133.906 168.776L133.643 168.302L133.688 167.49L133.745 166.921L134.114 166.096L134.574 165.509L135.049 165.246ZM162.686 164.052L163.252 164.028L163.505 164.26L163.771 164.815L163.725 165.627L163.588 166.199L163.3 167.021L162.755 167.531L162.365 167.871L161.88 167.892L161.543 167.583L161.36 167.105L161.326 166.297L161.463 165.724L161.832 164.899L162.292 164.312L162.686 164.052Z" stroke="#6B7537" stroke-width="0.72" stroke-linecap="round" stroke-linejoin="round"/>
<path d="M202.483 219.493L202.715 219.24L202.132 218.86L202.483 219.493ZM202.715 219.24L202.132 218.86L202.779 218.832L202.715 219.24ZM202.132 218.86L202.779 218.832L202.684 218.513L202.132 218.86Z" fill="#6B7537"/>
<path d="M202.715 219.24L202.483 219.493L202.132 218.86M202.715 219.24L202.132 218.86M202.715 219.24L202.779 218.832M202.132 218.86L202.779 218.832M202.132 218.86L202.684 218.513L202.779 218.832" stroke="#6B7537" stroke-width="0.72" stroke-miterlimit="10" stroke-linecap="round"/>
<path d="M202.684 218.512L202.431 218.28L202.132 218.86L202.684 218.512ZM202.431 218.28L202.132 218.86L202.101 218.133L202.431 218.28ZM202.132 218.86L202.101 218.133L201.7 218.231L202.132 218.86Z" fill="#6B7537"/>
<path d="M202.431 218.28L202.684 218.512L202.132 218.86M202.431 218.28L202.132 218.86M202.431 218.28L202.101 218.133M202.132 218.86L202.101 218.133M202.132 218.86L201.7 218.231L202.101 218.133" stroke="#6B7537" stroke-width="0.72" stroke-miterlimit="10" stroke-linecap="round"/>
<path d="M201.7 218.231L201.472 218.565L202.132 218.86L201.7 218.231ZM201.472 218.565L202.132 218.86L201.405 218.892L201.472 218.565ZM202.132 218.86L201.405 218.892L201.5 219.211L202.132 218.86ZM201.5 219.211L201.756 219.524L202.132 218.86L201.5 219.211ZM201.756 219.524L202.132 218.86L202.083 219.591L201.756 219.524ZM202.132 218.86L202.083 219.591L202.483 219.493L202.132 218.86Z" fill="#6B7537"/>
<path d="M201.472 218.565L201.7 218.231L202.132 218.86M201.472 218.565L202.132 218.86M201.472 218.565L201.405 218.892M202.132 218.86L201.405 218.892M202.132 218.86L201.5 219.211M202.132 218.86L201.756 219.524M202.132 218.86L202.083 219.591M202.132 218.86L202.483 219.493L202.083 219.591M201.405 218.892L201.5 219.211M201.5 219.211L201.756 219.524M201.756 219.524L202.083 219.591" stroke="#6B7537" stroke-width="0.72" stroke-miterlimit="10" stroke-linecap="round"/>
<path d="M33.6243 401.983L65.706 400.598L20.2098 402.562M64.8861 381.607L32.8044 382.992M35.5667 403.842L34.5828 381.053M34.0464 400.507L37.0003 403.294M36.1804 384.304L33.23 381.598M33.3382 395.356L29.4948 394.47L32.0871 396.382L31.9999 394.361M59.2864 251.907L27.2047 253.292M34.7468 384.851L28.9831 251.353M30.5807 254.603L27.6302 251.897M27.289 322.753L27.1239 322.679L26.7094 322.454L26.5408 322.299L26.3652 321.983L26.3408 321.417L26.4954 321.249L26.6536 321.161L27.0541 321.063L27.3808 321.129L27.7954 321.354L28.2977 321.737L30.2366 323.516L30.1563 321.657M26.278 319.963L26.1977 318.104L30.097 320.283M26.1489 316.973L26.0861 315.518L27.5895 316.587L27.5721 316.182L27.7267 316.014L27.8848 315.926L28.4505 315.902L28.7773 315.969L29.3534 316.187L29.7749 316.573L29.9574 317.051L29.9749 317.455L29.8272 317.785L29.5883 317.877L29.2685 317.971M26.9366 314.591L26.775 314.598L26.3605 314.373L26.1884 314.137L26.0128 313.821L25.9919 313.336L26.143 313.087L26.3012 312.999L26.7017 312.901L27.032 313.048L27.4465 313.273L27.9488 313.656L29.8842 315.354L29.8039 313.495M25.1567 205.856L57.2384 204.471L11.7422 206.435M29.147 255.151L26.9351 203.917M28.5327 207.168L25.5787 204.381M23.3105 234.353L23.0541 234.04L22.5448 233.496L26.3883 234.382M13.5206 204.496L22.1522 404.421M15.1182 207.747L12.1642 204.96M20.6319 401.086L23.5858 403.873M16.1452 308.418L12.3018 307.531L14.8941 309.443L14.8069 307.423M12.9802 306.369L12.8046 306.052L12.2145 305.511L16.058 306.398M12.1378 303.733L12.075 302.279L13.5819 303.428L13.5645 303.024L13.7156 302.774L13.8737 302.687L14.4394 302.662L14.7661 302.729L15.3458 303.028L15.7638 303.334L15.9463 303.812L15.9638 304.216L15.8161 304.546L15.5772 304.637L15.2574 304.732M12.9255 301.351L12.7639 301.358L12.3494 301.133L12.1808 300.979L12.0052 300.662L11.9808 300.097L12.1319 299.847L12.2901 299.76L12.6941 299.742L13.0208 299.809L13.4354 300.034L14.0185 300.414L15.8765 302.195L15.7928 300.256M78.935 200.701L78.1884 183.407M59.9446 201.521L59.198 184.227M80.2081 185.182L57.4196 186.166M76.8769 186.783L79.6639 183.829M60.6735 184.649L57.8864 187.603M65.9052 183.938L66.711 180.098L64.7989 182.69L66.8191 182.603M150.695 197.602L149.948 180.309M76.41 185.346L151.968 182.084M148.717 183.682L151.423 180.731M109.572 178.976L109.885 178.719L110.429 178.21L109.624 182.05M113.581 178.074L112.207 178.133L111.711 179.774L111.866 179.605L112.34 179.342L112.744 179.325L113.078 179.553L113.334 179.866L113.278 180.435L113.211 180.762L112.993 181.338L112.603 181.678L112.21 181.938L111.725 181.959L111.391 181.731L111.303 181.573L111.208 181.253M114.501 178.763L114.814 178.507L115.359 177.997L114.472 181.841M116.771 178.827L116.764 178.665L116.989 178.251L117.224 178.079L117.46 177.907L118.026 177.882L118.275 178.033L118.363 178.191L118.461 178.592L118.313 178.922L118.088 179.337L117.705 179.839L116.008 181.774L117.866 181.694M169.685 196.783L168.938 179.489M148.17 182.248L170.958 181.264M167.627 182.865L170.414 179.911M156.655 180.019L157.461 176.18L155.549 178.772L157.569 178.685M104.536 401.755L106.462 446.362M142.517 400.115L144.443 444.722M104.523 444.584L146.302 442.78M107.774 442.986L105.067 445.936M142.967 444.3L145.754 441.346M180.323 443.173L178.397 398.566L180.731 452.628M142.504 442.944L182.182 441.231M178.847 442.751L181.634 439.797M158.822 436.491L160.762 436.407L158.502 440.31M163.186 436.303L161.812 436.362L161.317 438.003L161.471 437.834L161.949 437.651L162.353 437.634L162.683 437.782L162.94 438.094L162.964 438.66L162.82 439.071L162.598 439.566L162.212 439.988L161.815 440.167L161.411 440.184L161 440.04L160.912 439.882L160.894 439.478M165.797 436.757L165.698 436.356L165.368 436.208L165.045 436.222L164.648 436.401L164.268 436.985L163.902 437.891L163.698 438.79M163.698 438.79L163.649 439.521L163.828 439.918L164.239 440.062L164.401 440.055L164.798 439.876L165.184 439.455L165.406 438.959L165.476 438.714L165.455 438.229L165.276 437.832L164.865 437.687L164.784 437.691L164.307 437.874L163.92 438.295L163.698 438.79ZM70.5823 447.911L68.6565 403.304L70.9905 457.366M108.321 444.42L68.6435 446.133M71.8939 444.535L69.1068 447.489M84.9619 439.68L86.9013 439.596L84.641 443.499M89.3256 439.492L87.9518 439.551L87.4559 441.191L87.6106 441.023L88.0885 440.84L88.4925 440.823L88.9035 440.967L89.0791 441.283L89.1035 441.849L88.9594 442.26L88.7379 442.755L88.3513 443.177L87.9542 443.356L87.5501 443.373L87.1391 443.229L87.0513 443.071L87.0339 442.667M91.936 439.946L91.8377 439.545L91.5075 439.397L91.1842 439.411L90.7872 439.59L90.4075 440.173L90.0419 441.08L89.8378 441.979M89.8378 441.979L89.7884 442.71L89.9675 443.107L90.3785 443.251L90.5401 443.244L90.9372 443.065L91.3238 442.644L91.5453 442.148L91.6156 441.902L91.5947 441.418L91.4156 441.021L91.0046 440.876L90.9238 440.88L90.4459 441.062L90.1401 441.48L89.8378 441.979ZM69.0517 455.587L182.59 450.686M72.3021 453.99L69.515 456.944M179.255 452.206L182.042 449.252M121.373 448.552L121.443 448.306L121.671 447.972L121.826 447.804L122.139 447.547L122.704 447.523L122.957 447.755L123.045 447.913L123.059 448.236L122.996 448.644L122.767 448.977L122.388 449.561L120.606 451.419L122.545 451.335M124.482 447.446L125.937 447.383L124.787 448.89L125.192 448.873L125.444 449.105L125.532 449.263L125.553 449.748L125.49 450.155L125.191 450.735L124.882 451.072L124.404 451.255L124 451.272L123.67 451.124L123.582 450.966L123.483 450.566M126.696 448.079L127.012 447.904L127.553 447.314L126.747 451.153M128.969 448.224L129.039 447.978L129.267 447.644L129.422 447.476L129.735 447.219L130.301 447.195L130.553 447.427L130.641 447.585L130.655 447.908L130.592 448.316L130.363 448.649L129.984 449.233L128.202 451.091L130.141 451.007M97.4863 304.096L92.7185 304.302M101.586 399.048L96.8179 399.254M94.5777 302.36L98.8411 401.11M96.0945 305.614L93.144 302.908M97.24 397.779L100.194 400.566M92.0527 356.389L91.8876 356.315L91.5538 356.087L91.3044 355.935L91.1289 355.619L91.1044 355.053L91.2591 354.885L91.498 354.794L91.8178 354.699L92.1445 354.766L92.559 354.991L93.1421 355.37L95.0002 357.152L94.92 355.294M100.193 301.146L99.9518 295.57M138.173 299.506L137.933 293.93M98.1769 297.59L139.956 295.786M101.427 295.992L98.7245 299.023M136.625 297.387L139.408 294.352M214.446 312.81L217.677 387.64L214.568 315.638M183.737 389.106L180.897 323.326L184.236 400.662M219.455 385.702L181.717 387.331M216.205 387.299L218.908 384.268M184.967 385.733L182.265 388.765M197.308 380.909L199.247 380.826L196.987 384.729M199.845 381.529L200.161 381.353L200.702 380.763L199.896 384.603M203.854 380.627L202.48 380.686L201.987 382.408L202.139 382.158L202.617 381.976L203.021 381.958L203.351 382.106L203.53 382.503L203.554 383.069L203.487 383.395L203.269 383.972L202.879 384.312L202.401 384.495L201.997 384.512L201.667 384.365L201.579 384.206L201.485 383.887M252.953 313.981L256.062 385.983L252.831 311.153M215.657 385.866L257.921 384.041M254.671 385.638L257.373 382.607M236.29 379.955L236.606 379.78L237.147 379.189L236.261 383.033M317.981 299.353L321.599 383.154M254.123 384.205L323.377 381.215M320.127 382.812L322.91 379.778M283.968 377.897L284.284 377.721L284.745 377.134L283.939 380.974M286.523 377.058L288.058 376.991L286.909 378.498L287.313 378.481L287.566 378.713L287.653 378.871L287.678 379.437L287.53 379.767L287.312 380.343L286.922 380.684L286.525 380.863L286.121 380.88L285.71 380.736L285.622 380.578L285.608 380.255M327.256 382.909L323.638 299.109L326.827 372.97M319.579 381.379L327.175 381.051L340.671 380.468M325.864 382.565L328.567 379.533M331.889 375.828L332.205 375.652L332.746 375.062L331.86 378.905M334.162 375.972L334.151 375.73L334.38 375.396L334.615 375.224L334.928 374.968L335.413 374.947L335.666 375.179L335.753 375.337L335.848 375.657L335.704 376.068L335.556 376.398L335.096 376.985L333.395 378.839L335.254 378.759M479.179 376.35L475.561 292.55L478.75 366.411M325.317 381.131L481.038 374.408M477.707 376.009L480.491 372.974M398.768 372.212L400.223 372.149L399.073 373.656L399.477 373.638L399.73 373.87L399.818 374.028L399.842 374.594L399.776 374.921L399.477 375.5L399.167 375.838L398.69 376.02L398.286 376.038L397.955 375.89L397.868 375.732L397.773 375.412M401.073 373.084L401.143 372.838L401.371 372.504L401.526 372.335L401.839 372.079L402.405 372.055L402.657 372.287L402.745 372.445L402.759 372.768L402.696 373.175L402.467 373.509L402.088 374.092L400.306 375.95L402.245 375.867M476.091 304.833L479.678 387.906M481.534 385.883L182.212 398.806M478.202 387.484L480.986 384.449M185.463 397.208L182.76 400.24M328.579 387.305L328.565 386.982L328.154 386.838L327.911 386.848L327.434 387.031L327.05 387.533L326.769 388.517L326.565 389.416M326.565 389.416L326.516 390.147L326.691 390.463L327.025 390.692L327.187 390.685L327.661 390.421L327.97 390.084L328.269 389.504L328.262 389.343L328.238 388.777L328.062 388.461L327.728 388.232L327.567 388.239L327.173 388.499L326.783 388.84L326.565 389.416ZM329.728 387.66L329.798 387.414L330.027 387.081L330.181 386.912L330.497 386.737L331.063 386.712L331.232 386.867L331.319 387.025L331.414 387.345L331.351 387.752L331.122 388.086L330.743 388.669L328.964 390.608L330.823 390.528M332.475 387.542L332.465 387.299L332.693 386.966L332.929 386.794L333.164 386.621L333.73 386.597L333.979 386.748L334.067 386.906L334.081 387.23L334.018 387.637L333.789 387.971L333.41 388.554L331.631 390.493L333.571 390.409M336.881 386.461L335.508 386.52L335.012 388.161L335.163 387.911L335.641 387.729L336.045 387.711L336.375 387.859L336.554 388.256L336.579 388.822L336.512 389.149L336.294 389.725L335.904 390.065L335.429 390.329L335.025 390.346L334.691 390.118L334.604 389.96L334.509 389.64M330.221 372.823L326.885 295.569L329.784 362.722M475.437 366.554L472.101 289.299L475.001 356.452M328.201 371.048L477.215 364.615M331.451 369.451L328.745 372.401M473.961 366.132L476.748 363.178M398.339 362.272L399.794 362.209L398.644 363.716L399.048 363.699L399.298 363.85L399.389 364.089L399.41 364.574L399.346 364.981L399.044 365.48L398.738 365.898L398.26 366.08L397.856 366.098L397.526 365.95L397.438 365.792L397.34 365.392M404.99 362.552L404.892 362.151L404.561 362.003L404.238 362.017L403.841 362.196L403.461 362.779L403.096 363.686L402.895 364.666M402.895 364.666L402.842 365.316L403.021 365.713L403.432 365.857L403.594 365.85L403.991 365.671L404.378 365.25L404.599 364.754L404.673 364.589L404.649 364.024L404.469 363.626L404.058 363.482L403.978 363.486L403.5 363.668L403.113 364.09L402.895 364.666ZM326.746 371.111L323.918 371.233M330.14 370.965L344.363 370.351M325.432 372.544L328.138 369.594M337.893 364.882L339.832 364.798L337.653 368.697M478.67 364.552L481.498 364.43M475.356 364.695L461.134 365.309M480.061 363.035L477.274 365.989M463.23 359.47L465.088 359.39L462.909 363.289M389.998 292.844L392.897 359.997M427.979 291.204L430.878 358.357M390.878 358.222L432.657 356.418M394.128 356.625L391.425 359.656M429.406 358.016L432.109 354.985M428.858 356.582L476.779 354.513M473.529 356.111L476.312 353.076M450.97 351.175L450.671 351.755L450.362 352.092L449.888 352.355L449.726 352.362L449.392 352.134L449.217 351.817L449.192 351.252L449.185 351.09L449.484 350.51L449.793 350.173L450.268 349.91L450.429 349.903L450.763 350.131L450.939 350.448L450.97 351.175ZM450.97 351.175L450.766 352.074L450.404 353.061L450.021 353.564L449.543 353.746L449.301 353.757L448.889 353.613L448.876 353.289M452.45 349.816L453.904 349.753L452.836 351.256L453.24 351.239L453.412 351.474L453.5 351.632L453.524 352.198L453.457 352.525L453.239 353.101L452.849 353.442L452.371 353.624L451.967 353.642L451.637 353.494L451.549 353.336L451.454 353.016M366.24 293.869L369.139 361.023M394.676 358.058L367.2 359.244M370.451 357.647L367.667 360.682M379.236 352.977L377.862 353.036L377.369 354.757L377.521 354.508L377.998 354.325L378.403 354.308L378.733 354.456L378.993 354.849L378.936 355.418L378.869 355.745L378.651 356.321L378.261 356.662L377.864 356.841L377.46 356.858L377.049 356.714L376.961 356.556L376.947 356.233M337.795 295.098L340.694 362.251M370.998 359.08L338.674 360.476M341.925 358.878L339.222 361.91M352.916 354.68L352.902 354.356L352.568 354.128L352.245 354.142L351.851 354.402L351.387 354.908L351.106 355.891L350.902 356.791M350.902 356.791L350.853 357.521L351.028 357.838L351.439 357.982L351.52 357.978L351.998 357.796L352.307 357.459L352.606 356.879L352.68 356.714L352.655 356.148L352.48 355.832L352.065 355.607L351.904 355.614L351.51 355.874L351.12 356.214L350.902 356.791ZM342.472 360.312L327.765 360.947M331.015 359.349L328.312 362.381M331.842 355.994L331.831 355.752L332.06 355.418L332.295 355.246L332.527 354.993L333.093 354.969L333.346 355.201L333.434 355.359L333.528 355.679L333.384 356.09L333.156 356.423L332.776 357.006L330.994 358.865L332.934 358.781M334.871 354.892L336.325 354.829L335.257 356.333L335.661 356.315L335.833 356.551L335.921 356.709L335.945 357.274L335.878 357.601L335.66 358.177L335.27 358.518L334.792 358.701L334.388 358.718L334.058 358.57L333.97 358.412L333.876 358.092M169.236 252.017L162.933 252.289M170.876 289.998L164.573 290.27M164.711 250.351L166.515 292.129M166.309 253.601L163.278 250.898M164.917 288.879L167.949 291.582M312.979 249.131L290.999 250.08M315.027 296.566L293.047 297.515M292.854 248.056L295.07 299.371M294.375 251.391L291.421 248.604M293.472 296.121L296.423 298.827M289.152 278.577L288.977 278.26L288.387 277.719L292.227 278.525M316.43 210.93L289.359 212.099L315.784 210.958M293.018 251.855L291.218 210.156M292.735 213.41L289.781 210.623M309.699 173.169L287.719 174.118M291.378 213.874L289.578 172.176M291.095 175.43L288.141 172.642M225.524 128.712L172.189 131.015L195.947 129.989M227.369 171.461L174.035 173.764M173.967 129.076L175.973 175.542M175.565 132.327L172.614 129.62M174.457 172.288L177.411 175.075M170.601 154.239L171.177 154.457L171.598 154.843L171.778 155.24L171.785 155.402L171.637 155.732L171.243 155.992L170.678 156.016L170.512 155.943L170.014 155.64L169.596 155.334L169.413 154.857L169.41 154.776L169.554 154.365L169.951 154.186L170.601 154.239ZM170.601 154.239L171.581 154.439L172.484 154.724L173.071 155.184L173.25 155.581L173.264 155.905L173.116 156.235L172.712 156.252M222.754 64.5491L169.419 66.8518M174.131 132.874L171.194 64.8321M172.791 68.0825L169.841 65.3762M167.935 103.753L167.76 103.437L167.17 102.896L171.013 103.782M167.096 101.198L167.03 99.6631L168.537 100.812L168.52 100.408L168.671 100.159L168.829 100.071L169.395 100.047L169.721 100.114L170.301 100.412L170.719 100.718L170.902 101.196L170.919 101.6L170.771 101.93L170.536 102.102L170.213 102.116M166.919 97.0772L166.978 98.4509L168.618 98.9468L168.45 98.7922L168.187 98.3178L168.169 97.9137L168.398 97.58L168.71 97.3236L169.279 97.38L169.606 97.4469L170.182 97.6649L170.604 98.0515L170.783 98.4486L170.8 98.8526L170.656 99.2637L170.417 99.3549L170.094 99.3689M166.859 95.7034L166.796 94.2488L168.303 95.3982L168.286 94.9941L168.437 94.7447L168.595 94.6569L169.161 94.6325L169.488 94.6993L170.067 94.9982L170.485 95.304L170.668 95.7818L170.685 96.1859L170.538 96.5161L170.299 96.6074L169.979 96.7022M233.026 171.217L244.016 170.742M234.666 209.198L245.656 208.723M241.993 168.887L243.797 210.666M243.594 172.218L240.64 169.431M242.28 207.412L245.231 210.118M225.456 61.5178L223.946 26.5269M307.56 57.973L306.049 22.9822M222.086 28.4693L307.988 24.7606M225.34 26.9525L222.634 29.9029M304.737 26.3582L307.524 23.4042M260.258 21.8826L260.575 21.7071L261.116 21.117L260.229 24.9604M262.571 21.0542L264.51 20.9704L262.25 24.8732M265.561 20.9251L267.015 20.8623L265.947 22.3657L266.351 22.3483L266.519 22.5029L266.607 22.661L266.631 23.2267L266.565 23.5534L266.347 24.1296L265.96 24.5511L265.482 24.7336L265.078 24.7511L264.748 24.6034L264.657 24.3645L264.562 24.0447M313.216 57.7288L311.706 22.738M313.725 24.5129L306.129 24.8408L292.715 25.42M310.475 26.1105L313.181 23.16M294.522 20.4033L294.838 20.2278L295.38 19.6377L294.493 23.4811M296.792 20.4673L296.785 20.3056L297.01 19.8911L297.245 19.719L297.561 19.5435L298.046 19.5225L298.296 19.6737L298.383 19.8318L298.482 20.2324L298.334 20.5626L298.19 20.9736L297.726 21.4794L296.028 23.4148L297.887 23.3346M465.14 51.1696L463.629 16.1788M309.927 24.6768L465.649 17.9537M462.317 19.5548L465.104 16.6008M383.382 15.8382L384.836 15.7754L383.687 17.2823L384.091 17.2649L384.341 17.416L384.428 17.5742L384.453 18.1399L384.386 18.4666L384.087 19.0462L383.781 19.4642L383.303 19.6468L382.899 19.6642L382.569 19.5165L382.478 19.2776L382.383 18.9579M385.683 16.6294L385.757 16.4643L385.982 16.0498L386.136 15.8812L386.453 15.7056L387.018 15.6812L387.268 15.8324L387.356 15.9905L387.373 16.3946L387.306 16.7213L387.081 17.1358L386.698 17.6381L384.92 19.577L386.859 19.4933M316.753 60.8955L315.494 31.723L316.781 61.542M461.969 54.6259L460.71 25.4534L462.032 56.0805M313.635 33.6654L462.649 27.2318M316.885 32.0677L314.182 35.099M459.398 28.8294L462.182 25.7946M383.776 24.9698L385.231 24.907L384.078 26.3331L384.482 26.3156L384.735 26.5476L384.823 26.7057L384.847 27.2714L384.78 27.5981L384.481 28.1778L384.172 28.515L383.698 28.7783L383.294 28.7958L382.96 28.5673L382.872 28.4092L382.777 28.0894M390.424 25.1686L390.329 24.8488L389.999 24.7011L389.675 24.7151L389.278 24.8942L388.899 25.4773L388.533 26.3836L388.329 27.283M388.329 27.283L388.279 28.0138L388.455 28.3301L388.87 28.555L389.031 28.5481L389.425 28.2882L389.815 27.9475L390.033 27.3714L390.107 27.2063L390.082 26.6406L389.907 26.3243L389.492 26.0993L389.411 26.1028L388.937 26.3662L388.547 26.7069L388.329 27.283ZM465.345 55.9374L464.023 25.3103M464.103 27.169L466.932 27.0469M460.79 27.312L446.568 27.9261M465.495 25.6516L462.712 28.6864M448.667 22.1682L450.525 22.0879L448.346 25.9872M313.387 61.6885L312.1 31.8695M312.18 33.7282L309.352 33.8503M315.574 33.5816L329.797 32.9676M310.869 35.2421L313.572 32.2108M323.33 27.5795L325.27 27.4958L323.09 31.395M500.157 55.8918L464.923 57.413L511.632 55.3964M466.971 104.849L502.205 103.327M498.133 54.0361L500.349 105.351M499.731 57.2865L496.781 54.5803M498.829 102.016L501.783 104.803M494.509 84.472L494.333 84.1557L493.747 83.6952L497.587 84.501M469.532 164.163L504.766 162.642M500.185 101.553L502.91 164.665M501.393 161.411L504.343 164.118M496.815 137.888L496.64 137.571L496.049 137.03L499.893 137.917M496.879 135.618L496.717 135.625L496.303 135.4L496.131 135.164L495.959 134.929L495.934 134.363L496.085 134.114L496.244 134.026L496.644 133.928L496.974 134.076L497.389 134.301L497.972 134.68L499.827 136.381L499.746 134.523M495.798 131.212L495.858 132.585L497.498 133.081L497.33 132.927L497.147 132.449L497.13 132.045L497.277 131.715L497.593 131.539L498.159 131.515L498.486 131.581L499.062 131.799L499.484 132.186L499.666 132.664L499.684 133.068L499.536 133.398L499.297 133.489L498.977 133.584M507.316 221.715L493.417 222.315L505.861 221.777M502.746 160.867L505.457 223.657M503.94 220.403L506.894 223.19M499.365 196.96L499.19 196.644L498.6 196.102L502.443 196.989M499.429 194.69L499.268 194.697L498.853 194.472L498.685 194.318L498.509 194.001L498.485 193.436L498.636 193.186L498.794 193.098L499.198 193.081L499.525 193.148L499.939 193.373L500.522 193.752L502.38 195.534L502.297 193.595M502.203 191.413L498.363 190.607L500.955 192.519L500.868 190.499M502.087 188.746L498.244 187.86L500.836 189.772L500.749 187.752M495.465 269.75L507.909 269.213L498.374 269.625M503.919 219.918L506.134 271.233M505.439 223.253L502.485 220.466M504.537 267.982L507.487 270.688M500.217 250.438L500.042 250.122L499.451 249.581L503.291 250.387M508.586 284.89L474.807 286.349L521.516 284.332M505.97 267.435L506.811 286.91M505.214 283.659L508.164 286.366M500.774 280.208L500.711 278.753L502.214 279.822L502.197 279.418L502.352 279.249L502.59 279.158L503.075 279.137L503.483 279.2L504.059 279.418L504.4 279.808L504.582 280.286L504.6 280.69L504.452 281.021L504.294 281.108L503.893 281.207M500.655 277.46L500.592 276.006L502.099 277.155L502.082 276.751L502.233 276.502L502.472 276.41L502.957 276.389L503.364 276.453L503.944 276.752L504.281 277.061L504.464 277.539L504.481 277.943L504.333 278.273L504.179 278.442L503.775 278.459M519.741 286.352L509.689 53.5372M518.143 283.101L521.094 285.807M511.206 56.7911L508.256 54.0848M512.952 174.109L509.108 173.222L511.701 175.135L511.614 173.114M509.826 169.224L509.665 169.231L509.331 169.003L509.078 168.771L508.903 168.455L508.882 167.97L509.033 167.72L509.272 167.629L509.592 167.534L510.003 167.679L510.333 167.826L510.919 168.287L512.774 169.988L512.694 168.129M512.599 165.947L508.756 165.061L511.352 167.054L511.261 164.952M511.489 52.0831L468.094 53.9567L525.55 51.4761M509.773 55.4766L509.895 58.305M509.63 52.1634L509.012 37.86M508.113 50.7716L511.063 53.4779M503.544 44.3301L503.46 42.3906L507.363 44.651M535.72 287.038L478.264 289.519L521.659 287.645M523.526 49.6204L533.864 289.061M525.124 52.8708L522.174 50.1645M532.347 285.807L535.298 288.514M527.013 173.502L523.169 172.615L525.762 174.528L525.675 172.507M524.344 169.812L524.839 170.034L525.261 170.42L525.44 170.817L525.447 170.979L525.302 171.39L524.905 171.569L524.421 171.59L524.175 171.52L523.679 171.298L523.258 170.911L523.075 170.434L523.072 170.353L523.216 169.942L523.613 169.763L524.344 169.812ZM524.344 169.812L525.243 170.016L526.146 170.301L526.733 170.761L526.912 171.158L526.926 171.482L526.778 171.812L526.377 171.91M523.494 167.015L523.094 167.113L522.946 167.444L522.96 167.767L523.139 168.164L523.726 168.624L524.629 168.909L525.528 169.113M525.528 169.113L526.259 169.163L526.656 168.984L526.8 168.573L526.797 168.492L526.614 168.014L526.193 167.627L525.697 167.406L525.451 167.335L524.966 167.356L524.569 167.535L524.425 167.946L524.432 168.108L524.611 168.505L525.033 168.892L525.528 169.113ZM526.66 165.34L522.817 164.454L525.413 166.446L525.322 164.345M519.8 287.725L519.926 290.635M519.657 284.412L519.043 270.19M521.237 289.121L518.286 286.414M513.571 276.579L513.491 274.72L517.39 276.9M426.586 193.301L437.899 192.813M430.685 288.253L441.999 287.765M435.96 191.035L440.224 289.785M437.477 194.288L434.526 191.582M438.626 286.534L441.576 289.241M433.435 245.064L433.27 244.99L432.936 244.761L432.687 244.61L432.511 244.294L432.487 243.728L432.642 243.56L432.881 243.468L433.2 243.373L433.608 243.437L433.942 243.665L434.525 244.045L436.383 245.827L436.302 243.968M423.635 190.595L423.339 183.726M385.654 192.235L385.358 185.366M425.277 185.505L383.499 187.308M422.027 187.102L424.733 184.152M386.752 185.792L384.046 188.742M438.303 168.426L438.792 179.74M466.829 167.195L467.318 178.508M436.85 177.88L469.093 176.488M440.103 176.364L437.397 179.314M465.842 178.086L468.629 175.132M451.095 172.165L451.077 171.761L450.666 171.617L450.424 171.627L449.946 171.81L449.566 172.393L449.281 173.296L449.077 174.195M449.077 174.195L449.028 174.926L449.207 175.323L449.537 175.471L449.699 175.464L450.177 175.281L450.483 174.863L450.781 174.283L450.774 174.122L450.831 173.553L450.574 173.24L450.244 173.092L450.083 173.099L449.686 173.278L449.295 173.619L449.077 174.195ZM350.059 172.236L350.547 183.55M321.613 173.464L322.102 184.778M352.322 181.53L320.079 182.922M349.072 183.128L351.859 180.174M323.333 181.405L320.626 184.356M334.324 177.206L334.306 176.802L333.895 176.658L333.653 176.669L333.175 176.851L332.795 177.434L332.511 178.337L332.307 179.237M332.307 179.237L332.257 179.967L332.436 180.364L332.766 180.512L332.928 180.505L333.406 180.323L333.712 179.905L334.011 179.325L334.004 179.163L334.06 178.594L333.804 178.281L333.473 178.134L333.312 178.141L332.915 178.32L332.525 178.66L332.307 179.237ZM348.524 181.694L440.648 177.716M389.767 174.975L390.083 174.799L390.624 174.209L389.738 178.052M396.305 174.53L396.288 174.126L395.877 173.982L395.634 173.993L395.157 174.175L394.777 174.758L394.492 175.661L394.288 176.561M394.288 176.561L394.239 177.291L394.418 177.688L394.829 177.833L394.91 177.829L395.387 177.647L395.693 177.229L395.992 176.649L395.985 176.487L396.041 175.918L395.785 175.605L395.455 175.458L395.293 175.465L394.896 175.644L394.506 175.984L394.288 176.561ZM471.071 188.547L470.774 181.678M421.479 185.669L472.794 183.453M469.463 185.054L472.25 182.1M442.277 179.832L442.593 179.657L443.135 179.066L442.329 182.906M225.212 55.8611L223.523 16.7489M464.895 45.5129L463.207 6.40073M221.668 18.7721L465.23 8.25645M224.918 17.1744L222.212 20.1249M461.895 9.77676L464.682 6.8228M340.373 7.89884L338.999 7.95815L338.503 9.59878L338.658 9.43018L339.136 9.24762L339.54 9.23018L339.951 9.37436L340.13 9.77143L340.151 10.2563L340.006 10.6673L339.788 11.2435L339.398 11.5841L339.001 11.7632L338.597 11.7807L338.186 11.6365L338.098 11.4783L338.081 11.0743M345.787 7.66508L344.413 7.72439L343.917 9.36502L344.153 9.19293L344.55 9.01387L344.954 8.99642L345.365 9.1406L345.544 9.53767L345.565 10.0225L345.502 10.4301L345.203 11.0097L344.893 11.3469L344.416 11.5295L344.012 11.5469L343.601 11.4027L343.513 11.2446L343.495 10.8405M29.4006 392.288L29.5831 392.766L30.1662 393.145L31.0726 393.511L31.6418 393.567L32.5376 393.691L33.0963 393.505L33.244 393.174L33.2301 392.851L33.051 392.454L32.4679 392.074L31.5615 391.709L30.9889 391.572L30.0965 391.529L29.5343 391.634L29.3901 392.045L29.4006 392.288ZM29.2854 389.621L29.4645 390.018L30.0476 390.398L30.954 390.763L31.5266 390.901L32.419 390.943L32.9812 390.838L33.1254 390.427L33.1149 390.184L32.9324 389.706L32.3492 389.327L31.4429 388.961L30.8702 388.824L29.9778 388.782L29.4191 388.968L29.2715 389.298L29.2854 389.621ZM22.4437 231.152L22.6262 231.63L23.2093 232.01L24.1157 232.375L24.6883 232.512L25.5807 232.555L26.1394 232.369L26.2871 232.039L26.2766 231.796L26.0941 231.318L25.511 230.939L24.6046 230.573L24.0319 230.436L23.1395 230.393L22.5809 230.579L22.4332 230.91L22.4437 231.152ZM22.3285 228.485L22.5111 228.963L23.0942 229.343L23.9971 229.628L24.5697 229.765L25.4621 229.807L26.0243 229.702L26.1685 229.291L26.158 229.049L25.9754 228.571L25.3923 228.191L24.4895 227.906L23.9168 227.769L23.0244 227.727L22.4622 227.832L22.3181 228.243L22.3285 228.485ZM22.2099 225.738L22.3924 226.216L22.9756 226.595L23.8819 226.961L24.4546 227.098L25.347 227.141L25.9057 226.955L26.0533 226.624L26.0429 226.382L25.8603 225.904L25.2772 225.524L24.3708 225.159L23.7982 225.022L22.9058 224.979L22.3471 225.165L22.1994 225.495L22.2099 225.738ZM68.8929 180.003L68.415 180.186L68.0353 180.769L67.7505 181.672L67.6133 182.245L67.5709 183.137L67.6726 183.618L68.0871 183.843L68.3295 183.833L68.7231 183.573L69.1871 183.067L69.4719 182.164L69.6091 181.592L69.6515 180.699L69.5463 180.137L69.1353 179.993L68.8929 180.003ZM71.6404 179.885L71.1625 180.067L70.7829 180.65L70.4172 181.557L70.28 182.129L70.2376 183.022L70.4201 183.5L70.7539 183.728L70.9963 183.718L71.4707 183.454L71.8538 182.952L72.2195 182.046L72.3567 181.473L72.3991 180.581L72.2131 180.022L71.8828 179.874L71.6404 179.885ZM159.643 176.085L159.246 176.264L158.785 176.851L158.5 177.754L158.363 178.326L158.321 179.219L158.423 179.7L158.837 179.925L159.079 179.915L159.554 179.651L159.937 179.149L160.222 178.246L160.359 177.674L160.482 176.778L160.296 176.219L159.966 176.071L159.643 176.085ZM162.39 175.967L161.912 176.149L161.533 176.732L161.167 177.639L161.03 178.211L160.988 179.104L161.17 179.582L161.504 179.81L161.827 179.796L162.221 179.536L162.604 179.034L162.969 178.128L163.107 177.555L163.149 176.663L163.044 176.1L162.633 175.956L162.39 175.967ZM122.7 438.051L122.303 438.23L122.078 438.644L122.011 438.971L122.029 439.375L122.278 439.526L122.77 439.667L123.1 439.814L123.36 440.208L123.374 440.531L123.237 441.104L123.012 441.518L122.857 441.687L122.379 441.87L121.895 441.891L121.483 441.746L121.396 441.588L121.378 441.184L121.515 440.612L121.663 440.281L122.05 439.86L122.528 439.677L123.086 439.491L123.403 439.316L123.628 438.901L123.694 438.574L123.596 438.174L123.266 438.026L122.7 438.051ZM125.609 437.925L125.132 438.108L124.752 438.691L124.386 439.597L124.249 440.17L124.207 441.062L124.393 441.621L124.723 441.768L124.965 441.758L125.443 441.575L125.823 440.992L126.188 440.086L126.326 439.513L126.368 438.621L126.182 438.062L125.852 437.915L125.609 437.925ZM128.276 437.81L127.798 437.992L127.419 438.576L127.134 439.478L126.997 440.051L126.954 440.943L127.059 441.506L127.47 441.65L127.713 441.639L128.11 441.46L128.57 440.874L128.855 439.971L128.992 439.398L129.035 438.506L128.93 437.944L128.519 437.799L128.276 437.81ZM91.0067 352.791L91.1893 353.269L91.7724 353.648L92.6753 353.933L93.2479 354.07L94.1403 354.113L94.7025 354.008L94.8467 353.597L94.8362 353.354L94.6537 352.876L94.0706 352.497L93.1677 352.212L92.595 352.074L91.7026 352.032L91.1405 352.137L90.9963 352.548L91.0067 352.791ZM90.8881 350.043L91.0707 350.521L91.6538 350.901L92.5602 351.266L93.1328 351.404L94.0252 351.446L94.5839 351.26L94.7316 350.93L94.7211 350.687L94.5385 350.209L93.9554 349.83L93.0491 349.464L92.4764 349.327L91.584 349.285L91.0253 349.471L90.8777 349.801L90.8881 350.043ZM90.773 347.376L90.9521 347.774L91.5387 348.234L92.4415 348.519L93.0142 348.656L93.9066 348.698L94.4688 348.593L94.6129 348.182L94.6025 347.94L94.4199 347.462L93.8368 347.082L92.9339 346.797L92.3613 346.66L91.4654 346.537L90.9067 346.723L90.759 347.053L90.773 347.376ZM116.354 291.057L115.96 291.317L115.732 291.65L115.668 292.058L115.682 292.381L115.932 292.532L116.427 292.754L116.757 292.901L117.014 293.214L117.031 293.618L116.891 294.11L116.666 294.525L116.511 294.693L116.033 294.876L115.548 294.897L115.137 294.752L115.049 294.594L115.032 294.19L115.173 293.698L115.317 293.287L115.707 292.947L116.185 292.764L116.74 292.497L117.056 292.322L117.285 291.988L117.348 291.58L117.253 291.261L116.92 291.032L116.354 291.057ZM119.263 290.931L118.789 291.194L118.406 291.697L118.043 292.684L117.903 293.176L117.86 294.068L118.046 294.627L118.377 294.775L118.619 294.764L119.097 294.581L119.476 293.998L119.842 293.092L119.983 292.6L120.022 291.627L119.839 291.149L119.506 290.921L119.263 290.931ZM121.93 290.816L121.455 291.079L121.072 291.582L120.791 292.565L120.65 293.057L120.608 293.95L120.713 294.512L121.124 294.656L121.366 294.645L121.764 294.466L122.224 293.88L122.509 292.977L122.65 292.485L122.689 291.512L122.587 291.03L122.172 290.805L121.93 290.816ZM234.4 379.308L233.926 379.571L233.778 379.902L233.634 380.313L233.728 380.632L233.978 380.784L234.473 381.005L234.803 381.153L234.979 381.469L235.077 381.87L234.94 382.442L234.712 382.776L234.557 382.945L234.079 383.127L233.513 383.152L233.183 383.004L233.095 382.846L233.001 382.526L233.138 381.953L233.363 381.539L233.753 381.198L234.15 381.019L234.786 380.749L235.102 380.573L235.25 380.243L235.394 379.832L235.299 379.512L234.966 379.284L234.4 379.308ZM239.41 379.092L238.936 379.355L238.553 379.857L238.271 380.841L238.131 381.333L238.092 382.306L238.193 382.788L238.604 382.932L238.847 382.921L239.325 382.739L239.708 382.236L239.989 381.253L240.13 380.761L240.169 379.788L240.067 379.306L239.653 379.081L239.41 379.092ZM289.674 376.922L289.2 377.185L288.971 377.519L288.908 377.926L289.003 378.246L289.171 378.401L289.667 378.622L290.078 378.766L290.253 379.083L290.351 379.483L290.214 380.056L289.986 380.39L289.831 380.558L289.353 380.741L288.788 380.765L288.457 380.617L288.37 380.459L288.275 380.14L288.412 379.567L288.637 379.152L288.946 378.815L289.424 378.633L289.979 378.366L290.296 378.19L290.524 377.856L290.588 377.449L290.574 377.126L290.24 376.897L289.674 376.922ZM292.503 376.8L292.028 377.063L291.645 377.565L291.364 378.549L291.223 379.041L291.103 380.017L291.286 380.495L291.616 380.643L291.939 380.629L292.336 380.45L292.8 379.944L293.082 378.96L293.222 378.469L293.261 377.495L293.159 377.014L292.745 376.789L292.503 376.8ZM337.756 374.846L337.282 375.109L336.899 375.611L336.537 376.599L336.477 377.087L336.357 378.064L336.54 378.542L336.87 378.689L337.193 378.675L337.59 378.496L337.973 377.994L338.335 377.007L338.476 376.515L338.515 375.542L338.413 375.06L337.999 374.835L337.756 374.846ZM404.667 371.957L404.274 372.217L403.891 372.719L403.528 373.706L403.388 374.198L403.349 375.171L403.45 375.653L403.861 375.797L404.104 375.786L404.582 375.604L404.965 375.102L405.327 374.114L405.387 373.626L405.507 372.649L405.324 372.171L404.99 371.943L404.667 371.957ZM407.415 371.838L406.94 372.102L406.557 372.604L406.276 373.588L406.135 374.079L406.015 375.056L406.198 375.534L406.528 375.682L406.851 375.668L407.249 375.489L407.712 374.983L407.994 373.999L408.135 373.507L408.173 372.534L408.072 372.053L407.657 371.828L407.415 371.838ZM401.571 362.132L401.093 362.315L400.714 362.898L400.348 363.804L400.292 364.374L400.169 365.269L400.355 365.828L400.685 365.976L401.008 365.962L401.405 365.783L401.785 365.2L402.15 364.293L402.288 363.721L402.33 362.828L402.225 362.266L401.814 362.122L401.571 362.132ZM406.986 361.899L406.508 362.081L406.128 362.664L405.843 363.567L405.706 364.14L405.583 365.036L405.769 365.594L406.099 365.742L406.422 365.728L406.819 365.549L407.28 364.962L407.565 364.06L407.702 363.487L407.744 362.595L407.639 362.032L407.228 361.888L406.986 361.899ZM341.448 364.728L340.971 364.911L340.591 365.494L340.306 366.397L340.169 366.969L340.046 367.865L340.232 368.424L340.562 368.572L340.885 368.558L341.282 368.379L341.743 367.792L342.028 366.889L342.165 366.316L342.207 365.424L342.102 364.862L341.691 364.718L341.448 364.728ZM466.785 359.317L466.307 359.499L465.928 360.082L465.562 360.989L465.425 361.562L465.382 362.454L465.568 363.013L465.899 363.16L466.141 363.15L466.619 362.967L466.999 362.384L467.364 361.478L467.501 360.905L467.544 360.013L467.358 359.454L467.028 359.306L466.785 359.317ZM409.135 351.686L408.661 351.949L408.433 352.283L408.369 352.69L408.464 353.01L408.633 353.165L409.209 353.383L409.539 353.53L409.715 353.847L409.813 354.247L409.676 354.82L409.447 355.154L409.292 355.322L408.815 355.505L408.249 355.529L407.919 355.381L407.831 355.223L407.736 354.904L407.873 354.331L408.098 353.916L408.488 353.576L408.885 353.397L409.441 353.13L409.757 352.954L409.985 352.621L410.13 352.209L410.035 351.89L409.701 351.661L409.135 351.686ZM411.964 351.564L411.57 351.823L411.106 352.329L410.825 353.313L410.684 353.805L410.645 354.778L410.747 355.259L411.158 355.404L411.4 355.393L411.878 355.211L412.261 354.708L412.543 353.725L412.684 353.233L412.722 352.259L412.621 351.778L412.287 351.55L411.964 351.564ZM414.711 351.445L414.237 351.708L413.854 352.211L413.492 353.198L413.351 353.69L413.312 354.663L413.495 355.141L413.825 355.288L414.067 355.278L414.545 355.095L414.928 354.593L415.29 353.606L415.431 353.114L415.47 352.141L415.368 351.659L414.954 351.434L414.711 351.445ZM455.682 349.676L455.289 349.936L454.825 350.442L454.543 351.425L454.403 351.917L454.364 352.89L454.465 353.372L454.876 353.516L455.119 353.506L455.597 353.323L455.98 352.821L456.261 351.837L456.402 351.345L456.522 350.368L456.339 349.891L456.005 349.662L455.682 349.676ZM381.094 352.896L380.701 353.156L380.318 353.659L379.955 354.646L379.815 355.138L379.776 356.111L379.877 356.592L380.289 356.736L380.531 356.726L381.009 356.543L381.392 356.041L381.754 355.054L381.814 354.565L381.934 353.589L381.751 353.111L381.418 352.882L381.094 352.896ZM383.842 352.778L383.367 353.041L382.984 353.543L382.622 354.531L382.562 355.019L382.442 355.996L382.625 356.474L382.955 356.621L383.279 356.607L383.676 356.428L384.059 355.926L384.421 354.939L384.562 354.447L384.601 353.474L384.499 352.992L384.084 352.767L383.842 352.778ZM354.993 354.023L354.518 354.287L354.135 354.789L353.773 355.776L353.632 356.268L353.593 357.241L353.776 357.719L354.106 357.867L354.429 357.853L354.826 357.674L355.209 357.171L355.572 356.184L355.712 355.692L355.751 354.719L355.649 354.238L355.235 354.013L354.993 354.023ZM357.659 353.908L357.266 354.168L356.883 354.67L356.52 355.657L356.38 356.149L356.341 357.123L356.443 357.604L356.854 357.748L357.096 357.738L357.574 357.555L357.957 357.053L358.319 356.066L358.379 355.577L358.499 354.601L358.316 354.123L357.983 353.894L357.659 353.908ZM338.103 354.752L337.71 355.012L337.246 355.518L336.964 356.502L336.824 356.994L336.785 357.967L336.886 358.448L337.297 358.592L337.54 358.582L338.018 358.399L338.401 357.897L338.763 356.91L338.823 356.422L338.943 355.445L338.76 354.967L338.426 354.739L338.103 354.752ZM160.059 273.868L160.242 274.346L160.576 274.574L160.983 274.638L161.303 274.543L161.458 274.374L161.676 273.798L161.823 273.468L162.139 273.293L162.54 273.194L163.113 273.331L163.446 273.56L163.615 273.715L163.878 274.189L163.903 274.755L163.674 275.088L163.516 275.176L163.196 275.271L162.624 275.134L162.209 274.909L161.869 274.519L161.69 274.122L161.423 273.566L161.247 273.25L160.913 273.022L160.502 272.877L160.183 272.972L160.035 273.302L160.059 273.868ZM159.937 271.04L160.12 271.518L160.703 271.897L161.606 272.182L162.098 272.323L163.071 272.362L163.552 272.26L163.777 271.846L163.767 271.603L163.503 271.129L163.001 270.746L162.017 270.464L161.526 270.323L160.633 270.281L160.071 270.386L159.927 270.797L159.937 271.04ZM159.819 268.292L160.001 268.77L160.584 269.15L161.491 269.515L161.982 269.656L162.956 269.695L163.434 269.512L163.662 269.179L163.652 268.936L163.388 268.462L162.886 268.079L161.899 267.717L161.407 267.576L160.514 267.534L159.956 267.72L159.808 268.05L159.819 268.292ZM288.286 275.376L288.468 275.854L289.051 276.233L289.958 276.599L290.53 276.736L291.423 276.778L291.981 276.592L292.129 276.262L292.119 276.02L291.936 275.542L291.353 275.162L290.447 274.797L289.874 274.659L288.981 274.617L288.419 274.722L288.275 275.133L288.286 275.376ZM288.17 272.709L288.349 273.106L288.933 273.486L289.839 273.851L290.412 273.988L291.304 274.031L291.866 273.926L292.01 273.515L292 273.272L291.817 272.794L291.234 272.415L290.328 272.049L289.759 271.993L288.863 271.869L288.304 272.055L288.156 272.386L288.17 272.709ZM288.052 269.961L288.234 270.439L288.817 270.819L289.724 271.185L290.293 271.241L291.189 271.364L291.748 271.178L291.895 270.848L291.881 270.525L291.702 270.128L291.119 269.748L290.213 269.382L289.64 269.245L288.748 269.203L288.186 269.308L288.041 269.719L288.052 269.961ZM286.485 233.678L286.664 234.075L287.079 234.3L287.406 234.366L287.81 234.349L287.961 234.1L288.101 233.608L288.249 233.278L288.646 233.098L288.966 233.004L289.539 233.141L289.953 233.366L290.122 233.521L290.304 233.998L290.325 234.483L290.181 234.894L290.023 234.982L289.619 235L289.05 234.943L288.716 234.715L288.295 234.328L288.112 233.85L287.926 233.291L287.75 232.975L287.336 232.75L287.009 232.683L286.609 232.782L286.461 233.112L286.485 233.678ZM286.36 230.768L286.542 231.246L287.125 231.626L288.032 231.992L288.604 232.129L289.497 232.171L290.059 232.066L290.203 231.655L290.193 231.412L290.01 230.935L289.427 230.555L288.521 230.189L287.948 230.052L287.056 230.01L286.497 230.196L286.349 230.526L286.36 230.768ZM286.245 228.102L286.427 228.58L287.01 228.959L287.913 229.244L288.486 229.381L289.382 229.504L289.94 229.318L290.088 228.988L290.074 228.665L289.895 228.268L289.308 227.807L288.405 227.523L287.833 227.385L286.94 227.343L286.378 227.448L286.234 227.859L286.245 228.102ZM284.845 195.697L285.025 196.094L285.439 196.319L285.769 196.466L286.17 196.368L286.321 196.119L286.462 195.627L286.609 195.297L287.006 195.118L287.326 195.023L287.899 195.16L288.313 195.385L288.482 195.54L288.664 196.018L288.685 196.502L288.541 196.913L288.383 197.001L287.979 197.019L287.41 196.962L287.076 196.734L286.655 196.347L286.476 195.95L286.286 195.311L286.111 194.994L285.696 194.769L285.369 194.703L284.969 194.801L284.821 195.131L284.845 195.697ZM284.723 192.868L284.902 193.265L285.486 193.645L286.392 194.011L286.965 194.148L287.857 194.19L288.419 194.085L288.563 193.674L288.553 193.432L288.37 192.954L287.787 192.574L286.881 192.208L286.312 192.152L285.416 192.029L284.857 192.215L284.709 192.545L284.723 192.868ZM284.605 190.121L284.787 190.599L285.37 190.978L286.273 191.263L286.846 191.4L287.742 191.524L288.301 191.338L288.448 191.007L288.434 190.684L288.255 190.287L287.669 189.827L286.766 189.542L286.193 189.405L285.301 189.362L284.738 189.467L284.594 189.878L284.605 190.121ZM169.298 152.19L169.477 152.587L170.06 152.966L170.967 153.332L171.539 153.469L172.432 153.512L172.994 153.407L173.138 152.996L173.127 152.753L172.945 152.275L172.362 151.896L171.455 151.53L170.886 151.474L169.99 151.35L169.432 151.536L169.284 151.867L169.298 152.19ZM169.179 149.442L169.362 149.92L169.945 150.3L170.851 150.665L171.421 150.722L172.316 150.845L172.875 150.659L173.023 150.329L173.009 150.006L172.83 149.608L172.247 149.229L171.34 148.863L170.768 148.726L169.875 148.684L169.313 148.789L169.169 149.2L169.179 149.442ZM237.345 192.485L237.524 192.882L237.938 193.107L238.265 193.174L238.669 193.157L238.82 192.907L238.961 192.415L239.109 192.085L239.502 191.825L239.825 191.811L240.398 191.948L240.732 192.177L240.981 192.328L241.164 192.806L241.185 193.291L241.04 193.702L240.802 193.793L240.478 193.807L239.906 193.67L239.575 193.522L239.154 193.136L238.971 192.658L238.785 192.099L238.61 191.783L238.195 191.558L237.868 191.491L237.464 191.508L237.32 191.919L237.345 192.485ZM237.219 189.576L237.402 190.054L237.985 190.433L238.891 190.799L239.464 190.936L240.356 190.979L240.915 190.793L241.063 190.462L241.052 190.22L240.87 189.742L240.286 189.362L239.38 188.997L238.807 188.86L237.915 188.817L237.356 189.003L237.209 189.333L237.219 189.576ZM237.104 186.909L237.283 187.306L237.87 187.767L238.772 188.052L239.345 188.189L240.238 188.231L240.8 188.126L240.944 187.715L240.933 187.472L240.751 186.995L240.168 186.615L239.265 186.33L238.692 186.193L237.796 186.07L237.238 186.256L237.09 186.586L237.104 186.909ZM268.793 20.7855L268.396 20.9646L267.935 21.5512L267.651 22.4541L267.513 23.0267L267.471 23.9191L267.576 24.4813L267.987 24.6255L268.23 24.615L268.707 24.4324L269.087 23.8493L269.453 22.943L269.509 22.3738L269.632 21.4779L269.446 20.9192L269.116 20.7716L268.793 20.7855ZM300.39 19.4213L299.912 19.6039L299.532 20.187L299.167 21.0934L299.11 21.6625L298.987 22.5584L299.173 23.1171L299.503 23.2648L299.826 23.2508L300.224 23.0718L300.603 22.4886L300.969 21.5823L301.106 21.0096L301.148 20.1172L301.043 19.5551L300.632 19.4109L300.39 19.4213ZM389.281 15.5835L388.884 15.7626L388.504 16.3457L388.139 17.2521L388.001 17.8247L387.959 18.7171L388.064 19.2793L388.475 19.4235L388.718 19.413L389.196 19.2305L389.575 18.6473L389.941 17.741L389.997 17.1718L390.121 16.2759L389.935 15.7172L389.604 15.5696L389.281 15.5835ZM392.029 15.4649L391.551 15.6475L391.171 16.2306L390.886 17.1334L390.749 17.7061L390.626 18.602L390.812 19.1607L391.142 19.3083L391.465 19.2944L391.862 19.1153L392.323 18.5287L392.608 17.6258L392.745 17.0532L392.787 16.1608L392.682 15.5986L392.271 15.4544L392.029 15.4649ZM387.009 24.8302L386.531 25.0128L386.151 25.5959L385.785 26.5023L385.726 26.9906L385.606 27.9673L385.788 28.4452L386.122 28.6737L386.445 28.6597L386.839 28.3998L387.222 27.8975L387.584 26.9104L387.725 26.4185L387.767 25.5261L387.662 24.9639L387.251 24.8198L387.009 24.8302ZM392.423 24.5965L391.945 24.779L391.565 25.3621L391.28 26.265L391.14 26.7568L391.02 27.7335L391.203 28.2114L391.536 28.4399L391.86 28.426L392.253 28.1661L392.717 27.6603L392.998 26.6766L393.139 26.1848L393.182 25.2924L393.076 24.7302L392.665 24.586L392.423 24.5965ZM452.222 22.0147L451.745 22.1972L451.365 22.7803L450.999 23.6867L450.859 24.1785L450.82 25.1517L451.002 25.6296L451.336 25.8581L451.578 25.8476L452.053 25.5843L452.436 25.082L452.798 24.0948L452.939 23.603L452.981 22.7106L452.795 22.1519L452.465 22.0042L452.222 22.0147ZM326.886 27.426L326.408 27.6085L326.028 28.1917L325.743 29.0945L325.603 29.5864L325.483 30.5631L325.665 31.0409L325.999 31.2694L326.322 31.2555L326.716 30.9956L327.18 30.4898L327.461 29.5061L327.602 29.0143L327.644 28.1219L327.539 27.5597L327.128 27.4155L326.886 27.426ZM493.646 81.3518L493.828 81.8296L494.411 82.2093L495.314 82.4941L495.887 82.6313L496.783 82.7546L497.341 82.5685L497.489 82.2383L497.475 81.9151L497.296 81.518L496.709 81.0576L495.806 80.7727L495.234 80.6355L494.341 80.5931L493.779 80.6983L493.635 81.1093L493.646 81.3518ZM493.527 78.6042L493.709 79.0821L494.293 79.4617L495.199 79.8274L495.772 79.9646L496.664 80.007L497.223 79.821L497.37 79.4908L497.36 79.2483L497.177 78.7704L496.594 78.3908L495.688 78.0251L495.115 77.8879L494.223 77.8455L493.664 78.0316L493.516 78.3618L493.527 78.6042ZM493.412 75.9375L493.594 76.4153L494.177 76.795L495.08 77.0798L495.653 77.217L496.545 77.2595L497.108 77.1542L497.252 76.7432L497.241 76.5008L497.062 76.1037L496.476 75.6433L495.573 75.3584L495 75.2212L494.108 75.1788L493.545 75.284L493.401 75.695L493.412 75.9375ZM495.718 129.353L495.897 129.75L496.48 130.13L497.387 130.495L497.959 130.633L498.852 130.675L499.414 130.57L499.558 130.159L499.547 129.916L499.365 129.438L498.782 129.059L497.875 128.693L497.306 128.637L496.41 128.514L495.852 128.7L495.704 129.03L495.718 129.353ZM499.35 247.237L499.614 247.712L500.116 248.095L501.022 248.46L501.595 248.598L502.487 248.64L503.046 248.454L503.194 248.124L503.183 247.881L503.001 247.404L502.418 247.024L501.511 246.658L500.939 246.521L500.046 246.479L499.568 246.661L499.34 246.995L499.35 247.237ZM499.235 244.571L499.495 244.964L500.001 245.428L500.904 245.713L501.476 245.85L502.369 245.893L502.931 245.787L503.075 245.376L503.065 245.134L502.882 244.656L502.299 244.276L501.396 243.991L500.823 243.854L499.927 243.731L499.45 243.914L499.221 244.247L499.235 244.571ZM499.116 241.823L499.38 242.297L499.882 242.68L500.788 243.046L501.358 243.103L502.254 243.226L502.812 243.04L502.96 242.71L502.946 242.386L502.767 241.989L502.184 241.61L501.277 241.244L500.705 241.107L499.812 241.064L499.331 241.166L499.106 241.581L499.116 241.823ZM500.516 274.228L500.779 274.702L501.281 275.085L502.188 275.451L502.757 275.507L503.653 275.631L504.211 275.445L504.359 275.114L504.345 274.791L504.166 274.394L503.583 274.015L502.676 273.649L502.104 273.512L501.211 273.469L500.73 273.571L500.505 273.985L500.516 274.228ZM509.021 171.202L509.204 171.68L509.618 171.905L509.945 171.972L510.346 171.874L510.497 171.624L510.637 171.132L510.785 170.802L511.182 170.623L511.502 170.528L512.075 170.666L512.489 170.891L512.658 171.045L512.84 171.523L512.865 172.089L512.717 172.419L512.559 172.507L512.158 172.605L511.586 172.468L511.252 172.239L510.83 171.853L510.651 171.456L510.462 170.816L510.286 170.5L509.875 170.356L509.545 170.208L509.144 170.306L508.997 170.637L509.021 171.202ZM503.39 40.7744L503.573 41.2523L504.156 41.6319L505.062 41.9976L505.631 42.054L506.527 42.1772L507.086 41.9912L507.234 41.661L507.22 41.3377L507.041 40.9407L506.457 40.561L505.551 40.1954L504.978 40.0582L504.086 40.0157L503.524 40.121L503.38 40.532L503.39 40.7744ZM513.421 273.104L513.6 273.501L514.183 273.881L515.089 274.246L515.662 274.384L516.554 274.426L517.117 274.321L517.261 273.91L517.25 273.667L517.068 273.189L516.485 272.81L515.578 272.444L515.009 272.388L514.113 272.265L513.554 272.451L513.407 272.781L513.421 273.104ZM432.389 241.465L432.572 241.943L433.155 242.323L434.058 242.608L434.63 242.745L435.523 242.787L436.085 242.682L436.233 242.352L436.219 242.029L436.04 241.632L435.453 241.171L434.55 240.886L433.978 240.749L433.085 240.707L432.523 240.812L432.379 241.223L432.389 241.465ZM432.271 238.718L432.453 239.196L433.036 239.575L433.943 239.941L434.515 240.078L435.408 240.121L435.966 239.935L436.114 239.604L436.104 239.362L435.921 238.884L435.338 238.505L434.432 238.139L433.859 238.002L432.967 237.959L432.408 238.145L432.26 238.475L432.271 238.718ZM432.155 236.051L432.335 236.448L432.921 236.909L433.824 237.194L434.397 237.331L435.289 237.373L435.851 237.268L435.995 236.857L435.985 236.614L435.802 236.137L435.219 235.757L434.316 235.472L433.744 235.335L432.848 235.212L432.289 235.398L432.142 235.728L432.155 236.051ZM401.76 180.853L401.282 181.035L401.057 181.45L400.99 181.777L401.088 182.177L401.257 182.332L401.83 182.469L402.16 182.617L402.339 183.014L402.434 183.333L402.296 183.906L402.068 184.24L401.917 184.489L401.439 184.672L400.873 184.696L400.543 184.549L400.452 184.31L400.357 183.99L400.494 183.417L400.723 183.083L401.109 182.662L401.506 182.483L402.065 182.297L402.381 182.121L402.606 181.707L402.754 181.377L402.656 180.976L402.326 180.828L401.76 180.853ZM404.588 180.731L404.191 180.91L403.731 181.496L403.446 182.399L403.309 182.972L403.266 183.864L403.371 184.426L403.782 184.571L404.025 184.56L404.503 184.378L404.882 183.794L405.167 182.892L405.304 182.319L405.347 181.427L405.242 180.864L404.911 180.717L404.588 180.731ZM407.336 180.612L406.858 180.795L406.478 181.378L406.113 182.284L405.975 182.857L405.933 183.749L406.119 184.308L406.449 184.455L406.692 184.445L407.17 184.262L407.549 183.679L407.915 182.773L408.052 182.2L408.094 181.308L407.989 180.746L407.578 180.602L407.336 180.612ZM453.171 171.509L452.694 171.691L452.314 172.274L451.948 173.181L451.811 173.753L451.769 174.646L451.955 175.204L452.285 175.352L452.527 175.341L453.005 175.159L453.385 174.576L453.75 173.669L453.888 173.097L453.93 172.204L453.744 171.646L453.414 171.498L453.171 171.509ZM455.838 171.393L455.441 171.572L454.981 172.159L454.696 173.062L454.559 173.635L454.516 174.527L454.621 175.089L455.032 175.233L455.275 175.223L455.753 175.04L456.132 174.457L456.417 173.554L456.554 172.982L456.678 172.086L456.492 171.527L456.161 171.379L455.838 171.393ZM336.401 176.55L335.923 176.733L335.543 177.316L335.177 178.222L335.04 178.795L334.998 179.687L335.184 180.246L335.514 180.393L335.756 180.383L336.234 180.2L336.614 179.617L336.98 178.711L337.117 178.138L337.159 177.246L336.973 176.687L336.643 176.54L336.401 176.55ZM339.067 176.435L338.67 176.614L338.21 177.201L337.925 178.103L337.788 178.676L337.745 179.568L337.851 180.131L338.262 180.275L338.504 180.264L338.982 180.082L339.361 179.499L339.646 178.596L339.784 178.023L339.907 177.127L339.721 176.569L339.391 176.421L339.067 176.435ZM392.806 174.115L392.328 174.297L392.103 174.712L392.036 175.039L392.131 175.358L392.303 175.594L392.795 175.734L393.206 175.879L393.385 176.276L393.48 176.595L393.343 177.168L393.114 177.502L392.963 177.751L392.485 177.934L391.92 177.958L391.589 177.811L391.498 177.572L391.403 177.252L391.541 176.679L391.769 176.345L392.156 175.924L392.553 175.745L393.111 175.559L393.424 175.302L393.653 174.969L393.719 174.642L393.702 174.238L393.372 174.09L392.806 174.115ZM398.382 173.874L397.904 174.057L397.525 174.64L397.159 175.546L397.022 176.119L396.979 177.011L397.165 177.57L397.495 177.717L397.738 177.707L398.216 177.524L398.595 176.941L398.961 176.035L399.098 175.462L399.141 174.57L398.955 174.011L398.624 173.864L398.382 173.874ZM445.478 178.965L445 179.148L444.621 179.731L444.255 180.637L444.118 181.21L444.075 182.102L444.261 182.661L444.592 182.809L444.834 182.798L445.312 182.616L445.692 182.033L446.057 181.126L446.194 180.554L446.237 179.661L446.051 179.102L445.721 178.955L445.478 178.965ZM448.145 178.85L447.748 179.029L447.287 179.616L447.003 180.519L446.865 181.091L446.823 181.984L446.928 182.546L447.339 182.69L447.582 182.68L448.06 182.497L448.439 181.914L448.724 181.011L448.861 180.438L448.984 179.542L448.798 178.984L448.468 178.836L448.145 178.85ZM450.893 178.731L450.415 178.914L450.035 179.497L449.669 180.404L449.613 180.973L449.49 181.869L449.676 182.427L450.006 182.575L450.329 182.561L450.726 182.382L451.106 181.799L451.472 180.892L451.609 180.32L451.651 179.427L451.546 178.865L451.135 178.721L450.893 178.731ZM342.312 7.8151L341.838 8.07847L341.455 8.58077L341.089 9.48713L340.952 10.0598L340.909 10.9522L341.095 11.5109L341.426 11.6585L341.668 11.6481L342.146 11.4655L342.526 10.8824L342.891 9.97605L343.028 9.4034L343.071 8.511L342.888 8.03311L342.555 7.80464L342.312 7.8151ZM347.726 7.58134L347.252 7.84471L346.869 8.34702L346.503 9.25337L346.366 9.82602L346.324 10.7184L346.51 11.2771L346.84 11.4248L347.082 11.4143L347.56 11.2318L347.94 10.6486L348.306 9.74229L348.443 9.16964L348.485 8.27724L348.303 7.79935L347.969 7.57088L347.726 7.58134Z" stroke="#6B7537" stroke-width="0.24" stroke-linecap="round" stroke-linejoin="round"/>
<path d="M116.019 330.175L115.833 329.617L115.499 329.388L115.014 329.409L114.621 329.669L114.08 330.259L113.791 331.081L113.654 331.654L113.608 332.465L113.875 333.021L114.128 333.253L114.694 333.228L115.087 332.968L115.548 332.382M117.277 329.311L116.471 333.151M117.08 330.372L117.772 329.533L118.166 329.273L118.57 329.256L118.823 329.488L118.777 330.299M118.777 330.299L118.168 333.078M118.777 330.299L119.55 329.456L119.944 329.196L120.267 329.182L120.601 329.411L120.555 330.222L119.946 333.001M126.492 332.719L127.378 328.875L126.247 328.924L125.719 331.7L125.35 332.525L124.876 332.789L124.552 332.802M119.097 339.596L119.003 339.276L118.831 339.041L118.578 338.809L118.012 338.833L117.618 339.093L117.158 339.68L116.789 340.505L116.648 340.997L116.683 341.805L116.869 342.364L117.206 342.673L117.691 342.652L118.081 342.311L118.623 341.721M122.934 329.067L123.5 329.043L123.752 329.275L124.019 329.83L123.973 330.642L123.836 331.214L123.467 332.04L123.007 332.626L122.613 332.886L122.047 332.911L121.794 332.679L121.528 332.123L121.573 331.312L121.711 330.739L122.08 329.914L122.54 329.327L122.934 329.067Z" stroke="#6B7537" stroke-width="0.72" stroke-linecap="round" stroke-linejoin="round"/>
<path d="M119.305 338.777L118.278 343.112L117.908 343.938L117.68 344.272L117.286 344.532L116.721 344.556L116.468 344.324M121.57 342.485L122.456 338.641L121.406 338.686L120.794 341.385L120.425 342.21L120.034 342.551L119.63 342.568M122.863 342.429L123.854 341.01M123.854 341.01L123.517 340.7L123.426 340.461L123.401 339.896L123.391 339.653L123.689 339.074L124.002 338.817L124.396 338.557L125.446 338.512L124.56 342.355M123.854 341.01L124.905 340.964M112.313 349.361L112.222 349.122L112.127 348.802L111.794 348.574L111.309 348.595L110.915 348.855L110.374 349.445L110.086 350.267L109.948 350.839L109.902 351.651L110.169 352.206L110.422 352.438L110.988 352.414L111.381 352.154L111.842 351.567" stroke="#6B7537" stroke-width="0.72" stroke-linecap="round" stroke-linejoin="round"/>
<path d="M112.521 348.542L111.578 352.955L111.209 353.781L110.977 354.033L110.587 354.374L110.021 354.399L109.765 354.086M113.41 348.504L113.655 352.299M113.655 352.299L115.511 348.413M113.655 352.299L113.054 353.377L112.512 353.967L112.122 354.308L111.961 354.315M119.069 352.065L119.956 348.221M119.347 351L118.655 351.84L118.18 352.103L117.857 352.117L117.523 351.889L117.569 351.077M117.569 351.077L118.178 348.298M117.569 351.077L116.877 351.917L116.483 352.177L116.079 352.194L115.826 351.962L115.791 351.154L116.4 348.375M120.834 349.803L122.935 349.712L123.072 349.139L122.97 348.658L122.875 348.338L122.622 348.106L122.057 348.131L121.663 348.391L121.203 348.977L120.834 349.803ZM120.834 349.803L120.696 350.375L120.65 351.187L120.917 351.742L121.17 351.974L121.736 351.95L122.129 351.69L122.59 351.103M124.354 348.841L124.815 348.255L125.208 347.995M125.208 347.995L125.911 347.398L126.214 346.899L126.108 346.337L126.017 346.098L125.451 346.122L125.058 346.382L124.826 346.635L123.953 350.802L123.974 351.286L124.069 351.606L124.403 351.835L124.887 351.814L125.281 351.554L125.822 350.964L126.191 350.138L126.248 349.569L126.294 348.757L126.027 348.202L125.774 347.97L125.208 347.995ZM127.541 349.513L127.773 349.26L128.163 348.92L128.648 348.899L128.89 348.888L129.147 349.201L129.238 349.44L129.343 350.002L129.206 350.575L128.904 351.074L128.675 351.407L128.282 351.667L127.554 351.699L127.221 351.47L127.126 351.15M127.875 347.88L126.989 351.723M130.138 347.782L129.332 351.622M131.027 347.743L132.16 351.5M132.966 347.66L130.221 351.583M110.101 358.119L109.214 361.963M109.827 359.265L110.6 358.422L110.99 358.081L111.475 358.06L111.812 358.369L111.836 358.935L111.154 361.879M113.414 357.976L112.207 363.777M113.291 358.872L113.751 358.286L114.142 357.945L114.707 357.92L114.964 358.233L115.23 358.788L115.184 359.6L115.044 360.092L114.755 360.914L114.214 361.504L113.821 361.764L113.336 361.785L113.002 361.556L112.816 360.998M120.121 357.687L119.513 360.466L119.548 361.274L119.801 361.506L120.366 361.481L120.76 361.221L121.452 360.382M122.061 357.603L121.255 361.443L121.578 361.429L121.374 362.328M122.942 359.265L125.043 359.174L125.181 358.602L125.156 358.036L125.065 357.797L124.728 357.488L124.243 357.509L123.772 357.853L123.311 358.44L122.942 359.265ZM122.942 359.265L122.802 359.757L122.836 360.565L123.103 361.12L123.356 361.352L123.922 361.328L124.315 361.068L124.776 360.481M128.402 358.22L128.308 357.9L128.216 357.661L127.879 357.352L127.394 357.373L127.004 357.713L126.463 358.303L126.175 359.126L126.034 359.617L125.988 360.429L126.255 360.984L126.508 361.216L127.074 361.192L127.467 360.932L127.928 360.345M117.536 357.798L118.02 357.777L118.358 358.087L118.544 358.645L118.579 359.453L118.438 359.945L118.069 360.771L117.608 361.357L117.215 361.617L116.649 361.642L116.396 361.41L116.129 360.855L116.175 360.043L116.235 359.555L116.604 358.729L117.065 358.143L117.536 357.798Z" stroke="#6B7537" stroke-width="0.72" stroke-linecap="round" stroke-linejoin="round"/>
<path d="M128.607 357.32L127.664 361.733L127.294 362.558L127.066 362.892L126.592 363.156L126.107 363.176L125.773 362.948M129.495 357.282L129.74 361.077M129.74 361.077L131.597 357.191M129.74 361.077L129.143 362.236L128.601 362.826L128.208 363.086L128.046 363.093M132.485 357.153L131.198 362.957M132.281 358.052L132.823 357.462L133.213 357.121L133.698 357.101L134.035 357.41L134.221 357.969L134.256 358.777L134.115 359.268L133.746 360.094L133.285 360.681L132.892 360.94L132.326 360.965L132.073 360.733L131.806 360.178" stroke="#6B7537" stroke-width="0.72" stroke-linecap="round" stroke-linejoin="round"/>
</svg>
