<svg width="1101" height="770" viewBox="0 0 1101 770" fill="none" xmlns="http://www.w3.org/2000/svg">
<g opacity="0.3">
<path d="M554.268 294.916V250.478H514.247V149.128M514.247 149.128H86.2378V655.619H201.361M514.247 149.128H474.487M554.268 325.581H572.719V149.128H954.731V452.919H572.719V433.168H554.268M554.268 476.047H572.719H798.288V657.178H572.719H554.268" stroke="#0B0504" stroke-opacity="0.3" stroke-width="0.12" stroke-linecap="round" stroke-linejoin="round"/>
<path d="M554.268 325.581H572.719V149.128H954.731V452.919H572.719V433.168H554.268M554.268 476.047H572.719H798.288V657.178H572.719H554.268" stroke="#0B0504" stroke-opacity="0.3" stroke-width="1.08" stroke-linecap="round" stroke-linejoin="round"/>
<path d="M1 119.242L32.4446 87.7978M4.11847 149.128L65.4483 87.7978M37.1223 149.128L98.712 87.7978M67.7872 151.726L131.716 87.7978M67.7872 184.73L86.2381 166.279M103.39 149.128L164.72 87.7978M67.7872 217.734L86.2381 199.543M136.393 149.128L197.723 87.7978M67.7872 250.998L86.2381 232.547M169.657 149.128L230.987 87.7978M67.7872 284.001L86.2381 265.55M202.661 149.128L263.991 87.7978M67.7872 317.005L86.2381 298.554M235.665 149.128L296.995 87.7978M67.7872 350.009L86.2381 331.818M268.668 149.128L330.258 87.7978M67.7872 383.273L86.2381 364.822M301.932 149.128L344.031 107.028M67.7872 416.276L86.2381 397.825M334.936 149.128L344.031 140.032M67.7872 449.28L86.2381 430.829M67.7872 482.544L86.2381 464.093M67.7872 515.548L86.2381 497.097M474.487 108.847L495.537 87.7978M67.7872 548.551L86.2381 530.1M474.487 141.851L528.541 87.7978M67.7872 581.555L86.2381 563.104M500.215 149.128L561.545 87.7978M67.7872 614.819L86.2381 596.368M514.248 168.098L594.808 87.7978M67.7872 647.823L86.2381 629.372M547.252 168.358L627.812 87.7978M514.248 201.362L528.021 187.589M67.7872 680.826L92.9948 655.619M599.486 149.128L660.816 87.7978M514.248 234.366L539.715 208.898M547.771 200.842L572.719 175.894M69.8662 711.751L86.2381 695.639M632.49 149.128L693.82 87.7978M106.248 675.369L126.258 655.619M531.399 250.478L561.545 220.333M139.252 675.369L159.262 655.619M665.753 149.128L727.083 87.7978M554.268 260.613L572.719 242.162M172.256 675.369L192.266 655.619M698.757 149.128L760.087 87.7978M554.268 293.617L572.719 275.166M205.52 675.369L225.27 655.619M731.761 149.128L793.091 87.7978M555.308 325.581L572.719 308.169M764.765 149.128L826.095 87.7978M798.028 149.128L859.358 87.7978M514.248 465.912L526.202 453.958M831.032 149.128L892.362 87.7978M339.354 673.81L356.245 657.178M864.036 149.128L925.366 87.7978M537.117 476.047L572.719 440.704M370.798 675.369L389.249 657.178M897.04 149.128L958.629 87.7978M570.38 476.047L593.249 452.918M403.802 675.369L422.253 657.178M930.303 149.128L991.633 87.7978M603.384 476.047L626.253 452.918M437.066 675.369L455.257 657.178M954.731 157.703L1016.06 96.3736M636.388 476.047L659.516 452.918M470.07 675.369L488.52 657.178M954.731 190.707L1016.06 129.377M669.392 476.047L692.52 452.918M503.073 675.369L521.524 657.178M954.731 223.971L1016.06 162.381M702.655 476.047L725.524 452.918M536.077 675.369L554.528 657.178M954.731 256.975L1016.06 195.645M735.659 476.047L758.788 452.918M569.341 675.369L587.532 657.178M954.731 289.978L1016.06 228.649M768.663 476.047L791.791 452.918M583.894 694.08L602.345 675.629M954.731 322.982L1016.06 261.652M602.345 675.369L620.795 657.178M798.288 479.685L824.795 452.918M597.407 713.57L602.345 708.633M954.731 356.246L1016.06 294.656M635.348 675.369L653.799 657.178M834.93 476.047L857.799 452.918M798.288 512.689L816.739 494.238M668.352 675.369L686.803 657.178M954.731 389.25L1016.06 327.92M798.288 545.693L816.739 527.242M867.934 476.047L891.063 452.918M701.616 675.369L720.067 657.178M954.731 422.253L1016.06 360.924M798.288 578.697L816.739 560.506M900.938 476.047L924.066 452.918M734.62 675.369L753.07 657.178M934.201 476.047L1016.06 393.927M798.288 611.96L816.739 593.509M767.623 675.369L786.074 657.178M954.731 488.521L1016.06 426.931M798.288 644.964L816.739 626.513M800.627 675.369L816.739 659.517M958.889 517.367L1016.06 460.195M991.893 517.367L1016.06 493.199M1 97.1532L10.3554 87.7978M1 130.157L43.6191 87.7978M15.293 149.128L76.6228 87.7978M48.2968 149.128L109.627 87.7978M67.7872 162.641L142.63 87.7978M67.7872 195.905L86.2381 177.454M114.304 149.128L175.894 87.7978M67.7872 228.908L86.2381 210.458M147.568 149.128L208.898 87.7978M67.7872 261.912L86.2381 243.461M180.572 149.128L241.902 87.7978M67.7872 294.916L86.2381 276.725M213.576 149.128L274.905 87.7978M67.7872 328.18L86.2381 309.729M246.579 149.128L308.169 87.7978M67.7872 361.183L86.2381 342.733M279.843 149.128L341.173 87.7978M67.7872 394.187L86.2381 375.736M312.847 149.128L344.031 117.943M67.7872 427.191L86.2381 409M67.7872 460.455L86.2381 442.004M67.7872 493.458L86.2381 475.008M67.7872 526.462L86.2381 508.011M474.487 119.762L506.452 87.7978M67.7872 559.466L86.2381 541.275M478.126 149.128L539.715 87.7978M67.7872 592.73L86.2381 574.279M511.389 149.128L572.719 87.7978M67.7872 625.733L86.2381 607.283M525.162 168.358L605.723 87.7978M67.7872 658.737L86.2381 640.286M577.397 149.128L638.727 87.7978M514.248 212.277L538.936 187.589M547.252 179.533L572.719 154.065M67.7872 692.001L104.169 655.619M610.401 149.128L671.99 87.7978M514.248 245.28L539.715 219.813M558.686 200.842L572.719 187.069M80.7808 711.751L86.2381 706.554M643.664 149.128L704.994 87.7978M117.163 675.369L137.173 655.619M542.314 250.478L572.459 220.333M150.427 675.369L170.177 655.619M676.668 149.128L737.998 87.7978M554.268 271.528L572.719 253.077M183.43 675.369L203.441 655.619M709.672 149.128L771.002 87.7978M554.268 304.791L572.719 286.34M216.434 675.369L232.026 660.037M742.676 149.128L804.265 87.7978M566.222 325.581L572.719 319.344M775.939 149.128L837.269 87.7978M808.943 149.128L870.273 87.7978M515.287 476.047L537.636 453.698M841.947 149.128L903.277 87.7978M554.268 437.066L558.166 433.168M348.709 675.369L367.16 657.178M875.21 149.128L936.54 87.7978M548.291 476.047L572.719 451.619M381.713 675.369L400.164 657.178M908.214 149.128L969.544 87.7978M581.295 476.047L604.424 452.918M414.977 675.369L433.428 657.178M941.218 149.128L1002.55 87.7978M614.299 476.047L637.427 452.918M447.98 675.369L466.431 657.178M954.731 168.618L1016.06 107.288M647.562 476.047L670.431 452.918M480.984 675.369L499.435 657.178M954.731 201.882L1016.06 140.552M680.566 476.047L703.435 452.918M513.988 675.369L532.439 657.178M954.731 234.886L1016.06 173.556M713.57 476.047L736.699 452.918M547.252 675.369L565.703 657.178M954.731 267.889L1016.06 206.559M746.574 476.047L769.702 452.918M580.255 675.369L598.706 657.178M954.731 301.153L1016.06 239.563M779.837 476.047L802.706 452.918M583.894 704.995L602.345 686.544M954.731 334.157L1016.06 272.827M613.259 675.369L631.71 657.178M798.288 490.6L835.71 452.918M646.523 675.369L664.714 657.178M954.731 367.161L1016.06 305.831M798.288 523.604L816.739 505.153M845.845 476.047L868.974 452.918M679.527 675.369L697.978 657.178M954.731 400.164L1016.06 338.834M798.288 556.867L816.739 538.416M878.849 476.047L901.977 452.918M712.53 675.369L730.981 657.178M954.731 433.428L1016.06 371.838M798.288 589.871L816.739 571.42M912.112 476.047L934.981 452.918M745.534 675.369L763.985 657.178M945.116 476.047L1016.06 405.102M798.288 622.875L816.739 604.424M778.798 675.369L796.989 657.178M954.731 499.436L1016.06 438.106M798.288 655.879L816.739 637.688M811.802 675.369L816.739 670.691M969.804 517.367L1016.06 471.109M1003.07 517.367L1016.06 504.113" stroke="#0B0504" stroke-opacity="0.3" stroke-width="0.72" stroke-linecap="round" stroke-linejoin="round"/>
<path d="M345.591 158.743L354.946 149.127M345.591 180.832L377.035 149.127M345.591 202.661L399.125 149.127M345.591 224.75L421.214 149.127M358.844 233.586L443.303 149.127M380.933 233.586L465.392 149.127M403.023 233.586L487.221 149.127M425.112 233.586L509.31 149.127M446.941 233.586L514.248 166.279M469.03 233.586L514.248 188.368M491.119 233.586L514.248 210.457M513.208 233.586L514.248 232.546" stroke="#0B0504" stroke-opacity="0.3" stroke-width="0.48" stroke-linecap="round" stroke-linejoin="round"/>
<path d="M554.268 294.917V250.479H514.247V149.128H86.2378V655.62H201.361" stroke="#0B0504" stroke-opacity="0.3" stroke-width="1.08" stroke-linecap="round" stroke-linejoin="round"/>
<path d="M514.248 483.324L521.524 476.047M530.1 486.702L540.755 476.047M549.33 486.702L559.985 476.047M398.345 657.178L408.999 646.264M568.561 486.702L579.476 476.047M417.575 657.178L428.49 646.264M588.051 486.702L598.706 476.047M436.806 657.178L447.72 646.264M607.282 486.702L617.937 476.047M456.296 657.178L466.951 646.264M626.512 486.702L637.167 476.047M475.527 657.178L486.181 646.264M645.743 486.702L656.658 476.047M494.757 657.178L505.412 646.264M665.233 486.702L675.888 476.047M513.988 657.178L519.445 651.721L524.902 646.264M684.464 486.702L695.119 476.047M533.478 657.178L544.133 646.264M703.695 486.702L714.349 476.047M552.709 657.178L563.363 646.264M722.925 486.702L733.84 476.047M571.939 657.178L582.594 646.264M742.416 486.702L753.07 476.047M591.17 657.178L602.084 646.264M761.646 486.702L772.301 476.047M610.66 657.178L621.315 646.264M780.877 486.702L791.531 476.047M629.891 657.178L640.546 646.264M787.373 499.436L798.288 488.781M649.121 657.178L659.776 646.264M787.373 518.666L798.288 508.012M668.352 657.178L679.267 646.264M787.373 538.157L798.288 527.242M687.842 657.178L698.497 646.264M787.373 557.387L798.288 546.473M707.073 657.178L717.728 646.264M787.373 576.618L798.288 565.963M726.303 657.178L736.958 646.264M787.373 595.848L798.288 585.194M745.534 657.178L756.449 646.264M787.373 615.339L798.288 604.424M764.765 657.178L775.679 646.264M787.373 634.569L798.288 623.655M784.255 657.178L798.288 643.145M397.565 657.178L391.588 650.941M417.055 657.178L406.141 646.264M436.286 657.178L425.371 646.264M455.516 657.178L444.862 646.264M474.747 657.178L464.092 646.264M494.237 657.178L483.323 646.264M513.468 657.178L502.553 646.264M532.699 657.178L522.044 646.264M551.929 657.178L541.274 646.264M571.16 657.178L560.505 646.264M590.65 657.178L579.735 646.264M609.881 657.178L599.226 646.264M629.111 657.178L618.456 646.264M648.342 657.178L637.687 646.264M667.832 657.178L656.918 646.264M687.063 657.178L676.408 646.264M516.586 486.702L514.248 484.363M706.293 657.178L695.639 646.264M536.077 486.702L525.162 476.047M725.524 657.178L714.869 646.264M555.307 486.702L544.653 476.047M745.014 657.178L734.1 646.264M574.538 486.702L563.883 476.047M764.245 657.178L753.59 646.264M593.769 486.702L583.114 476.047M783.475 657.178L772.821 646.264M613.259 486.702L602.344 476.047M798.288 652.501L787.373 641.846M632.49 486.702L621.835 476.047M798.288 633.27L787.373 622.355M651.72 486.702L641.065 476.047M798.288 614.039L787.373 603.125M670.951 486.702L660.296 476.047M798.288 594.549L787.373 583.894M690.441 486.702L679.526 476.047M798.288 575.318L787.373 564.664M709.672 486.702L699.017 476.047M798.288 556.088L787.373 545.173M728.902 486.702L718.247 476.047M798.288 536.857L787.373 525.943M748.133 486.702L737.478 476.047M798.288 517.367L787.373 506.712M767.623 486.702L756.708 476.047M798.288 498.136L787.373 487.482M786.854 486.702L775.939 476.047M798.288 478.906L795.429 476.047" stroke="#0B0504" stroke-opacity="0.3" stroke-width="0.48" stroke-linecap="round" stroke-linejoin="round"/>
<path d="M373.137 472.929L392.887 452.919M373.137 505.933L391.588 487.482M373.137 538.936L391.588 520.485M373.137 571.94L391.588 553.489M373.137 605.204L391.588 586.753M373.137 638.208L391.588 619.757M387.43 657.178L391.588 652.76M373.137 483.843L404.062 452.919M373.137 516.847L391.588 498.396M373.137 549.851L391.588 531.66M373.137 583.115L391.588 564.664M373.137 616.118L391.588 597.667M373.137 649.122L391.588 630.671" stroke="#0B0504" stroke-opacity="0.3" stroke-width="0.72" stroke-linecap="round" stroke-linejoin="round"/>
<path d="M554.268 657.178H339.354V675.369H583.894V713.57H602.345V675.369H816.739V657.178V476.047H954.731V517.367H1016.06V87.7978H954.731H1V149.128H67.7872V711.751H86.2381V675.369H201.362M554.268 452.918V433.168M232.026 655.619V674.07M344.031 87.7978V149.128M474.487 87.7978V149.128" stroke="#0B0504" stroke-opacity="0.3" stroke-width="1.08" stroke-linecap="round" stroke-linejoin="round"/>
<path d="M74.0241 149.127H11.6548M74.0241 655.619H11.6548M23.8688 136.913V667.833" stroke="#0B0504" stroke-opacity="0.3" stroke-width="0.6" stroke-linecap="round" stroke-linejoin="round"/>
<path d="M29.3258 155.884L30.6252 154.585L17.1118 143.67L29.3258 155.884ZM30.6252 154.585L17.1118 143.67L18.4112 142.371L30.6252 154.585Z" fill="#0B0504" fill-opacity="0.3"/>
<path d="M18.4112 648.862L17.1118 650.161L30.6252 661.076L18.4112 648.862ZM17.1118 650.161L30.6252 661.076L29.3258 662.375L17.1118 650.161Z" fill="#0B0504" fill-opacity="0.3"/>
<path d="M86.2384 136.913V34.0036M345.591 136.913V34.0036M74.0244 46.2176H357.805" stroke="#0B0504" stroke-opacity="0.3" stroke-width="0.6" stroke-linecap="round" stroke-linejoin="round"/>
<path d="M92.9953 40.7611L91.6959 39.4617L80.7813 52.9751L92.9953 40.7611ZM91.6959 39.4617L80.7813 52.9751L79.4819 51.6757L91.6959 39.4617Z" fill="#0B0504" fill-opacity="0.3"/>
<path d="M338.834 51.6752L340.133 52.9746L351.048 39.4612L338.834 51.6752ZM340.133 52.9746L351.048 39.4612L352.347 40.7606L340.133 52.9746Z" fill="#0B0504" fill-opacity="0.3"/>
<path d="M345.59 136.913V34.0036M514.248 136.913V34.0036M333.376 46.2176H526.721" stroke="#0B0504" stroke-opacity="0.3" stroke-width="0.6" stroke-linecap="round" stroke-linejoin="round"/>
<path d="M352.347 40.7611L351.048 39.4617L340.133 52.9751L352.347 40.7611ZM351.048 39.4617L340.133 52.9751L338.834 51.6757L351.048 39.4617Z" fill="#0B0504" fill-opacity="0.3"/>
<path d="M507.491 51.6752L508.79 52.9746L519.705 39.4612L507.491 51.6752ZM508.79 52.9746L519.705 39.4612L521.004 40.7606L508.79 52.9746Z" fill="#0B0504" fill-opacity="0.3"/>
<path d="M86.2384 667.832V756.449M232.027 667.832V756.449M74.0244 743.975H244.241" stroke="#0B0504" stroke-opacity="0.3" stroke-width="0.6" stroke-linecap="round" stroke-linejoin="round"/>
<path d="M92.9953 738.518L91.6959 737.218L80.7813 750.992L92.9953 738.518ZM91.6959 737.218L80.7813 750.992L79.4819 749.432L91.6959 737.218Z" fill="#0B0504" fill-opacity="0.3"/>
<path d="M225.27 749.432L226.569 750.992L237.484 737.218L225.27 749.432ZM226.569 750.992L237.484 737.218L238.783 738.518L226.569 750.992Z" fill="#0B0504" fill-opacity="0.3"/>
<path d="M232.026 686.283V756.449M339.354 687.842V756.449M219.812 743.975H351.568" stroke="#0B0504" stroke-opacity="0.3" stroke-width="0.6" stroke-linecap="round" stroke-linejoin="round"/>
<path d="M238.783 738.518L237.484 737.218L226.569 750.992L238.783 738.518ZM237.484 737.218L226.569 750.992L225.27 749.432L237.484 737.218Z" fill="#0B0504" fill-opacity="0.3"/>
<path d="M332.597 749.432L333.897 750.992L344.811 737.218L332.597 749.432ZM333.897 750.992L344.811 737.218L346.111 738.518L333.897 750.992Z" fill="#0B0504" fill-opacity="0.3"/>
<path d="M391.589 667.832V756.449M798.289 669.392V756.449M379.375 743.975H810.503" stroke="#0B0504" stroke-opacity="0.3" stroke-width="0.6" stroke-linecap="round" stroke-linejoin="round"/>
<path d="M398.345 738.518L397.046 737.218L386.131 750.992L398.345 738.518ZM397.046 737.218L386.131 750.992L384.832 749.432L397.046 737.218Z" fill="#0B0504" fill-opacity="0.3"/>
<path d="M791.532 749.432L792.831 750.992L803.746 737.218L791.532 749.432ZM792.831 750.992L803.746 737.218L805.045 738.518L792.831 750.992Z" fill="#0B0504" fill-opacity="0.3"/>
<path d="M572.719 136.913V34.0036M954.732 136.913V34.0036M560.246 46.2176H966.946" stroke="#0B0504" stroke-opacity="0.3" stroke-width="0.6" stroke-linecap="round" stroke-linejoin="round"/>
<path d="M579.477 40.7611L578.177 39.4617L567.263 52.9751L579.477 40.7611ZM578.177 39.4617L567.263 52.9751L565.963 51.6757L578.177 39.4617Z" fill="#0B0504" fill-opacity="0.3"/>
<path d="M947.976 51.6752L949.275 52.9746L960.19 39.4612L947.976 51.6752ZM949.275 52.9746L960.19 39.4612L961.489 40.7606L949.275 52.9746Z" fill="#0B0504" fill-opacity="0.3"/>
<path d="M514.248 136.913V0.999864M86.2384 136.913V0.999864M526.722 13.2139H74.0244" stroke="#0B0504" stroke-opacity="0.3" stroke-width="0.6" stroke-linecap="round" stroke-linejoin="round"/>
<path d="M507.492 18.6713L508.792 19.9707L519.706 6.45734L507.492 18.6713ZM508.792 19.9707L519.706 6.45734L521.006 7.7567L508.792 19.9707Z" fill="#0B0504" fill-opacity="0.3"/>
<path d="M92.9953 7.7567L91.6959 6.45734L80.7813 19.9707L92.9953 7.7567ZM91.6959 6.45734L80.7813 19.9707L79.4819 18.6713L91.6959 6.45734Z" fill="#0B0504" fill-opacity="0.3"/>
<path d="M966.945 149.127H1100M966.945 452.918H1100M1087.53 136.913V465.392" stroke="#0B0504" stroke-opacity="0.3" stroke-width="0.6" stroke-linecap="round" stroke-linejoin="round"/>
<path d="M1093.24 155.884L1094.54 154.585L1080.77 143.67L1093.24 155.884ZM1094.54 154.585L1080.77 143.67L1082.07 142.371L1094.54 154.585Z" fill="#0B0504" fill-opacity="0.3"/>
<path d="M1082.07 446.161L1080.77 447.461L1094.54 458.375L1082.07 446.161ZM1080.77 447.461L1094.54 458.375L1093.24 459.675L1080.77 447.461Z" fill="#0B0504" fill-opacity="0.3"/>
<path d="M832.072 465.392V525.423M954.731 488.261V525.423M819.598 513.209H966.945" stroke="#0B0504" stroke-opacity="0.3" stroke-width="0.6" stroke-linecap="round" stroke-linejoin="round"/>
<path d="M838.828 507.751L837.529 506.452L826.355 519.965L838.828 507.751ZM837.529 506.452L826.355 519.965L825.055 518.666L837.529 506.452Z" fill="#0B0504" fill-opacity="0.3"/>
<path d="M947.976 518.666L949.275 519.966L960.19 506.452L947.976 518.666ZM949.275 519.966L960.19 506.452L961.489 507.752L949.275 519.966Z" fill="#0B0504" fill-opacity="0.3"/>
<path d="M344.031 118.462H474.487M344.031 107.288H474.487M942.517 440.704V318.044H819.598V440.704H942.517Z" stroke="#0B0504" stroke-opacity="0.3" stroke-width="0.12" stroke-linecap="round" stroke-linejoin="round"/>
<path d="M810.502 476.047H871.312M810.502 657.178H871.312M858.838 463.833V669.392" stroke="#0B0504" stroke-opacity="0.3" stroke-width="0.6" stroke-linecap="round" stroke-linejoin="round"/>
<path d="M864.296 482.803L865.595 481.504L852.082 470.589L864.296 482.803ZM865.595 481.504L852.082 470.589L853.381 469.29L865.595 481.504Z" fill="#0B0504" fill-opacity="0.3"/>
<path d="M853.381 650.422L852.082 651.721L865.595 662.636L853.381 650.422ZM852.082 651.721L865.595 662.636L864.296 663.935L852.082 651.721Z" fill="#0B0504" fill-opacity="0.3"/>
<path d="M554.268 294.915V325.58" stroke="#0B0504" stroke-opacity="0.3" stroke-width="1.08" stroke-linecap="round" stroke-linejoin="round"/>
<path d="M572.719 154.844L578.177 149.127M572.719 174.074L584.933 161.86M585.193 161.341L597.667 149.127M572.719 193.305L584.933 181.091M604.684 161.341L616.898 149.127M572.719 212.795L584.933 200.322M623.914 161.341L636.128 149.127M572.719 232.026L584.933 219.812M643.145 161.341L655.359 149.127M572.719 251.257L584.933 239.043M662.375 161.341L674.849 149.127M572.719 270.487L584.933 258.273M681.866 161.341L694.08 149.127M572.719 289.978L584.933 277.504M701.096 161.341L713.31 149.127M572.719 309.208L584.933 296.994M720.327 161.341L732.541 149.127M575.578 325.58L584.933 316.225M739.557 161.341L752.031 149.127M759.048 161.341L771.262 149.127M778.278 161.341L790.492 149.127M797.509 161.341L809.723 149.127M816.739 161.341L829.213 149.127M836.23 161.341L848.444 149.127M572.719 444.082L583.894 433.167M855.46 161.341L867.674 149.127M583.114 452.917L595.328 440.703M874.691 161.341L886.905 149.127M602.345 452.917L614.819 440.703M893.921 161.341L906.135 149.127M621.835 452.917L634.049 440.703M913.152 161.341L925.626 149.127M641.066 452.917L653.28 440.703M932.642 161.341L944.856 149.127M660.296 452.917L672.51 440.703M942.518 170.956L954.732 158.482M679.527 452.917L691.741 440.703M942.518 190.187L954.732 177.973M698.757 452.917L711.231 440.703M942.518 209.417L954.732 197.203M718.248 452.917L730.462 440.703M942.518 228.648L954.732 216.434M737.478 452.917L749.692 440.703M942.518 248.138L954.732 235.664M756.709 452.917L768.923 440.703M942.518 267.369L954.732 255.155M775.939 452.917L788.413 440.703M942.518 286.599L954.732 274.385M795.43 452.917L807.644 440.703M942.518 305.83L954.732 293.616M814.66 452.917L826.874 440.703M942.518 325.06L954.732 312.846M833.891 452.917L846.105 440.703M942.518 344.551L954.732 332.077M853.121 452.917L865.595 440.703M942.518 363.781L954.732 351.567M872.612 452.917L884.826 440.703M942.518 383.012L954.732 370.798M891.842 452.917L904.056 440.703M942.518 402.242L954.732 390.028M911.073 452.917L923.287 440.703M942.518 421.733L954.732 409.259M930.304 452.917L954.732 428.749M949.794 452.917L954.732 447.98M579.476 452.917L572.719 446.161M598.706 452.917L586.492 440.703M584.933 439.144L578.696 433.167M617.937 452.917L605.723 440.703M637.168 452.917L624.954 440.703M656.658 452.917L644.184 440.703M675.889 452.917L663.675 440.703M695.119 452.917L682.905 440.703M714.35 452.917L702.136 440.703M584.933 323.501L572.719 311.287M733.84 452.917L721.366 440.703M584.933 304.271L572.719 291.797M753.071 452.917L740.857 440.703M584.933 284.78L572.719 272.566M772.301 452.917L760.087 440.703M584.933 265.55L572.719 253.336M791.532 452.917L779.318 440.703M584.933 246.319L572.719 234.105M811.022 452.917L798.548 440.703M584.933 227.088L572.719 214.615M830.253 452.917L818.039 440.703M584.933 207.598L572.719 195.384M849.483 452.917L837.269 440.703M584.933 188.367L572.719 176.153M868.714 452.917L856.5 440.703M584.933 169.137L572.719 156.923M888.204 452.917L875.73 440.703M596.627 161.341L584.154 149.127M907.435 452.917L895.221 440.703M615.858 161.341L603.644 149.127M926.665 452.917L914.451 440.703M635.089 161.341L622.875 149.127M945.896 452.917L933.682 440.703M654.319 161.341L642.105 149.127M954.732 442.523L942.518 430.309M673.81 161.341L661.336 149.127M954.732 423.292L942.518 410.818M693.04 161.341L680.826 149.127M954.732 403.802L942.518 391.588M712.271 161.341L700.057 149.127M954.732 384.571L942.518 372.357M731.501 161.341L719.287 149.127M954.732 365.341L942.518 353.127M750.992 161.341L738.518 149.127M954.732 346.11L942.518 333.636M770.222 161.341L758.008 149.127M954.732 326.62L942.518 314.406M789.453 161.341L777.239 149.127M954.732 307.389L942.518 295.175M808.683 161.341L796.469 149.127M954.732 288.158L942.518 275.944M827.914 161.341L815.7 149.127M954.732 268.928L942.518 256.454M847.404 161.341L834.93 149.127M954.732 249.437L942.518 237.223M866.635 161.341L854.421 149.127M954.732 230.207L942.518 217.993M885.865 161.341L873.651 149.127M954.732 210.976L942.518 198.762M905.096 161.341L892.882 149.127M954.732 191.746L942.518 179.272M924.586 161.341L912.112 149.127M954.732 172.255L931.603 149.127M954.732 153.025L950.833 149.127" stroke="#0B0504" stroke-opacity="0.3" stroke-width="0.48" stroke-linecap="round" stroke-linejoin="round"/>
<path d="M554.268 325.58H584.933M572.719 325.58V294.915" stroke="#0B0504" stroke-opacity="0.3" stroke-width="1.08" stroke-linecap="round" stroke-linejoin="round"/>
<path d="M664.714 486.701V562.064H391.588" stroke="#0B0504" stroke-opacity="0.3" stroke-width="1.08" stroke-linecap="round" stroke-linejoin="round"/>
<path d="M572.719 452.918H554.268H514.247V476.047H554.268H572.719M373.137 657.178V452.918H391.588H406.92V471.369H391.588V657.178" stroke="#0B0504" stroke-opacity="0.3" stroke-width="1.08" stroke-linecap="round" stroke-linejoin="round"/>
<path d="M514.248 233.585H345.591V149.127" stroke="#0B0504" stroke-opacity="0.3" stroke-width="1.08" stroke-linecap="round" stroke-linejoin="round"/>
<path d="M201.362 655.618H232.027V675.369H201.362" stroke="#0B0504" stroke-opacity="0.3" stroke-width="1.08" stroke-linecap="round" stroke-linejoin="round"/>
<path d="M572.719 325.58V149.127H954.732V452.917H572.719V433.167" stroke="#0B0504" stroke-opacity="0.3" stroke-width="0.12" stroke-linecap="round" stroke-linejoin="round"/>
<path d="M584.933 325.58V161.341H942.517V440.704H584.933V433.167H572.719M406.92 471.369H391.588V646.263H787.373V486.701H514.248" stroke="#0B0504" stroke-opacity="0.3" stroke-width="1.08" stroke-linecap="round" stroke-linejoin="round"/>
<path d="M610.921 562.064H585.193M610.921 646.262H585.193M597.407 549.59V658.736" stroke="#0B0504" stroke-opacity="0.3" stroke-width="0.6" stroke-linecap="round" stroke-linejoin="round"/>
<path d="M603.125 568.82L604.424 567.521L590.651 556.346L603.125 568.82ZM604.424 567.521L590.651 556.346L591.95 555.047L604.424 567.521Z" fill="#0B0504" fill-opacity="0.3"/>
<path d="M591.949 639.507L590.65 640.806L604.423 651.721L591.949 639.507ZM590.65 640.806L604.423 651.721L603.124 653.02L590.65 640.806Z" fill="#0B0504" fill-opacity="0.3"/>
<path d="M664.714 658.737V724.225M787.373 658.737V724.225M652.5 712.011H799.847" stroke="#0B0504" stroke-opacity="0.3" stroke-width="0.6" stroke-linecap="round" stroke-linejoin="round"/>
<path d="M671.47 706.554L670.171 705.254L659.256 718.768L671.47 706.554ZM670.171 705.254L659.256 718.768L657.957 717.468L670.171 705.254Z" fill="#0B0504" fill-opacity="0.3"/>
<path d="M780.617 717.468L781.917 718.768L792.831 705.254L780.617 717.468ZM781.917 718.768L792.831 705.254L794.131 706.554L781.917 718.768Z" fill="#0B0504" fill-opacity="0.3"/>
<path d="M562.324 488.781L565.702 488.001V486.702H553.228V488.001L556.346 488.781M562.324 488.781H556.346M562.324 488.781V493.718H556.346V488.781M562.324 505.152V504.373V503.853V503.333L562.064 503.073V502.554L561.804 502.294L561.544 502.034L561.284 501.774L561.024 501.514L560.504 501.254L560.245 500.995H559.985H559.465H558.945H558.685H558.166L557.906 501.254M557.906 501.254L557.126 501.774M557.906 501.254V499.695M556.346 502.814L556.087 503.853V504.373V504.633L556.346 505.152V505.672L556.606 505.932L556.866 506.192L557.126 506.452L557.386 506.712L557.906 506.972L558.166 507.231H558.685H558.945H559.465H559.985H560.504L560.764 506.972L561.544 506.452M561.024 499.695V501.254M561.544 493.718V495.017H557.386V493.718H561.544ZM562.583 495.017V499.695H556.087V495.017H562.583Z" stroke="#0B0504" stroke-opacity="0.3" stroke-width="1.08" stroke-linecap="round" stroke-linejoin="round"/>
<path d="M560.764 506.971L561.544 513.728H557.386L558.165 507.231M555.567 500.994L563.883 506.192L563.103 507.231L555.047 502.034L555.567 500.994Z" stroke="#0B0504" stroke-opacity="0.3" stroke-width="1.08" stroke-linecap="round" stroke-linejoin="round"/>
<path d="M579.475 488.781L582.853 488.001V486.702H570.379V488.001L573.498 488.781M579.475 488.781H573.498M579.475 488.781V493.718H573.498V488.781M579.475 505.152V504.373V503.853V503.333V503.073L579.215 502.554L578.955 502.294L578.695 502.034L578.435 501.774L578.176 501.514L577.656 501.254L577.396 500.995H577.136H576.616H576.356H575.837H575.317L575.057 501.254M575.057 501.254L574.277 501.774M575.057 501.254V499.695M573.498 502.814L573.238 503.853V504.373V504.633L573.498 505.152V505.672L573.758 505.932L574.018 506.192L574.277 506.452L574.537 506.712L575.057 506.972L575.317 507.231H575.837H576.097H576.616H577.136H577.656L578.176 506.972L578.695 506.452M578.176 499.695V501.254M578.695 493.718V495.017H574.537V493.718H578.695ZM579.735 495.017V499.695H573.238V495.017H579.735Z" stroke="#0B0504" stroke-opacity="0.3" stroke-width="1.08" stroke-linecap="round" stroke-linejoin="round"/>
<path d="M577.915 506.971L578.695 513.728H574.537L575.317 507.231M572.978 500.994L581.034 506.192L580.254 507.231L572.198 502.034L572.978 500.994Z" stroke="#0B0504" stroke-opacity="0.3" stroke-width="1.08" stroke-linecap="round" stroke-linejoin="round"/>
<path d="M514.248 476.046V486.701" stroke="#0B0504" stroke-opacity="0.3" stroke-width="1.08" stroke-linecap="round" stroke-linejoin="round"/>
<path d="M569.861 480.984L567.262 480.724L568.041 486.701L569.861 480.984ZM567.262 480.724L568.041 486.701L565.183 481.244L567.262 480.724ZM568.041 486.701L565.183 481.244L563.364 482.803L568.041 486.701Z" fill="#0B0504" fill-opacity="0.3"/>
<path d="M563.363 482.803L562.064 485.142L568.041 486.701L563.363 482.803ZM562.064 485.142L568.041 486.701L561.804 487.481L562.064 485.142ZM568.041 486.701L561.804 487.481L562.584 489.82L568.041 486.701Z" fill="#0B0504" fill-opacity="0.3"/>
<path d="M562.583 489.82L564.143 491.64L568.041 486.702L562.583 489.82ZM564.143 491.64L568.041 486.702L566.222 492.679L564.143 491.64ZM568.041 486.702L566.222 492.679L568.561 492.939L568.041 486.702ZM568.561 492.939L570.899 492.159L568.041 486.702L568.561 492.939ZM570.899 492.159L568.041 486.702L572.719 490.6L570.899 492.159ZM568.041 486.702L572.719 490.6L574.018 488.521L568.041 486.702ZM574.018 488.521V486.182L568.041 486.702L574.018 488.521ZM574.018 486.182L568.041 486.702L573.498 483.843L574.018 486.182ZM568.041 486.702L573.498 483.843L571.939 482.024L568.041 486.702Z" fill="#0B0504" fill-opacity="0.3"/>
<path d="M571.939 482.023L569.86 480.984L568.041 486.701L571.939 482.023Z" fill="#0B0504" fill-opacity="0.3"/>
<path d="M139.252 585.713L137.433 584.414L134.834 589.871L139.252 585.713ZM137.433 584.414L134.834 589.871L135.094 583.634L137.433 584.414ZM134.834 589.871L135.094 583.634L132.755 584.154L134.834 589.871Z" fill="#0B0504" fill-opacity="0.3"/>
<path d="M132.755 584.154L130.676 585.193L134.834 589.871L132.755 584.154ZM130.676 585.193L134.834 589.871L129.117 587.272L130.676 585.193ZM134.834 589.871L129.117 587.272L128.597 589.611L134.834 589.871Z" fill="#0B0504" fill-opacity="0.3"/>
<path d="M128.597 589.611L128.857 591.95L134.834 589.871L128.597 589.611ZM128.857 591.95L134.834 589.871L130.156 594.029L128.857 591.95ZM134.834 589.871L130.156 594.029L132.235 595.328L134.834 589.871Z" fill="#0B0504" fill-opacity="0.3"/>
<path d="M132.236 595.328L134.315 596.107L134.835 589.87L132.236 595.328ZM134.315 596.107L134.835 589.87L136.914 595.588L134.315 596.107ZM134.835 589.87L136.914 595.588L138.993 594.288L134.835 589.87ZM138.993 594.288L140.292 592.469L134.835 589.87L138.993 594.288ZM140.292 592.469L134.835 589.87L140.812 590.13L140.292 592.469ZM134.835 589.87L140.812 590.13L140.552 587.792L134.835 589.87Z" fill="#0B0504" fill-opacity="0.3"/>
<path d="M140.551 587.792L139.252 585.713L134.834 589.871L140.551 587.792Z" fill="#0B0504" fill-opacity="0.3"/>
<path d="M125.35 493.198C109.634 493.198 96.8936 505.938 96.8936 521.654M96.8936 521.784V620.536M96.8936 620.406C96.8936 636.122 109.634 648.862 125.35 648.862M125.22 649.122H163.681M163.811 648.862C179.526 648.862 192.267 636.122 192.267 620.406M192.267 620.536V521.784M192.267 521.654C192.267 505.938 179.526 493.198 163.811 493.198M163.681 493.198H125.22" stroke="#0B0504" stroke-opacity="0.3" stroke-width="1.08" stroke-linecap="round" stroke-linejoin="round"/>
<path d="M88.3177 577.137L87.5381 573.759H86.2388V586.232H87.5381L88.3177 583.114M88.3177 577.137V583.114M88.3177 577.137H93.2553V583.114H88.3177M104.69 577.137H103.65H103.13H102.871L102.351 577.397H102.091L101.831 577.657L101.311 577.917L101.051 578.176L100.792 578.436M100.792 578.436V578.956L100.532 579.216V579.476L100.272 579.995V580.515L100.532 580.775V581.295L100.792 581.555L101.311 582.334M100.792 578.436H98.9725M102.351 583.114L103.13 583.374H103.65H104.17H104.69L104.95 583.114L105.469 582.854L105.729 582.594L105.989 582.334L106.249 582.074L106.509 581.555V581.295L106.769 580.775V580.515V579.995V579.476L106.509 578.956L106.249 578.696L105.729 577.917M98.9725 581.555H100.532M93.2553 577.917H94.5547V582.074H93.2553V577.917ZM94.5547 576.877H98.9725V583.374H94.5547V576.877Z" stroke="#0B0504" stroke-opacity="0.3" stroke-width="1.08" stroke-linecap="round" stroke-linejoin="round"/>
<path d="M106.509 578.696L113.266 577.917V582.075L106.509 581.295M100.272 583.894L105.469 575.578L106.769 576.358L101.571 584.414L100.272 583.894Z" stroke="#0B0504" stroke-opacity="0.3" stroke-width="1.08" stroke-linecap="round" stroke-linejoin="round"/>
<path d="M88.3177 559.986L87.5381 556.607H86.2388V569.081H87.5381L88.3177 565.963M88.3177 559.986V565.963M88.3177 559.986H93.2553V565.963H88.3177M104.69 559.986H103.65H103.13H102.871L102.351 560.245H102.091L101.831 560.505L101.311 560.765L101.051 561.025L100.792 561.285M100.792 561.285V561.805L100.532 562.065V562.324L100.272 562.844V563.364L100.532 563.624V564.143L100.792 564.403L101.311 565.183M100.792 561.285H98.9725M102.351 565.963L103.13 566.222H103.65H104.17L104.69 565.963H104.95L105.469 565.703L105.729 565.443L105.989 565.183L106.249 564.923L106.509 564.403V564.143L106.769 563.624V563.364V562.844V562.324L106.509 561.805L106.249 561.545L105.729 560.765M98.9725 564.403H100.532M93.2553 560.765H94.5547V564.923H93.2553V560.765ZM94.5547 559.726H98.9725V566.222H94.5547V559.726Z" stroke="#0B0504" stroke-opacity="0.3" stroke-width="1.08" stroke-linecap="round" stroke-linejoin="round"/>
<path d="M106.509 561.545L113.266 560.765V564.923L106.509 564.144M100.272 566.483L105.469 558.427L106.769 559.206L101.571 567.262L100.272 566.483Z" stroke="#0B0504" stroke-opacity="0.3" stroke-width="1.08" stroke-linecap="round" stroke-linejoin="round"/>
<path d="M202.921 474.487V446.681M86.2384 474.487V446.681M215.135 459.155H74.0244" stroke="#0B0504" stroke-opacity="0.3" stroke-width="0.6" stroke-linecap="round" stroke-linejoin="round"/>
<path d="M195.904 464.612L197.204 465.911L208.378 452.398L195.904 464.612ZM197.204 465.911L208.378 452.398L209.678 453.697L197.204 465.911Z" fill="#0B0504" fill-opacity="0.3"/>
<path d="M92.9953 453.698L91.6959 452.399L80.7813 465.912L92.9953 453.698ZM91.6959 452.399L80.7813 465.912L79.4819 464.613L91.6959 452.399Z" fill="#0B0504" fill-opacity="0.3"/>
<path d="M74.0239 486.702H40.7603M74.0239 655.619H40.7603M53.2341 474.488V667.833" stroke="#0B0504" stroke-opacity="0.3" stroke-width="0.6" stroke-linecap="round" stroke-linejoin="round"/>
<path d="M58.6915 493.458L59.9909 492.159L46.4775 481.244L58.6915 493.458ZM59.9909 492.159L46.4775 481.244L47.7769 479.945L59.9909 492.159Z" fill="#0B0504" fill-opacity="0.3"/>
<path d="M47.7769 648.862L46.4775 650.161L59.9909 661.076L47.7769 648.862ZM46.4775 650.161L59.9909 661.076L58.6915 662.375L46.4775 650.161Z" fill="#0B0504" fill-opacity="0.3"/>
<path d="M391.589 575.578L405.362 562.065M391.589 597.667L427.451 562.065M391.589 619.756L449.281 562.065M391.589 641.845L471.37 562.065M409 646.263L493.459 562.065M431.089 646.263L515.548 562.065M453.179 646.263L537.637 562.065M475.268 646.263L559.726 562.065M497.357 646.263L559.207 584.414L581.556 562.065M519.446 646.263L550.111 615.598L569.861 595.848M664.715 500.995L679.008 486.702M581.556 583.894L603.645 562.065M541.275 646.263L569.861 617.937M664.715 523.084L700.837 486.702M603.645 584.154L625.734 562.065M563.364 646.263L583.635 625.993M664.715 545.173L722.926 486.702M603.645 606.243L647.823 562.065M585.454 646.263L664.715 567.002L745.015 486.702M607.543 646.263L664.715 589.091L767.104 486.702M629.632 646.263L664.715 611.18L787.374 488.521M651.721 646.263L664.715 633.27L787.374 510.61M673.55 646.263L787.374 532.439M695.639 646.263L787.374 554.528M717.729 646.263L787.374 576.617M739.818 646.263L787.374 598.707M761.907 646.263L787.374 620.796M783.996 646.263L787.374 642.885" stroke="#0B0504" stroke-opacity="0.3" stroke-width="0.48" stroke-linecap="round" stroke-linejoin="round"/>
<path d="M864.816 331.038L861.958 333.637L860.918 344.032L866.376 348.71L870.014 347.41L870.794 339.094L868.715 331.038M909.515 331.038L906.396 333.637L905.616 344.032L910.814 348.71L914.452 347.41L915.232 339.094L913.413 331.038M933.163 361.703H929.525L921.209 358.065L920.689 348.71L928.225 339.094L933.163 337.535M933.163 406.141L929.525 406.401L921.209 402.763L920.689 393.408L928.225 383.533L933.163 381.973M853.382 416.017L852.602 409.78L849.484 406.401H846.625L842.727 408.48L843.507 416.017M898.08 416.017L897.041 409.78L893.922 406.401H891.323L887.166 408.48L888.205 416.017M852.602 331.038L849.484 334.157L844.806 331.038M897.041 331.038L893.922 334.157L889.244 331.038M899.899 331.038L898.08 334.157L902.498 335.976L903.797 332.857L903.278 331.038M855.201 331.038L853.382 334.157L857.8 335.976L859.099 332.857L858.58 331.038M910.814 372.098L904.577 369.24L902.498 361.703L904.577 354.167L910.814 351.828L916.791 354.687L919.39 361.703L917.051 368.98L910.814 371.578M866.376 372.098L860.139 369.24L857.8 361.703L860.139 354.167L866.376 351.828L872.093 354.687L874.692 361.703L872.613 368.98L866.376 371.578M909.515 416.017L904.577 413.938L902.498 406.401L904.577 398.605L910.814 396.526L916.791 399.125L919.39 406.401L917.051 413.418L911.334 416.017M864.816 416.017L860.139 413.938L857.8 406.401L860.139 398.605L866.376 396.526L872.093 399.125L874.692 406.401L872.613 413.418L866.895 416.017M828.954 358.065L830.253 361.703L828.954 366.121M828.954 402.503L830.253 406.401L828.954 410.819M933.163 374.437L931.864 364.042L933.163 363.263M932.643 416.017L931.864 408.48L933.163 407.701M828.954 385.352L832.852 387.691L841.948 379.634V367.94L837.79 362.223L831.553 364.042L828.954 369.24M828.954 340.654L832.852 342.992L841.948 334.936V331.038M930.824 416.017V412.638L926.926 406.661L920.689 408.48L916.791 416.017M930.824 331.038V334.936L921.988 342.992L916.791 339.874L916.011 331.038M886.386 416.017V412.638L882.488 406.661L876.251 408.48L872.353 416.017M886.386 331.038V334.936L877.55 342.992L872.093 339.874L871.313 331.038M841.948 416.017V412.638L837.79 406.661L831.553 408.48L828.954 413.678M866.376 374.177L861.958 378.335L860.918 388.47L866.376 393.408L870.014 392.108L870.794 383.533L868.455 374.697L866.376 374.177ZM910.814 374.177L906.396 378.335L905.616 388.47L910.814 393.408L914.452 392.108L915.232 383.533L913.153 374.697L910.814 374.177ZM849.744 361.184L840.388 361.703L832.073 358.065L831.553 348.71L839.089 339.094L850.264 335.456L858.32 340.394L859.099 351.049L849.744 361.184ZM894.442 361.184L885.087 361.703L876.511 358.065L876.251 348.71L883.787 339.094L894.962 335.456L902.758 340.394L903.797 351.049L894.442 361.184ZM849.744 405.882L840.388 406.401L832.073 402.763L831.553 393.408L839.089 383.533L850.264 379.894L858.32 384.832L859.099 395.487L849.744 405.882ZM894.442 405.882L885.087 406.401L876.511 402.763L876.251 393.408L883.787 383.533L894.962 379.894L902.758 384.832L903.797 395.487L894.442 405.882ZM849.484 361.703L852.602 365.341L853.902 374.177L849.484 378.595L844.027 375.217L842.727 364.042L846.625 361.703H849.484ZM893.922 361.703L897.041 365.341L898.34 374.177L893.922 378.595L888.725 375.217L887.166 364.042L891.323 361.703H893.922ZM859.099 377.296L857.8 380.414L853.382 378.595L857.54 372.098L859.099 377.296ZM903.797 377.296L902.498 380.414L898.08 378.595L901.978 372.098L903.797 377.296ZM872.093 384.572L877.55 387.691L886.386 379.634V367.94L882.488 362.223L876.251 364.042L871.313 373.398L872.093 384.572ZM916.791 384.572L921.988 387.691L930.824 379.634V367.94L926.926 362.223L920.689 364.042L915.751 373.398L916.791 384.572Z" stroke="#0B0504" stroke-opacity="0.3" stroke-width="0.48" stroke-linecap="round" stroke-linejoin="round"/>
<path d="M828.954 331.039V416.017H933.163V331.039M875.471 428.621C875.471 431.85 878.089 434.468 881.318 434.468C884.548 434.468 887.166 431.85 887.166 428.621C887.166 425.391 884.548 422.774 881.318 422.774C878.089 422.774 875.471 425.391 875.471 428.621Z" stroke="#0B0504" stroke-opacity="0.3" stroke-width="1.08" stroke-linecap="round" stroke-linejoin="round"/>
<path d="M828.953 331.038H933.162M819.598 318.045V440.705H942.517V318.045H819.598Z" stroke="#0B0504" stroke-opacity="0.3" stroke-width="1.08" stroke-linecap="round" stroke-linejoin="round"/>
<path d="M942.518 284.261H584.934" stroke="#0B0504" stroke-opacity="0.3" stroke-width="1.08" stroke-linecap="round" stroke-linejoin="round"/>
<path d="M584.934 208.898H942.518M584.934 207.599H942.518M584.934 193.566H942.518M584.934 192.006H942.518M584.934 224.231H942.518M584.934 222.931H942.518M584.934 255.155H942.518M584.934 253.596H942.518M584.934 239.823H942.518M584.934 238.264H942.518M584.934 270.488H942.518M584.934 268.929H942.518M584.934 178.233H942.518M584.934 176.674H942.518" stroke="#0B0504" stroke-opacity="0.3" stroke-width="0.48" stroke-linecap="round" stroke-linejoin="round"/>
<path d="M942.518 314.926H584.934" stroke="#0B0504" stroke-opacity="0.3" stroke-width="1.08" stroke-linecap="round" stroke-linejoin="round"/>
<path d="M584.934 285.821H942.518M584.934 301.153H942.518M584.934 299.594H942.518" stroke="#0B0504" stroke-opacity="0.3" stroke-width="0.48" stroke-linecap="round" stroke-linejoin="round"/>
<path d="M661.856 302.972L652.76 285.821M652.76 285.821V314.926M652.76 285.821L643.405 302.972M772.821 302.972L763.726 285.821M763.726 285.821V314.926M763.726 285.821L754.63 302.972M865.596 302.972L874.691 285.821M874.691 285.821V314.926M874.691 285.821L883.787 302.972" stroke="#0B0504" stroke-opacity="0.3" stroke-width="0.12" stroke-linecap="round" stroke-linejoin="round"/>
<path d="M367.94 189.148L370.279 188.628L367.42 183.171L367.94 189.148ZM370.279 188.628L367.42 183.171L372.098 187.069L370.279 188.628ZM367.42 183.171L372.098 187.069L373.397 184.99L367.42 183.171Z" fill="#0B0504" fill-opacity="0.3"/>
<path d="M373.397 184.99L373.657 182.651L367.42 183.171L373.397 184.99ZM373.657 182.651L367.42 183.171L372.878 180.312L373.657 182.651ZM367.42 183.171L372.878 180.312L371.318 178.493L367.42 183.171Z" fill="#0B0504" fill-opacity="0.3"/>
<path d="M371.318 178.493L369.239 177.194L367.42 183.171L371.318 178.493ZM369.239 177.194L367.42 183.171L366.9 176.934L369.239 177.194ZM367.42 183.171L366.9 176.934L364.561 177.714L367.42 183.171Z" fill="#0B0504" fill-opacity="0.3"/>
<path d="M364.561 177.713L362.742 179.273L367.42 183.171L364.561 177.713ZM362.742 179.273L367.42 183.171L361.443 181.352L362.742 179.273ZM367.42 183.171L361.443 181.352V183.69L367.42 183.171Z" fill="#0B0504" fill-opacity="0.3"/>
<path d="M361.443 183.69L361.963 186.029L367.42 183.171L361.443 183.69ZM361.963 186.029L367.42 183.171L363.522 187.848L361.963 186.029ZM367.42 183.171L363.522 187.848L365.601 188.888L367.42 183.171Z" fill="#0B0504" fill-opacity="0.3"/>
<path d="M365.601 188.888L367.939 189.147L367.42 183.17L365.601 188.888Z" fill="#0B0504" fill-opacity="0.3"/>
<path d="M431.868 181.611H434.207L433.168 175.634L431.868 181.611ZM434.207 181.611L433.168 175.634L436.546 180.832L434.207 181.611ZM433.168 175.634L436.546 180.832L438.105 179.013L433.168 175.634Z" fill="#0B0504" fill-opacity="0.3"/>
<path d="M438.106 179.013L439.145 176.934L433.168 175.635L438.106 179.013ZM439.145 176.934L433.168 175.635L439.145 174.595V176.934ZM433.168 175.635L439.145 174.595L438.106 172.257L433.168 175.635Z" fill="#0B0504" fill-opacity="0.3"/>
<path d="M438.105 172.256L436.546 170.697L433.168 175.635L438.105 172.256ZM436.546 170.697L433.168 175.635L434.207 169.658L436.546 170.697ZM433.168 175.635L434.207 169.658H431.868L433.168 175.635Z" fill="#0B0504" fill-opacity="0.3"/>
<path d="M431.869 169.658L429.53 170.697L433.168 175.635L431.869 169.658ZM429.53 170.697L433.168 175.635L427.971 172.256L429.53 170.697ZM433.168 175.635L427.971 172.256L426.931 174.595L433.168 175.635Z" fill="#0B0504" fill-opacity="0.3"/>
<path d="M426.931 174.595V176.934L433.168 175.635L426.931 174.595ZM426.931 176.934L433.168 175.635L427.971 179.013L426.931 176.934ZM433.168 175.635L427.971 179.013L429.53 180.832L433.168 175.635Z" fill="#0B0504" fill-opacity="0.3"/>
<path d="M429.529 180.832L431.868 181.611L433.168 175.634L429.529 180.832Z" fill="#0B0504" fill-opacity="0.3"/>
<path d="M384.572 163.681H472.669V178.493H384.572V163.681ZM514.248 168.358H547.252V187.589H514.248V168.358Z" stroke="#0B0504" stroke-opacity="0.3" stroke-width="0.12" stroke-linecap="round" stroke-linejoin="round"/>
<path d="M530.62 187.588L533.998 173.295L547.252 168.358M530.62 187.588V168.358H547.252M530.62 187.588H547.252V168.358M539.716 200.842H572.719V220.332H539.716V200.842Z" stroke="#0B0504" stroke-opacity="0.3" stroke-width="0.12" stroke-linecap="round" stroke-linejoin="round"/>
<path d="M539.716 220.332L543.094 206.039L556.088 200.842M539.716 220.332V200.842H556.088M539.716 220.332H556.088V200.842" stroke="#0B0504" stroke-opacity="0.3" stroke-width="0.12" stroke-linecap="round" stroke-linejoin="round"/>
<path d="M339.354 669.132H332.338V675.369H339.354V669.132ZM232.027 669.132H238.264V675.369H232.027V669.132Z" stroke="#0B0504" stroke-opacity="0.3" stroke-width="0.48" stroke-linecap="round" stroke-linejoin="round"/>
<path d="M237.484 675.369V674.07H238.264M333.637 675.369V674.07H332.338M333.117 675.369V680.307H331.558M331.558 769.703V677.708H332.338V675.369M328.959 761.906H335.716M328.959 760.347H335.716M328.959 749.952H335.716M328.959 748.653H335.716M328.959 745.015L326.361 742.676V762.946L328.959 765.285V745.015ZM335.716 745.015L338.315 742.676V762.946L335.716 765.285V745.015Z" stroke="#0B0504" stroke-opacity="0.3" stroke-width="0.48" stroke-linecap="round" stroke-linejoin="round"/>
<path d="M318.304 767.364L321.423 768.143L331.558 769.703L332.337 769.183V680.307M312.327 765.805L311.548 765.545L301.932 762.166L300.893 761.647M295.436 759.048L292.577 757.749L284.781 752.811M279.583 749.173L275.685 746.314L270.228 741.377M266.07 736.959L261.132 731.761L258.274 727.603M254.636 722.666L249.958 714.61L248.659 711.751M246.06 706.294L245.54 705.254L242.162 695.639L241.902 694.859M240.603 688.882L239.823 685.764L238.264 675.369M560.505 325.581V332.597H554.268V325.581H560.505ZM560.505 433.168V426.671H554.268V433.168H560.505Z" stroke="#0B0504" stroke-opacity="0.3" stroke-width="0.48" stroke-linecap="round" stroke-linejoin="round"/>
<path d="M554.268 427.451H555.567V426.671M554.268 331.298H555.567V332.597M554.268 332.078H549.331V333.377M460.194 333.377H552.189V332.597H554.268M467.991 336.236V329.219M469.29 336.236V329.219M479.685 336.236V329.219M481.244 336.236V329.219M484.622 336.236L486.961 338.574H466.951L464.352 336.236H484.622ZM484.622 329.219L486.961 326.88H466.951L464.352 329.219H484.622Z" stroke="#0B0504" stroke-opacity="0.3" stroke-width="0.48" stroke-linecap="round" stroke-linejoin="round"/>
<path d="M462.534 346.631L461.754 343.512L460.195 333.377L460.455 332.858H549.331M463.833 352.608L464.093 353.388L467.732 363.003L468.251 364.042M470.85 369.76L472.149 372.358L476.827 380.414M480.465 385.352L483.584 389.25L488.261 394.707M492.679 399.125L498.137 403.803L502.035 406.921M507.232 410.3L515.028 415.237L517.887 416.277M523.344 418.875L524.384 419.395L533.999 422.774L535.038 423.033M541.016 424.593L544.134 425.372L554.269 426.672M406.921 459.416H413.938V452.919H406.921V459.416ZM514.249 459.416H508.012V452.919H514.249V459.416Z" stroke="#0B0504" stroke-opacity="0.3" stroke-width="0.48" stroke-linecap="round" stroke-linejoin="round"/>
<path d="M508.791 452.918V454.478H508.012M412.639 452.918V454.478H413.938M413.158 452.918V447.981H414.718M414.718 358.845V450.839H413.938V452.918M417.316 366.641H410.56M417.316 368.2H410.56M417.316 378.335H410.56M417.316 379.894H410.56M417.316 383.273L419.915 385.871V365.601L417.316 363.262V383.273ZM410.56 383.273L407.961 385.871V365.601L410.56 363.262V383.273Z" stroke="#0B0504" stroke-opacity="0.3" stroke-width="0.48" stroke-linecap="round" stroke-linejoin="round"/>
<path d="M427.971 361.184L424.853 360.404L414.717 358.845L414.198 359.105V447.981M433.948 362.743L434.728 363.003L444.343 366.381L445.382 366.901M451.1 369.5L453.698 370.799L461.754 375.737M466.692 379.115L470.59 382.234L476.047 387.171M480.205 391.589L485.143 396.787L488.001 400.944M491.64 405.882L496.317 413.938L497.617 416.537M500.215 422.254L500.735 423.294L504.114 432.909L504.373 433.688M505.673 439.665L506.452 442.784L508.012 452.919" stroke="#0B0504" stroke-opacity="0.3" stroke-width="0.48" stroke-linecap="round" stroke-linejoin="round"/>
<path d="M954.732 161.341H1057.38M954.732 284.261H1057.38M1044.91 149.127V296.475" stroke="#0B0504" stroke-opacity="0.3" stroke-width="0.6" stroke-linecap="round" stroke-linejoin="round"/>
<path d="M1050.36 168.358L1051.92 167.059L1038.15 155.884L1050.36 168.358ZM1051.92 167.059L1038.15 155.884L1039.45 154.585L1051.92 167.059Z" fill="#0B0504" fill-opacity="0.3"/>
<path d="M1039.45 277.504L1038.15 278.804L1051.92 289.718L1039.45 277.504ZM1038.15 278.804L1051.92 289.718L1050.36 291.018L1038.15 278.804Z" fill="#0B0504" fill-opacity="0.3"/>
<path d="M954.731 284.262H1057.38M954.731 314.927H1057.38M1044.91 272.048V327.141" stroke="#0B0504" stroke-opacity="0.3" stroke-width="0.6" stroke-linecap="round" stroke-linejoin="round"/>
<path d="M1050.36 291.018L1051.92 289.718L1038.15 278.804L1050.36 291.018ZM1051.92 289.718L1038.15 278.804L1039.45 277.504L1051.92 289.718Z" fill="#0B0504" fill-opacity="0.3"/>
<path d="M1039.45 308.17L1038.15 309.469L1051.92 320.384L1039.45 308.17ZM1038.15 309.469L1051.92 320.384L1050.36 321.683L1038.15 309.469Z" fill="#0B0504" fill-opacity="0.3"/>
<path d="M597.147 325.581H632.23M591.17 433.168H632.23M620.016 313.367V445.382" stroke="#0B0504" stroke-opacity="0.3" stroke-width="0.6" stroke-linecap="round" stroke-linejoin="round"/>
<path d="M625.474 332.338L626.773 331.039L613.26 320.124L625.474 332.338ZM626.773 331.039L613.26 320.124L614.559 318.825L626.773 331.039Z" fill="#0B0504" fill-opacity="0.3"/>
<path d="M614.558 426.152L613.259 427.451L626.772 438.626L614.558 426.152ZM613.259 427.451L626.772 438.626L625.473 439.925L613.259 427.451Z" fill="#0B0504" fill-opacity="0.3"/>
<path d="M373.138 669.392V756.449M339.354 669.392V756.449M385.352 743.975H327.14" stroke="#0B0504" stroke-opacity="0.3" stroke-width="0.6" stroke-linecap="round" stroke-linejoin="round"/>
<path d="M366.381 749.432L367.68 750.992L378.595 737.218L366.381 749.432ZM367.68 750.992L378.595 737.218L379.894 738.518L367.68 750.992Z" fill="#0B0504" fill-opacity="0.3"/>
<path d="M346.111 738.518L344.811 737.218L333.897 750.992L346.111 738.518ZM344.811 737.218L333.897 750.992L332.597 749.432L344.811 737.218Z" fill="#0B0504" fill-opacity="0.3"/>
<path d="M333.377 233.586H296.735M339.094 149.128H296.735M309.209 245.8V136.914" stroke="#0B0504" stroke-opacity="0.3" stroke-width="0.6" stroke-linecap="round" stroke-linejoin="round"/>
<path d="M303.492 226.829L302.192 228.129L315.966 239.043L303.492 226.829ZM302.192 228.129L315.966 239.043L314.666 240.343L302.192 228.129Z" fill="#0B0504" fill-opacity="0.3"/>
<path d="M314.666 155.884L315.966 154.585L302.192 143.67L314.666 155.884ZM315.966 154.585L302.192 143.67L303.492 142.371L315.966 154.585Z" fill="#0B0504" fill-opacity="0.3"/>
<path d="M215.265 208.119C221.221 208.119 226.049 203.291 226.049 197.335C226.049 191.378 221.221 186.55 215.265 186.55C209.308 186.55 204.48 191.378 204.48 197.335C204.48 203.291 209.308 208.119 215.265 208.119Z" stroke="#0B0504" stroke-opacity="0.3" stroke-width="0.48" stroke-linecap="round" stroke-linejoin="round"/>
<path d="M215.265 199.023C216.198 199.023 216.954 198.267 216.954 197.334C216.954 196.401 216.198 195.645 215.265 195.645C214.332 195.645 213.576 196.401 213.576 197.334C213.576 198.267 214.332 199.023 215.265 199.023Z" stroke="#0B0504" stroke-opacity="0.3" stroke-width="0.48" stroke-linecap="round" stroke-linejoin="round"/>
<path d="M214.095 196.165L214.355 155.625H216.694L216.174 196.165M225.79 160.822H231.507V156.145H225.79M225.79 160.822V156.145M225.79 160.822H216.434M225.79 156.145H225.27V151.727M205 160.563L214.355 160.822M212.016 151.467H203.96V149.128H212.016V151.467ZM212.016 151.467H219.553M219.553 151.467L226.829 151.727V149.388H219.553V151.467ZM219.553 151.467V152.766H225.27M212.016 149.908H219.553M215.395 151.467V148.089M222.931 151.467V147.049M207.859 151.467L208.118 146.789M205.78 156.145V151.467H205.52V156.145H205.78ZM205.78 156.145H205M205.78 152.506L211.497 152.766V151.467M205.78 154.326H209.937V154.845H211.497M211.497 156.405H214.095M213.576 154.326L213.836 151.467M225.27 154.585L220.852 154.326V155.105H219.553M219.553 156.405H216.954M217.214 154.326V151.467M199.283 160.563H205.26V156.145H199.283V160.563ZM211.497 154.326H214.095L213.836 158.484H211.497V154.326ZM219.553 154.326H216.954V158.484H219.293L219.553 154.326Z" stroke="#0B0504" stroke-opacity="0.3" stroke-width="0.48" stroke-linecap="round" stroke-linejoin="round"/>
<path d="M215.265 207.858C215.624 207.858 215.915 207.568 215.915 207.209C215.915 206.85 215.624 206.559 215.265 206.559C214.906 206.559 214.615 206.85 214.615 207.209C214.615 207.568 214.906 207.858 215.265 207.858Z" stroke="#0B0504" stroke-opacity="0.3" stroke-width="0.48" stroke-linecap="round" stroke-linejoin="round"/>
<path d="M208.248 204.74C208.607 204.74 208.898 204.449 208.898 204.091C208.898 203.732 208.607 203.441 208.248 203.441C207.889 203.441 207.598 203.732 207.598 204.091C207.598 204.449 207.889 204.74 208.248 204.74Z" stroke="#0B0504" stroke-opacity="0.3" stroke-width="0.48" stroke-linecap="round" stroke-linejoin="round"/>
<path d="M205.39 197.983C205.749 197.983 206.04 197.693 206.04 197.334C206.04 196.975 205.749 196.684 205.39 196.684C205.031 196.684 204.74 196.975 204.74 197.334C204.74 197.693 205.031 197.983 205.39 197.983Z" stroke="#0B0504" stroke-opacity="0.3" stroke-width="0.48" stroke-linecap="round" stroke-linejoin="round"/>
<path d="M208.768 190.967C209.127 190.967 209.418 190.676 209.418 190.318C209.418 189.959 209.127 189.668 208.768 189.668C208.41 189.668 208.119 189.959 208.119 190.318C208.119 190.676 208.41 190.967 208.768 190.967Z" stroke="#0B0504" stroke-opacity="0.3" stroke-width="0.48" stroke-linecap="round" stroke-linejoin="round"/>
<path d="M222.021 191.226C222.38 191.226 222.67 190.935 222.67 190.576C222.67 190.218 222.38 189.927 222.021 189.927C221.662 189.927 221.371 190.218 221.371 190.576C221.371 190.935 221.662 191.226 222.021 191.226Z" stroke="#0B0504" stroke-opacity="0.3" stroke-width="0.48" stroke-linecap="round" stroke-linejoin="round"/>
<path d="M224.62 197.983C224.979 197.983 225.27 197.693 225.27 197.334C225.27 196.975 224.979 196.684 224.62 196.684C224.261 196.684 223.97 196.975 223.97 197.334C223.97 197.693 224.261 197.983 224.62 197.983Z" stroke="#0B0504" stroke-opacity="0.3" stroke-width="0.48" stroke-linecap="round" stroke-linejoin="round"/>
<path d="M221.762 205.001C222.121 205.001 222.412 204.71 222.412 204.351C222.412 203.992 222.121 203.701 221.762 203.701C221.403 203.701 221.112 203.992 221.112 204.351C221.112 204.71 221.403 205.001 221.762 205.001Z" stroke="#0B0504" stroke-opacity="0.3" stroke-width="0.48" stroke-linecap="round" stroke-linejoin="round"/>
<path d="M235.925 177.193V217.993H195.125V177.193H235.925Z" stroke="#0B0504" stroke-opacity="0.3" stroke-width="0.48" stroke-linecap="round" stroke-linejoin="round"/>
<path d="M146.269 344.032L147.048 341.693L140.812 341.173L146.269 344.032ZM147.048 341.693L140.812 341.173L146.789 339.354L147.048 341.693ZM140.812 341.173L146.789 339.354L145.489 337.015L140.812 341.173Z" fill="#0B0504" fill-opacity="0.3"/>
<path d="M145.489 337.015L143.67 335.716L140.812 341.173L145.489 337.015ZM143.67 335.716L140.812 341.173L141.332 334.936L143.67 335.716ZM140.812 341.173L141.332 334.936L138.993 335.196L140.812 341.173Z" fill="#0B0504" fill-opacity="0.3"/>
<path d="M138.992 335.196L136.913 336.496L140.811 341.173L138.992 335.196ZM136.913 336.496L140.811 341.173L135.354 338.315L136.913 336.496ZM140.811 341.173L135.354 338.315L134.834 340.654L140.811 341.173Z" fill="#0B0504" fill-opacity="0.3"/>
<path d="M134.834 340.654L135.094 342.993L140.811 341.174L134.834 340.654ZM135.094 342.993L140.811 341.174L136.133 345.072L135.094 342.993ZM140.811 341.174L136.133 345.072L137.952 346.631L140.811 341.174Z" fill="#0B0504" fill-opacity="0.3"/>
<path d="M137.953 346.63L140.292 347.15L140.812 341.173L137.953 346.63ZM140.292 347.15L140.812 341.173L142.631 346.89L140.292 347.15ZM140.812 341.173L142.631 346.89L144.97 345.851L140.812 341.173ZM144.97 345.851L146.269 344.031L140.812 341.173L144.97 345.851Z" fill="#0B0504" fill-opacity="0.3"/>
<path d="M181.871 341.044C181.871 318.439 163.546 300.114 140.941 300.114C118.336 300.114 100.011 318.439 100.011 341.044C100.011 363.649 118.336 381.974 140.941 381.974C163.546 381.974 181.871 363.649 181.871 341.044Z" stroke="#0B0504" stroke-opacity="0.3" stroke-width="0.48" stroke-linecap="round" stroke-linejoin="round"/>
<path d="M122.625 385.854C122.569 388.365 130.724 390.583 140.84 390.808C150.956 391.033 159.202 389.18 159.257 386.669C159.313 384.158 151.158 381.94 141.042 381.715C130.926 381.49 122.68 383.343 122.625 385.854Z" stroke="#0B0504" stroke-opacity="0.3" stroke-width="0.479999" stroke-linecap="round" stroke-linejoin="round"/>
<path d="M122.625 295.973C122.681 298.484 130.927 300.338 141.043 300.113C151.158 299.887 159.314 297.669 159.258 295.158C159.202 292.647 150.956 290.794 140.84 291.019C130.724 291.244 122.569 293.462 122.625 295.973Z" stroke="#0B0504" stroke-opacity="0.3" stroke-width="0.479999" stroke-linecap="round" stroke-linejoin="round"/>
<path d="M165.499 341.044C165.499 327.481 154.504 316.486 140.941 316.486C127.378 316.486 116.383 327.481 116.383 341.044C116.383 354.607 127.378 365.602 140.941 365.602C154.504 365.602 165.499 354.607 165.499 341.044Z" stroke="#0B0504" stroke-opacity="0.3" stroke-width="0.48" stroke-linecap="round" stroke-linejoin="round"/>
<path d="M140.812 365.6V381.972M121.841 356.505L109.107 366.9M116.384 341.172H100.012M159.782 356.505L172.516 366.9M165.5 341.172H181.872M140.812 316.484V300.112M121.841 325.58L109.107 315.185M159.782 325.58L172.516 315.185M122.621 386.65H85.7188V295.695H122.621" stroke="#0B0504" stroke-opacity="0.3" stroke-width="0.48" stroke-linecap="round" stroke-linejoin="round"/>
<path d="M345.591 149.127H86.2388M373.138 606.243H355.726V610.141H373.138V606.243Z" stroke="#0B0504" stroke-opacity="0.3" stroke-width="0.12" stroke-linecap="round" stroke-linejoin="round"/>
<path d="M355.727 606.243H360.924V610.141H355.727V606.243ZM373.138 589.091H355.727V592.729H373.138V589.091Z" stroke="#0B0504" stroke-opacity="0.3" stroke-width="0.12" stroke-linecap="round" stroke-linejoin="round"/>
<path d="M355.727 589.091H360.924V592.729H355.727V589.091ZM373.138 571.939H355.727V575.577H373.138V571.939Z" stroke="#0B0504" stroke-opacity="0.3" stroke-width="0.12" stroke-linecap="round" stroke-linejoin="round"/>
<path d="M355.727 571.939H360.924V575.578H355.727V571.939ZM373.138 554.788H355.727V558.426H373.138V554.788Z" stroke="#0B0504" stroke-opacity="0.3" stroke-width="0.12" stroke-linecap="round" stroke-linejoin="round"/>
<path d="M355.727 554.788H360.924V558.426H355.727V554.788ZM373.138 537.377H355.727V541.275H373.138V537.377Z" stroke="#0B0504" stroke-opacity="0.3" stroke-width="0.12" stroke-linecap="round" stroke-linejoin="round"/>
<path d="M355.727 537.377H360.924V541.275H355.727V537.377Z" stroke="#0B0504" stroke-opacity="0.3" stroke-width="0.12" stroke-linecap="round" stroke-linejoin="round"/>
</g>
</svg>
