<svg width="1920" height="1094" viewBox="0 0 1920 1094" fill="none" xmlns="http://www.w3.org/2000/svg">
<g opacity="0.3">
<path d="M800.617 139.595L810.77 129.442M800.617 166.248L837.423 129.442M800.617 193.154L864.33 129.442M800.617 219.807L890.982 129.442M800.617 246.714L848.338 198.993L870.168 177.163L917.889 129.442M800.617 273.366L848.338 225.645L867.376 206.608M944.542 129.442L896.821 177.163L877.783 196.2M800.617 300.273L848.338 252.552L867.376 233.514M971.448 129.442L923.727 177.163L904.689 196.2M800.617 326.926L848.338 279.205L867.376 260.167M998.101 129.442L950.38 177.163L931.342 196.2M800.617 353.832L848.338 306.111L867.376 287.074M1025.01 129.442L977.287 177.163L958.249 196.2M800.617 380.485L848.338 332.764L867.376 313.726M1051.66 129.442L1003.94 177.163L984.902 196.2M800.617 407.392L848.338 359.671L867.376 340.633M1078.57 129.442L1030.85 177.163L1011.81 196.2M800.617 434.044L848.338 386.323L867.376 367.286M1105.22 129.442L1057.5 177.163L1038.46 196.2M800.617 460.951L848.338 413.23L867.376 394.192M1132.13 129.442L1084.41 177.163L1065.37 196.2M800.617 487.604L848.338 439.883L867.376 420.845M1158.78 129.442L1111.06 177.163L1092.02 196.2M800.617 514.51L848.338 466.789L867.376 447.752M1185.69 129.442L1137.96 177.163L1118.93 196.2M800.617 541.163L848.338 493.442L867.376 474.404M1212.34 129.442L1164.62 177.163L1145.58 196.2M800.617 568.07L848.338 520.349L867.376 501.311M1239.25 129.442L1191.52 177.163L1172.49 196.2M800.617 594.723L848.338 547.001L867.376 527.964M1265.9 129.442L1218.18 177.163L1199.14 196.2M800.617 621.629L848.338 573.908L867.376 554.87M1292.8 129.442L1245.08 177.163L1226.05 196.2M800.617 648.282L848.338 600.561L867.376 581.523M1319.46 129.442L1271.74 177.163L1252.7 196.2M800.617 675.188L848.338 627.467L867.376 608.43M1346.36 129.442L1298.64 177.163L1279.61 196.2M800.617 701.841L848.338 654.12L867.376 635.082M1373.02 129.442L1325.3 177.163L1306.26 196.2M800.617 728.748L848.338 681.027L867.376 661.989M1399.92 129.442L1352.2 177.163L1333.16 196.2M800.617 755.401L848.338 707.679L867.376 688.642M1426.58 129.442L1378.85 177.163L1359.82 196.2M809.247 773.677L856.968 725.956L876.006 706.918M1453.48 129.442L1405.76 177.163L1386.72 196.2M836.154 773.677L883.875 725.956L902.913 706.918M1480.14 129.442L1432.41 177.163L1413.38 196.2M862.807 773.677L910.528 725.956L929.565 706.918M1507.04 129.442L1459.32 177.163L1440.28 196.2M889.713 773.677L937.434 725.956L956.472 706.918M1533.69 129.442L1468.71 194.677L1449.42 213.715M916.366 773.677L964.087 725.956L983.125 706.918M1512.88 177.163L1560.6 129.442M1497.14 192.647L1468.71 221.33L1449.42 240.368L1468.71 259.405M943.273 773.677L990.994 725.956L1010.03 706.918M1539.53 177.163L1587.25 129.442M1497.14 219.553L1468.71 248.237L1449.42 267.274M969.925 773.677L1017.65 725.956L1036.68 706.918M1566.44 177.163L1614.16 129.442M1497.14 246.206L1468.71 274.889L1449.42 293.927L1468.71 312.965M996.832 773.677L1044.55 725.956L1063.59 706.918M1593.09 177.163L1640.81 129.442M1497.14 273.113L1468.71 301.796L1449.42 320.834M1023.48 773.677L1071.21 725.956L1090.24 706.918M1620 177.163L1667.72 129.442M1497.14 299.765L1468.71 328.449L1449.42 347.486L1468.71 366.524M1050.39 773.677L1098.11 725.956L1117.15 706.918M1646.65 177.163L1694.37 129.442M1497.14 326.672L1468.71 355.355L1454.24 369.824M1077.04 773.677L1124.77 725.956L1143.8 706.918M1673.56 177.163L1721.28 129.442M1480.9 369.824L1497.14 353.325M1103.95 773.677L1151.67 725.956L1170.71 706.918M1700.21 177.163L1747.93 129.442M1130.6 773.677L1178.32 725.956L1197.36 706.918M1727.12 177.163L1774.84 129.442M1157.51 773.677L1205.23 725.956L1224.27 706.918M1753.77 177.163L1801.49 129.442M1184.16 773.677L1231.88 725.956L1250.92 706.918M1780.68 177.163L1828.4 129.442M1211.07 773.677L1258.79 725.956L1277.83 706.918M1807.33 177.163L1855.05 129.442M1237.72 773.677L1285.44 725.956L1304.48 706.918M1834.24 177.163L1881.96 129.442M1479.37 532.025L1468.71 542.686L1449.42 561.724L1468.71 580.762M1264.63 773.677L1312.35 725.956L1331.39 706.918M1860.89 177.163L1908.61 129.442M1497.14 540.909L1468.71 569.593L1449.42 588.63M1291.28 773.677L1339 725.956L1358.04 706.918M1887.8 177.163L1935.52 129.442M1497.14 567.562L1468.71 596.246L1449.42 615.283L1468.71 634.321M1318.19 773.677L1365.91 725.956L1384.95 706.918M1914.45 177.163L1962.17 129.442M1497.14 594.469L1468.71 623.152L1449.42 642.19M1344.84 773.677L1392.56 725.956L1411.6 706.918M1941.36 177.163L1989.08 129.442M1497.14 621.121L1468.71 649.805L1449.42 668.843L1468.71 687.88M1371.75 773.677L1419.47 725.956L1438.51 706.918M1955.32 189.854L2003.04 142.387M1497.14 648.028L1468.71 676.711L1449.42 695.749M1398.4 773.677L1446.12 725.956L1468.71 703.364L1497.14 674.681M1955.32 216.761L2003.04 169.04M1425.31 773.677L1497.14 701.587M1955.32 243.414L2003.04 195.946M1451.96 773.677L1499.68 725.956M1955.32 270.32L2003.04 222.599M1478.87 773.677L1501.97 750.324M1955.32 296.973L2003.04 249.506M1955.32 323.88L2003.04 276.159M1955.32 350.532L2003.04 303.065M1955.32 377.439L2003.04 329.718M1955.32 404.092L2003.04 356.625M1955.32 430.998L2003.04 383.277M1955.32 457.651L2003.04 409.93M1696.4 743.47L1713.92 725.956M1955.32 484.558L2003.04 436.837M1696.4 770.123L1740.82 725.956M1955.32 511.211L2003.04 463.489M1719.76 773.677L1767.48 725.956M1955.32 538.117L2003.04 490.396M1746.66 773.677L1794.38 725.956M1955.32 564.77L2003.04 517.049M1773.32 773.677L1821.04 725.956M1955.32 591.676L2003.04 543.955M1800.22 773.677L1847.94 725.956M1955.32 618.329L2003.04 570.608M1826.88 773.677L1874.6 725.956M1955.32 645.236L2003.04 597.515M1853.78 773.677L1901.5 725.956M1955.32 671.889L2003.04 624.167M1880.43 773.677L1928.16 725.956M1955.32 698.795L2003.04 651.074M1907.34 773.677L1955.06 725.956M1955.32 725.448L2003.04 677.727M1933.99 773.677L2003.04 704.633M1960.9 773.677L2003.04 731.286M1987.55 773.677L2003.04 758.193M1449.42 535.071L1452.72 532.025M864.076 725.956L848.338 710.218M890.729 725.956L871.691 706.918M867.376 702.603L848.338 683.565M917.635 725.956L898.344 706.918M867.376 675.95L848.338 656.658M944.288 725.956L925.25 706.918M867.376 649.043L848.338 630.006M970.941 725.956L951.903 706.918M867.376 622.391L848.338 603.099M997.847 725.956L978.81 706.918M867.376 595.484L848.338 576.446M1024.5 725.956L1005.46 706.918M867.376 568.831L848.338 549.54M1051.41 725.956L1032.37 706.918M867.376 541.925L848.338 522.887M1078.06 725.956L1059.02 706.918M867.376 515.272L848.338 495.98M1104.97 725.956L1085.93 706.918M867.376 488.365L848.338 469.328M1131.62 725.956L1112.58 706.918M867.376 461.713L848.338 442.421M1158.53 725.956L1139.49 706.918M867.376 434.806L848.338 415.768M1185.18 725.956L1166.14 706.918M867.376 408.153L848.338 388.862M1212.08 725.956L1193.05 706.918M867.376 381.247L848.338 362.209M1238.74 725.956L1219.7 706.918M867.376 354.594L848.338 335.302M1265.64 725.956L1246.61 706.918M867.376 327.687L848.338 308.65M1292.3 725.956L1273.26 706.918M867.376 301.035L848.338 281.743M1319.2 725.956L1300.17 706.918M867.376 274.128L848.338 255.09M1345.86 725.956L1326.82 706.918M867.376 247.475L848.338 228.184M1372.76 725.956L1353.73 706.918M867.376 220.569L848.338 201.531M1399.42 725.956L1380.38 706.918M869.914 196.2L850.876 177.163M1426.32 725.956L1407.28 706.918M896.821 196.2L877.529 177.163M1452.97 725.956L1433.94 706.918M923.473 196.2L904.436 177.163M1468.71 714.533L1449.42 695.495M950.38 196.2L931.088 177.163M977.033 196.2L957.995 177.163M1468.71 660.974L1449.42 641.936M1003.94 196.2L984.648 177.163M1030.59 196.2L1011.55 177.163M1468.71 607.414L1449.42 588.377M1057.5 196.2L1038.21 177.163M1084.15 196.2L1065.11 177.163M1468.71 553.855L1449.42 534.817M1111.06 196.2L1091.77 177.163M1137.71 196.2L1118.67 177.163M1164.62 196.2L1145.33 177.163M1191.27 196.2L1172.23 177.163M1218.18 196.2L1198.89 177.163M1244.83 196.2L1225.79 177.163M1271.74 196.2L1252.44 177.163M1298.39 196.2L1279.35 177.163M1468.71 339.871L1449.42 320.58M1325.3 196.2L1306 177.163M1351.95 196.2L1332.91 177.163M1468.71 286.312L1449.42 267.021M1378.85 196.2L1359.56 177.163M1405.51 196.2L1386.47 177.163M1468.71 232.753L1449.42 213.461M1432.16 196.2L1413.12 177.163M1468.71 205.846L1440.03 177.163M1468.71 179.193L1466.68 177.163" stroke="#0B0504" stroke-opacity="0.3" stroke-width="0.72" stroke-linecap="round" stroke-linejoin="round"/>
<path d="M1468.71 532.025V725.956H848.338V177.163H1468.71V369.824M1501.97 725.956H1497.14V532.025" stroke="#0B0504" stroke-opacity="0.3" stroke-width="1.08" stroke-linecap="round" stroke-linejoin="round"/>
<path d="M1509.83 177.418L1499.17 188.079L1497.14 186.302M1509.83 206.863L1499.17 217.524L1497.14 215.747M1524.56 192.14L1513.9 202.801L1503.23 192.14M1539.28 177.418L1528.62 188.079L1517.96 177.418M1509.83 236.308L1499.17 247.223L1497.14 245.192M1524.56 221.585L1513.9 232.246L1503.23 221.585M1539.28 206.863L1528.62 217.524L1517.96 206.863M1554 192.14L1543.34 202.801L1532.68 192.14M1568.72 177.418L1558.06 188.079L1547.4 177.418M1509.83 265.753L1499.17 276.668L1497.14 274.637M1524.56 251.03L1513.9 261.945L1503.23 251.03M1539.28 236.308L1528.62 247.223L1517.96 236.308M1554 221.585L1543.34 232.246L1532.68 221.585M1568.72 206.863L1558.06 217.524L1547.4 206.863M1583.45 192.14L1572.79 202.801L1562.12 192.14M1598.17 177.418L1587.51 188.079L1576.85 177.418M1509.83 295.198L1499.17 306.113L1497.14 304.082M1524.56 280.475L1513.9 291.39L1503.23 280.475M1539.28 265.753L1528.62 276.668L1517.96 265.753M1554 251.03L1543.34 261.945L1532.68 251.03M1568.72 236.308L1558.06 247.223L1547.4 236.308M1583.45 221.585L1572.79 232.246L1562.12 221.585M1598.17 206.863L1587.51 217.524L1576.85 206.863M1612.89 192.14L1602.23 202.801L1591.57 192.14M1627.61 177.418L1616.95 188.079L1606.29 177.418M1509.83 324.643L1499.17 335.557L1497.14 333.527M1524.56 309.92L1513.9 320.835L1503.23 309.92M1539.28 295.198L1528.62 306.113L1517.96 295.198M1554 280.475L1543.34 291.39L1532.68 280.475M1568.72 265.753L1558.06 276.668L1547.4 265.753M1583.45 251.03L1572.79 261.945L1562.12 251.03M1598.17 236.308L1587.51 247.223L1576.85 236.308M1612.89 221.585L1602.23 232.246L1591.57 221.585M1627.61 206.863L1616.95 217.524L1606.29 206.863M1642.34 192.14L1631.68 202.801L1621.01 192.14M1657.06 177.418L1646.4 188.079L1635.74 177.418M1508.06 356.118L1509.83 354.341M1524.56 339.365L1513.9 350.28L1503.23 339.365M1539.28 324.643L1528.62 335.557L1517.96 324.643M1554 309.92L1543.34 320.835L1532.68 309.92M1568.72 295.198L1558.06 306.113L1547.4 295.198M1583.45 280.475L1572.79 291.39L1562.12 280.475M1598.17 265.753L1587.51 276.668L1576.85 265.753M1612.89 251.03L1602.23 261.945L1591.57 251.03M1627.61 236.308L1616.95 247.223L1606.29 236.308M1642.34 221.585L1631.68 232.246L1621.01 221.585M1657.06 206.863L1646.4 217.524L1635.74 206.863M1671.78 192.14L1661.12 202.801L1650.46 192.14M1686.5 177.418L1675.84 188.079L1665.18 177.418M1537.5 356.118L1539.28 354.341M1554 339.365L1543.34 350.28L1532.68 339.365M1568.72 324.643L1558.06 335.557L1547.4 324.643M1583.45 309.92L1572.79 320.835L1562.12 309.92M1598.17 295.198L1587.51 306.113L1576.85 295.198M1612.89 280.475L1602.23 291.39L1591.57 280.475M1627.61 265.753L1616.95 276.668L1606.29 265.753M1642.34 251.03L1631.68 261.945L1621.01 251.03M1657.06 236.308L1646.4 247.223L1635.74 236.308M1671.78 221.585L1661.12 232.246L1650.46 221.585M1686.5 206.863L1675.84 217.524L1665.18 206.863M1701.23 192.14L1690.57 202.801L1679.9 192.14M1715.95 177.418L1705.29 188.079L1694.63 177.418M1566.95 356.118L1568.72 354.341M1583.45 339.365L1572.79 350.28L1562.12 339.365M1598.17 324.643L1587.51 335.557L1576.85 324.643M1612.89 309.92L1602.23 320.835L1591.57 309.92M1627.61 295.198L1616.95 306.113L1606.29 295.198M1642.34 280.475L1631.68 291.39L1621.01 280.475M1657.06 265.753L1646.4 276.668L1635.74 265.753M1671.78 251.03L1661.12 261.945L1650.46 251.03M1686.5 236.308L1675.84 247.223L1665.18 236.308M1701.23 221.585L1690.57 232.246L1679.9 221.585M1715.95 206.863L1705.29 217.524L1694.63 206.863M1730.67 192.14L1720.01 202.801L1709.35 192.14M1745.39 177.418L1734.73 188.079L1724.07 177.418M1596.39 356.118L1598.17 354.341M1612.89 339.365L1602.23 350.28L1591.57 339.365M1627.61 324.643L1616.95 335.557L1606.29 324.643M1642.34 309.92L1631.68 320.835L1621.01 309.92M1657.06 295.198L1646.4 306.113L1635.74 295.198M1671.78 280.475L1661.12 291.39L1650.46 280.475M1686.5 265.753L1675.84 276.668L1665.18 265.753M1701.23 251.03L1690.57 261.945L1679.9 251.03M1715.95 236.308L1705.29 247.223L1694.63 236.308M1730.67 221.585L1720.01 232.246L1709.35 221.585M1745.39 206.863L1734.73 217.524L1724.07 206.863M1760.37 192.14L1749.46 202.801L1738.79 192.14M1775.09 177.418L1764.18 188.079L1753.52 177.418M1625.84 356.118L1627.61 354.341M1642.34 339.365L1631.68 350.28L1621.01 339.365M1657.06 324.643L1646.4 335.557L1635.74 324.643M1671.78 309.92L1661.12 320.835L1650.46 309.92M1686.5 295.198L1675.84 306.113L1665.18 295.198M1701.23 280.475L1690.57 291.39L1679.9 280.475M1715.95 265.753L1705.29 276.668L1694.63 265.753M1730.67 251.03L1720.01 261.945L1709.35 251.03M1745.39 236.308L1734.73 247.223L1724.07 236.308M1760.37 221.585L1749.46 232.246L1738.79 221.585M1775.09 206.863L1764.18 217.524L1753.52 206.863M1789.81 192.14L1778.9 202.801L1768.24 192.14M1804.54 177.418L1793.62 188.079L1782.96 177.418M1655.28 356.118L1657.06 354.341M1671.78 339.365L1661.12 350.28L1650.46 339.365M1686.5 324.643L1675.84 335.557L1665.18 324.643M1701.23 309.92L1690.57 320.835L1679.9 309.92M1715.95 295.198L1705.29 306.113L1694.63 295.198M1730.67 280.475L1720.01 291.39L1709.35 280.475M1745.39 265.753L1734.73 276.668L1724.07 265.753M1760.37 251.03L1749.46 261.945L1738.79 251.03M1775.09 236.308L1764.18 247.223L1753.52 236.308M1789.81 221.585L1778.9 232.246L1768.24 221.585M1804.54 206.863L1793.62 217.524L1782.96 206.863M1819.26 192.14L1808.34 202.801L1797.68 192.14M1833.98 177.418L1823.07 188.079L1812.41 177.418M1684.73 356.118L1686.5 354.341M1701.23 339.365L1690.57 350.28L1679.9 339.365M1715.95 324.643L1705.29 335.557L1694.63 324.643M1730.67 309.92L1720.01 320.835L1709.35 309.92M1745.39 295.198L1734.73 306.113L1724.07 295.198M1760.37 280.475L1749.46 291.39L1738.79 280.475M1775.09 265.753L1764.18 276.668L1753.52 265.753M1789.81 251.03L1778.9 261.945L1768.24 251.03M1804.54 236.308L1793.62 247.223L1782.96 236.308M1819.26 221.585L1808.34 232.246L1797.68 221.585M1833.98 206.863L1823.07 217.524L1812.41 206.863M1848.7 192.14L1837.79 202.801L1827.13 192.14M1863.43 177.418L1852.51 188.079L1841.85 177.418M1714.17 356.118L1715.95 354.341M1730.67 339.365L1720.01 350.28L1709.35 339.365M1745.39 324.643L1734.73 335.557L1724.07 324.643M1760.37 309.92L1749.46 320.835L1738.79 309.92M1775.09 295.198L1764.18 306.113L1753.52 295.198M1789.81 280.475L1778.9 291.39L1768.24 280.475M1804.54 265.753L1793.62 276.668L1782.96 265.753M1819.26 251.03L1808.34 261.945L1797.68 251.03M1833.98 236.308L1823.07 247.223L1812.41 236.308M1848.7 221.585L1837.79 232.246L1827.13 221.585M1863.43 206.863L1852.51 217.524L1841.85 206.863M1878.15 192.14L1867.49 202.801L1856.57 192.14M1892.87 177.418L1882.21 188.079L1871.3 177.418M1743.62 356.118L1745.39 354.341M1760.37 339.365L1749.46 350.28L1738.79 339.365M1775.09 324.643L1764.18 335.557L1753.52 324.643M1789.81 309.92L1778.9 320.835L1768.24 309.92M1804.54 295.198L1793.62 306.113L1782.96 295.198M1819.26 280.475L1808.34 291.39L1797.68 280.475M1833.98 265.753L1823.07 276.668L1812.41 265.753M1848.7 251.03L1837.79 261.945L1827.13 251.03M1863.43 236.308L1852.51 247.223L1841.85 236.308M1878.15 221.585L1867.49 232.246L1856.57 221.585M1892.87 206.863L1882.21 217.524L1871.3 206.863M1907.59 192.14L1896.93 202.801L1886.02 192.14M1922.32 177.418L1911.66 188.079L1900.74 177.418M1773.06 356.118L1775.09 354.341M1789.81 339.365L1778.9 350.28L1768.24 339.365M1804.54 324.643L1793.62 335.557L1782.96 324.643M1819.26 309.92L1808.34 320.835L1797.68 309.92M1833.98 295.198L1823.07 306.113L1812.41 295.198M1848.7 280.475L1837.79 291.39L1827.13 280.475M1863.43 265.753L1852.51 276.668L1841.85 265.753M1878.15 251.03L1867.49 261.945L1856.57 251.03M1892.87 236.308L1882.21 247.223L1871.3 236.308M1907.59 221.585L1896.93 232.246L1886.02 221.585M1922.32 206.863L1911.66 217.524L1900.74 206.863M1937.04 192.14L1926.38 202.801L1915.46 192.14M1951.76 177.418L1941.1 188.079L1930.19 177.418M1802.51 356.118L1804.54 354.341M1819.26 339.365L1808.34 350.28L1797.68 339.365M1833.98 324.643L1823.07 335.557L1812.41 324.643M1848.7 309.92L1837.79 320.835L1827.13 309.92M1863.43 295.198L1852.51 306.113L1841.85 295.198M1878.15 280.475L1867.49 291.39L1856.57 280.475M1892.87 265.753L1882.21 276.668L1871.3 265.753M1907.59 251.03L1896.93 261.945L1886.02 251.03M1922.32 236.308L1911.66 247.223L1900.74 236.308M1937.04 221.585L1926.38 232.246L1915.46 221.585M1951.76 206.863L1941.1 217.524L1930.19 206.863M1831.95 356.118L1833.98 354.341M1848.7 339.365L1837.79 350.28L1827.13 339.365M1863.43 324.643L1852.51 335.557L1841.85 324.643M1878.15 309.92L1867.49 320.835L1856.57 309.92M1892.87 295.198L1882.21 306.113L1871.3 295.198M1907.59 280.475L1896.93 291.39L1886.02 280.475M1922.32 265.753L1911.66 276.668L1900.74 265.753M1937.04 251.03L1926.38 261.945L1915.46 251.03M1951.76 236.308L1941.1 247.223L1930.19 236.308M1861.4 356.118L1863.43 354.341M1878.15 339.365L1867.49 350.28L1856.57 339.365M1892.87 324.643L1882.21 335.557L1871.3 324.643M1907.59 309.92L1896.93 320.835L1886.02 309.92M1922.32 295.198L1911.66 306.113L1900.74 295.198M1937.04 280.475L1926.38 291.39L1915.46 280.475M1951.76 265.753L1941.1 276.668L1930.19 265.753M1890.84 356.118L1892.87 354.341M1907.59 339.365L1896.93 350.28L1886.02 339.365M1922.32 324.643L1911.66 335.557L1900.74 324.643M1937.04 309.92L1926.38 320.835L1915.46 309.92M1951.76 295.198L1941.1 306.113L1930.19 295.198M1920.29 356.118L1922.32 354.341M1937.04 339.365L1926.38 350.28L1915.46 339.365M1951.76 324.643L1941.1 335.557L1930.19 324.643M1949.73 356.118L1951.76 354.341M1519.73 356.118L1517.96 354.341M1549.18 356.118L1547.4 354.341M1578.62 356.118L1576.85 354.341M1608.07 356.118L1606.29 354.341M1637.77 356.118L1635.74 354.341M1667.21 356.118L1665.18 354.341M1696.66 356.118L1694.63 354.341M1726.1 356.118L1724.07 354.341M1755.55 356.118L1753.52 354.341M1784.99 356.118L1782.96 354.341M1814.44 356.118L1812.41 354.341M1843.88 356.118L1841.85 354.341M1873.33 356.118L1871.3 354.341M1902.77 356.118L1900.74 354.341M1932.22 356.118L1930.19 354.341M1955.32 349.772L1944.91 339.365M1955.32 320.327L1944.91 309.92M1955.32 290.882L1944.91 280.475M1955.32 261.437L1944.91 251.03M1955.32 231.992L1944.91 221.585M1955.32 202.547L1944.91 192.14" stroke="#0B0504" stroke-opacity="0.3" stroke-width="0.72" stroke-linecap="round" stroke-linejoin="round"/>
<path d="M-300.308 143L-310.969 153.661L-312.999 151.884M-300.308 172.445L-310.969 183.106L-312.999 181.329M-285.585 157.722L-296.246 168.383L-306.907 157.722M-270.863 143L-281.524 153.661L-292.185 143M-300.308 201.89L-310.969 212.805L-312.999 210.774M-285.585 187.167L-296.246 197.828L-306.907 187.167M-270.863 172.445L-281.524 183.106L-292.185 172.445M-256.14 157.722L-266.801 168.383L-277.462 157.722M-241.418 143L-252.079 153.661L-262.74 143M-300.308 231.335L-310.969 242.25L-312.999 240.219M-285.585 216.612L-296.246 227.527L-306.907 216.612M-270.863 201.89L-281.524 212.805L-292.185 201.89M-256.14 187.167L-266.801 197.828L-277.462 187.167M-241.418 172.445L-252.079 183.106L-262.74 172.445M-226.695 157.722L-237.356 168.383L-248.017 157.722M-211.973 143L-222.634 153.661L-233.295 143M-300.308 260.78L-310.969 271.695L-312.999 269.664M-285.585 246.057L-296.246 256.972L-306.907 246.057M-270.863 231.335L-281.524 242.25L-292.185 231.335M-256.14 216.612L-266.801 227.527L-277.462 216.612M-241.418 201.89L-252.079 212.805L-262.74 201.89M-226.695 187.167L-237.356 197.828L-248.017 187.167M-211.973 172.445L-222.634 183.106L-233.295 172.445M-197.25 157.722L-207.911 168.383L-218.572 157.722M-182.528 143L-193.189 153.661L-203.85 143M-300.308 290.225L-310.969 301.139L-312.999 299.109M-285.585 275.502L-296.246 286.417L-306.907 275.502M-270.863 260.78L-281.524 271.695L-292.185 260.78M-256.14 246.057L-266.801 256.972L-277.462 246.057M-241.418 231.335L-252.079 242.25L-262.74 231.335M-226.695 216.612L-237.356 227.527L-248.017 216.612M-211.973 201.89L-222.634 212.805L-233.295 201.89M-197.25 187.167L-207.911 197.828L-218.572 187.167M-182.528 172.445L-193.189 183.106L-203.85 172.445M-167.805 157.722L-178.466 168.383L-189.127 157.722M-153.083 143L-163.744 153.661L-174.405 143M-302.084 321.7L-300.308 319.923M-285.585 304.947L-296.246 315.862L-306.907 304.947M-270.863 290.225L-281.524 301.139L-292.185 290.225M-256.14 275.502L-266.801 286.417L-277.462 275.502M-241.418 260.78L-252.079 271.695L-262.74 260.78M-226.695 246.057L-237.356 256.972L-248.017 246.057M-211.973 231.335L-222.634 242.25L-233.295 231.335M-197.25 216.612L-207.911 227.527L-218.572 216.612M-182.528 201.89L-193.189 212.805L-203.85 201.89M-167.805 187.167L-178.466 197.828L-189.127 187.167M-153.083 172.445L-163.744 183.106L-174.405 172.445M-138.36 157.722L-149.021 168.383L-159.683 157.722M-123.638 143L-134.299 153.661L-144.96 143M-272.639 321.7L-270.863 319.923M-256.14 304.947L-266.801 315.862L-277.462 304.947M-241.418 290.225L-252.079 301.139L-262.74 290.225M-226.695 275.502L-237.356 286.417L-248.017 275.502M-211.973 260.78L-222.634 271.695L-233.295 260.78M-197.25 246.057L-207.911 256.972L-218.572 246.057M-182.528 231.335L-193.189 242.25L-203.85 231.335M-167.805 216.612L-178.466 227.527L-189.127 216.612M-153.083 201.89L-163.744 212.805L-174.405 201.89M-138.36 187.167L-149.021 197.828L-159.683 187.167M-123.638 172.445L-134.299 183.106L-144.96 172.445M-108.915 157.722L-119.576 168.383L-130.238 157.722M-94.1929 143L-104.854 153.661L-115.515 143M-243.194 321.7L-241.418 319.923M-226.695 304.947L-237.356 315.862L-248.017 304.947M-211.973 290.225L-222.634 301.139L-233.295 290.225M-197.25 275.502L-207.911 286.417L-218.572 275.502M-182.528 260.78L-193.189 271.695L-203.85 260.78M-167.805 246.057L-178.466 256.972L-189.127 246.057M-153.083 231.335L-163.744 242.25L-174.405 231.335M-138.36 216.612L-149.021 227.527L-159.683 216.612M-123.638 201.89L-134.299 212.805L-144.96 201.89M-108.915 187.167L-119.576 197.828L-130.238 187.167M-94.1929 172.445L-104.854 183.106L-115.515 172.445M-79.4704 157.722L-90.1315 168.383L-100.793 157.722M-64.7479 143L-75.409 153.661L-86.0701 143M-213.75 321.7L-211.973 319.923M-197.25 304.947L-207.911 315.862L-218.572 304.947M-182.528 290.225L-193.189 301.139L-203.85 290.225M-167.805 275.502L-178.466 286.417L-189.127 275.502M-153.083 260.78L-163.744 271.695L-174.405 260.78M-138.36 246.057L-149.021 256.972L-159.683 246.057M-123.638 231.335L-134.299 242.25L-144.96 231.335M-108.915 216.612L-119.576 227.527L-130.238 216.612M-94.1929 201.89L-104.854 212.805L-115.515 201.89M-79.4704 187.167L-90.1315 197.828L-100.793 187.167M-64.7479 172.445L-75.409 183.106L-86.0701 172.445M-49.7716 157.722L-60.6865 168.383L-71.3476 157.722M-35.0491 143L-45.9641 153.661L-56.6252 143M-184.305 321.7L-182.528 319.923M-167.805 304.947L-178.466 315.862L-189.127 304.947M-153.083 290.225L-163.744 301.139L-174.405 290.225M-138.36 275.502L-149.021 286.417L-159.683 275.502M-123.638 260.78L-134.299 271.695L-144.96 260.78M-108.915 246.057L-119.576 256.972L-130.238 246.057M-94.1929 231.335L-104.854 242.25L-115.515 231.335M-79.4704 216.612L-90.1315 227.527L-100.793 216.612M-64.7479 201.89L-75.409 212.805L-86.0701 201.89M-49.7716 187.167L-60.6865 197.828L-71.3476 187.167M-35.0491 172.445L-45.9641 183.106L-56.6252 172.445M-20.3266 157.722L-31.2416 168.383L-41.9027 157.722M-5.60416 143L-16.5191 153.661L-27.1802 143M-154.86 321.7L-153.083 319.923M-138.36 304.947L-149.021 315.862L-159.683 304.947M-123.638 290.225L-134.299 301.139L-144.96 290.225M-108.915 275.502L-119.576 286.417L-130.238 275.502M-94.1929 260.78L-104.854 271.695L-115.515 260.78M-79.4704 246.057L-90.1315 256.972L-100.793 246.057M-64.7479 231.335L-75.409 242.25L-86.0701 231.335M-49.7716 216.612L-60.6865 227.527L-71.3476 216.612M-35.0491 201.89L-45.9641 212.805L-56.6252 201.89M-20.3266 187.167L-31.2416 197.828L-41.9027 187.167M-5.60416 172.445L-16.5191 183.106L-27.1802 172.445M9.11831 157.722L-1.79663 168.383L-12.4577 157.722M23.8408 143L12.9259 153.661L2.26475 143M-125.415 321.7L-123.638 319.923M-108.915 304.947L-119.576 315.862L-130.238 304.947M-94.1929 290.225L-104.854 301.139L-115.515 290.225M-79.4704 275.502L-90.1315 286.417L-100.793 275.502M-64.7479 260.78L-75.409 271.695L-86.0701 260.78M-49.7716 246.057L-60.6865 256.972L-71.3476 246.057M-35.0491 231.335L-45.9641 242.25L-56.6252 231.335M-20.3266 216.612L-31.2416 227.527L-41.9027 216.612M-5.60416 201.89L-16.5191 212.805L-27.1802 201.89M9.11831 187.167L-1.79663 197.828L-12.4577 187.167M23.8408 172.445L12.9259 183.106L2.26475 172.445M38.5633 157.722L27.6483 168.383L16.9872 157.722M53.2857 143L42.3708 153.661L31.7097 143M-95.9697 321.7L-94.1929 319.923M-79.4704 304.947L-90.1315 315.862L-100.793 304.947M-64.7479 290.225L-75.409 301.139L-86.0701 290.225M-49.7716 275.502L-60.6865 286.417L-71.3476 275.502M-35.0491 260.78L-45.9641 271.695L-56.6252 260.78M-20.3266 246.057L-31.2416 256.972L-41.9027 246.057M-5.60416 231.335L-16.5191 242.25L-27.1802 231.335M9.11831 216.612L-1.79663 227.527L-12.4577 216.612M23.8408 201.89L12.9259 212.805L2.26475 201.89M38.5633 187.167L27.6483 197.828L16.9872 187.167M53.2857 172.445L42.3708 183.106L31.7097 172.445M68.0082 157.722L57.3471 168.383L46.4322 157.722M82.7307 143L72.0696 153.661L61.1547 143M-66.5248 321.7L-64.7479 319.923M-49.7716 304.947L-60.6865 315.862L-71.3476 304.947M-35.0491 290.225L-45.9641 301.139L-56.6252 290.225M-20.3266 275.502L-31.2416 286.417L-41.9027 275.502M-5.60416 260.78L-16.5191 271.695L-27.1802 260.78M9.11831 246.057L-1.79663 256.972L-12.4577 246.057M23.8408 231.335L12.9259 242.25L2.26475 231.335M38.5633 216.612L27.6483 227.527L16.9872 216.612M53.2857 201.89L42.3708 212.805L31.7097 201.89M68.0082 187.167L57.3471 197.828L46.4322 187.167M82.7307 172.445L72.0696 183.106L61.1547 172.445M97.4532 157.722L86.7921 168.383L75.8771 157.722M112.176 143L101.515 153.661L90.5996 143M-37.0798 321.7L-35.0491 319.923M-20.3266 304.947L-31.2416 315.862L-41.9027 304.947M-5.60416 290.225L-16.5191 301.139L-27.1802 290.225M9.11831 275.502L-1.79663 286.417L-12.4577 275.502M23.8408 260.78L12.9259 271.695L2.26475 260.78M38.5633 246.057L27.6483 256.972L16.9872 246.057M53.2857 231.335L42.3708 242.25L31.7097 231.335M68.0082 216.612L57.3471 227.527L46.4322 216.612M82.7307 201.89L72.0696 212.805L61.1547 201.89M97.4532 187.167L86.7921 197.828L75.8771 187.167M112.176 172.445L101.515 183.106L90.5996 172.445M126.898 157.722L116.237 168.383L105.322 157.722M141.621 143L130.96 153.661L120.045 143M-7.63485 321.7L-5.60416 319.923M9.11831 304.947L-1.79663 315.862L-12.4577 304.947M23.8408 290.225L12.9259 301.139L2.26475 290.225M38.5633 275.502L27.6483 286.417L16.9872 275.502M53.2857 260.78L42.3708 271.695L31.7097 260.78M68.0082 246.057L57.3471 256.972L46.4322 246.057M82.7307 231.335L72.0696 242.25L61.1547 231.335M97.4532 216.612L86.7921 227.527L75.8771 216.612M112.176 201.89L101.515 212.805L90.5996 201.89M126.898 187.167L116.237 197.828L105.322 187.167M141.621 172.445L130.96 183.106L120.045 172.445M21.8101 321.7L23.8408 319.923M38.5633 304.947L27.6483 315.862L16.9872 304.947M53.2857 290.225L42.3708 301.139L31.7097 290.225M68.0082 275.502L57.3471 286.417L46.4322 275.502M82.7307 260.78L72.0696 271.695L61.1547 260.78M97.4532 246.057L86.7921 256.972L75.8771 246.057M112.176 231.335L101.515 242.25L90.5996 231.335M126.898 216.612L116.237 227.527L105.322 216.612M141.621 201.89L130.96 212.805L120.045 201.89M51.2551 321.7L53.2857 319.923M68.0082 304.947L57.3471 315.862L46.4322 304.947M82.7307 290.225L72.0696 301.139L61.1547 290.225M97.4532 275.502L86.7921 286.417L75.8771 275.502M112.176 260.78L101.515 271.695L90.5996 260.78M126.898 246.057L116.237 256.972L105.322 246.057M141.621 231.335L130.96 242.25L120.045 231.335M80.7 321.7L82.7307 319.923M97.4532 304.947L86.7921 315.862L75.8771 304.947M112.176 290.225L101.515 301.139L90.5996 290.225M126.898 275.502L116.237 286.417L105.322 275.502M141.621 260.78L130.96 271.695L120.045 260.78M110.145 321.7L112.176 319.923M126.898 304.947L116.237 315.862L105.322 304.947M141.621 290.225L130.96 301.139L120.045 290.225M139.59 321.7L141.621 319.923M-290.408 321.7L-292.185 319.923M-260.963 321.7L-262.74 319.923M-231.518 321.7L-233.295 319.923M-202.073 321.7L-203.85 319.923M-172.374 321.7L-174.405 319.923M-142.929 321.7L-144.96 319.923M-113.484 321.7L-115.515 319.923M-84.0394 321.7L-86.0701 319.923M-54.5945 321.7L-56.6252 319.923M-25.1495 321.7L-27.1802 319.923M4.29543 321.7L2.26475 319.923M33.7404 321.7L31.7097 319.923M63.1853 321.7L61.1547 319.923M92.6303 321.7L90.5996 319.923M122.075 321.7L120.045 319.923M145.174 315.354L134.767 304.947M145.174 285.909L134.767 275.502M145.174 256.464L134.767 246.057M145.174 227.019L134.767 216.612M145.174 197.574L134.767 187.167M145.174 168.13L134.767 157.722" stroke="#6B7537" stroke-width="0.72" stroke-linecap="round" stroke-linejoin="round"/>
<path d="M1497.14 369.824V177.163H1955.32V725.956H1696.4" stroke="#0B0504" stroke-opacity="0.3" stroke-width="1.08" stroke-linecap="round" stroke-linejoin="round"/>
<path d="M1449.42 532.025H1497.14M1449.42 369.824H1497.14M1696.4 725.956V773.677H2003.04V129.442H800.617V773.677H1501.97V725.956" stroke="#0B0504" stroke-opacity="0.3" stroke-width="1.08" stroke-linecap="round" stroke-linejoin="round"/>
<path d="M867.375 220.061L891.236 196.2M867.375 260.167L931.342 196.2M867.375 300.273L971.448 196.2M867.375 340.633L1011.81 196.2M867.375 380.739L1051.91 196.2M867.375 420.845L1092.02 196.2M924.488 403.838L1132.13 196.2M867.375 501.311L888.698 479.989M1005.46 363.224L1172.49 196.2M955.456 413.23L986.678 382.008M867.375 541.417L912.05 496.742M1045.57 363.224L1212.59 196.2M972.463 436.583L986.678 422.114M867.375 581.523L986.678 462.22M1085.67 363.224L1252.7 196.2M867.375 621.629L986.678 502.326M1125.78 363.224L1292.8 196.2M867.375 661.989L989.47 539.894M1166.14 363.224L1333.16 196.2M867.375 702.095L1029.58 539.894M1206.25 363.224L1373.27 196.2M902.912 706.918L1069.94 539.894M1246.35 363.224L1413.38 196.2M943.018 706.918L1110.04 539.894M1286.46 363.224L1449.42 200.262M983.124 706.918L1150.15 539.894M1326.82 363.224L1449.42 240.368M1023.48 706.918L1190.25 539.894M1366.92 363.224L1449.42 280.728M1063.59 706.918L1230.61 539.894M1407.03 363.224L1449.42 320.834M1103.7 706.918L1270.72 539.894M1447.14 363.224L1449.42 360.94M1143.8 706.918L1310.83 539.894M1184.16 706.918L1350.93 539.894M1224.27 706.918L1391.29 539.894M1264.37 706.918L1431.4 539.894M1304.48 706.918L1449.42 561.724M1344.84 706.918L1449.42 602.084M1384.95 706.918L1449.42 642.19M1425.05 706.918L1449.42 682.296" stroke="#0B0504" stroke-opacity="0.3" stroke-width="0.72" stroke-linecap="round" stroke-linejoin="round"/>
<path d="M1449.42 532.025V706.918H867.375V196.2H1449.42V369.824" stroke="#0B0504" stroke-opacity="0.3" stroke-width="0.72" stroke-linecap="round" stroke-linejoin="round"/>
<path d="M1449.42 539.895H986.678V363.225H1449.42" stroke="#0B0504" stroke-opacity="0.3" stroke-width="0.84" stroke-linecap="round" stroke-linejoin="round"/>
<path d="M1486.23 543.956V532.026H1497.14V543.956H1486.23ZM1486.23 358.91V369.825H1497.14V358.91H1486.23Z" stroke="#0B0504" stroke-opacity="0.3" stroke-width="0.72" stroke-linecap="round" stroke-linejoin="round"/>
<path d="M1497.14 368.556H1494.86V369.825M1497.14 534.311H1494.86V532.026M1497.14 533.042H1505.77V530.757M1631.93 530.757H1500.95V532.026H1497.14M1618.73 525.934V537.864M1616.19 525.934V537.864M1598.17 525.934V537.864M1595.63 525.934V537.864M1589.79 525.934L1585.48 521.619H1620.25L1624.57 525.934H1589.79ZM1589.79 537.864L1585.48 542.18H1620.25L1624.57 537.864H1589.79Z" stroke="#0B0504" stroke-opacity="0.3" stroke-width="0.72" stroke-linecap="round" stroke-linejoin="round"/>
<path d="M1631.93 516.795L1632.18 518.572L1631.93 530.756L1631.42 531.771H1505.77M1631.67 510.703L1631.17 506.388L1630.15 499.026M1629.14 493.188L1626.85 482.527L1626.34 481.512M1624.57 475.927L1623.04 471.104L1620.51 464.505M1618.22 459.174L1613.14 449.021L1612.89 448.513M1609.85 443.436L1607.05 438.613L1603.25 433.283M1599.95 428.46L1592.08 419.322M1588.02 415.007L1583.7 410.692L1579.38 406.884M1574.82 403.076L1574.56 402.569L1565.42 395.969M1560.35 392.669L1554.51 388.862L1549.94 386.577M1544.61 383.785L1543.59 383.277L1533.69 379.216M1528.11 377.185L1521 374.647L1516.69 373.631M1511.1 372.108L1509.33 371.855L1497.14 369.824M1487.5 760.477H1501.96V773.677H1487.5V760.477ZM1709.6 760.477H1696.4V773.677H1709.6V760.477Z" stroke="#0B0504" stroke-opacity="0.3" stroke-width="0.72" stroke-linecap="round" stroke-linejoin="round"/>
<path d="M1697.93 773.678V770.632H1696.4M1499.17 773.678V770.632H1501.97M1500.44 773.678V783.831H1503.49M1503.49 935.117V777.993H1501.97V773.678M1509.33 919.126H1494.86M1509.33 916.079H1494.86M1509.33 894.757H1494.86M1509.33 891.457H1494.86M1509.33 884.35L1514.4 879.273V921.156L1509.33 926.233V884.35ZM1494.86 884.35L1489.78 879.273V921.156L1494.86 926.233V884.35Z" stroke="#0B0504" stroke-opacity="0.3" stroke-width="0.72" stroke-linecap="round" stroke-linejoin="round"/>
<path d="M1513.39 935.117H1503.49L1502.22 934.61V783.831M1519.48 935.117L1531.16 934.356H1531.41M1537.25 933.594L1544.86 932.579L1548.93 931.563M1554.76 930.294L1558.32 929.533L1566.44 927.248M1572.02 925.471L1583.19 921.156M1588.78 918.872L1597.15 915.064L1599.44 913.541M1604.52 910.749L1609.08 908.211L1614.67 904.403M1619.75 901.103L1620.51 900.596L1629.14 893.996M1633.71 890.188L1641.83 882.827L1642.59 882.065M1646.65 877.75L1651.47 872.927L1654.52 868.866M1658.33 864.297L1660.11 862.266L1665.44 854.651M1668.74 849.575L1674.83 839.421M1677.62 834.091L1681.43 826.729L1682.7 823.429M1684.98 817.845L1686.5 813.784L1689.04 806.676M1690.82 800.838V800.584L1693.61 789.415M1694.88 783.577L1696.4 773.678" stroke="#0B0504" stroke-opacity="0.3" stroke-width="0.72" stroke-linecap="round" stroke-linejoin="round"/>
<path d="M926.901 403.838C900.616 403.838 879.307 425.147 879.307 451.432C879.307 477.718 900.616 499.026 926.901 499.026C953.187 499.026 974.496 477.718 974.496 451.432C974.496 425.147 953.187 403.838 926.901 403.838Z" stroke="#0B0504" stroke-opacity="0.3" stroke-width="0.84" stroke-linecap="round" stroke-linejoin="round"/>
<path d="M926.901 409.677C903.84 409.677 885.145 428.372 885.145 451.433C885.145 474.495 903.84 493.189 926.901 493.189C949.962 493.189 968.657 474.495 968.657 451.433C968.657 428.372 949.962 409.677 926.901 409.677Z" stroke="#0B0504" stroke-opacity="0.3" stroke-width="0.96" stroke-linecap="round" stroke-linejoin="round"/>
<path d="M956.727 422.114L933.374 445.213M920.682 457.905L897.583 481.004M897.583 422.114L920.682 445.213M933.374 457.905L956.727 481.004M926.901 442.421C921.924 442.421 917.89 446.455 917.89 451.432C917.89 456.409 921.924 460.443 926.901 460.443C931.878 460.443 935.912 456.409 935.912 451.432C935.912 446.455 931.878 442.421 926.901 442.421Z" stroke="#0B0504" stroke-opacity="0.3" stroke-width="0.72" stroke-linecap="round" stroke-linejoin="round"/>
<path d="M867.376 439.63V463.49" stroke="#0B0504" stroke-opacity="0.3" stroke-width="0.24" stroke-linecap="round" stroke-linejoin="round"/>
<path d="M870.169 437.345L869.154 441.66H867.377V425.668H869.154L870.169 429.73M870.169 437.345V429.73M870.169 437.345H876.769V429.73H870.169M876.769 436.583H878.292V430.745H876.769V436.583ZM878.292 437.599H884.384V429.222H878.292V437.599Z" stroke="#0B0504" stroke-opacity="0.3" stroke-width="1.08" stroke-linecap="round" stroke-linejoin="round"/>
<path d="M887.034 430.549C885.716 431.959 885.532 434.087 886.588 435.702C887.645 437.317 889.668 438.001 891.487 437.359M892.996 436.429C894.448 435.033 894.701 432.803 893.599 431.117C892.497 429.432 890.352 428.769 888.491 429.54" stroke="#0B0504" stroke-opacity="0.3" stroke-width="1.08" stroke-linecap="round" stroke-linejoin="round"/>
<path d="M884.383 435.566H886.668M884.383 431.758H886.414M894.029 435.312L902.913 436.581V430.743L894.283 432.012M886.16 428.712L893.013 439.373L894.537 438.612L887.683 427.95L886.16 428.712Z" stroke="#0B0504" stroke-opacity="0.3" stroke-width="1.08" stroke-linecap="round" stroke-linejoin="round"/>
<path d="M870.168 473.134L869.153 477.449H867.376V461.458H869.153L870.168 465.519M870.168 473.134V465.519M870.168 473.134H876.768V465.519H870.168M876.768 472.373H878.291V466.534H876.768V472.373ZM878.291 473.388H884.383V465.011H878.291V473.388Z" stroke="#0B0504" stroke-opacity="0.3" stroke-width="1.08" stroke-linecap="round" stroke-linejoin="round"/>
<path d="M887.034 466.339C885.716 467.749 885.532 469.877 886.588 471.492C887.645 473.107 889.668 473.791 891.487 473.149M892.996 472.219C894.448 470.824 894.701 468.593 893.599 466.907C892.497 465.222 890.352 464.559 888.491 465.33" stroke="#0B0504" stroke-opacity="0.3" stroke-width="1.08" stroke-linecap="round" stroke-linejoin="round"/>
<path d="M884.383 471.358H886.667M884.383 467.55H886.413M894.028 471.104L902.913 472.373V466.535L894.282 467.804M886.159 464.504L893.013 475.165L894.536 474.404L887.682 463.742L886.159 464.504Z" stroke="#0B0504" stroke-opacity="0.3" stroke-width="1.08" stroke-linecap="round" stroke-linejoin="round"/>
<path d="M867.375 433.536V469.327" stroke="#0B0504" stroke-opacity="0.3" stroke-width="0.72" stroke-linecap="round" stroke-linejoin="round"/>
<path d="M1497.14 356.116H1955.32" stroke="#0B0504" stroke-opacity="0.3" stroke-width="0.84" stroke-linecap="round" stroke-linejoin="round"/>
<path d="M1863.43 247.474L1864.19 247.982L1864.95 245.951L1863.43 247.474ZM1864.19 247.982L1864.95 245.951L1865.46 247.982H1864.19ZM1864.95 245.951L1865.46 247.982L1866.47 247.474L1864.95 245.951Z" fill="#0B0504" fill-opacity="0.3"/>
<path d="M1864.19 247.982L1863.43 247.474L1864.95 245.951M1864.19 247.982L1864.95 245.951M1864.19 247.982H1865.46M1864.95 245.951L1865.46 247.982M1864.95 245.951L1866.47 247.474L1865.46 247.982" stroke="#0B0504" stroke-opacity="0.3" stroke-width="0.72" stroke-miterlimit="10" stroke-linecap="round"/>
<path d="M1866.47 247.474L1866.98 246.459L1864.95 245.951L1866.47 247.474ZM1866.98 246.459L1864.95 245.951L1866.98 245.19V246.459ZM1864.95 245.951L1866.98 245.19L1866.47 244.174L1864.95 245.951ZM1866.47 244.174L1865.46 243.667L1864.95 245.951L1866.47 244.174ZM1865.46 243.667L1864.95 245.951L1864.44 243.667H1865.46ZM1864.95 245.951L1864.44 243.667L1863.43 244.174L1864.95 245.951Z" fill="#0B0504" fill-opacity="0.3"/>
<path d="M1866.98 246.459L1866.47 247.474L1864.95 245.951M1866.98 246.459L1864.95 245.951M1866.98 246.459V245.19M1864.95 245.951L1866.98 245.19M1864.95 245.951L1866.47 244.174M1864.95 245.951L1865.46 243.667M1864.95 245.951L1864.44 243.667M1864.95 245.951L1863.43 244.174L1864.44 243.667M1866.98 245.19L1866.47 244.174M1866.47 244.174L1865.46 243.667M1865.46 243.667H1864.44" stroke="#0B0504" stroke-opacity="0.3" stroke-width="0.72" stroke-miterlimit="10" stroke-linecap="round"/>
<path d="M1863.43 244.174L1862.67 245.19L1864.95 245.951L1863.43 244.174ZM1862.67 245.19L1864.95 245.951L1862.67 246.459V245.19ZM1864.95 245.951L1862.67 246.459L1863.43 247.474L1864.95 245.951Z" fill="#0B0504" fill-opacity="0.3"/>
<path d="M1862.67 245.19L1863.43 244.174L1864.95 245.951M1862.67 245.19L1864.95 245.951M1862.67 245.19V246.459M1864.95 245.951L1862.67 246.459M1864.95 245.951L1863.43 247.474L1862.67 246.459" stroke="#0B0504" stroke-opacity="0.3" stroke-width="0.72" stroke-miterlimit="10" stroke-linecap="round"/>
<path d="M1864.95 245.952L2027.66 85.0197H2030.71H2159.4" stroke="#0B0504" stroke-opacity="0.3" stroke-width="0.72" stroke-linecap="round" stroke-linejoin="round"/>
<path d="M1803.27 493.696L1803.01 492.681L1802.51 491.919L1801.75 491.158H1799.97L1798.7 491.919L1797.18 493.696L1795.91 496.234L1795.4 497.757V500.296L1795.91 502.073L1796.92 503.088H1798.45L1799.71 502.073L1801.49 500.296" stroke="#0B0504" stroke-opacity="0.3" stroke-width="0.72" stroke-linecap="round" stroke-linejoin="round"/>
<path d="M1804.03 491.156L1800.22 504.61L1798.95 507.148L1798.19 508.163L1796.92 508.925H1795.15L1794.38 508.163M1806.57 491.156L1806.82 503.087M1806.82 503.087L1813.42 491.156M1806.82 503.087L1804.79 506.386L1803.27 508.163L1802 508.925H1801.24M1824.08 503.087L1827.13 491.156M1824.84 499.533L1822.56 502.071L1821.29 503.087H1820.02L1819.26 502.071V499.533M1819.26 499.533L1821.54 491.156M1819.26 499.533L1816.97 502.071L1815.71 503.087H1814.44L1813.68 502.071L1813.93 499.533L1816.21 491.156" stroke="#0B0504" stroke-opacity="0.3" stroke-width="0.72" stroke-linecap="round" stroke-linejoin="round"/>
<path d="M1839.57 522.886V474.657H1886.78V522.886H1839.57Z" stroke="#0B0504" stroke-opacity="0.3" stroke-width="0.72" stroke-linecap="round" stroke-linejoin="round"/>
<path d="M1842.87 499.154C1842.87 510.299 1851.9 519.334 1863.05 519.334C1874.19 519.334 1883.23 510.299 1883.23 499.154C1883.23 488.009 1874.19 478.974 1863.05 478.974C1851.9 478.974 1842.87 488.009 1842.87 499.154Z" stroke="#0B0504" stroke-opacity="0.3" stroke-width="0.72" stroke-linecap="round" stroke-linejoin="round"/>
<path d="M1859.62 499.153C1859.62 501.046 1861.15 502.58 1863.05 502.58C1864.94 502.58 1866.47 501.046 1866.47 499.153C1866.47 497.261 1864.94 495.727 1863.05 495.727C1861.15 495.727 1859.62 497.261 1859.62 499.153Z" stroke="#0B0504" stroke-opacity="0.3" stroke-width="0.72" stroke-linecap="round" stroke-linejoin="round"/>
<path d="M1865.71 501.31H1941.36V496.995H1865.46M1931.71 479.988V469.327H1940.34V479.988M1931.71 479.988H1940.34M1931.71 479.988V496.995M1940.34 479.988V481.004H1948.97M1931.71 518.571V501.31M1948.97 505.626V520.602H1953.03V505.626H1948.97ZM1948.97 505.626V491.665M1948.97 491.665V477.958H1953.03V491.665H1948.97ZM1948.97 491.665H1946.69V481.004M1952.02 505.626V491.665M1948.97 499.28H1955.32M1948.97 485.319H1957.35M1948.97 513.241H1957.35M1948.97 517.556H1940.34V518.571M1948.97 480.75H1940.34M1946.69 517.556V506.641H1948.97M1943.39 517.556V509.433H1942.37V506.641M1939.83 506.641V501.818M1943.39 502.58H1948.97M1943.39 481.004V489.126H1942.37V491.665M1939.83 491.665V496.488M1943.39 495.98H1948.97M1931.71 529.232V518.064H1940.34V529.232H1931.71ZM1943.39 506.641V501.818H1936.02V506.641H1943.39ZM1943.39 491.665V496.488H1936.02V491.665H1943.39Z" stroke="#0B0504" stroke-opacity="0.3" stroke-width="0.72" stroke-linecap="round" stroke-linejoin="round"/>
<path d="M1843.63 499.154C1843.63 499.785 1844.14 500.296 1844.77 500.296C1845.4 500.296 1845.91 499.785 1845.91 499.154C1845.91 498.523 1845.4 498.012 1844.77 498.012C1844.14 498.012 1843.63 498.523 1843.63 499.154Z" stroke="#0B0504" stroke-opacity="0.3" stroke-width="0.72" stroke-linecap="round" stroke-linejoin="round"/>
<path d="M1848.96 512.098C1848.96 512.729 1849.47 513.241 1850.1 513.241C1850.73 513.241 1851.24 512.729 1851.24 512.098C1851.24 511.467 1850.73 510.956 1850.1 510.956C1849.47 510.956 1848.96 511.467 1848.96 512.098Z" stroke="#0B0504" stroke-opacity="0.3" stroke-width="0.72" stroke-linecap="round" stroke-linejoin="round"/>
<path d="M1861.9 517.429C1861.9 518.06 1862.42 518.572 1863.05 518.572C1863.68 518.572 1864.19 518.06 1864.19 517.429C1864.19 516.799 1863.68 516.287 1863.05 516.287C1862.42 516.287 1861.9 516.799 1861.9 517.429Z" stroke="#0B0504" stroke-opacity="0.3" stroke-width="0.72" stroke-linecap="round" stroke-linejoin="round"/>
<path d="M1874.85 511.337C1874.85 511.967 1875.36 512.479 1875.99 512.479C1876.62 512.479 1877.13 511.967 1877.13 511.337C1877.13 510.706 1876.62 510.194 1875.99 510.194C1875.36 510.194 1874.85 510.706 1874.85 511.337Z" stroke="#0B0504" stroke-opacity="0.3" stroke-width="0.72" stroke-linecap="round" stroke-linejoin="round"/>
<path d="M1874.85 486.716C1874.85 487.346 1875.36 487.858 1875.99 487.858C1876.62 487.858 1877.13 487.346 1877.13 486.716C1877.13 486.085 1876.62 485.573 1875.99 485.573C1875.36 485.573 1874.85 486.085 1874.85 486.716Z" stroke="#0B0504" stroke-opacity="0.3" stroke-width="0.72" stroke-linecap="round" stroke-linejoin="round"/>
<path d="M1861.9 481.384C1861.9 482.015 1862.42 482.527 1863.05 482.527C1863.68 482.527 1864.19 482.015 1864.19 481.384C1864.19 480.754 1863.68 480.242 1863.05 480.242C1862.42 480.242 1861.9 480.754 1861.9 481.384Z" stroke="#0B0504" stroke-opacity="0.3" stroke-width="0.72" stroke-linecap="round" stroke-linejoin="round"/>
<path d="M1848.96 486.716C1848.96 487.346 1849.47 487.858 1850.1 487.858C1850.73 487.858 1851.24 487.346 1851.24 486.716C1851.24 486.085 1850.73 485.573 1850.1 485.573C1849.47 485.573 1848.96 486.085 1848.96 486.716Z" stroke="#0B0504" stroke-opacity="0.3" stroke-width="0.72" stroke-linecap="round" stroke-linejoin="round"/>
<path d="M1168.42 441.407L1172.49 457.145M1176.55 441.407L1164.36 457.145M1185.18 453.845L1183.15 456.129L1181.37 457.145H1179.09L1177.82 456.129L1177.56 454.86L1177.05 453.845V450.291L1177.82 448.007L1179.34 444.707L1181.62 442.422L1183.4 441.407H1185.43L1186.7 442.422L1187.46 444.707M1188.48 441.407L1184.16 457.145M1200.41 457.145L1204.72 441.407L1196.09 453.845L1194.32 441.407L1190 457.145M1215.38 453.845L1213.35 456.129L1211.58 457.145H1209.29L1208.02 456.129L1207.77 454.86L1207.26 453.845L1207.52 450.291L1208.02 448.007L1209.8 444.707L1211.83 442.422L1213.61 441.407H1215.89L1216.91 442.422L1217.92 444.707M1218.68 441.407L1214.37 457.145M1230.61 457.145L1234.93 441.407L1226.55 453.845L1224.78 441.407L1220.46 457.145M1644.11 610.969L1643.61 609.7L1643.35 608.685L1642.08 607.416H1639.8L1638.02 608.685L1635.99 610.969L1634.47 614.269L1633.71 616.554V620.107L1634.47 622.392L1635.74 623.407H1637.77L1639.54 622.392L1641.83 620.107" stroke="#0B0504" stroke-opacity="0.3" stroke-width="0.72" stroke-linecap="round" stroke-linejoin="round"/>
<path d="M1645.13 607.415L1640.31 625.691L1638.53 628.991L1637.51 630.26L1635.74 631.275H1633.45L1632.44 630.26M1648.68 607.415L1648.94 623.406M1648.94 623.406L1657.57 607.415M1648.94 623.406L1646.14 627.976L1644.11 630.26L1642.34 631.275H1641.57M1671.78 623.406L1676.1 607.415M1673.05 618.837L1670 622.391L1668.23 623.406H1666.7L1665.44 622.391L1665.69 618.837M1665.69 618.837L1668.74 607.415M1665.69 618.837L1662.39 622.391L1660.61 623.406H1659.34L1658.07 622.391L1658.33 618.837L1661.37 607.415M1679.4 614.268H1688.28L1688.79 611.984V609.699L1688.28 608.684L1687.27 607.415H1684.98L1683.2 608.684L1681.17 610.969L1679.4 614.268ZM1679.4 614.268L1678.89 616.553L1678.63 620.107L1679.4 622.391L1680.67 623.406H1682.95L1684.73 622.391L1686.76 620.107M1694.37 610.969L1696.4 608.684L1698.18 607.415M1698.18 607.415L1700.97 605.13L1702.5 603.1L1702.24 600.815L1701.73 599.546H1699.7L1697.93 600.815L1696.91 601.83L1692.34 618.837V621.122L1692.85 622.391L1693.86 623.406H1696.15L1697.93 622.391L1699.96 620.107L1701.73 616.553L1702.24 614.268L1702.5 610.969L1701.48 608.684L1700.46 607.415H1698.18ZM1714.17 620.107L1711.89 622.391L1710.11 623.406H1708.08L1706.81 622.391L1706.3 621.122L1706.05 620.107V616.553L1706.81 614.268L1708.33 610.969L1710.36 608.684L1712.14 607.415H1714.43L1715.69 608.684L1716.46 610.969M1717.47 607.415L1713.16 623.406M1718.23 623.406L1722.8 617.822M1722.8 617.822L1721.53 616.553L1721.28 615.538L1721.03 613.253L1721.28 611.984L1722.8 609.699L1723.82 608.684L1725.59 607.415H1729.91L1725.59 623.406M1722.8 617.822H1727.12" stroke="#0B0504" stroke-opacity="0.3" stroke-width="0.72" stroke-linecap="round" stroke-linejoin="round"/>
<path d="M1061.31 510.196L1059.02 499.789M1065.88 492.174L1054.96 504.104M1058.26 492.174L1053.44 510.196M1066.13 498.266V510.196M1066.13 510.196L1072.73 498.266M1066.13 510.196L1064.1 513.496L1062.58 515.273L1061.31 516.034H1060.8M1075.52 498.266L1070.7 516.034M1074.76 500.804L1076.28 499.027L1077.81 498.266H1079.33L1080.34 499.027L1080.85 500.804V503.342L1080.34 504.865L1079.07 507.658L1077.55 509.181L1076.28 510.196H1074.51L1073.74 509.181L1072.98 507.658M1084.41 504.104H1090.5M1092.02 498.266L1088.97 510.196M1085.93 498.266L1082.88 510.196M1100.14 507.658L1098.62 509.181L1097.1 510.196H1095.57L1094.56 509.181L1094.31 508.419L1094.05 507.658V504.865L1094.56 503.342L1095.83 500.804L1097.35 499.027L1098.62 498.266H1100.4L1101.16 499.027L1101.92 500.804M1102.68 498.266L1099.38 510.196" stroke="#0B0504" stroke-opacity="0.3" stroke-width="0.72" stroke-linecap="round" stroke-linejoin="round"/>
<path d="M925.25 450.544L924.742 451.559H927.027L925.25 450.544ZM924.742 451.559H927.027L925.25 452.575L924.742 451.559ZM927.027 451.559L925.25 452.575L926.012 453.59L927.027 451.559Z" fill="#0B0504" fill-opacity="0.3"/>
<path d="M924.742 451.559L925.25 450.544L927.027 451.559M924.742 451.559H927.027M924.742 451.559L925.25 452.575M927.027 451.559L925.25 452.575M927.027 451.559L926.012 453.59L925.25 452.575" stroke="#0B0504" stroke-opacity="0.3" stroke-width="0.72" stroke-miterlimit="10" stroke-linecap="round"/>
<path d="M926.011 453.59L927.026 453.844V451.559L926.011 453.59ZM927.026 453.844V451.559L928.296 453.59L927.026 453.844ZM927.026 451.559L928.296 453.59L929.057 452.575L927.026 451.559Z" fill="#0B0504" fill-opacity="0.3"/>
<path d="M927.026 453.844L926.011 453.59L927.026 451.559M927.026 453.844V451.559M927.026 453.844L928.296 453.59M927.026 451.559L928.296 453.59M927.026 451.559L929.057 452.575L928.296 453.59" stroke="#0B0504" stroke-opacity="0.3" stroke-width="0.72" stroke-miterlimit="10" stroke-linecap="round"/>
<path d="M929.058 452.575L929.312 451.56H927.027L929.058 452.575ZM929.312 451.56H927.027L929.058 450.545L929.312 451.56ZM927.027 451.56L929.058 450.545L928.296 449.529L927.027 451.56ZM928.296 449.529L927.027 449.275V451.56L928.296 449.529ZM927.027 449.275V451.56L926.012 449.529L927.027 449.275ZM927.027 451.56L926.012 449.529L925.25 450.545L927.027 451.56Z" fill="#0B0504" fill-opacity="0.3"/>
<path d="M929.312 451.56L929.058 452.575L927.027 451.56M929.312 451.56H927.027M929.312 451.56L929.058 450.545M927.027 451.56L929.058 450.545M927.027 451.56L928.296 449.529M927.027 451.56V449.275M927.027 451.56L926.012 449.529M927.027 451.56L925.25 450.545L926.012 449.529M929.058 450.545L928.296 449.529M928.296 449.529L927.027 449.275M927.027 449.275L926.012 449.529" stroke="#0B0504" stroke-opacity="0.3" stroke-width="0.72" stroke-miterlimit="10" stroke-linecap="round"/>
<path d="M927.027 451.56L1038.71 516.034H1041.51H1102.68" stroke="#0B0504" stroke-opacity="0.3" stroke-width="0.72" stroke-linecap="round" stroke-linejoin="round"/>
<path d="M855.445 363.224H733.35M855.445 539.894H733.35M739.442 357.386V545.732M743.757 367.793L734.873 358.909M734.873 535.325L743.757 544.209M721.42 461.712V455.874L733.35 463.235M733.35 452.32L721.42 449.02L729.543 455.366V449.02M733.35 196.2H855.445H695.782H836.407M739.442 369.316V190.362M743.757 200.769L734.873 191.885M721.42 290.119V284.027L733.35 291.642M733.35 706.918H855.445H695.782H836.407M739.442 533.802V712.756M734.873 702.349L743.757 711.233M721.42 633.559V627.467L733.35 635.082M701.621 712.756V190.362M697.305 702.349L706.19 711.233M706.19 200.769L697.305 191.885M686.644 464.758L686.137 464.504L684.867 463.743L684.36 463.235L683.852 462.22V460.443L684.36 459.935L684.867 459.428H686.137L687.152 459.682L688.421 460.443L689.944 461.712L695.782 467.55V461.458M686.137 456.382L685.375 455.366L683.852 453.59L695.782 456.889M695.782 448.005L683.852 444.705L691.721 451.051V444.705M695.782 177.162H836.407H655.93M701.621 171.324V196.2V233.26M706.19 181.731L697.305 172.847M695.782 725.955H836.407H655.93M701.621 731.794V706.918V669.858M697.305 721.386L706.19 730.271M661.768 731.794V171.324M657.453 721.386L666.337 730.271M666.337 181.731L657.453 172.847M646.792 465.52L646.284 465.266L645.015 464.758L644.508 463.997L644 462.981V461.458L644.508 460.697L645.015 460.443L646.284 460.189L647.3 460.697L648.569 461.205L650.092 462.728L655.93 468.312V462.474M644 455.874V451.051L648.569 454.859V453.59L649.077 452.828L649.584 452.574H651.361L652.376 453.082L654.153 453.843L655.423 455.113L655.93 456.382V457.651L655.423 458.92L654.661 459.174H653.646M867.375 184.27V43.8985V165.232M1449.42 184.27V43.8985V165.232M861.537 49.9905H1455.51M871.944 45.4215L863.06 54.5596M1445.11 54.5596L1453.99 45.4215M1144.56 35.0142V34.2527L1145.33 33.2374L1146.09 32.7297L1147.1 31.9682H1148.63L1149.39 32.7297L1149.64 33.2374L1149.89 34.2527L1149.39 35.5219L1148.63 36.5372L1147.36 38.3141L1141.77 43.8985H1147.61M1154.46 43.8985L1157.51 31.9682L1151.16 40.0909H1157.51M1162.84 43.8985L1166.14 31.9682L1159.79 40.0909H1166.14M1468.71 12.9305V165.232V43.8985M848.338 12.9305V165.232V43.8985M1474.55 18.7687H842.5M1464.14 23.3378L1473.03 14.4535M852.907 14.4535L844.023 23.3378M1144.56 3.79242V3.28475L1145.33 2.01557L1146.09 1.5079L1147.1 1.00022H1148.63L1149.39 1.5079L1149.64 2.01557L1149.89 3.28475L1149.39 4.30009L1148.63 5.56927L1147.36 7.09228L1141.77 12.9305H1147.61M1158.02 2.52324V1.5079L1156.75 1.00022H1155.99L1154.46 1.5079L1153.19 3.28475L1151.93 6.07694L1151.16 8.86914M1151.16 8.86914V11.1537L1151.67 12.4228L1152.69 12.9305H1153.19L1154.46 12.4228L1155.73 11.1537L1156.75 9.37681V8.86914V7.09228L1156.24 6.07694L1155.23 5.56927H1154.72L1153.19 6.07694L1152.18 7.09228L1151.16 8.86914ZM1474.55 49.9905H1449.42H1412.61M1464.14 54.5596L1473.03 45.4215M842.5 49.9905H867.375H904.435M852.907 45.4215L844.023 54.5596M1497.14 165.232V12.9305M1955.32 165.232V12.9305M1491.3 18.7687H1961.15M1501.71 14.4535L1492.83 23.3378M1950.75 23.3378L1959.63 14.4535M1711.89 3.28475L1712.9 2.52324L1714.43 1.00022L1711.38 12.9305M1723.82 4.80776L1722.8 6.58461L1721.53 7.85379L1720.26 8.36146H1719.76L1718.74 7.85379L1718.23 6.58461V4.80776V4.30009L1719.25 2.52324L1720.26 1.5079L1721.79 1.00022H1722.29L1723.31 1.5079L1723.82 2.52324V4.80776ZM1723.82 4.80776L1723.06 7.85379L1721.79 10.646L1720.52 12.4228L1718.99 12.9305H1718.23L1716.96 12.4228V11.1537M1727.37 3.79242L1727.63 3.28475L1728.39 2.01557L1728.89 1.5079L1729.91 1.00022H1731.69L1732.19 1.5079L1732.45 2.01557L1732.7 3.28475L1732.45 4.30009L1731.69 5.56927L1730.42 7.09228L1724.58 12.9305H1730.42M1462.62 18.7687H1497.14H1539.53M1512.63 3.28475L1513.64 2.52324L1515.42 1.00022L1512.12 12.9305M1519.73 3.79242V3.28475L1520.49 2.01557L1521.26 1.5079L1522.27 1.00022H1523.79L1524.56 1.5079L1524.81 2.01557L1525.06 3.28475L1524.56 4.30009L1524.05 5.56927L1522.53 7.09228L1516.94 12.9305H1522.78M2095.43 177.162H1967.25H2137.82M1967.25 356.117H2095.43M2089.34 171.324V362.209M2093.91 181.731L2085.03 172.847M2085.03 351.548L2093.91 360.686M2071.57 276.92V270.828L2083.5 278.443M2071.57 263.213V267.528L2076.65 269.305L2076.14 268.797L2075.63 267.274V266.005L2076.14 264.989L2077.16 264.482H2078.93L2080.2 264.736L2081.73 265.497L2083 266.766L2083.5 268.289V269.559L2083 270.574L2082.49 270.828L2081.22 271.082M1967.25 499.28H2095.43M2089.34 350.278V505.118M2085.03 494.711L2093.91 503.849M2073.35 432.775L2072.08 433.029L2071.57 434.044V435.059L2072.08 436.329L2073.86 437.598L2076.65 438.867L2079.44 439.629M2079.44 439.629L2081.73 439.882L2083 439.375L2083.5 438.106V437.852L2083 436.329L2081.73 435.059L2080.2 434.298L2079.44 434.044H2077.92L2076.65 434.552L2076.14 435.821V436.075L2076.65 437.598L2077.92 438.867L2079.44 439.629ZM2095.43 725.955H1967.25H2137.82M2089.34 493.188V731.794M2085.03 721.386L2093.91 730.271M2075.63 617.821L2077.16 618.837L2078.43 619.852L2078.93 621.375V621.883L2078.43 622.898L2077.16 623.406H2075.63H2074.87L2073.35 622.39L2072.08 621.375L2071.57 619.852V619.344L2072.08 618.329L2073.35 617.821H2075.63ZM2075.63 617.821L2078.43 618.583L2081.22 619.852L2083 621.121L2083.5 622.644V623.406L2083 624.675H2081.73M2071.57 608.683V612.998L2076.65 614.775L2076.14 614.268L2075.63 612.745V611.475L2076.14 610.46L2077.16 609.952H2078.93L2080.2 610.206L2081.73 610.968L2083 612.237L2083.5 613.76V615.029L2083 616.044L2082.49 616.298L2081.22 616.552M2131.73 731.794V171.324M2127.42 721.386L2136.3 730.271M2136.3 181.731L2127.42 172.847M2116.76 465.52L2116.25 465.266L2114.98 464.758L2114.47 463.997L2113.96 462.981V461.458L2114.47 460.697L2114.98 460.443L2116.25 460.189L2117.26 460.697L2118.53 461.205L2120.06 462.728L2125.89 468.312V462.474M2113.96 455.874V451.051L2118.53 454.859V453.59L2119.04 452.828L2119.55 452.574H2121.32L2122.34 453.082L2124.12 453.843L2125.39 455.113L2125.89 456.382V457.651L2125.39 458.92L2124.62 459.174H2123.61M1498.16 532.025H1544.61M1480.64 725.955H1544.61M1538.77 525.933V731.794M1543.09 536.34L1534.2 527.456M1534.2 721.386L1543.09 730.271M1523.03 630.259L1522.53 629.244L1520.75 627.467L1532.68 630.513M1520.75 621.883V617.06L1525.32 620.867V619.598L1525.83 619.09L1526.59 618.583L1528.11 618.837L1529.38 619.09L1531.16 619.852L1532.17 621.121L1532.68 622.39V623.913L1532.17 624.929L1531.66 625.183L1530.39 625.436M1498.16 369.824H1544.61M1538.77 537.863V363.732M1543.09 374.139L1534.2 365.255M1522.53 456.128H1521.26L1520.75 457.143V458.159L1521.26 459.428L1523.03 460.951L1525.83 461.966L1528.87 462.728M1528.87 462.728L1531.16 462.981L1532.17 462.474L1532.68 461.205V460.951L1532.17 459.428L1531.16 458.412L1529.38 457.397L1528.87 457.143H1527.09L1525.83 457.651L1525.32 458.92V459.428L1525.83 460.697L1527.09 461.966L1528.87 462.728ZM1696.4 737.886V1028.02M1955.32 737.886V1028.02M1955.32 737.886V1062.8M1955.32 737.886V1093M1690.57 1021.93H1961.15M1700.97 1017.36L1692.09 1026.5M1950.75 1026.5L1959.63 1017.36M1811.39 1006.44L1812.41 1005.68L1813.93 1004.16L1810.88 1016.09M1840.84 1004.16H1836.52L1834.74 1009.24L1835.51 1008.47L1836.77 1007.97H1838.04L1839.31 1008.47L1839.82 1009.74V1011.52L1839.57 1012.54L1838.55 1014.31L1837.54 1015.33L1836.01 1016.09H1834.74L1833.47 1015.33L1833.22 1014.82V1013.81M1501.96 761.746V1028.02V737.886M1702.5 1021.93H1496.13M1506.53 1017.36L1497.65 1026.5M1598.17 1006.44L1599.18 1005.68L1600.96 1004.16L1597.66 1016.09M1610.86 1004.16H1606.55L1604.77 1009.24L1605.28 1008.47L1606.8 1007.97H1608.07L1609.08 1008.47L1609.59 1009.74V1011.52L1609.34 1012.54L1608.32 1014.31L1607.31 1015.33L1605.78 1016.09H1604.51L1603.5 1015.33L1603.25 1014.82L1602.99 1013.81M1497.14 1028.02V737.886V1062.8M1548.42 1021.93H1501.96H1497.14H1488.26M1492.83 1026.5L1501.71 1017.36M1528.62 1006.95L1528.87 1006.44L1529.63 1005.17L1530.14 1004.67L1531.16 1004.16H1532.93L1533.69 1004.67L1533.95 1005.17V1006.44L1533.69 1007.46L1532.93 1008.47L1531.66 1010.25L1525.83 1016.09H1531.92M1491.3 1056.7H1961.15M1501.71 1052.39L1492.83 1061.27M1950.75 1061.27L1959.63 1052.39M1711.89 1041.22L1712.9 1040.71L1714.43 1038.93L1711.38 1050.87M1723.82 1043L1722.8 1044.52L1721.53 1045.79L1720.26 1046.3H1719.76L1718.74 1045.79L1718.23 1044.52V1043V1042.23L1719.25 1040.71L1720.26 1039.44L1721.79 1038.93H1722.29L1723.31 1039.44L1723.82 1040.71V1043ZM1723.82 1043L1723.06 1045.79L1721.79 1048.58L1720.52 1050.36L1718.99 1050.87H1718.23L1716.96 1050.36V1049.09M1727.37 1041.73L1727.63 1041.22L1728.39 1039.95L1728.89 1039.44L1729.91 1038.93H1731.69L1732.19 1039.44L1732.45 1039.95L1732.7 1041.22L1732.45 1042.23L1731.69 1043.5L1730.42 1045.03L1724.58 1050.87H1730.42M1468.71 737.886V1062.8M848.338 1062.8V737.886V1093M1474.55 1056.7H842.5M1464.14 1061.27L1473.03 1052.39M852.907 1052.39L844.023 1061.27M1144.56 1041.73V1041.22L1145.33 1039.95L1146.09 1039.44L1147.1 1038.93H1148.63L1149.39 1039.44L1149.64 1039.95L1149.89 1041.22L1149.39 1042.23L1148.63 1043.5L1147.36 1045.03L1141.77 1050.87H1147.61M1158.02 1040.71V1039.44L1156.75 1038.93H1155.99L1154.46 1039.44L1153.19 1041.22L1151.93 1044.01L1151.16 1046.8M1151.16 1046.8V1049.09L1151.67 1050.36L1152.69 1050.87H1153.19L1154.46 1050.36L1155.73 1049.09L1156.75 1047.31V1046.8V1045.03L1156.24 1044.01L1155.23 1043.5H1154.72L1153.19 1044.01L1152.18 1045.03L1151.16 1046.8ZM1503.23 1056.7H1468.71H1426.32M1432.92 1041.22L1433.94 1040.71L1435.46 1038.93L1432.41 1050.87M1440.03 1041.73V1041.22L1440.79 1039.95L1441.3 1039.44L1442.31 1038.93H1444.09L1444.85 1039.44L1445.11 1039.95V1041.22L1444.85 1042.23L1444.09 1043.5L1442.82 1045.03L1436.98 1050.87H1443.08M1961.15 1087.16H842.5M1950.75 1091.48L1959.63 1082.59M852.907 1082.59L844.023 1091.48M1388.75 1081.07L1391.8 1069.14L1385.45 1077.01H1391.8M1400.94 1070.92L1400.68 1069.65L1399.67 1069.14H1398.65L1397.38 1069.65L1395.86 1071.43L1394.85 1074.22L1394.08 1077.01M1394.08 1077.01L1393.83 1079.29L1394.34 1080.56L1395.61 1081.07H1395.86L1397.38 1080.56L1398.65 1079.29L1399.42 1077.77L1399.67 1077.01V1075.49L1399.16 1074.22L1397.89 1073.71H1397.38L1396.12 1074.22L1394.85 1075.49L1394.08 1077.01ZM1405.76 1081.07L1409.06 1069.14L1402.46 1077.01H1409.06M721.42 442.167L722.181 443.69L723.704 444.959L726.497 446.228L728.273 446.482L731.066 446.99L732.842 446.482L733.35 445.467V444.451L732.842 443.182L731.066 441.913L728.273 440.644L726.497 440.136L723.704 439.882L722.181 440.136L721.42 441.405V442.167ZM721.42 278.95L722.181 280.473L723.704 281.743L726.497 282.758L728.273 283.266L731.066 283.773L732.842 283.266L733.35 282.25V281.235L732.842 279.966L731.066 278.443L728.273 277.427L726.497 276.92L723.704 276.666L722.181 276.92L721.42 278.189V278.95ZM721.42 270.32L722.181 271.843L723.704 273.112L726.497 274.381L728.273 274.889L731.066 275.143L732.842 274.635L733.35 273.62V272.858L732.842 271.335L731.066 270.066L728.273 268.797L726.497 268.289L723.704 268.036L722.181 268.543L721.42 269.559V270.32ZM721.42 622.39L722.181 623.913L723.704 625.183L726.497 626.452L728.273 626.959L731.066 627.213L732.842 626.706L733.35 625.69V624.929L732.842 623.406L731.066 622.136L728.273 620.867L726.497 620.36L723.704 620.106L722.181 620.613L721.42 621.629V622.39ZM721.42 614.014L722.181 615.283L723.704 616.806L726.497 617.821L728.273 618.329L731.066 618.583L732.842 618.329L733.35 617.06V616.298L732.842 614.775L731.066 613.506L728.273 612.491L726.497 611.983L723.704 611.475L722.181 611.983L721.42 612.998V614.014ZM683.852 437.852L684.36 439.375L686.137 440.644L688.929 441.913L690.706 442.421L693.498 442.675L695.021 442.167L695.782 441.152V440.39L695.021 438.867L693.498 437.598L690.706 436.329L688.929 435.821L686.137 435.567L684.36 436.075L683.852 437.09V437.852ZM683.852 222.599L684.36 223.868L685.375 224.63L686.644 224.883H687.66L688.421 224.122L688.929 222.599L689.437 221.584L690.706 220.822H691.721L693.498 221.33L694.513 222.091L695.021 222.599L695.782 224.122V225.645L695.021 226.914L694.513 227.168H693.498L691.721 226.914L690.706 226.153L689.437 224.883L688.929 223.36L688.421 221.584L687.66 220.568L686.644 219.807L685.375 219.553L684.36 219.807L683.852 220.822V222.599ZM683.852 213.461L684.36 214.984L686.137 216.253L688.929 217.522L690.706 218.03L693.498 218.284L695.021 218.03L695.782 216.761V215.999L695.021 214.476L693.498 213.207L690.706 211.938L688.929 211.43L686.137 211.176L684.36 211.684L683.852 212.699V213.461ZM683.852 687.118L684.36 688.641L685.375 689.403L686.644 689.657L687.66 689.403L688.421 688.895L688.929 687.372L689.437 686.103L690.706 685.595H691.721L693.498 685.849L694.513 686.611L695.021 687.118L695.782 688.641V690.418L695.021 691.434L694.513 691.688L693.498 691.941L691.721 691.434L690.706 690.672L689.437 689.657L688.929 688.134L688.421 686.357L687.66 685.342L686.644 684.58L685.375 684.326H684.36L683.852 685.595V687.118ZM683.852 678.234L684.36 679.757L686.137 681.026L688.929 682.042L690.706 682.549L693.498 683.057L695.021 682.549L695.782 681.534V680.519L695.021 679.25L693.498 677.727L690.706 676.711L688.929 676.204L686.137 675.95L684.36 676.204L683.852 677.473V678.234ZM644 445.721L644.508 446.99L646.284 448.259L649.077 449.528L650.853 450.036L653.646 450.29L655.423 450.036L655.93 448.767V448.005L655.423 446.482L653.646 445.213L650.853 443.944L649.077 443.69L646.284 443.182L644.508 443.69L644 444.705V445.721ZM644 437.09L644.508 438.613L646.284 439.882L649.077 440.898L650.853 441.405L653.646 441.913L655.423 441.405L655.93 440.39V439.375L655.423 438.106L653.646 436.583L650.853 435.567L649.077 435.059L646.284 434.806L644.508 435.059L644 436.329V437.09ZM1172.99 31.9682L1171.47 32.7297L1170.2 34.2527L1168.93 37.2987L1168.68 38.8218L1168.17 41.614L1168.68 43.3908L1169.69 43.8985H1170.71L1171.98 43.3908L1173.25 41.614L1174.52 38.8218L1175.02 37.2987L1175.28 34.2527L1175.02 32.7297L1173.76 31.9682H1172.99ZM1164.36 1.00022L1163.09 1.5079L1161.82 3.28475L1160.56 6.07694L1160.05 7.85379L1159.79 10.646L1160.05 12.4228L1161.32 12.9305H1162.08L1163.6 12.4228L1164.87 10.646L1166.14 7.85379L1166.39 6.07694L1166.9 3.28475L1166.39 1.5079L1165.38 1.00022H1164.36ZM1172.99 1.00022L1171.47 1.5079L1170.2 3.28475L1168.93 6.07694L1168.68 7.85379L1168.17 10.646L1168.68 12.4228L1169.69 12.9305H1170.71L1171.98 12.4228L1173.25 10.646L1174.52 7.85379L1175.02 6.07694L1175.28 3.28475L1175.02 1.5079L1173.76 1.00022H1172.99ZM1423.28 31.9682L1421.75 32.7297L1421.25 33.745L1420.74 35.0142L1420.99 36.0296L1421.75 36.5372L1423.28 37.2987L1424.29 37.8064L1424.8 38.8218L1425.05 40.0909L1424.55 41.614L1423.78 42.8831L1423.28 43.3908L1421.75 43.8985H1420.23L1418.96 43.3908L1418.71 42.8831V41.614L1418.96 40.0909L1419.72 38.8218L1420.99 37.8064L1422.26 37.2987L1424.29 36.5372L1425.31 36.0296L1426.07 35.0142L1426.32 33.745L1426.07 32.7297L1425.05 31.9682H1423.28ZM1432.16 31.9682L1430.89 32.7297L1429.62 34.2527L1428.35 37.2987L1427.84 38.8218L1427.59 41.614L1427.84 43.3908L1429.11 43.8985H1429.88L1431.4 43.3908L1432.67 41.614L1433.94 38.8218L1434.19 37.2987L1434.7 34.2527L1434.19 32.7297L1433.18 31.9682H1432.16ZM887.175 31.9682L885.652 32.7297L884.89 33.745L884.636 35.0142V36.0296L885.398 36.5372L886.921 37.2987L888.19 37.8064L888.698 38.8218V40.0909L888.444 41.614L887.682 42.8831L886.921 43.3908L885.652 43.8985H883.875L882.859 43.3908L882.606 42.8831L882.352 41.614L882.859 40.0909L883.621 38.8218L884.636 37.8064L886.159 37.2987L887.936 36.5372L888.951 36.0296L889.713 35.0142L889.967 33.745V32.7297L888.698 31.9682H887.175ZM896.059 31.9682L894.536 32.7297L893.267 34.2527L891.997 37.2987L891.744 38.8218L891.236 41.614L891.744 43.3908L892.759 43.8985H893.774L895.044 43.3908L896.313 41.614L897.582 38.8218L898.09 37.2987L898.343 34.2527L898.09 32.7297L896.82 31.9682H896.059ZM1738.79 1.00022L1737.27 1.5079L1736 3.28475L1734.99 6.07694L1734.48 7.85379L1734.22 10.646L1734.48 12.4228L1735.75 12.9305H1736.51L1737.78 12.4228L1739.3 10.646L1740.32 7.85379L1740.82 6.07694L1741.08 3.28475L1740.82 1.5079L1739.56 1.00022H1738.79ZM1531.16 1.00022L1529.63 1.5079L1528.36 3.28475L1527.09 6.07694L1526.84 7.85379L1526.33 10.646L1526.84 12.4228L1527.86 12.9305H1528.87L1530.14 12.4228L1531.41 10.646L1532.68 7.85379L1533.19 6.07694L1533.44 3.28475L1533.19 1.5079L1531.92 1.00022H1531.16ZM2071.57 257.374L2072.08 258.644L2073.86 260.167L2076.65 261.182L2078.43 261.69L2081.22 261.943L2083 261.69L2083.5 260.42V259.659L2083 258.136L2081.22 256.867L2078.43 255.851L2076.65 255.344L2073.86 254.836L2072.08 255.344L2071.57 256.359V257.374ZM2071.57 426.429L2072.08 427.952L2073.86 429.221L2076.65 430.49L2078.43 430.744L2081.22 431.252L2083 430.744L2083.5 429.729V428.714L2083 427.444L2081.22 426.175L2078.43 424.906L2076.65 424.398L2073.86 424.145L2072.08 424.398L2071.57 425.668V426.429ZM2071.57 418.052L2072.08 419.322L2073.86 420.591L2076.65 421.86L2078.43 422.368L2081.22 422.622L2083 422.368L2083.5 421.099V420.337L2083 418.814L2081.22 417.545L2078.43 416.276L2076.65 415.768L2073.86 415.514L2072.08 416.022L2071.57 417.037V418.052ZM2071.57 602.845L2072.08 604.114L2073.86 605.637L2076.65 606.653L2078.43 607.16L2081.22 607.414L2083 607.16L2083.5 605.891V605.129L2083 603.606L2081.22 602.337L2078.43 601.322L2076.65 600.814L2073.86 600.56L2072.08 600.814L2071.57 601.83V602.845ZM2113.96 445.721L2114.47 446.99L2116.25 448.259L2119.04 449.528L2120.82 450.036L2123.61 450.29L2125.39 450.036L2125.89 448.767V448.005L2125.39 446.482L2123.61 445.213L2120.82 443.944L2119.04 443.69L2116.25 443.182L2114.47 443.69L2113.96 444.705V445.721ZM2113.96 437.09L2114.47 438.613L2116.25 439.882L2119.04 440.898L2120.82 441.405L2123.61 441.913L2125.39 441.405L2125.89 440.39V439.375L2125.39 438.106L2123.61 436.583L2120.82 435.567L2119.04 435.059L2116.25 434.806L2114.47 435.059L2113.96 436.329V437.09ZM1520.75 635.844L1521.26 637.367L1522.53 638.128L1523.54 638.382H1524.81L1525.32 637.62L1525.83 636.097L1526.59 634.828L1527.6 634.321H1528.87L1530.39 634.574L1531.66 635.336L1532.17 636.097L1532.68 637.367V639.143L1532.17 640.159L1531.66 640.413L1530.39 640.667L1528.87 640.159L1527.6 639.397L1526.59 638.382L1525.83 636.859L1525.32 635.082L1524.81 634.067L1523.54 633.305L1522.53 633.051H1521.26L1520.75 634.321V635.844ZM1520.75 450.036L1521.26 451.559L1522.53 452.066L1523.54 452.574L1524.81 452.32L1525.32 451.559L1525.83 450.036L1526.59 449.02L1527.6 448.513L1528.87 448.259L1530.39 448.767L1531.66 449.528L1532.17 450.036L1532.68 451.559V453.336L1532.17 454.351L1531.66 454.605H1530.39L1528.87 454.351L1527.6 453.59L1526.59 452.32L1525.83 451.051L1525.32 449.02L1524.81 448.005L1523.54 447.244L1522.53 446.99L1521.26 447.244L1520.75 448.259V450.036ZM1520.75 441.152L1521.26 442.421L1523.03 443.69L1525.83 444.959L1527.6 445.467L1530.39 445.721L1532.17 445.467L1532.68 444.198V443.436L1532.17 441.913L1530.39 440.644L1527.6 439.375L1525.83 439.121L1523.03 438.613L1521.26 439.121L1520.75 440.136V441.152ZM1821.29 1004.16L1819.77 1004.67L1818.5 1006.44L1817.48 1009.24L1816.98 1010.76L1816.47 1013.81L1816.98 1015.33L1817.99 1016.09H1819.01L1820.28 1015.33L1821.8 1013.81L1822.81 1010.76L1823.32 1009.24L1823.57 1006.44L1823.32 1004.67L1822.05 1004.16H1821.29ZM1829.41 1004.16L1827.89 1004.67L1827.13 1005.68L1826.87 1006.95L1827.13 1007.97L1827.64 1008.47L1829.16 1009.24L1830.43 1009.74L1830.94 1010.76L1831.19 1012.03L1830.68 1013.81L1829.92 1014.82L1829.41 1015.33L1827.89 1016.09H1826.11L1825.1 1015.33L1824.84 1014.82L1824.59 1013.81L1825.1 1012.03L1825.86 1010.76L1827.13 1009.74L1828.4 1009.24L1830.17 1008.47L1831.19 1007.97L1831.95 1006.95L1832.21 1005.68V1004.67L1831.19 1004.16H1829.41ZM1592.33 1004.16L1591.06 1004.67L1590.3 1005.68L1590.05 1006.95V1007.97L1590.81 1008.47L1592.33 1009.24L1593.35 1009.74L1594.11 1010.76V1012.03L1593.6 1013.81L1592.84 1014.82L1592.33 1015.33L1591.06 1016.09H1589.28L1588.02 1015.33L1587.76 1014.82V1013.81L1588.27 1012.03L1588.78 1010.76L1590.05 1009.74L1591.57 1009.24L1593.35 1008.47L1594.36 1007.97L1595.12 1006.95L1595.38 1005.68V1004.67L1594.11 1004.16H1592.33ZM1540.04 1004.16L1538.77 1004.67L1537.5 1006.44L1536.23 1009.24L1535.73 1010.76L1535.47 1013.81L1535.73 1015.33L1536.99 1016.09H1537.76L1539.28 1015.33L1540.55 1013.81L1541.82 1010.76L1542.07 1009.24L1542.58 1006.44L1542.07 1004.67L1541.06 1004.16H1540.04ZM1738.79 1038.93L1737.27 1039.44L1736 1041.22L1734.99 1044.01L1734.48 1045.79L1734.22 1048.58L1734.48 1050.36L1735.75 1050.87H1736.51L1737.78 1050.36L1739.3 1048.58L1740.32 1045.79L1740.82 1044.01L1741.08 1041.22L1740.82 1039.44L1739.56 1038.93H1738.79ZM1164.36 1038.93L1163.09 1039.44L1161.82 1041.22L1160.56 1044.01L1160.05 1045.79L1159.79 1048.58L1160.05 1050.36L1161.32 1050.87H1162.08L1163.6 1050.36L1164.87 1048.58L1166.14 1045.79L1166.39 1044.01L1166.9 1041.22L1166.39 1039.44L1165.38 1038.93H1164.36ZM1172.99 1038.93L1171.47 1039.44L1170.2 1041.22L1168.93 1044.01L1168.68 1045.79L1168.17 1048.58L1168.68 1050.36L1169.69 1050.87H1170.71L1171.98 1050.36L1173.25 1048.58L1174.52 1045.79L1175.02 1044.01L1175.28 1041.22L1175.02 1039.44L1173.76 1038.93H1172.99ZM1451.45 1038.93L1449.93 1039.44L1448.66 1041.22L1447.39 1044.01L1446.88 1045.79L1446.63 1048.58L1447.14 1050.36L1448.15 1050.87H1448.91L1450.44 1050.36L1451.71 1048.58L1452.97 1045.79L1453.48 1044.01L1453.74 1041.22L1453.23 1039.44L1452.21 1038.93H1451.45ZM1415.66 1069.14L1414.39 1069.65L1413.12 1071.43L1411.85 1074.22L1411.35 1075.99L1411.09 1078.79L1411.35 1080.56L1412.61 1081.07H1413.38L1414.9 1080.56L1416.17 1078.79L1417.44 1075.99L1417.69 1074.22L1418.2 1071.43L1417.69 1069.65L1416.68 1069.14H1415.66Z" stroke="#0B0504" stroke-opacity="0.3" stroke-width="0.24" stroke-linecap="round" stroke-linejoin="round"/>
</g>
</svg>
