<svg width="64" height="64" viewBox="0 0 64 64" fill="none" xmlns="http://www.w3.org/2000/svg">
<path d="M13.3333 24H50.6667M40 48V40M24 48H24.0267M32 48H32.0267M32 40H32.0267M24 40H24.0267M40 32H40.0267M32 32H32.0267M24 32H24.0267M21.8667 56H42.1333C45.1203 56 46.6139 56 47.7547 55.4187C48.7581 54.9075 49.5741 54.0915 50.0853 53.088C50.6667 51.9472 50.6667 50.4536 50.6667 47.4667V16.5333C50.6667 13.5464 50.6667 12.0529 50.0853 10.9121C49.5741 9.90851 48.7581 9.09261 47.7547 8.58131C46.6139 8 45.1203 8 42.1333 8H21.8667C18.8797 8 17.3862 8 16.2454 8.58131C15.2418 9.09261 14.4259 9.90851 13.9146 10.9121C13.3333 12.0529 13.3333 13.5464 13.3333 16.5333V47.4667C13.3333 50.4536 13.3333 51.9472 13.9146 53.088C14.4259 54.0915 15.2418 54.9075 16.2454 55.4187C17.3862 56 18.8797 56 21.8667 56Z" stroke="white" stroke-width="5.33333" stroke-linecap="round" stroke-linejoin="round"/>
</svg>
