<svg width="18" height="18" viewBox="0 0 18 18" fill="none" xmlns="http://www.w3.org/2000/svg">
<path fill-rule="evenodd" clip-rule="evenodd" d="M0 8C0 4.229 -1.19209e-07 2.343 1.172 1.172C2.343 -1.19209e-07 4.229 0 8 0H10C13.771 0 15.657 -1.19209e-07 16.828 1.172C18 2.343 18 4.229 18 8V10C18 13.771 18 15.657 16.828 16.828C15.657 18 13.771 18 10 18H8C4.229 18 2.343 18 1.172 16.828C-1.19209e-07 15.657 0 13.771 0 10V8ZM15 4.5C15 4.89782 14.842 5.27936 14.5607 5.56066C14.2794 5.84196 13.8978 6 13.5 6C13.1022 6 12.7206 5.84196 12.4393 5.56066C12.158 5.27936 12 4.89782 12 4.5C12 4.10218 12.158 3.72064 12.4393 3.43934C12.7206 3.15804 13.1022 3 13.5 3C13.8978 3 14.2794 3.15804 14.5607 3.43934C14.842 3.72064 15 4.10218 15 4.5ZM11 10C11 10.5304 10.7893 11.0391 10.4142 11.4142C10.0391 11.7893 9.53043 12 9 12C8.46957 12 7.96086 11.7893 7.58579 11.4142C7.21071 11.0391 7 10.5304 7 10C7 9.46957 7.21071 8.96086 7.58579 8.58579C7.96086 8.21071 8.46957 8 9 8C9.53043 8 10.0391 8.21071 10.4142 8.58579C10.7893 8.96086 11 9.46957 11 10ZM13 10C13 11.0609 12.5786 12.0783 11.8284 12.8284C11.0783 13.5786 10.0609 14 9 14C7.93913 14 6.92172 13.5786 6.17157 12.8284C5.42143 12.0783 5 11.0609 5 10C5 8.93913 5.42143 7.92172 6.17157 7.17157C6.92172 6.42143 7.93913 6 9 6C10.0609 6 11.0783 6.42143 11.8284 7.17157C12.5786 7.92172 13 8.93913 13 10Z" fill="#F6F6F6"/>
</svg>
