<svg width="249" height="58" viewBox="0 0 249 58" fill="none" xmlns="http://www.w3.org/2000/svg">
<path d="M221.94 1.26229C213.302 2.22363 204.619 6.4186 199.576 12.0119C196.857 15.0707 193.787 21.1447 192.779 25.6892C191.858 29.5346 191.463 39.5851 192.033 43.3868L192.428 46.0086L192.735 43.3868C193.349 38.2304 194.708 32.2439 196.024 28.9666C200.804 17.0808 210.627 9.73962 224.615 7.59844C229.132 6.89927 236.236 6.33121 235.885 6.68079C235.754 6.81188 233.824 7.20516 231.588 7.59844C218.213 9.73962 208.39 16.5564 202.207 28.0052C200.365 31.3699 198.26 36.3514 198.26 37.3128C198.26 37.8809 204.093 39.8036 208.259 40.5901C209.793 40.896 212.863 41.0271 215.319 40.896C218.958 40.7212 220.055 40.459 222.554 39.3229C228.08 36.7447 231.719 32.4624 237.727 21.3195C241.542 14.1968 244.524 9.82701 247.199 7.33625C249.567 5.10767 249.392 4.7144 245.489 3.44717C237.99 1.0875 230.097 0.344638 221.94 1.26229Z" fill="#6B7537"/>
<path d="M123.537 11.0942C122.265 12.3615 123.054 14.7648 124.721 14.7648C126.036 14.7648 126.782 13.9783 126.782 12.58C126.782 10.5262 124.94 9.69592 123.537 11.0942Z" fill="#F6F6F6"/>
<path d="M0.0500183 26.7816V42.2943H1.58483H3.11965V36.264V30.1901L7.19787 29.9279C13.6879 29.4909 16.8014 28.0489 18.4678 24.5531C19.7395 21.9749 19.6079 17.2119 18.2047 15.3329C15.9244 12.2304 12.7671 11.269 5.09298 11.269H0.0500183V26.7816ZM12.5039 14.9396C14.7842 15.901 15.8367 17.5615 15.8367 20.2707C15.8367 23.2421 15.1789 24.5968 13.2494 25.8203C11.89 26.6506 11.0568 26.7816 7.50483 26.7816H3.33891L3.20735 20.5329L3.0758 14.3278H7.06631C9.43431 14.3278 11.6269 14.59 12.5039 14.9396Z" fill="#F6F6F6"/>
<path d="M44.3404 26.7817V42.3817L51.4882 42.2069C57.4959 42.0758 58.8992 41.901 60.6094 41.1145C63.5475 39.8036 65.0823 37.575 65.3016 34.3851C65.6085 30.1901 63.8983 27.6556 60.0393 26.4758L58.2853 25.9514L60.5217 24.9464C62.4512 24.1161 62.9336 23.6791 63.7229 21.9312C64.7753 19.4842 64.6438 16.6001 63.3282 14.8085C62.8897 14.1968 61.5303 13.1917 60.3463 12.58C58.373 11.6186 57.5398 11.4875 51.269 11.3564L44.3404 11.1816V26.7817ZM58.1537 14.9396C58.943 15.2892 59.9516 16.0758 60.3901 16.6875C61.3987 18.3043 61.0041 21.4943 59.6008 22.8926C58.3291 24.1598 54.7333 24.9027 50.6112 24.7279L47.6293 24.5968L47.4977 19.4405L47.3661 14.3279H52.0144C55.0402 14.3279 57.189 14.5464 58.1537 14.9396ZM58.8115 28.3985C59.9078 28.9666 61.0479 29.8842 61.311 30.496C62.1442 32.1565 62.0127 34.9094 61.0041 36.5262C59.6885 38.6674 57.8467 39.2355 52.2337 39.2355H47.41V33.3363V27.4371H52.146C56.1804 27.4371 57.1451 27.5682 58.8115 28.3985Z" fill="#F6F6F6"/>
<path d="M33.0266 19.6152C31.9742 20.1396 30.7025 21.2321 30.1324 22.0186C28.9484 23.8102 28.5537 23.548 28.5537 21.0136C28.5537 19.222 28.5099 19.1346 27.2382 19.1346H25.9226V30.7144V42.2943H27.4136H28.9045L29.0799 34.5161C29.2115 27.3497 29.2992 26.6506 30.2201 25.1648C31.6672 22.8489 33.6405 21.7564 36.4032 21.7564C38.3327 21.7564 38.6396 21.6253 38.6396 20.9262C38.6396 20.4455 38.7712 19.79 38.9028 19.3968C39.3413 18.3043 35.3946 18.4791 33.0266 19.6152Z" fill="#F6F6F6"/>
<path d="M75.6068 19.5716L72.8879 20.4455L73.3703 21.8002C73.7211 22.7615 74.0281 23.0237 74.5543 22.8052C81.4391 19.9649 85.5611 21.4506 85.5611 26.8254C85.5611 27.6556 85.4296 28.3111 85.2542 28.3111C77.1416 28.7044 73.2826 29.7968 71.4408 32.2439C69.3798 35.0405 70.2568 39.7162 73.1949 41.5078C74.4228 42.2506 75.4313 42.4691 77.6678 42.4691C80.7813 42.4691 81.9653 41.9884 84.114 39.9784C85.605 38.58 85.6488 38.58 86.1751 41.0708C86.3943 41.9884 86.7013 42.2943 87.5345 42.2943H88.6308V32.9867C88.6308 22.5867 88.3676 21.4069 85.6488 19.8338C83.4562 18.6102 78.9833 18.4792 75.6068 19.5716ZM85.4734 32.0254C85.9119 35.7397 83.8071 38.8422 80.2989 39.6725C75.4313 40.8523 72.274 37.6187 74.3351 33.5985C75.2121 31.9817 76.8346 31.3262 80.9567 30.933C85.3857 30.5397 85.298 30.5397 85.4734 32.0254Z" fill="#F6F6F6"/>
<path d="M103.321 19.4841C102.356 19.9648 101.172 20.7514 100.734 21.2757C99.7691 22.3245 99.1552 21.8875 99.1552 20.0959C99.1552 19.3094 98.8921 19.1346 97.8396 19.1346H96.5241V30.7144V42.2943H98.015H99.506L99.6814 34.2976C99.813 27.5245 99.9445 26.0825 100.646 24.6405C102.137 21.7127 106.435 20.4892 109.68 22.106C112.135 23.3295 112.311 24.0724 112.311 33.6422V42.2943H114.109H115.907L115.731 33.2052C115.6 23.0236 115.205 21.4505 112.398 19.8337C110.206 18.6102 105.558 18.4354 103.321 19.4841Z" fill="#F6F6F6"/>
<path d="M153.181 19.6152C152.128 20.1396 150.857 21.2321 150.286 22.0186C149.102 23.8102 148.708 23.548 148.708 21.0136C148.708 19.222 148.664 19.1346 147.392 19.1346H146.077V30.7144V42.2943H147.568H149.059L149.234 34.5161C149.366 27.3497 149.453 26.6506 150.374 25.1648C151.821 22.8489 153.795 21.7564 156.557 21.7564C158.487 21.7564 158.794 21.6253 158.794 20.9262C158.794 20.4455 158.925 19.79 159.057 19.3968C159.495 18.3043 155.549 18.4791 153.181 19.6152Z" fill="#F6F6F6"/>
<path d="M123.274 30.7144V42.2943H124.809H126.343V30.7144V19.1346H124.809H123.274V30.7144Z" fill="#F6F6F6"/>
<path d="M163.617 27.743C163.617 32.506 163.837 37.138 164.056 38.0119C165.372 42.6876 173.66 44.1733 177.869 40.5027C179.536 39.017 179.843 38.9296 179.843 40.0657C179.843 41.6825 180.369 42.2943 181.641 42.2943H182.912V30.7144V19.1346H181.158H179.404V26.8691C179.404 35.7397 178.878 37.7061 176.334 39.017C174.317 40.0657 170.414 40.022 168.967 38.9296C167.082 37.5313 166.731 35.7834 166.731 27.0875L166.687 19.1346H165.152H163.617V27.743Z" fill="#F6F6F6"/>
<path d="M134.237 38.3178C133.14 40.4153 134.193 42.7313 136.21 42.7313C138.227 42.7313 139.28 40.4153 138.183 38.3178C137.876 37.7498 137.262 37.4876 136.21 37.4876C135.158 37.4876 134.544 37.7498 134.237 38.3178Z" fill="#F6F6F6"/>
<path d="M11.8589 55.4456L10.1046 49.0302H10.894L12.2348 54.2552H12.2974L13.6632 49.0302H14.5403L15.9061 54.2552H15.9687L17.3094 49.0302H18.0988L16.3446 55.4456H15.5427L14.1268 50.3333H14.0767L12.6608 55.4456H11.8589ZM20.536 55.5458C20.0723 55.5458 19.6724 55.4435 19.3362 55.2388C19.0021 55.0321 18.7441 54.7439 18.5625 54.3743C18.3829 54.0025 18.2931 53.5702 18.2931 53.0774C18.2931 52.5845 18.3829 52.1502 18.5625 51.7743C18.7441 51.3963 18.9968 51.1018 19.3205 50.8909C19.6463 50.6779 20.0264 50.5714 20.4608 50.5714C20.7114 50.5714 20.9588 50.6131 21.2032 50.6967C21.4475 50.7802 21.6699 50.916 21.8704 51.1039C22.0709 51.2898 22.2306 51.5362 22.3497 51.8432C22.4687 52.1502 22.5282 52.5282 22.5282 52.9772V53.2904H18.8193V52.6514H21.7764C21.7764 52.3799 21.7221 52.1376 21.6135 51.9246C21.507 51.7116 21.3546 51.5435 21.1562 51.4203C20.9599 51.2971 20.7281 51.2355 20.4608 51.2355C20.1663 51.2355 19.9115 51.3086 19.6964 51.4547C19.4834 51.5988 19.3195 51.7868 19.2046 52.0186C19.0898 52.2504 19.0323 52.4989 19.0323 52.7641V53.1902C19.0323 53.5535 19.095 53.8616 19.2203 54.1143C19.3477 54.3649 19.5241 54.5559 19.7497 54.6875C19.9752 54.817 20.2373 54.8817 20.536 54.8817C20.7302 54.8817 20.9056 54.8546 21.0622 54.8003C21.2209 54.7439 21.3577 54.6604 21.4726 54.5497C21.5874 54.4369 21.6762 54.297 21.7388 54.1299L22.4531 54.3304C22.3779 54.5727 22.2515 54.7857 22.074 54.9694C21.8965 55.1511 21.6772 55.2931 21.4162 55.3955C21.1551 55.4957 20.8617 55.5458 20.536 55.5458ZM24.3921 49.0302V55.4456H23.6528V49.0302H24.3921ZM26.4854 49.0302V55.4456H25.7461V49.0302H26.4854ZM28.5787 52.5511V55.4456H27.8394V50.634H28.5536V51.3858H28.6163C28.7291 51.1415 28.9003 50.9452 29.13 50.7969C29.3598 50.6466 29.6563 50.5714 30.0197 50.5714C30.3455 50.5714 30.6305 50.6382 30.8749 50.7719C31.1192 50.9034 31.3092 51.1039 31.445 51.3733C31.5807 51.6406 31.6486 51.9789 31.6486 52.3882V55.4456H30.9093V52.4384C30.9093 52.0604 30.8112 51.7659 30.6149 51.555C30.4185 51.342 30.1491 51.2355 29.8067 51.2355C29.5707 51.2355 29.3598 51.2866 29.1739 51.389C28.9901 51.4913 28.845 51.6406 28.7385 51.8369C28.632 52.0332 28.5787 52.2713 28.5787 52.5511ZM35.0168 55.5458C34.5532 55.5458 34.1533 55.4435 33.8171 55.2388C33.4829 55.0321 33.225 54.7439 33.0433 54.3743C32.8637 54.0025 32.7739 53.5702 32.7739 53.0774C32.7739 52.5845 32.8637 52.1502 33.0433 51.7743C33.225 51.3963 33.4777 51.1018 33.8014 50.8909C34.1272 50.6779 34.5073 50.5714 34.9417 50.5714C35.1923 50.5714 35.4397 50.6131 35.6841 50.6967C35.9284 50.7802 36.1508 50.916 36.3513 51.1039C36.5518 51.2898 36.7115 51.5362 36.8306 51.8432C36.9496 52.1502 37.0091 52.5282 37.0091 52.9772V53.2904H33.3002V52.6514H36.2573C36.2573 52.3799 36.203 52.1376 36.0944 51.9246C35.9879 51.7116 35.8355 51.5435 35.6371 51.4203C35.4408 51.2971 35.209 51.2355 34.9417 51.2355C34.6472 51.2355 34.3924 51.3086 34.1773 51.4547C33.9643 51.5988 33.8004 51.7868 33.6855 52.0186C33.5707 52.2504 33.5132 52.4989 33.5132 52.7641V53.1902C33.5132 53.5535 33.5759 53.8616 33.7012 54.1143C33.8286 54.3649 34.005 54.5559 34.2306 54.6875C34.4561 54.817 34.7182 54.8817 35.0168 54.8817C35.211 54.8817 35.3865 54.8546 35.5431 54.8003C35.7018 54.7439 35.8386 54.6604 35.9535 54.5497C36.0683 54.4369 36.1571 54.297 36.2197 54.1299L36.9339 54.3304C36.8588 54.5727 36.7324 54.7857 36.5549 54.9694C36.3774 55.1511 36.1581 55.2931 35.8971 55.3955C35.636 55.4957 35.3426 55.5458 35.0168 55.5458ZM41.5419 51.7116L40.8778 51.8996C40.836 51.7889 40.7744 51.6813 40.693 51.5769C40.6136 51.4704 40.505 51.3827 40.3672 51.3138C40.2294 51.2449 40.0529 51.2104 39.8378 51.2104C39.5433 51.2104 39.298 51.2783 39.1016 51.414C38.9074 51.5477 38.8103 51.7179 38.8103 51.9246C38.8103 52.1084 38.8771 52.2535 39.0108 52.36C39.1445 52.4666 39.3533 52.5553 39.6373 52.6263L40.3515 52.8017C40.7817 52.9062 41.1023 53.0659 41.3132 53.281C41.5241 53.494 41.6296 53.7686 41.6296 54.1049C41.6296 54.3805 41.5502 54.627 41.3915 54.8441C41.2349 55.0613 41.0156 55.2326 40.7337 55.3579C40.4518 55.4832 40.1239 55.5458 39.7501 55.5458C39.2593 55.5458 38.8531 55.4393 38.5315 55.2263C38.2099 55.0133 38.0063 54.7021 37.9207 54.2928L38.6224 54.1174C38.6892 54.3764 38.8155 54.5706 39.0014 54.7C39.1894 54.8295 39.4347 54.8943 39.7376 54.8943C40.0821 54.8943 40.3557 54.8212 40.5583 54.675C40.7629 54.5267 40.8653 54.3492 40.8653 54.1425C40.8653 53.9754 40.8068 53.8355 40.6898 53.7227C40.5729 53.6078 40.3933 53.5222 40.151 53.4658L39.3491 53.2779C38.9085 53.1735 38.5848 53.0116 38.378 52.7923C38.1734 52.571 38.071 52.2943 38.071 51.9622C38.071 51.6907 38.1473 51.4506 38.2997 51.2417C38.4543 51.0329 38.6641 50.869 38.9294 50.7499C39.1967 50.6309 39.4995 50.5714 39.8378 50.5714C40.3139 50.5714 40.6877 50.6758 40.9592 50.8846C41.2328 51.0935 41.427 51.3691 41.5419 51.7116ZM46.1506 51.7116L45.4865 51.8996C45.4448 51.7889 45.3831 51.6813 45.3017 51.5769C45.2223 51.4704 45.1137 51.3827 44.9759 51.3138C44.8381 51.2449 44.6616 51.2104 44.4465 51.2104C44.1521 51.2104 43.9067 51.2783 43.7104 51.414C43.5162 51.5477 43.4191 51.7179 43.4191 51.9246C43.4191 52.1084 43.4859 52.2535 43.6195 52.36C43.7532 52.4666 43.962 52.5553 44.246 52.6263L44.9603 52.8017C45.3905 52.9062 45.711 53.0659 45.9219 53.281C46.1329 53.494 46.2383 53.7686 46.2383 54.1049C46.2383 54.3805 46.159 54.627 46.0003 54.8441C45.8436 55.0613 45.6243 55.2326 45.3424 55.3579C45.0605 55.4832 44.7326 55.5458 44.3588 55.5458C43.868 55.5458 43.4619 55.4393 43.1403 55.2263C42.8187 55.0133 42.615 54.7021 42.5294 54.2928L43.2311 54.1174C43.2979 54.3764 43.4243 54.5706 43.6101 54.7C43.7981 54.8295 44.0435 54.8943 44.3463 54.8943C44.6909 54.8943 44.9644 54.8212 45.167 54.675C45.3717 54.5267 45.474 54.3492 45.474 54.1425C45.474 53.9754 45.4155 53.8355 45.2986 53.7227C45.1816 53.6078 45.002 53.5222 44.7598 53.4658L43.9578 53.2779C43.5172 53.1735 43.1935 53.0116 42.9868 52.7923C42.7821 52.571 42.6798 52.2943 42.6798 51.9622C42.6798 51.6907 42.756 51.4506 42.9084 51.2417C43.063 51.0329 43.2729 50.869 43.5381 50.7499C43.8054 50.6309 44.1082 50.5714 44.4465 50.5714C44.9227 50.5714 45.2965 50.6758 45.568 50.8846C45.8415 51.0935 46.0358 51.3691 46.1506 51.7116ZM51.649 55.5333C51.2271 55.5333 50.8638 55.456 50.5589 55.3015C50.254 55.147 50.019 54.935 49.854 54.6656C49.6891 54.3962 49.6066 54.0882 49.6066 53.7415C49.6066 53.4742 49.663 53.2372 49.7757 53.0304C49.8906 52.8216 50.0483 52.6284 50.2487 52.4509C50.4513 52.2713 50.6842 52.0917 50.9473 51.9121L51.8745 51.2229C52.0562 51.1039 52.2013 50.9765 52.3099 50.8408C52.4206 50.705 52.476 50.5275 52.476 50.3082C52.476 50.1454 52.4039 49.9877 52.2598 49.8352C52.1178 49.6828 51.9309 49.6066 51.6991 49.6066C51.5362 49.6066 51.3921 49.6483 51.2668 49.7319C51.1436 49.8133 51.0465 49.9177 50.9755 50.0451C50.9066 50.1704 50.8721 50.2999 50.8721 50.4335C50.8721 50.5839 50.9128 50.7364 50.9943 50.8909C51.0778 51.0433 51.1833 51.2 51.3107 51.3608C51.4401 51.5195 51.5738 51.6824 51.7116 51.8494L54.6562 55.4456H53.7666L51.3357 52.5135C51.1102 52.2421 50.9055 51.9956 50.7218 51.7743C50.538 51.5529 50.3918 51.3347 50.2832 51.1196C50.1746 50.9045 50.1203 50.6716 50.1203 50.421C50.1203 50.1328 50.184 49.8801 50.3114 49.6629C50.4409 49.4437 50.6215 49.2735 50.8533 49.1523C51.0872 49.0291 51.3608 48.9675 51.674 48.9675C51.9956 48.9675 52.2724 49.0302 52.5042 49.1555C52.736 49.2787 52.9145 49.4426 53.0398 49.6473C53.1651 49.8499 53.2278 50.0702 53.2278 50.3082C53.2278 50.6152 53.1515 50.8815 52.9991 51.107C52.8466 51.3326 52.6389 51.5425 52.3757 51.7367L51.0977 52.689C50.8095 52.902 50.6142 53.1087 50.5119 53.3092C50.4095 53.5097 50.3584 53.6538 50.3584 53.7415C50.3584 53.942 50.4106 54.1289 50.515 54.3022C50.6194 54.4755 50.7666 54.6155 50.9567 54.722C51.1467 54.8285 51.3691 54.8817 51.6239 54.8817C51.8662 54.8817 52.1021 54.8306 52.3319 54.7282C52.5616 54.6238 52.7694 54.4735 52.9552 54.2772C53.1432 54.0809 53.2915 53.8449 53.4001 53.5692C53.5107 53.2935 53.5661 52.9834 53.5661 52.6388H54.2803C54.2803 53.0649 54.2312 53.4126 54.1331 53.682C54.0349 53.9514 53.9242 54.1623 53.801 54.3147C53.6778 54.4672 53.5786 54.581 53.5034 54.6562C53.4784 54.6875 53.4554 54.7188 53.4345 54.7502C53.4136 54.7815 53.3907 54.8128 53.3656 54.8441C53.1589 55.0759 52.8978 55.2493 52.5825 55.3641C52.2671 55.4769 51.956 55.5333 51.649 55.5333ZM61.5642 50.634C61.5266 50.3166 61.3742 50.0702 61.1069 49.8948C60.8395 49.7193 60.5117 49.6316 60.1232 49.6316C59.8392 49.6316 59.5907 49.6776 59.3777 49.7695C59.1668 49.8613 59.0018 49.9877 58.8828 50.1485C58.7658 50.3093 58.7073 50.492 58.7073 50.6967C58.7073 50.8679 58.7481 51.0152 58.8295 51.1384C58.913 51.2595 59.0196 51.3608 59.149 51.4422C59.2785 51.5216 59.4143 51.5874 59.5563 51.6396C59.6983 51.6897 59.8288 51.7304 59.9478 51.7617L60.5994 51.9372C60.7665 51.981 60.9523 52.0416 61.157 52.1188C61.3637 52.1961 61.5611 52.3016 61.749 52.4352C61.9391 52.5668 62.0957 52.736 62.2189 52.9427C62.3421 53.1494 62.4037 53.4032 62.4037 53.7039C62.4037 54.0506 62.3129 54.3638 62.1312 54.6437C61.9516 54.9235 61.6885 55.1459 61.3418 55.3109C60.9972 55.4759 60.5785 55.5584 60.0857 55.5584C59.6262 55.5584 59.2284 55.4842 58.8922 55.3359C58.558 55.1877 58.2949 54.9809 58.1028 54.7157C57.9127 54.4505 57.8052 54.1425 57.7801 53.7916H58.582C58.6029 54.0339 58.6844 54.2343 58.8264 54.3931C58.9705 54.5497 59.1522 54.6666 59.3714 54.7439C59.5928 54.8191 59.8309 54.8567 60.0857 54.8567C60.3822 54.8567 60.6485 54.8086 60.8844 54.7126C61.1204 54.6144 61.3073 54.4787 61.4452 54.3053C61.583 54.1299 61.6519 53.9253 61.6519 53.6914C61.6519 53.4784 61.5924 53.305 61.4734 53.1714C61.3543 53.0377 61.1977 52.9291 61.0035 52.8456C60.8093 52.7621 60.5994 52.689 60.3738 52.6263L59.5845 52.4008C59.0832 52.2567 58.6865 52.051 58.3941 51.7837C58.1017 51.5164 57.9555 51.1666 57.9555 50.7343C57.9555 50.3751 58.0526 50.0618 58.2469 49.7945C58.4432 49.5251 58.7063 49.3163 59.0363 49.168C59.3683 49.0176 59.739 48.9425 60.1483 48.9425C60.5618 48.9425 60.9293 49.0166 61.251 49.1649C61.5726 49.3111 61.8273 49.5115 62.0153 49.7663C62.2053 50.0211 62.3056 50.3103 62.316 50.634H61.5642ZM63.5808 57.2499V50.634H64.295V51.3984H64.3827C64.437 51.3148 64.5122 51.2083 64.6082 51.0788C64.7064 50.9473 64.8463 50.8303 65.028 50.728C65.2118 50.6236 65.4603 50.5714 65.7735 50.5714C66.1787 50.5714 66.5358 50.6727 66.8449 50.8752C67.1539 51.0778 67.3951 51.365 67.5685 51.7367C67.7418 52.1084 67.8285 52.547 67.8285 53.0523C67.8285 53.5619 67.7418 54.0036 67.5685 54.3774C67.3951 54.7491 67.155 55.0373 66.848 55.242C66.541 55.4445 66.187 55.5458 65.7861 55.5458C65.477 55.5458 65.2295 55.4947 65.0437 55.3923C64.8578 55.2879 64.7147 55.1699 64.6145 55.0384C64.5143 54.9047 64.437 54.794 64.3827 54.7063H64.32V57.2499H63.5808ZM64.3075 53.0398C64.3075 53.4032 64.3608 53.7237 64.4673 54.0015C64.5738 54.2772 64.7294 54.4933 64.934 54.6499C65.1387 54.8045 65.3893 54.8817 65.6858 54.8817C65.9949 54.8817 66.2528 54.8003 66.4596 54.6374C66.6684 54.4724 66.825 54.2511 66.9294 53.9733C67.0359 53.6935 67.0892 53.3823 67.0892 53.0398C67.0892 52.7015 67.037 52.3966 66.9326 52.1251C66.8302 51.8515 66.6747 51.6354 66.4658 51.4767C66.2591 51.3159 65.9991 51.2355 65.6858 51.2355C65.3851 51.2355 65.1324 51.3117 64.9278 51.4641C64.7231 51.6145 64.5686 51.8254 64.4641 52.0969C64.3597 52.3663 64.3075 52.6806 64.3075 53.0398ZM70.3721 55.5584C70.0672 55.5584 69.7905 55.5009 69.542 55.3861C69.2935 55.2691 69.0961 55.101 68.9499 54.8817C68.8037 54.6604 68.7306 54.3931 68.7306 54.0798C68.7306 53.8041 68.7849 53.5807 68.8935 53.4094C69.0021 53.2361 69.1473 53.1004 69.329 53.0022C69.5106 52.9041 69.7111 52.831 69.9304 52.7829C70.1518 52.7328 70.3742 52.6931 70.5976 52.6639C70.89 52.6263 71.127 52.5981 71.3087 52.5793C71.4925 52.5584 71.6261 52.524 71.7097 52.476C71.7953 52.4279 71.8381 52.3444 71.8381 52.2254V52.2003C71.8381 51.8912 71.7535 51.6511 71.5844 51.4798C71.4173 51.3086 71.1636 51.2229 70.8232 51.2229C70.4702 51.2229 70.1935 51.3002 69.993 51.4547C69.7926 51.6093 69.6516 51.7743 69.5702 51.9497L68.8685 51.6991C68.9938 51.4067 69.1608 51.1791 69.3697 51.0162C69.5806 50.8512 69.8103 50.7364 70.0588 50.6716C70.3094 50.6048 70.5559 50.5714 70.7981 50.5714C70.9526 50.5714 71.1302 50.5902 71.3306 50.6278C71.5332 50.6633 71.7285 50.7374 71.9164 50.8502C72.1065 50.9629 72.2641 51.1331 72.3894 51.3608C72.5147 51.5884 72.5774 51.8933 72.5774 52.2755V55.4456H71.8381V54.794H71.8005C71.7504 54.8984 71.6669 55.0102 71.5499 55.1292C71.433 55.2482 71.2774 55.3495 71.0832 55.4331C70.889 55.5166 70.6519 55.5584 70.3721 55.5584ZM70.4849 54.8943C70.7772 54.8943 71.0236 54.8368 71.2241 54.722C71.4267 54.6071 71.5792 54.4588 71.6815 54.2772C71.7859 54.0955 71.8381 53.9044 71.8381 53.7039V53.0273C71.8068 53.0649 71.7379 53.0993 71.6314 53.1307C71.5269 53.1599 71.4058 53.186 71.268 53.209C71.1322 53.2298 70.9996 53.2486 70.8702 53.2653C70.7428 53.28 70.6394 53.2925 70.56 53.3029C70.3679 53.328 70.1883 53.3687 70.0212 53.4251C69.8563 53.4794 69.7226 53.5619 69.6203 53.6726C69.52 53.7812 69.4699 53.9294 69.4699 54.1174C69.4699 54.3743 69.5649 54.5685 69.755 54.7C69.9471 54.8295 70.1904 54.8943 70.4849 54.8943ZM75.8939 56.8239V54.7564H76.2949C76.3931 54.6541 76.4776 54.5434 76.5486 54.4244C76.6196 54.3053 76.6813 54.1644 76.7335 54.0015C76.7878 53.8365 76.8337 53.636 76.8713 53.4C76.9089 53.162 76.9423 52.8748 76.9715 52.5386L77.1344 50.634H80.1918V54.7564H80.931V56.8239H80.1918V55.4456H76.6332V56.8239H75.8939ZM77.1344 54.7564H79.4525V51.3232H77.8236L77.6983 52.5386C77.6461 53.0419 77.5813 53.4815 77.5041 53.8574C77.4268 54.2333 77.3036 54.533 77.1344 54.7564ZM81.4863 55.4456V54.7564H81.6617C81.8058 54.7564 81.9259 54.7282 82.022 54.6719C82.118 54.6134 82.1953 54.5121 82.2538 54.368C82.3143 54.2218 82.3603 54.0192 82.3916 53.7603C82.425 53.4992 82.449 53.1672 82.4636 52.7641L82.5513 50.634H85.7591V55.4456H85.0198V51.3232H83.253L83.1779 53.0398C83.1611 53.4345 83.1256 53.7822 83.0713 54.0829C83.0191 54.3816 82.9387 54.6322 82.8301 54.8347C82.7236 55.0373 82.5816 55.1898 82.4041 55.2921C82.2266 55.3944 82.0042 55.4456 81.7369 55.4456H81.4863ZM90.0099 55.4456V51.3107H88.7318C88.4436 51.3107 88.217 51.3775 88.0521 51.5111C87.8871 51.6448 87.8046 51.8286 87.8046 52.0625C87.8046 52.2922 87.8787 52.4728 88.027 52.6044C88.1774 52.736 88.3831 52.8017 88.6441 52.8017H90.1978V53.4909H88.6441C88.3183 53.4909 88.0374 53.4335 87.8015 53.3186C87.5655 53.2037 87.3838 53.0398 87.2564 52.8268C87.129 52.6117 87.0653 52.3569 87.0653 52.0625C87.0653 51.7659 87.1321 51.5111 87.2658 51.2981C87.3995 51.0851 87.5905 50.9212 87.8391 50.8063C88.0897 50.6915 88.3872 50.634 88.7318 50.634H90.7116V55.4456H90.0099ZM86.8022 55.4456L88.168 53.0523H88.9699L87.6041 55.4456H86.8022ZM94.036 56.8239V54.7564H94.4369C94.5351 54.6541 94.6197 54.5434 94.6907 54.4244C94.7617 54.3053 94.8233 54.1644 94.8755 54.0015C94.9298 53.8365 94.9757 53.636 95.0133 53.4C95.0509 53.162 95.0843 52.8748 95.1136 52.5386L95.2764 50.634H98.3338V54.7564H99.0731V56.8239H98.3338V55.4456H94.7752V56.8239H94.036ZM95.2764 54.7564H97.5945V51.3232H95.9656L95.8403 52.5386C95.7881 53.0419 95.7234 53.4815 95.6461 53.8574C95.5688 54.2333 95.4456 54.533 95.2764 54.7564ZM102.009 55.5458C101.575 55.5458 101.194 55.4425 100.866 55.2357C100.54 55.029 100.285 54.7397 100.101 54.368C99.9196 53.9963 99.8288 53.5619 99.8288 53.0649C99.8288 52.5637 99.9196 52.1262 100.101 51.7523C100.285 51.3785 100.54 51.0882 100.866 50.8815C101.194 50.6748 101.575 50.5714 102.009 50.5714C102.443 50.5714 102.823 50.6748 103.149 50.8815C103.477 51.0882 103.732 51.3785 103.914 51.7523C104.097 52.1262 104.189 52.5637 104.189 53.0649C104.189 53.5619 104.097 53.9963 103.914 54.368C103.732 54.7397 103.477 55.029 103.149 55.2357C102.823 55.4425 102.443 55.5458 102.009 55.5458ZM102.009 54.8817C102.339 54.8817 102.61 54.7972 102.823 54.628C103.036 54.4588 103.194 54.2364 103.296 53.9608C103.399 53.6851 103.45 53.3865 103.45 53.0649C103.45 52.7433 103.399 52.4436 103.296 52.1658C103.194 51.8881 103.036 51.6636 102.823 51.4923C102.61 51.3211 102.339 51.2355 102.009 51.2355C101.679 51.2355 101.408 51.3211 101.195 51.4923C100.982 51.6636 100.824 51.8881 100.722 52.1658C100.619 52.4436 100.568 52.7433 100.568 53.0649C100.568 53.3865 100.619 53.6851 100.722 53.9608C100.824 54.2364 100.982 54.4588 101.195 54.628C101.408 54.7972 101.679 54.8817 102.009 54.8817ZM107.949 54.4432L109.628 50.634H110.33L108.25 55.4456H107.648L105.606 50.634H106.295L107.949 54.4432ZM106.057 50.634V55.4456H105.318V50.634H106.057ZM109.841 55.4456V50.634H110.58V55.4456H109.841ZM113.35 55.5584C113.045 55.5584 112.768 55.5009 112.519 55.3861C112.271 55.2691 112.074 55.101 111.927 54.8817C111.781 54.6604 111.708 54.3931 111.708 54.0798C111.708 53.8041 111.762 53.5807 111.871 53.4094C111.98 53.2361 112.125 53.1004 112.306 53.0022C112.488 52.9041 112.689 52.831 112.908 52.7829C113.129 52.7328 113.352 52.6931 113.575 52.6639C113.867 52.6263 114.104 52.5981 114.286 52.5793C114.47 52.5584 114.604 52.524 114.687 52.476C114.773 52.4279 114.816 52.3444 114.816 52.2254V52.2003C114.816 51.8912 114.731 51.6511 114.562 51.4798C114.395 51.3086 114.141 51.2229 113.801 51.2229C113.448 51.2229 113.171 51.3002 112.971 51.4547C112.77 51.6093 112.629 51.7743 112.548 51.9497L111.846 51.6991C111.971 51.4067 112.138 51.1791 112.347 51.0162C112.558 50.8512 112.788 50.7364 113.036 50.6716C113.287 50.6048 113.533 50.5714 113.776 50.5714C113.93 50.5714 114.108 50.5902 114.308 50.6278C114.511 50.6633 114.706 50.7374 114.894 50.8502C115.084 50.9629 115.242 51.1331 115.367 51.3608C115.492 51.5884 115.555 51.8933 115.555 52.2755V55.4456H114.816V54.794H114.778C114.728 54.8984 114.644 55.0102 114.527 55.1292C114.41 55.2482 114.255 55.3495 114.061 55.4331C113.866 55.5166 113.629 55.5584 113.35 55.5584ZM113.462 54.8943C113.755 54.8943 114.001 54.8368 114.202 54.722C114.404 54.6071 114.557 54.4588 114.659 54.2772C114.763 54.0955 114.816 53.9044 114.816 53.7039V53.0273C114.784 53.0649 114.715 53.0993 114.609 53.1307C114.504 53.1599 114.383 53.186 114.245 53.209C114.11 53.2298 113.977 53.2486 113.848 53.2653C113.72 53.28 113.617 53.2925 113.538 53.3029C113.345 53.328 113.166 53.3687 112.999 53.4251C112.834 53.4794 112.7 53.5619 112.598 53.6726C112.498 53.7812 112.447 53.9294 112.447 54.1174C112.447 54.3743 112.542 54.5685 112.732 54.7C112.925 54.8295 113.168 54.8943 113.462 54.8943ZM120.124 54.3555L122.442 50.634H123.295V55.4456H122.555V51.7241L120.25 55.4456H119.385V50.634H120.124V54.3555ZM130.701 48.8297L131.077 49.2808C130.93 49.4228 130.761 49.522 130.569 49.5784C130.377 49.6348 130.16 49.6692 129.917 49.6817C129.675 49.6943 129.406 49.7068 129.109 49.7193C128.775 49.7319 128.498 49.8133 128.279 49.9637C128.06 50.114 127.891 50.3312 127.772 50.6152C127.653 50.8992 127.576 51.248 127.543 51.6615H127.606C127.769 51.3608 127.994 51.1394 128.282 50.9974C128.57 50.8554 128.88 50.7844 129.21 50.7844C129.585 50.7844 129.924 50.8721 130.224 51.0475C130.525 51.2229 130.763 51.4829 130.939 51.8275C131.114 52.1721 131.202 52.5971 131.202 53.1025C131.202 53.6058 131.112 54.0401 130.932 54.4056C130.755 54.771 130.505 55.053 130.184 55.2514C129.864 55.4477 129.489 55.5458 129.059 55.5458C128.629 55.5458 128.252 55.4445 127.928 55.242C127.605 55.0373 127.353 54.7345 127.173 54.3335C126.994 53.9305 126.904 53.4324 126.904 52.8393V52.3256C126.904 51.2543 127.086 50.4419 127.449 49.8885C127.815 49.3351 128.364 49.049 129.097 49.0302C129.356 49.0218 129.586 49.0197 129.789 49.0239C129.992 49.0281 130.168 49.0187 130.318 48.9957C130.469 48.9727 130.596 48.9174 130.701 48.8297ZM129.059 54.8817C129.349 54.8817 129.599 54.8086 129.808 54.6625C130.019 54.5163 130.181 54.3106 130.293 54.0453C130.406 53.778 130.463 53.4637 130.463 53.1025C130.463 52.7516 130.405 52.453 130.29 52.2066C130.177 51.9601 130.016 51.7722 129.805 51.6427C129.594 51.5132 129.341 51.4485 129.047 51.4485C128.832 51.4485 128.638 51.485 128.467 51.5581C128.296 51.6312 128.15 51.7388 128.029 51.8808C127.907 52.0228 127.813 52.1961 127.747 52.4008C127.682 52.6054 127.647 52.8393 127.643 53.1025C127.643 53.6413 127.77 54.0725 128.022 54.3962C128.275 54.7199 128.621 54.8817 129.059 54.8817ZM133.072 54.3555L135.39 50.634H136.242V55.4456H135.503V51.7241L133.197 55.4456H132.333V50.634H133.072V54.3555ZM137.295 54.2176H138.085C138.101 54.4348 138.2 54.5998 138.379 54.7126C138.561 54.8253 138.797 54.8817 139.087 54.8817C139.384 54.8817 139.637 54.8212 139.848 54.7C140.059 54.5768 140.165 54.3784 140.165 54.1049C140.165 53.9441 140.125 53.8041 140.046 53.6851C139.966 53.564 139.855 53.47 139.711 53.4032C139.566 53.3364 139.396 53.3029 139.2 53.3029H138.373V52.6388H139.2C139.494 52.6388 139.712 52.572 139.852 52.4384C139.994 52.3047 140.065 52.1376 140.065 51.9372C140.065 51.7221 139.988 51.5498 139.836 51.4203C139.683 51.2887 139.467 51.2229 139.187 51.2229C138.905 51.2229 138.671 51.2866 138.483 51.414C138.295 51.5393 138.195 51.7012 138.185 51.8996H137.408C137.416 51.6406 137.496 51.4119 137.646 51.2135C137.797 51.0131 138.001 50.8564 138.26 50.7437C138.519 50.6288 138.816 50.5714 139.15 50.5714C139.488 50.5714 139.782 50.6309 140.03 50.7499C140.281 50.8669 140.474 51.0266 140.61 51.2292C140.747 51.4297 140.816 51.6573 140.816 51.9121C140.816 52.1836 140.74 52.4029 140.588 52.5699C140.435 52.737 140.244 52.856 140.014 52.927V52.9772C140.196 52.9897 140.354 53.0482 140.487 53.1526C140.623 53.2549 140.729 53.3896 140.804 53.5567C140.879 53.7217 140.917 53.9044 140.917 54.1049C140.917 54.3972 140.838 54.652 140.682 54.8692C140.525 55.0843 140.31 55.2514 140.036 55.3704C139.763 55.4874 139.451 55.5458 139.1 55.5458C138.759 55.5458 138.454 55.4905 138.185 55.3798C137.916 55.267 137.702 55.1115 137.543 54.9131C137.386 54.7126 137.304 54.4808 137.295 54.2176ZM145.175 52.7015V53.3907H142.519V52.7015H145.175ZM142.694 50.634V55.4456H141.955V50.634H142.694ZM145.739 50.634V55.4456H145V50.634H145.739ZM149.107 55.5458C148.643 55.5458 148.243 55.4435 147.907 55.2388C147.573 55.0321 147.315 54.7439 147.133 54.3743C146.953 54.0025 146.864 53.5702 146.864 53.0774C146.864 52.5845 146.953 52.1502 147.133 51.7743C147.315 51.3963 147.567 51.1018 147.891 50.8909C148.217 50.6779 148.597 50.5714 149.031 50.5714C149.282 50.5714 149.529 50.6131 149.774 50.6967C150.018 50.7802 150.241 50.916 150.441 51.1039C150.641 51.2898 150.801 51.5362 150.92 51.8432C151.039 52.1502 151.099 52.5282 151.099 52.9772V53.2904H147.39V52.6514H150.347C150.347 52.3799 150.293 52.1376 150.184 51.9246C150.078 51.7116 149.925 51.5435 149.727 51.4203C149.53 51.2971 149.299 51.2355 149.031 51.2355C148.737 51.2355 148.482 51.3086 148.267 51.4547C148.054 51.5988 147.89 51.7868 147.775 52.0186C147.66 52.2504 147.603 52.4989 147.603 52.7641V53.1902C147.603 53.5535 147.666 53.8616 147.791 54.1143C147.918 54.3649 148.095 54.5559 148.32 54.6875C148.546 54.817 148.808 54.8817 149.107 54.8817C149.301 54.8817 149.476 54.8546 149.633 54.8003C149.792 54.7439 149.928 54.6604 150.043 54.5497C150.158 54.4369 150.247 54.297 150.309 54.1299L151.024 54.3304C150.948 54.5727 150.822 54.7857 150.645 54.9694C150.467 55.1511 150.248 55.2931 149.987 55.3955C149.726 55.4957 149.432 55.5458 149.107 55.5458ZM154.178 55.5458C153.727 55.5458 153.339 55.4393 153.013 55.2263C152.687 55.0133 152.436 54.7199 152.261 54.3461C152.086 53.9723 151.998 53.5452 151.998 53.0649C151.998 52.5762 152.088 52.1449 152.267 51.7711C152.449 51.3952 152.702 51.1018 153.025 50.8909C153.351 50.6779 153.731 50.5714 154.166 50.5714C154.504 50.5714 154.809 50.634 155.08 50.7593C155.352 50.8846 155.574 51.0601 155.748 51.2856C155.921 51.5111 156.028 51.7743 156.07 52.075H155.331C155.275 51.8557 155.149 51.6615 154.955 51.4923C154.763 51.3211 154.504 51.2355 154.178 51.2355C153.89 51.2355 153.637 51.3107 153.42 51.461C153.205 51.6093 153.037 51.8192 152.916 52.0907C152.797 52.36 152.737 52.6764 152.737 53.0398C152.737 53.4115 152.796 53.7352 152.913 54.0109C153.032 54.2866 153.199 54.5006 153.414 54.6531C153.631 54.8055 153.886 54.8817 154.178 54.8817C154.37 54.8817 154.545 54.8483 154.701 54.7815C154.858 54.7147 154.99 54.6186 155.099 54.4933C155.208 54.368 155.285 54.2176 155.331 54.0422H156.07C156.028 54.3262 155.925 54.5821 155.76 54.8097C155.597 55.0352 155.381 55.2148 155.112 55.3485C154.844 55.48 154.533 55.5458 154.178 55.5458ZM158.567 55.5584C158.262 55.5584 157.985 55.5009 157.737 55.3861C157.488 55.2691 157.291 55.101 157.145 54.8817C156.998 54.6604 156.925 54.3931 156.925 54.0798C156.925 53.8041 156.98 53.5807 157.088 53.4094C157.197 53.2361 157.342 53.1004 157.524 53.0022C157.705 52.9041 157.906 52.831 158.125 52.7829C158.346 52.7328 158.569 52.6931 158.792 52.6639C159.085 52.6263 159.322 52.5981 159.503 52.5793C159.687 52.5584 159.821 52.524 159.904 52.476C159.99 52.4279 160.033 52.3444 160.033 52.2254V52.2003C160.033 51.8912 159.948 51.6511 159.779 51.4798C159.612 51.3086 159.358 51.2229 159.018 51.2229C158.665 51.2229 158.388 51.3002 158.188 51.4547C157.987 51.6093 157.846 51.7743 157.765 51.9497L157.063 51.6991C157.188 51.4067 157.356 51.1791 157.564 51.0162C157.775 50.8512 158.005 50.7364 158.254 50.6716C158.504 50.6048 158.751 50.5714 158.993 50.5714C159.147 50.5714 159.325 50.5902 159.525 50.6278C159.728 50.6633 159.923 50.7374 160.111 50.8502C160.301 50.9629 160.459 51.1331 160.584 51.3608C160.709 51.5884 160.772 51.8933 160.772 52.2755V55.4456H160.033V54.794H159.995C159.945 54.8984 159.862 55.0102 159.745 55.1292C159.628 55.2482 159.472 55.3495 159.278 55.4331C159.084 55.5166 158.847 55.5584 158.567 55.5584ZM158.68 54.8943C158.972 54.8943 159.218 54.8368 159.419 54.722C159.621 54.6071 159.774 54.4588 159.876 54.2772C159.981 54.0955 160.033 53.9044 160.033 53.7039V53.0273C160.001 53.0649 159.933 53.0993 159.826 53.1307C159.722 53.1599 159.601 53.186 159.463 53.209C159.327 53.2298 159.194 53.2486 159.065 53.2653C158.937 53.28 158.834 53.2925 158.755 53.3029C158.563 53.328 158.383 53.3687 158.216 53.4251C158.051 53.4794 157.917 53.5619 157.815 53.6726C157.715 53.7812 157.665 53.9294 157.665 54.1174C157.665 54.3743 157.76 54.5685 157.95 54.7C158.142 54.8295 158.385 54.8943 158.68 54.8943Z" fill="#F6F6F6"/>
</svg>
