<svg width="21" height="18" viewBox="0 0 21 18" fill="none" xmlns="http://www.w3.org/2000/svg">
<path fill-rule="evenodd" clip-rule="evenodd" d="M18.7771 0.429965C19.0243 0.325956 19.2947 0.290084 19.5604 0.326082C19.8261 0.362081 20.0773 0.468633 20.2878 0.63465C20.4984 0.800667 20.6606 1.02008 20.7575 1.27005C20.8545 1.52002 20.8827 1.79141 20.8391 2.05597L18.5711 15.813C18.3511 17.14 16.8951 17.901 15.6781 17.24C14.6601 16.687 13.1481 15.835 11.7881 14.946C11.1081 14.501 9.02514 13.076 9.28114 12.062C9.50114 11.195 13.0011 7.93696 15.0011 5.99997C15.7861 5.23897 15.4281 4.79997 14.5011 5.49997C12.1991 7.23797 8.50314 9.88097 7.28114 10.625C6.20314 11.281 5.64114 11.393 4.96914 11.281C3.74314 11.077 2.60614 10.761 1.67814 10.376C0.424142 9.85597 0.485142 8.13197 1.67714 7.62997L18.7771 0.429965Z" fill="white"/>
</svg>
