<svg width="22" height="14" viewBox="0 0 22 14" fill="none" xmlns="http://www.w3.org/2000/svg">
<path d="M20.5831 13.1899H18.3011C17.4381 13.1899 17.1781 12.4909 15.6311 10.9429C14.2791 9.63993 13.7081 9.47793 13.3661 9.47793C12.8931 9.47793 12.7641 9.60793 12.7641 10.2589V12.3109C12.7641 12.8659 12.5841 13.1909 11.1341 13.1909C9.72739 13.0964 8.36326 12.6691 7.15407 11.9441C5.94488 11.2191 4.92523 10.2172 4.1791 9.02093C2.40749 6.81595 1.17481 4.22801 0.579102 1.46293C0.579102 1.12093 0.709102 0.810927 1.3611 0.810927H3.6411C4.2271 0.810927 4.4381 1.07193 4.6681 1.67493C5.7751 4.93293 7.6641 7.76693 8.4311 7.76693C8.7251 7.76693 8.8531 7.63693 8.8531 6.90393V3.54793C8.7561 2.01693 7.9431 1.88793 7.9431 1.33393C7.95339 1.18777 8.02024 1.05138 8.12948 0.95372C8.23871 0.856065 8.38171 0.80484 8.5281 0.810927H12.1121C12.6021 0.810927 12.7641 1.05493 12.7641 1.64093V6.17093C12.7641 6.65993 12.9741 6.82193 13.1221 6.82193C13.4161 6.82193 13.6421 6.65993 14.1811 6.12193C15.3365 4.71291 16.2804 3.14309 16.9831 1.46193C17.055 1.26008 17.191 1.0873 17.3703 0.969944C17.5496 0.852587 17.7623 0.797093 17.9761 0.811927H20.2571C20.9411 0.811927 21.0861 1.15393 20.9411 1.64193C20.1115 3.50034 19.0849 5.26443 17.8791 6.90393C17.6331 7.27893 17.5351 7.47393 17.8791 7.91393C18.1051 8.25593 18.9051 8.92393 19.4421 9.55893C20.2241 10.3389 20.8731 11.2409 21.3641 12.2289C21.5601 12.8649 21.2341 13.1899 20.5831 13.1899Z" fill="#F6F6F6"/>
</svg>
