<svg width="64" height="64" viewBox="0 0 64 64" fill="none" xmlns="http://www.w3.org/2000/svg">
<path fill-rule="evenodd" clip-rule="evenodd" d="M9.33338 32C9.33338 19.4815 19.4816 9.33333 32 9.33333C44.5184 9.33333 54.6667 19.4815 54.6667 32C54.6667 44.5184 44.5184 54.6667 32 54.6667C27.5408 54.6667 23.39 53.3819 19.8879 51.1629C19.2362 50.7501 18.4375 50.6397 17.6982 50.8603L10.0205 53.1517L12.9113 46.3875C13.253 45.588 13.1834 44.6723 12.725 43.9336C10.5752 40.4693 9.33338 36.3837 9.33338 32ZM32 4C16.5361 4 4.00005 16.536 4.00005 32C4.00005 36.9016 5.26175 41.5155 7.47906 45.5272L2.88125 56.2853C2.47479 57.2365 2.65495 58.3368 3.34351 59.1085C4.03207 59.8805 5.10485 60.1845 6.09597 59.8885L18.0944 56.308C22.1932 58.6573 26.9432 60 32 60C47.464 60 60 47.464 60 32C60 16.536 47.464 4 32 4ZM38.1133 37.8197L34.6088 40.2883C32.9675 39.3533 31.1528 38.0483 29.3325 36.228C27.4403 34.3357 26.0374 32.3821 25.003 30.5901L27.2301 28.6997C28.1859 27.8885 28.4475 26.5209 27.8587 25.4141L25.0209 20.0807C24.6388 19.3626 23.9498 18.8581 23.1497 18.7108C22.3497 18.5634 21.5262 18.7893 20.9132 19.3242L20.0719 20.0585C18.0486 21.8244 16.852 24.7261 17.8438 27.6643C18.8719 30.7101 21.0662 35.504 25.5614 39.9992C30.3976 44.8355 35.3101 46.74 38.1829 47.4797C40.4976 48.0755 42.688 47.2768 44.2315 46.0192L45.8088 44.7339C46.4835 44.1843 46.8475 43.3397 46.784 42.4717C46.7203 41.6037 46.2371 40.8213 45.4893 40.3757L41.0139 37.7091C40.1099 37.1707 38.9739 37.2139 38.1133 37.8197Z" fill="white"/>
</svg>
