<svg width="813" height="523" viewBox="0 0 813 523" fill="none" xmlns="http://www.w3.org/2000/svg">
<g opacity="0.3">
<path d="M210.311 193.678V49.5588H-54.27V373.126M92.806 373.126H210.311V311.805" stroke="#0B0504" stroke-opacity="0.3" stroke-width="1.44" stroke-linecap="round" stroke-linejoin="round"/>
<path d="M200.04 193.677V59.8303H-43.9977L-44.1533 362.854M200.04 362.698V311.805" stroke="#0B0504" stroke-opacity="0.3" stroke-width="0.48" stroke-linecap="round" stroke-linejoin="round"/>
<path d="M-43.9976 358.341H73.6632V59.831M73.6632 148.077H200.04M73.6632 177.492H200.04" stroke="#0B0504" stroke-opacity="0.3" stroke-width="0.48" stroke-linecap="round" stroke-linejoin="round"/>
<path d="M495.592 193.522V49.5588H752.236V472.889H495.592V311.65" stroke="#0B0504" stroke-opacity="0.3" stroke-width="1.44" stroke-linecap="round" stroke-linejoin="round"/>
<path d="M505.864 193.522V59.8303H741.964V462.616H505.864V311.649" stroke="#0B0504" stroke-opacity="0.3" stroke-width="0.48" stroke-linecap="round" stroke-linejoin="round"/>
<path d="M505.864 433.202H741.964" stroke="#0B0504" stroke-opacity="0.3" stroke-width="0.12" stroke-linecap="round" stroke-linejoin="round"/>
<path d="M478.005 320.365L486.721 311.65M478.005 354.917L495.592 337.33M494.503 373.126L495.592 372.037M478.005 331.883L495.592 314.14M478.005 366.589L495.592 348.847M-91 34.7734L-76.3702 20.1437M-91 69.4803L-41.6634 20.1437M-91 104.187L-54.2699 67.457M-36.5274 49.5589L-7.11221 20.1437M-91 138.894L-54.2699 102.008M-1.82058 49.5589L27.5946 20.1437M-91 173.445L-54.2699 136.715M32.8862 49.5589L62.3014 20.1437M-91 208.152L-54.2699 171.422M67.5931 49.5589L97.0083 20.1437M-91 242.859L-54.2699 205.973M102.144 49.5589L131.559 20.1437M-91 277.41L-82.9069 269.317M136.851 49.5589L166.266 20.1437M-62.363 248.773L-54.2699 240.68M-91 312.117L-82.9069 304.024M171.558 49.5589L200.973 20.1437M-77.1484 298.265L-54.2699 275.387M-91 346.824L-79.3273 334.995M206.109 49.5589L235.524 20.1437M-62.363 318.187L-54.2699 310.093M-91 381.53L-54.2699 344.645M240.816 49.5589L270.231 20.1437M-91 416.082L-54.2699 379.352M275.523 49.5589L304.938 20.1437M-91 450.788L-54.2699 414.058M310.23 49.5589L339.645 20.1437M-91 485.495L-54.2699 448.61M344.781 49.5589L374.196 20.1437M-91 520.046L-54.2699 483.316M379.488 49.5589L408.903 20.1437M-58.3164 521.914L-27.0336 490.631M414.194 49.5589L443.61 20.1437M-23.6096 521.914L7.67321 490.631M448.746 49.5589L478.161 20.1437M92.8061 405.654L125.334 373.126M11.0972 521.914L42.38 490.631M483.452 49.5589L512.868 20.1437M111.327 421.684L122.221 410.946M130.626 402.386L160.041 373.126M45.6484 521.914L77.0869 490.631M518.159 49.5589L547.574 20.1437M92.8061 474.912L122.221 445.497M165.177 402.386L194.592 373.126M80.3552 521.914L122.221 480.204M552.866 49.5589L582.281 20.1437M199.884 402.386L229.299 373.126M115.062 521.914L122.221 514.91M587.417 49.5589L616.832 20.1437M234.59 402.386L257.469 379.663M622.124 49.5589L651.539 20.1437M656.831 49.5589L686.246 20.1437M691.382 49.5589L720.797 20.1437M381.2 394.604L402.677 373.126M726.089 49.5589L755.504 20.1437M407.813 402.386L437.229 373.126M752.236 58.1188L781.651 28.7036M442.52 402.386L471.935 373.126M752.236 92.8257L781.651 63.4105M466.177 413.436L495.592 384.021M752.236 127.377L781.651 97.9616M466.177 448.143L495.592 418.727M752.236 162.084L781.651 132.668M466.177 482.694L495.592 453.279M752.236 196.79L781.651 167.375M481.274 502.304L510.689 472.889M752.236 231.497L781.651 202.082M515.98 502.304L545.396 472.889M752.236 266.049L781.651 236.633M550.687 502.304L580.102 472.889M752.236 300.755L781.651 271.34M585.394 502.304L614.809 472.889M752.236 335.462L781.651 306.047M619.945 502.304L649.36 472.889M752.236 370.013L781.651 340.598M654.652 502.304L683.133 473.823L684.067 472.889M752.236 404.72L781.651 375.305M689.359 502.304L718.774 472.889M752.236 439.427L781.651 410.012M723.91 502.304L781.651 444.719M758.617 502.304L781.651 479.27M-91 46.4461L-64.8532 20.1437M-91 80.9973L-30.1463 20.1437M-91 115.704L-54.2699 78.9741M-24.8547 49.5589L4.56049 20.1437M-91 150.411L-54.2699 113.681M9.69648 49.5589L39.1117 20.1437M-91 184.962L-54.2699 148.232M44.4033 49.5589L73.8185 20.1437M-91 219.669L-54.2699 182.939M79.1101 49.5589L108.525 20.1437M-91 254.376L-82.9069 246.283M113.817 49.5589L143.077 20.1437M-79.7942 243.17L-54.2699 217.646M-91 289.083L-81.9731 279.9M148.368 49.5589L177.783 20.1437M-62.363 260.29L-54.2699 252.197M-91 323.634L-82.9069 315.541M183.075 49.5589L212.49 20.1437M-65.6313 298.265L-54.2699 286.904M-91 358.341L-67.8102 334.995M217.782 49.5589L247.197 20.1437M-62.363 329.704L-54.2699 321.611M-91 393.047L-54.2699 356.317M252.333 49.5589L281.748 20.1437M-91 427.599L-54.2699 390.869M287.04 49.5589L316.455 20.1437M-91 462.305L-54.2699 425.575M321.747 49.5589L351.162 20.1437M-91 497.012L-54.2699 460.282M356.453 49.5589L385.713 20.1437M-81.3506 521.914L-50.0677 490.631M391.005 49.5589L420.42 20.1437M-46.6437 521.914L-15.3609 490.631M425.711 49.5589L455.127 20.1437M92.8061 382.464L102.144 373.126M-12.0926 521.914L19.1903 490.631M460.418 49.5589L489.833 20.1437M92.8061 417.171L136.851 373.126M22.6143 521.914L53.8971 490.631M494.969 49.5589L524.385 20.1437M92.8061 451.878L103.389 441.295M142.143 402.386L171.558 373.126M57.3211 521.914L88.6039 490.631M529.676 49.5589L559.091 20.1437M92.8061 486.429L122.221 457.169M176.85 402.386L206.265 373.126M91.8723 521.914L122.221 491.721M564.383 49.5589L593.798 20.1437M211.401 402.386L240.816 373.126M246.108 402.386L248.598 399.895M599.09 49.5589L628.35 20.1437M254.045 394.604L257.469 391.18M633.641 49.5589L663.056 20.1437M668.348 49.5589L697.763 20.1437M375.13 377.484L379.488 373.126M703.055 49.5589L732.47 20.1437M384.779 402.386L414.194 373.126M737.606 49.5589L767.021 20.1437M419.486 402.386L448.901 373.126M752.236 69.6359L781.651 40.2207M454.037 402.386L483.452 373.126M752.236 104.343L781.651 74.9275M466.177 424.953L495.592 395.538M752.236 139.05L781.651 109.634M466.177 459.66L495.592 430.244M752.236 173.601L781.651 144.186M466.177 494.366L495.592 464.951M752.236 208.308L781.651 178.892M492.946 502.304L522.361 472.889M752.236 243.014L781.651 213.599M527.497 502.304L556.913 472.889M752.236 277.566L781.651 248.15M562.204 502.304L591.619 472.889M752.236 312.272L781.651 282.857M596.911 502.304L626.326 472.889M752.236 346.979L781.651 317.564M631.618 502.304L661.033 472.889M752.236 381.686L781.651 352.271M666.169 502.304L695.584 472.889M752.236 416.237L781.651 386.822M700.876 502.304L730.291 472.889M752.236 450.944L781.651 421.529M735.583 502.304L781.651 456.236M770.134 502.304L781.651 490.787" stroke="#0B0504" stroke-opacity="0.3" stroke-width="0.48" stroke-linecap="round" stroke-linejoin="round"/>
<path d="M495.592 373.126H375.129" stroke="#0B0504" stroke-opacity="0.3" stroke-width="1.44" stroke-linecap="round" stroke-linejoin="round"/>
<path d="M478.005 77.7289L495.592 59.9864M478.005 112.28L495.592 94.6932M478.005 146.987L495.592 129.4M478.005 181.694L495.592 163.951M478.005 54.5391L482.985 49.5588M478.005 89.2459L495.592 71.5034M478.005 123.953L495.592 106.21M478.005 158.504L495.592 140.917M478.005 193.211L495.592 175.624M210.311 67.9238L228.054 50.3369M210.311 102.631L228.054 85.0438M210.311 137.337L228.054 119.595M210.311 172.044L228.054 154.302M223.384 193.678L228.054 189.009M210.311 79.5965L228.054 61.854M210.311 114.148L228.054 96.5608M210.311 148.855L228.054 131.268M210.311 183.561L228.054 165.819M210.311 345.267L228.054 327.68M217.315 373.126L228.054 362.231M210.311 322.233L220.739 311.805M210.311 356.784L228.054 339.197" stroke="#0B0504" stroke-opacity="0.3" stroke-width="0.48" stroke-linecap="round" stroke-linejoin="round"/>
<path d="M257.469 373.126H100.121M-54.27 373.126V49.5588H752.236V472.889H495.592V373.126M257.469 402.386H122.221" stroke="#0B0504" stroke-opacity="0.3" stroke-width="1.44" stroke-linecap="round" stroke-linejoin="round"/>
<path d="M-91 402.385V20.1434H781.651V502.304H466.177V402.385H375.13V373.126M257.469 373.126V402.385" stroke="#0B0504" stroke-opacity="0.3" stroke-width="1.44" stroke-linecap="round" stroke-linejoin="round"/>
<path d="M210.311 49.5588V193.678" stroke="#0B0504" stroke-opacity="0.3" stroke-width="0.12" stroke-linecap="round" stroke-linejoin="round"/>
<path d="M210.311 311.805V373.126M228.054 49.5588V193.678M228.054 311.805V373.126M478.005 49.5588V193.522M478.005 311.65V373.126M495.592 49.5588V193.522" stroke="#0B0504" stroke-opacity="0.3" stroke-width="1.44" stroke-linecap="round" stroke-linejoin="round"/>
<path d="M495.592 311.65V373.126" stroke="#0B0504" stroke-opacity="0.3" stroke-width="0.12" stroke-linecap="round" stroke-linejoin="round"/>
<path d="M210.311 193.678H228.054M210.311 311.806H228.054M495.592 193.522H478.005M495.592 311.65H478.005" stroke="#0B0504" stroke-opacity="0.3" stroke-width="1.44" stroke-linecap="round" stroke-linejoin="round"/>
<path d="M73.6626 245.193V59.8309" stroke="#0B0504" stroke-opacity="0.3" stroke-width="0.48" stroke-linecap="round" stroke-linejoin="round"/>
<path d="M73.6626 148.076H200.039M73.6626 177.491H200.039" stroke="#0B0504" stroke-opacity="0.3" stroke-width="0.48" stroke-linecap="round" stroke-linejoin="round"/>
<path d="M-43.9976 52.5166V1.00109M73.6632 52.5166V1.00109M-51.3125 8.31598H80.9781" stroke="#0B0504" stroke-opacity="0.3" stroke-width="0.6" stroke-linecap="round" stroke-linejoin="round"/>
<path d="M70.5503 10.8052L71.1728 11.4277L76.1532 5.35793L70.5503 10.8052ZM71.1728 11.4277L76.1532 5.35793L76.6201 5.82484L71.1728 11.4277Z" fill="#0B0504" fill-opacity="0.3"/>
<path d="M73.6625 53.917V1.00076M200.039 52.5163V1.00076M66.3477 8.31565H207.509" stroke="#0B0504" stroke-opacity="0.3" stroke-width="0.6" stroke-linecap="round" stroke-linejoin="round"/>
<path d="M76.6196 5.82582L76.1527 5.35891L71.1723 11.4287L76.6196 5.82582ZM76.1527 5.35891L71.1723 11.4287L70.5498 10.8062L76.1527 5.35891Z" fill="#0B0504" fill-opacity="0.3"/>
<path d="M197.083 10.8052L197.549 11.4277L202.53 5.35793L197.083 10.8052ZM197.549 11.4277L202.53 5.35793L203.152 5.82484L197.549 11.4277Z" fill="#0B0504" fill-opacity="0.3"/>
<path d="M631.618 177.492H812M661.033 59.831H812M804.685 184.807V52.5161" stroke="#0B0504" stroke-opacity="0.3" stroke-width="0.6" stroke-linecap="round" stroke-linejoin="round"/>
<path d="M802.195 174.379L801.573 175.002L807.798 179.982L802.195 174.379ZM801.573 175.002L807.798 179.982L807.176 180.604L801.573 175.002Z" fill="#0B0504" fill-opacity="0.3"/>
<path d="M807.176 62.9434L807.798 62.3208L801.573 57.3405L807.176 62.9434ZM807.798 62.3208L801.573 57.3405L802.195 56.8736L807.798 62.3208Z" fill="#0B0504" fill-opacity="0.3"/>
<path d="M661.033 177.492H812M631.618 344.957H812M804.685 170.177V352.271" stroke="#0B0504" stroke-opacity="0.3" stroke-width="0.6" stroke-linecap="round" stroke-linejoin="round"/>
<path d="M807.176 180.605L807.798 179.983L801.573 175.003L807.176 180.605ZM807.798 179.983L801.573 175.003L802.195 174.38L807.798 179.983Z" fill="#0B0504" fill-opacity="0.3"/>
<path d="M802.195 341.843L801.573 342.465L807.798 347.446L802.195 341.843ZM801.573 342.465L807.798 347.446L807.176 348.068L801.573 342.465Z" fill="#0B0504" fill-opacity="0.3"/>
<path d="M661.033 344.956H812M661.033 433.202H812M804.685 337.641V440.517" stroke="#0B0504" stroke-opacity="0.3" stroke-width="0.6" stroke-linecap="round" stroke-linejoin="round"/>
<path d="M807.175 348.069L807.797 347.447L801.572 342.466L807.175 348.069ZM807.797 347.447L801.572 342.466L802.194 341.844L807.797 347.447Z" fill="#0B0504" fill-opacity="0.3"/>
<path d="M802.195 430.089L801.573 430.712L807.798 435.692L802.195 430.089ZM801.573 430.712L807.798 435.692L807.176 436.314L801.573 430.712Z" fill="#0B0504" fill-opacity="0.3"/>
<path d="M749.278 433.202H812M749.278 462.617H812M804.685 425.887V469.932" stroke="#0B0504" stroke-opacity="0.3" stroke-width="0.6" stroke-linecap="round" stroke-linejoin="round"/>
<path d="M807.175 436.314L807.797 435.692L801.572 430.712L807.175 436.314ZM807.797 435.692L801.572 430.712L802.194 430.089L807.797 435.692Z" fill="#0B0504" fill-opacity="0.3"/>
<path d="M802.195 459.504L801.573 460.127L807.798 465.107L802.195 459.504ZM801.573 460.127L807.798 465.107L807.176 465.574L801.573 460.127Z" fill="#0B0504" fill-opacity="0.3"/>
<path d="M524.074 134.069L537.303 120.84M544.618 120.84L557.847 134.069M544.618 113.525L557.847 100.296M524.074 100.296L537.303 113.525M546.174 117.027C546.174 114.234 543.909 111.969 541.116 111.969C538.322 111.969 536.058 114.234 536.058 117.027C536.058 119.821 538.322 122.085 541.116 122.085C543.909 122.085 546.174 119.821 546.174 117.027Z" stroke="#0B0504" stroke-opacity="0.3" stroke-width="0.48" stroke-linecap="round" stroke-linejoin="round"/>
<path d="M565.006 117.027C565.006 103.833 554.31 93.1367 541.116 93.1367C527.922 93.1367 517.226 103.833 517.226 117.027C517.226 130.221 527.922 140.917 541.116 140.917C554.31 140.917 565.006 130.221 565.006 117.027Z" stroke="#0B0504" stroke-opacity="0.3" stroke-width="0.96" stroke-linecap="round" stroke-linejoin="round"/>
<path d="M505.864 177.492H624.303V344.956H505.864" stroke="#0B0504" stroke-opacity="0.3" stroke-width="0.48" stroke-linecap="round" stroke-linejoin="round"/>
<path d="M-54.27 373.126V490.631H92.806V441.294M92.806 421.684V373.126" stroke="#0B0504" stroke-opacity="0.3" stroke-width="1.44" stroke-linecap="round" stroke-linejoin="round"/>
<path d="M-44.1533 362.698V480.515H82.5344V362.698" stroke="#0B0504" stroke-opacity="0.3" stroke-width="0.48" stroke-linecap="round" stroke-linejoin="round"/>
<path d="M-91 373.126V521.914H122.221" stroke="#0B0504" stroke-opacity="0.3" stroke-width="0.12" stroke-linecap="round" stroke-linejoin="round"/>
<path d="M-91 373.126V521.914H122.221V402.386" stroke="#0B0504" stroke-opacity="0.3" stroke-width="1.44" stroke-linecap="round" stroke-linejoin="round"/>
<path d="M72.2622 418.571L70.2389 416.237L62.1459 415.614L58.255 419.817L59.1888 422.618L65.8811 423.396L72.2622 421.684M72.2622 453.901L70.2389 451.411L62.1459 450.788L58.255 454.99L59.1888 457.792L65.8811 458.57L72.2622 457.014M48.1386 472.577L47.983 469.776L50.7844 463.083L58.255 462.772L65.8811 468.686L67.1262 472.577M12.9649 472.577L12.8093 469.776L15.6107 463.083L22.9256 462.772L30.7074 468.686L31.9525 472.577M5.18311 409.545L10.0078 408.922L12.8093 406.432V404.253L11.0973 401.14L5.18311 401.763M5.18311 444.874L10.0078 444.096L12.8093 441.606V439.582L11.0973 436.314L5.18311 437.092M72.2622 408.922L69.772 406.432L72.2622 402.697M72.2622 444.096L69.772 441.606L72.2622 437.87M72.2622 446.275L69.772 444.874L68.3713 448.298L70.8615 449.387L72.2622 448.92M72.2622 411.101L69.772 409.545L68.3713 413.124L70.8615 414.214L72.2622 413.747M39.8899 454.99L42.0688 450.01L47.983 448.298L54.0528 450.01L55.7648 454.99L53.5859 459.659L47.983 461.683L42.3801 459.971L40.2012 454.99M39.8899 419.817L42.0688 414.836L47.983 413.124L54.0528 414.836L55.7648 419.817L53.5859 424.33L47.983 426.509L42.3801 424.797L40.2012 419.817M5.18311 453.901L6.73947 450.01L12.8093 448.298L18.7234 450.01L20.5911 454.99L18.4122 459.659L12.8093 461.683L7.20637 459.971L5.18311 455.302M5.18311 418.571L6.73947 414.836L12.8093 413.124L18.7234 414.836L20.5911 419.817L18.4122 424.33L12.8093 426.509L7.20637 424.797L5.18311 420.128M50.9401 390.246L47.983 391.335L44.4034 390.246M15.7664 390.246L12.8093 391.335L9.22964 390.246M37.8667 472.577L46.271 471.488L46.7379 472.577M5.18311 472.266L11.0973 471.488L11.5642 472.577M29.4623 390.246L27.5947 393.358L33.9758 400.362H43.0026L47.6717 397.249L46.271 392.269L42.0688 390.246M64.6361 390.246L62.7684 393.358L69.1495 400.362H72.2622M5.18311 470.865H7.82892L12.498 467.752L11.0973 462.772L5.18311 459.659M72.2622 470.865H69.1495L62.7684 463.862L65.2586 459.659L72.2622 459.037M5.18311 435.691H7.82892L12.498 432.423L11.0973 427.598L5.18311 424.486M72.2622 435.691H69.1495L62.7684 428.532L65.2586 424.33L72.2622 423.863M5.18311 400.362H7.82892L12.498 397.249L11.0973 392.269L6.8951 390.246M38.1779 419.817L34.9096 416.237L26.8165 415.614L22.9256 419.817L24.0151 422.618L30.7074 423.396L37.711 421.529L38.1779 419.817ZM38.1779 454.99L34.9096 451.411L26.8165 450.788L22.9256 454.99L24.0151 457.792L30.7074 458.57L37.711 456.702L38.1779 454.99ZM48.2943 406.743L47.983 399.428L50.7844 392.736L58.255 392.269L65.8811 398.339L68.8382 407.054L64.9473 413.435L56.3873 414.214L48.2943 406.743ZM48.2943 441.917L47.983 434.602L50.7844 427.91L58.255 427.598L65.8811 433.513L68.8382 442.384L64.9473 448.609L56.3873 449.387L48.2943 441.917ZM13.1205 406.743L12.8093 399.428L15.6107 392.736L22.9256 392.269L30.7074 398.339L33.5089 407.054L29.618 413.435L21.2136 414.214L13.1205 406.743ZM13.1205 441.917L12.8093 434.602L15.6107 427.91L22.9256 427.598L30.7074 433.513L33.5089 442.384L29.618 448.609L21.2136 449.387L13.1205 441.917ZM47.983 406.432L45.1816 408.922L38.1779 410.011L34.5983 406.432L37.3998 402.23L46.271 401.14L47.983 404.253V406.432ZM47.983 441.606L45.1816 444.096L38.1779 445.185L34.5983 441.606L37.3998 437.403L46.271 436.314L47.983 439.582V441.606ZM35.6878 414.214L33.1976 413.124L34.5983 409.545L39.8899 412.813L35.6878 414.214ZM35.6878 449.387L33.1976 448.298L34.5983 444.874L39.8899 447.987L35.6878 449.387ZM30.0849 424.33L27.5947 428.532L33.9758 435.691H43.0026L47.6717 432.423L46.271 427.598L38.8005 423.707L30.0849 424.33ZM30.0849 459.659L27.5947 463.862L33.9758 470.865H43.0026L47.6717 467.752L46.271 462.772L38.8005 458.881L30.0849 459.659Z" stroke="#0B0504" stroke-opacity="0.3" stroke-width="0.48" stroke-linecap="round" stroke-linejoin="round"/>
<path d="M72.2622 390.246H5.18311V472.577H72.2622" stroke="#0B0504" stroke-opacity="0.3" stroke-width="1.08" stroke-linecap="round" stroke-linejoin="round"/>
<path d="M-5.01128 426.82C-7.54696 426.82 -9.60254 428.876 -9.60254 431.412C-9.60254 433.947 -7.54696 436.003 -5.01128 436.003C-2.47559 436.003 -0.420016 433.947 -0.420016 431.412C-0.420016 428.876 -2.47559 426.82 -5.01128 426.82Z" stroke="#0B0504" stroke-opacity="0.3" stroke-width="1.08" stroke-linecap="round" stroke-linejoin="round"/>
<path d="M72.262 390.246V472.578M82.534 382.931H-14.4272V479.893H82.534V382.931Z" stroke="#0B0504" stroke-opacity="0.3" stroke-width="1.08" stroke-linecap="round" stroke-linejoin="round"/>
<path d="M200.039 362.699H82.5337M82.5337 421.685H122.221V441.295H82.5337V421.685Z" stroke="#0B0504" stroke-opacity="0.3" stroke-width="0.48" stroke-linecap="round" stroke-linejoin="round"/>
<path d="M200.039 311.806H210.311M200.039 193.678H210.311M505.864 193.522H495.592M505.864 311.65H495.592" stroke="#0B0504" stroke-opacity="0.3" stroke-width="0.12" stroke-linecap="round" stroke-linejoin="round"/>
<path d="M148.679 430.867H191.012H194.903" stroke="#0B0504" stroke-opacity="0.3" stroke-width="0.48" stroke-linecap="round" stroke-linejoin="round"/>
<path d="M161.441 443.396C161.441 441.118 159.595 439.272 157.317 439.272C155.039 439.272 153.192 441.118 153.192 443.396C153.192 445.674 155.039 447.521 157.317 447.521C159.595 447.521 161.441 445.674 161.441 443.396Z" stroke="#0B0504" stroke-opacity="0.3" stroke-width="1.68" stroke-linecap="round" stroke-linejoin="round"/>
<path d="M161.441 463.473C161.441 461.195 159.595 459.349 157.317 459.349C155.039 459.349 153.192 461.195 153.192 463.473C153.192 465.751 155.039 467.598 157.317 467.598C159.595 467.598 161.441 465.751 161.441 463.473Z" stroke="#0B0504" stroke-opacity="0.3" stroke-width="1.68" stroke-linecap="round" stroke-linejoin="round"/>
<path d="M161.441 484.639C161.441 482.362 159.595 480.515 157.317 480.515C155.039 480.515 153.192 482.362 153.192 484.639C153.192 486.917 155.039 488.764 157.317 488.764C159.595 488.764 161.441 486.917 161.441 484.639Z" stroke="#0B0504" stroke-opacity="0.3" stroke-width="1.68" stroke-linecap="round" stroke-linejoin="round"/>
<path d="M-33.1038 352.193C-33.1038 349.915 -34.9504 348.069 -37.2282 348.069C-39.506 348.069 -41.3525 349.915 -41.3525 352.193C-41.3525 354.471 -39.506 356.317 -37.2282 356.317C-34.9504 356.317 -33.1038 354.471 -33.1038 352.193ZM196.926 80.9195C196.926 78.6417 195.08 76.7952 192.802 76.7952C190.524 76.7952 188.677 78.6417 188.677 80.9195C188.677 83.1973 190.524 85.0439 192.802 85.0439C195.08 85.0439 196.926 83.1973 196.926 80.9195Z" stroke="#0B0504" stroke-opacity="0.3" stroke-width="1.68" stroke-linecap="round" stroke-linejoin="round"/>
<path d="M186.498 67.2233C186.498 64.9455 184.652 63.0989 182.374 63.0989C180.096 63.0989 178.25 64.9455 178.25 67.2233C178.25 69.5011 180.096 71.3477 182.374 71.3477C184.652 71.3477 186.498 69.5011 186.498 67.2233Z" stroke="#0B0504" stroke-opacity="0.3" stroke-width="1.68" stroke-linecap="round" stroke-linejoin="round"/>
<path d="M197.86 67.535C197.86 65.2572 196.013 63.4106 193.736 63.4106C191.458 63.4106 189.611 65.2572 189.611 67.535C189.611 69.8128 191.458 71.6593 193.736 71.6593C196.013 71.6593 197.86 69.8128 197.86 67.535ZM517.225 68.3131C517.225 66.0353 515.379 64.1888 513.101 64.1888C510.823 64.1888 508.976 66.0353 508.976 68.3131C508.976 70.591 510.823 72.4375 513.101 72.4375C515.379 72.4375 517.225 70.591 517.225 68.3131Z" stroke="#0B0504" stroke-opacity="0.3" stroke-width="1.68" stroke-linecap="round" stroke-linejoin="round"/>
<path d="M739.318 455.224C739.318 452.946 737.471 451.1 735.193 451.1C732.916 451.1 731.069 452.946 731.069 455.224C731.069 457.502 732.916 459.349 735.193 459.349C737.471 459.349 739.318 457.502 739.318 455.224ZM529.209 68.3133C529.209 66.0355 527.363 64.1889 525.085 64.1889C522.807 64.1889 520.96 66.0355 520.96 68.3133C520.96 70.5911 522.807 72.4376 525.085 72.4376C527.363 72.4376 529.209 70.5911 529.209 68.3133Z" stroke="#0B0504" stroke-opacity="0.3" stroke-width="1.68" stroke-linecap="round" stroke-linejoin="round"/>
<path d="M639.711 261.146C639.711 258.868 637.865 257.022 635.587 257.022C633.309 257.022 631.462 258.868 631.462 261.146C631.462 263.424 633.309 265.271 635.587 265.271C637.865 265.271 639.711 263.424 639.711 261.146Z" stroke="#0B0504" stroke-opacity="0.3" stroke-width="1.68" stroke-linecap="round" stroke-linejoin="round"/>
</g>
</svg>
