<svg width="871" height="645" viewBox="0 0 871 645" fill="none" xmlns="http://www.w3.org/2000/svg">
<g opacity="0.1">
<path d="M413.651 246.864V209.704H380.186V124.954M380.186 124.954H22.2778V548.489H118.546M380.186 124.954H346.938M413.651 272.506H429.08V124.954H748.525V378.988H429.08V362.472H413.651M413.651 398.328H429.08H617.705V549.793H429.08H413.651" stroke="#0B0504" stroke-opacity="0.3" stroke-width="0.12" stroke-linecap="round" stroke-linejoin="round"/>
<path d="M413.651 272.506H429.08V124.954H748.524V378.988H429.08V362.472H413.651M413.651 398.328H429.08H617.704V549.793H429.08H413.651" stroke="#0B0504" stroke-opacity="0.3" stroke-width="1.08" stroke-linecap="round" stroke-linejoin="round"/>
<path d="M-49 99.9632L-22.7056 73.6688M-46.3923 124.954L4.89264 73.6688M-18.794 124.954L32.7082 73.6688M6.84842 127.127L60.3064 73.6688M6.84842 154.725L22.2774 139.296M36.6198 124.954L87.9047 73.6688M6.84842 182.323L22.2774 167.112M64.218 124.954L115.503 73.6688M6.84842 210.139L22.2774 194.71M92.0336 124.954L143.318 73.6688M6.84842 237.737L22.2774 222.308M119.632 124.954L170.917 73.6688M6.84842 265.335L22.2774 249.906M147.23 124.954L198.515 73.6688M6.84842 292.934L22.2774 277.722M174.828 124.954L226.331 73.6688M6.84842 320.749L22.2774 305.32M202.644 124.954L237.848 89.7497M6.84842 348.347L22.2774 332.919M230.242 124.954L237.848 117.348M6.84842 375.946L22.2774 360.517M6.84842 403.761L22.2774 388.332M6.84842 431.359L22.2774 415.931M346.937 91.2709L364.539 73.6688M6.84842 458.958L22.2774 443.529M346.937 118.869L392.137 73.6688M6.84842 486.556L22.2774 471.127M368.451 124.954L419.736 73.6688M6.84842 514.372L22.2774 498.943M380.185 140.817L447.551 73.6688M6.84842 541.97L22.2774 526.541M407.784 141.035L475.149 73.6688M380.185 168.633L391.703 157.116M6.84842 569.568L27.9274 548.489M451.463 124.954L502.748 73.6688M380.185 196.231L401.482 174.935M408.218 168.198L429.08 147.337M8.58689 595.428L22.2774 581.955M479.061 124.954L530.346 73.6688M39.0102 565.005L55.743 548.489M394.528 209.704L419.736 184.496M66.6084 565.005L83.3412 548.489M506.876 124.954L558.161 73.6688M413.651 218.179L429.08 202.75M94.2066 565.005L110.939 548.489M534.475 124.954L585.76 73.6688M413.651 245.778L429.08 230.349M122.022 565.005L138.538 548.489M562.073 124.954L613.358 73.6688M414.52 272.507L429.08 257.947M589.671 124.954L640.956 73.6688M617.487 124.954L668.772 73.6688M380.185 389.853L390.182 379.857M645.085 124.954L696.37 73.6688M233.936 563.701L248.061 549.793M672.683 124.954L723.968 73.6688M399.309 398.329L429.08 368.774M260.231 565.005L275.66 549.793M700.282 124.954L751.784 73.6688M427.124 398.329L446.247 378.988M287.829 565.005L303.258 549.793M728.097 124.954L779.382 73.6688M454.722 398.329L473.846 378.988M315.645 565.005L330.856 549.793M748.524 132.125L799.809 80.84M482.321 398.329L501.661 378.988M343.243 565.005L358.672 549.793M748.524 159.723L799.809 108.438M509.919 398.329L529.259 378.988M370.841 565.005L386.27 549.793M748.524 187.539L799.809 136.037M537.734 398.329L556.858 378.988M398.439 565.005L413.868 549.793M748.524 215.137L799.809 163.852M565.333 398.329L584.673 378.988M426.255 565.005L441.466 549.793M748.524 242.735L799.809 191.45M592.931 398.329L612.271 378.988M438.424 580.651L453.853 565.222M748.524 270.334L799.809 219.049M453.853 565.005L469.282 549.793M617.704 401.371L639.87 378.988M449.724 596.949L453.853 592.82M748.524 298.149L799.809 246.647M481.451 565.005L496.88 549.793M648.345 398.329L667.468 378.988M617.704 428.969L633.133 413.54M509.05 565.005L524.479 549.793M748.524 325.747L799.809 274.462M617.704 456.567L633.133 441.138M675.943 398.329L695.283 378.988M536.865 565.005L552.294 549.793M748.524 353.346L799.809 302.061M617.704 484.166L633.133 468.954M703.541 398.329L722.882 378.988M564.463 565.005L579.892 549.793M731.357 398.329L799.809 329.659M617.704 511.981L633.133 496.552M592.062 565.005L607.491 549.793M748.524 408.759L799.809 357.257M617.704 539.579L633.133 524.15M619.66 565.005L633.133 551.749M752.001 432.881L799.809 385.073M779.599 432.881L799.809 412.671M-49 81.492L-41.1769 73.6688M-49 109.09L-13.3613 73.6688M-37.048 124.954L14.2369 73.6688M-9.44976 124.954L41.8352 73.6688M6.84842 136.254L69.4334 73.6688M6.84842 164.069L22.2774 148.64M45.7467 124.954L97.249 73.6688M6.84842 191.668L22.2774 176.239M73.5623 124.954L124.847 73.6688M6.84842 219.266L22.2774 203.837M101.161 124.954L152.445 73.6688M6.84842 246.864L22.2774 231.652M128.759 124.954L180.044 73.6688M6.84842 274.68L22.2774 259.251M156.357 124.954L207.859 73.6688M6.84842 302.278L22.2774 286.849M184.173 124.954L235.458 73.6688M6.84842 329.876L22.2774 314.447M211.771 124.954L237.848 98.8767M6.84842 357.474L22.2774 342.263M6.84842 385.29L22.2774 369.861M6.84842 412.888L22.2774 397.459M6.84842 440.486L22.2774 425.058M346.937 100.398L373.666 73.6688M6.84842 468.085L22.2774 452.873M349.979 124.954L401.482 73.6688M6.84842 495.9L22.2774 480.471M377.795 124.954L429.08 73.6688M6.84842 523.499L22.2774 508.07M389.312 141.035L456.678 73.6688M6.84842 551.097L22.2774 535.668M432.991 124.954L484.276 73.6688M380.185 177.76L400.83 157.116M407.784 150.379L429.08 129.083M6.84842 578.912L37.2717 548.489M460.59 124.954L512.092 73.6688M380.185 205.358L401.482 184.062M417.345 168.198L429.08 156.681M17.7139 595.428L22.2774 591.082M488.405 124.954L539.69 73.6688M48.1371 565.005L64.8699 548.489M403.655 209.704L428.863 184.496M75.9527 565.005L92.4682 548.489M516.003 124.954L567.288 73.6688M413.651 227.306L429.08 211.877M103.551 565.005L120.284 548.489M543.602 124.954L594.887 73.6688M413.651 255.122L429.08 239.693M131.149 565.005L144.188 552.183M571.2 124.954L622.702 73.6688M423.647 272.507L429.08 267.291M599.016 124.954L650.3 73.6688M626.614 124.954L677.899 73.6688M381.055 398.329L399.743 379.64M654.212 124.954L705.497 73.6688M413.651 365.732L416.911 362.473M241.759 565.005L257.188 549.793M682.028 124.954L733.313 73.6688M408.653 398.329L429.08 377.901M269.358 565.005L284.787 549.793M709.626 124.954L760.911 73.6688M436.251 398.329L455.592 378.988M297.173 565.005L312.602 549.793M737.224 124.954L788.509 73.6688M463.849 398.329L483.19 378.988M324.772 565.005L340.2 549.793M748.524 141.252L799.809 89.967M491.665 398.329L510.788 378.988M352.37 565.005L367.799 549.793M748.524 169.067L799.809 117.783M519.263 398.329L538.386 378.988M379.968 565.005L395.397 549.793M748.524 196.666L799.809 145.381M546.861 398.329L566.202 378.988M407.784 565.005L423.213 549.793M748.524 224.264L799.809 172.979M574.46 398.329L593.8 378.988M435.382 565.005L450.811 549.793M748.524 252.08L799.809 200.577M602.275 398.329L621.398 378.988M438.424 589.778L453.853 574.349M748.524 279.678L799.809 228.393M462.98 565.005L478.409 549.793M617.704 410.498L648.997 378.988M490.796 565.005L506.007 549.793M748.524 307.276L799.809 255.991M617.704 438.096L633.133 422.667M657.472 398.329L676.812 378.988M518.394 565.005L533.823 549.793M748.524 334.874L799.809 283.589M617.704 465.912L633.133 450.483M685.07 398.329L704.41 378.988M545.992 565.005L561.421 549.793M748.524 362.69L799.809 311.188M617.704 493.51L633.133 478.081M712.885 398.329L732.009 378.988M573.59 565.005L589.019 549.793M740.484 398.329L799.809 339.003M617.704 521.108L633.133 505.679M601.406 565.005L616.618 549.793M748.524 417.886L799.809 366.601M617.704 548.706L633.133 533.495M629.004 565.005L633.133 561.093M761.128 432.881L799.809 394.2M788.944 432.881L799.809 421.798" stroke="#0B0504" stroke-opacity="0.3" stroke-width="0.72" stroke-linecap="round" stroke-linejoin="round"/>
<path d="M239.151 132.994L246.974 124.954M239.151 151.465L265.446 124.954M239.151 169.719L283.917 124.954M239.151 188.191L302.388 124.954M250.234 195.579L320.86 124.954M268.705 195.579L339.331 124.954M287.177 195.579L357.585 124.954M305.648 195.579L376.056 124.954M323.902 195.579L380.185 139.296M342.373 195.579L380.185 157.767M360.844 195.579L380.185 176.239M379.316 195.579L380.185 194.71" stroke="#0B0504" stroke-opacity="0.3" stroke-width="0.48" stroke-linecap="round" stroke-linejoin="round"/>
<path d="M413.651 246.864V209.704H380.186V124.954H22.2778V548.489H118.546" stroke="#0B0504" stroke-opacity="0.3" stroke-width="1.08" stroke-linecap="round" stroke-linejoin="round"/>
<path d="M380.185 404.413L386.27 398.328M393.441 407.238L402.351 398.328M409.522 407.238L418.432 398.328M283.265 549.793L292.175 540.666M425.603 407.238L434.73 398.328M299.346 549.793L308.473 540.666M441.901 407.238L450.811 398.328M315.427 549.793L324.554 540.666M457.982 407.238L466.891 398.328M331.725 549.793L340.635 540.666M474.063 407.238L482.972 398.328M347.806 549.793L356.716 540.666M490.143 407.238L499.27 398.328M363.887 549.793L372.797 540.666M506.442 407.238L515.351 398.328M379.968 549.793L384.531 545.229L389.095 540.666M522.523 407.238L531.432 398.328M396.266 549.793L405.176 540.666M538.603 407.238L547.513 398.328M412.347 549.793L421.257 540.666M554.684 407.238L563.811 398.328M428.428 549.793L437.337 540.666M570.982 407.238L579.892 398.328M444.509 549.793L453.636 540.666M587.063 407.238L595.973 398.328M460.807 549.793L469.716 540.666M603.144 407.238L612.054 398.328M476.888 549.793L485.797 540.666M608.577 417.886L617.704 408.976M492.969 549.793L501.878 540.666M608.577 433.967L617.704 425.057M509.049 549.793L518.176 540.666M608.577 450.265L617.704 441.138M525.348 549.793L534.257 540.666M608.577 466.346L617.704 457.219M541.428 549.793L550.338 540.666M608.577 482.427L617.704 473.517M557.509 549.793L566.419 540.666M608.577 498.508L617.704 489.598M573.59 549.793L582.717 540.666M608.577 514.806L617.704 505.679M589.671 549.793L598.798 540.666M608.577 530.887L617.704 521.76M605.969 549.793L617.704 538.058M282.613 549.793L277.615 544.577M298.912 549.793L289.785 540.666M314.992 549.793L305.865 540.666M331.073 549.793L322.164 540.666M347.154 549.793L338.244 540.666M363.452 549.793L354.325 540.666M379.533 549.793L370.406 540.666M395.614 549.793L386.704 540.666M411.695 549.793L402.785 540.666M427.776 549.793L418.866 540.666M444.074 549.793L434.947 540.666M460.155 549.793L451.245 540.666M476.236 549.793L467.326 540.666M492.317 549.793L483.407 540.666M508.615 549.793L499.488 540.666M524.696 549.793L515.786 540.666M382.141 407.238L380.185 405.282M540.777 549.793L531.867 540.666M398.439 407.238L389.312 398.328M556.857 549.793L547.948 540.666M414.52 407.238L405.61 398.328M573.156 549.793L564.029 540.666M430.601 407.238L421.691 398.328M589.236 549.793L580.327 540.666M446.682 407.238L437.772 398.328M605.317 549.793L596.408 540.666M462.98 407.238L453.853 398.328M617.704 545.881L608.577 536.971M479.061 407.238L470.151 398.328M617.704 529.8L608.577 520.673M495.142 407.238L486.232 398.328M617.704 513.719L608.577 504.592M511.222 407.238L502.313 398.328M617.704 497.421L608.577 488.512M527.521 407.238L518.394 398.328M617.704 481.34L608.577 472.431M543.602 407.238L534.692 398.328M617.704 465.26L608.577 456.133M559.682 407.238L550.773 398.328M617.704 449.179L608.577 440.052M575.763 407.238L566.854 398.328M617.704 432.88L608.577 423.971M592.061 407.238L582.934 398.328M617.704 416.8L608.577 407.89M608.142 407.238L599.015 398.328M617.704 400.719L615.314 398.328" stroke="#0B0504" stroke-opacity="0.3" stroke-width="0.48" stroke-linecap="round" stroke-linejoin="round"/>
<path d="M262.186 395.721L278.702 378.988M262.186 423.319L277.615 407.89M262.186 450.917L277.615 435.488M262.186 478.515L277.615 463.086M262.186 506.331L277.615 490.902M262.186 533.929L277.615 518.5M274.138 549.793L277.615 546.098M262.186 404.848L288.046 378.988M262.186 432.446L277.615 417.017M262.186 460.044L277.615 444.832M262.186 487.86L277.615 472.431M262.186 515.458L277.615 500.029M262.186 543.056L277.615 527.627" stroke="#0B0504" stroke-opacity="0.3" stroke-width="0.72" stroke-linecap="round" stroke-linejoin="round"/>
<path d="M413.651 549.793H233.936V565.005H438.424V596.949H453.853V565.005H633.133V549.793V398.329H748.524V432.881H799.809V73.6688H748.524H-49V124.954H6.84842V595.428H22.2774V565.005H118.545M413.651 378.988V362.473M144.188 548.489V563.918M237.848 73.6688V124.954M346.937 73.6688V124.954" stroke="#0B0504" stroke-opacity="0.3" stroke-width="1.08" stroke-linecap="round" stroke-linejoin="round"/>
<path d="M12.0643 124.953H-40.0898M12.0643 548.489H-40.0898M-29.8763 114.74V558.702" stroke="#0B0504" stroke-opacity="0.3" stroke-width="0.6" stroke-linecap="round" stroke-linejoin="round"/>
<path d="M22.2775 114.74V28.6854M239.152 114.74V28.6854M12.064 38.8989H249.365" stroke="#0B0504" stroke-opacity="0.3" stroke-width="0.6" stroke-linecap="round" stroke-linejoin="round"/>
<path d="M27.928 34.3358L26.8415 33.2492L17.7145 44.5493L27.928 34.3358ZM26.8415 33.2492L17.7145 44.5493L16.6279 43.4628L26.8415 33.2492Z" fill="#0B0504" fill-opacity="0.3"/>
<path d="M233.501 43.4628L234.588 44.5493L243.715 33.2492L233.501 43.4628ZM234.588 44.5493L243.715 33.2492L244.802 34.3358L234.588 44.5493Z" fill="#0B0504" fill-opacity="0.3"/>
<path d="M239.152 114.74V28.6854M380.185 114.74V28.6854M228.938 38.8989H390.616" stroke="#0B0504" stroke-opacity="0.3" stroke-width="0.6" stroke-linecap="round" stroke-linejoin="round"/>
<path d="M244.802 34.3358L243.715 33.2492L234.588 44.5493L244.802 34.3358ZM243.715 33.2492L234.588 44.5493L233.501 43.4628L243.715 33.2492Z" fill="#0B0504" fill-opacity="0.3"/>
<path d="M374.535 43.4628L375.621 44.5493L384.748 33.2492L374.535 43.4628ZM375.621 44.5493L384.748 33.2492L385.835 34.3358L375.621 44.5493Z" fill="#0B0504" fill-opacity="0.3"/>
<path d="M22.2775 558.702V632.805M144.188 558.702V632.805M12.064 622.374H154.401" stroke="#0B0504" stroke-opacity="0.3" stroke-width="0.6" stroke-linecap="round" stroke-linejoin="round"/>
<path d="M27.928 617.81L26.8415 616.724L17.7145 628.241L27.928 617.81ZM26.8415 616.724L17.7145 628.241L16.6279 626.937L26.8415 616.724Z" fill="#0B0504" fill-opacity="0.3"/>
<path d="M138.538 626.937L139.625 628.241L148.752 616.724L138.538 626.937ZM139.625 628.241L148.752 616.724L149.838 617.81L139.625 628.241Z" fill="#0B0504" fill-opacity="0.3"/>
<path d="M144.188 574.131V632.805M233.936 575.435V632.805M133.974 622.374H244.15" stroke="#0B0504" stroke-opacity="0.3" stroke-width="0.6" stroke-linecap="round" stroke-linejoin="round"/>
<path d="M149.838 617.81L148.752 616.724L139.625 628.241L149.838 617.81ZM148.752 616.724L139.625 628.241L138.538 626.937L148.752 616.724Z" fill="#0B0504" fill-opacity="0.3"/>
<path d="M228.286 626.937L229.373 628.241L238.5 616.724L228.286 626.937ZM229.373 628.241L238.5 616.724L239.586 617.81L229.373 628.241Z" fill="#0B0504" fill-opacity="0.3"/>
<path d="M277.616 558.702V632.805M617.704 560.006V632.805M267.402 622.374H627.918" stroke="#0B0504" stroke-opacity="0.3" stroke-width="0.6" stroke-linecap="round" stroke-linejoin="round"/>
<path d="M283.266 617.81L282.179 616.724L273.052 628.241L283.266 617.81ZM282.179 616.724L273.052 628.241L271.966 626.937L282.179 616.724Z" fill="#0B0504" fill-opacity="0.3"/>
<path d="M612.054 626.937L613.141 628.241L622.268 616.724L612.054 626.937ZM613.141 628.241L622.268 616.724L623.354 617.81L613.141 628.241Z" fill="#0B0504" fill-opacity="0.3"/>
<path d="M429.081 114.74V28.6854M748.525 114.74V28.6854M418.65 38.8989H758.739" stroke="#0B0504" stroke-opacity="0.3" stroke-width="0.6" stroke-linecap="round" stroke-linejoin="round"/>
<path d="M434.731 34.3358L433.644 33.2492L424.517 44.5493L434.731 34.3358ZM433.644 33.2492L424.517 44.5493L423.431 43.4628L433.644 33.2492Z" fill="#0B0504" fill-opacity="0.3"/>
<path d="M742.875 43.4628L743.962 44.5493L753.089 33.2492L742.875 43.4628ZM743.962 44.5493L753.089 33.2492L754.175 34.3358L743.962 44.5493Z" fill="#0B0504" fill-opacity="0.3"/>
<path d="M380.186 114.74V1.08712M22.2775 114.74V1.08712M390.616 11.3006H12.064" stroke="#0B0504" stroke-opacity="0.3" stroke-width="0.6" stroke-linecap="round" stroke-linejoin="round"/>
<path d="M374.536 15.8639L375.623 16.9504L384.75 5.65037L374.536 15.8639ZM375.623 16.9504L384.75 5.65037L385.836 6.73691L375.623 16.9504Z" fill="#0B0504" fill-opacity="0.3"/>
<path d="M27.928 6.7374L26.8415 5.65086L17.7145 16.9509L27.928 6.7374ZM26.8415 5.65086L17.7145 16.9509L16.6279 15.8644L26.8415 5.65086Z" fill="#0B0504" fill-opacity="0.3"/>
<path d="M758.738 124.954H870M758.738 378.988H870M859.569 114.74V389.419" stroke="#0B0504" stroke-opacity="0.3" stroke-width="0.6" stroke-linecap="round" stroke-linejoin="round"/>
<path d="M864.35 130.604L865.436 129.517L853.919 120.39L864.35 130.604ZM865.436 129.517L853.919 120.39L855.005 119.304L865.436 129.517Z" fill="#0B0504" fill-opacity="0.3"/>
<path d="M855.005 373.338L853.919 374.424L865.436 383.551L855.005 373.338ZM853.919 374.424L865.436 383.551L864.35 384.638L853.919 374.424Z" fill="#0B0504" fill-opacity="0.3"/>
<path d="M645.954 389.419V439.618M748.524 408.542V439.618M635.523 429.404H758.738" stroke="#0B0504" stroke-opacity="0.3" stroke-width="0.6" stroke-linecap="round" stroke-linejoin="round"/>
<path d="M651.605 424.84L650.518 423.754L641.174 435.054L651.605 424.84ZM650.518 423.754L641.174 435.054L640.087 433.967L650.518 423.754Z" fill="#0B0504" fill-opacity="0.3"/>
<path d="M742.875 433.968L743.962 435.054L753.089 423.754L742.875 433.968ZM743.962 435.054L753.089 423.754L754.175 424.841L743.962 435.054Z" fill="#0B0504" fill-opacity="0.3"/>
<path d="M237.848 99.3109H346.937M237.848 89.9666H346.937M738.311 368.774V266.204H635.524V368.774H738.311Z" stroke="#0B0504" stroke-opacity="0.3" stroke-width="0.12" stroke-linecap="round" stroke-linejoin="round"/>
<path d="M627.917 398.328H678.767M627.917 549.793H678.767M668.336 388.115V560.006" stroke="#0B0504" stroke-opacity="0.3" stroke-width="0.6" stroke-linecap="round" stroke-linejoin="round"/>
<path d="M672.901 403.978L673.987 402.892L662.687 393.765L672.901 403.978ZM673.987 402.892L662.687 393.765L663.774 392.678L673.987 402.892Z" fill="#0B0504" fill-opacity="0.3"/>
<path d="M663.775 544.143L662.688 545.23L673.988 554.357L663.775 544.143ZM662.688 545.23L673.988 554.357L672.902 555.443L662.688 545.23Z" fill="#0B0504" fill-opacity="0.3"/>
<path d="M413.651 246.863V272.506" stroke="#0B0504" stroke-opacity="0.3" stroke-width="1.08" stroke-linecap="round" stroke-linejoin="round"/>
<path d="M429.08 129.734L433.644 124.953M429.08 145.815L439.294 135.601M439.511 135.167L449.942 124.953M429.08 161.896L439.294 151.682M455.809 135.167L466.023 124.953M429.08 178.194L439.294 167.763M471.89 135.167L482.103 124.953M429.08 194.275L439.294 184.061M487.971 135.167L498.184 124.953M429.08 210.355L439.294 200.142M504.052 135.167L514.483 124.953M429.08 226.436L439.294 216.223M520.35 135.167L530.563 124.953M429.08 242.735L439.294 232.304M536.431 135.167L546.644 124.953M429.08 258.815L439.294 248.602M552.512 135.167L562.725 124.953M431.47 272.506L439.294 264.683M568.592 135.167L579.023 124.953M584.891 135.167L595.104 124.953M600.972 135.167L611.185 124.953M617.052 135.167L627.266 124.953M633.133 135.167L643.564 124.953M649.431 135.167L659.645 124.953M429.08 371.599L438.424 362.472M665.512 135.167L675.726 124.953M437.772 378.987L447.986 368.774M681.593 135.167L691.807 124.953M453.853 378.987L464.284 368.774M697.674 135.167L707.888 124.953M470.151 378.987L480.365 368.774M713.755 135.167L724.186 124.953M486.232 378.987L496.446 368.774M730.053 135.167L740.267 124.953M502.313 378.987L512.527 368.774M738.311 143.207L748.524 132.776M518.394 378.987L528.608 368.774M738.311 159.288L748.524 149.074M534.475 378.987L544.906 368.774M738.311 175.369L748.524 165.155M550.773 378.987L560.987 368.774M738.311 191.45L748.524 181.236M566.854 378.987L577.068 368.774M738.311 207.748L748.524 197.317M582.935 378.987L593.148 368.774M738.311 223.829L748.524 213.615M599.016 378.987L609.447 368.774M738.311 239.91L748.524 229.696M615.314 378.987L625.527 368.774M738.311 255.99L748.524 245.777M631.395 378.987L641.608 368.774M738.311 272.071L748.524 261.858M647.476 378.987L657.689 368.774M738.311 288.369L748.524 277.939M663.557 378.987L673.987 368.774M738.311 304.45L748.524 294.237M679.855 378.987L690.068 368.774M738.311 320.531L748.524 310.318M695.936 378.987L706.149 368.774M738.311 336.612L748.524 326.399M712.016 378.987L722.23 368.774M738.311 352.91L748.524 342.479M728.097 378.987L748.524 358.778M744.395 378.987L748.524 374.858M434.73 378.987L429.08 373.337M450.811 378.987L440.597 368.774M439.294 367.47L434.078 362.472M466.892 378.987L456.678 368.774M482.973 378.987L472.759 368.774M499.271 378.987L488.84 368.774M515.352 378.987L505.138 368.774M531.433 378.987L521.219 368.774M547.513 378.987L537.3 368.774M439.294 270.767L429.08 260.554M563.812 378.987L553.381 368.774M439.294 254.687L429.08 244.256M579.893 378.987L569.679 368.774M439.294 238.388L429.08 228.175M595.973 378.987L585.76 368.774M439.294 222.307L429.08 212.094M612.054 378.987L601.841 368.774M439.294 206.227L429.08 196.013M628.352 378.987L617.922 368.774M439.294 190.146L429.08 179.715M644.433 378.987L634.22 368.774M439.294 173.848L429.08 163.634M660.514 378.987L650.301 368.774M439.294 157.767L429.08 147.553M676.595 378.987L666.382 368.774M439.294 141.686L429.08 131.472M692.893 378.987L682.462 368.774M449.073 135.167L438.642 124.953M708.974 378.987L698.761 368.774M465.153 135.167L454.94 124.953M725.055 378.987L714.841 368.774M481.234 135.167L471.021 124.953M741.136 378.987L730.922 368.774M497.315 135.167L487.102 124.953M748.524 370.295L738.311 360.081M513.613 135.167L503.182 124.953M748.524 354.214L738.311 343.783M529.694 135.167L519.481 124.953M748.524 337.916L738.311 327.702M545.775 135.167L535.562 124.953M748.524 321.835L738.311 311.621M561.856 135.167L551.642 124.953M748.524 305.754L738.311 295.541M578.154 135.167L567.723 124.953M748.524 289.673L738.311 279.242M594.235 135.167L584.021 124.953M748.524 273.375L738.311 263.162M610.316 135.167L600.102 124.953M748.524 257.294L738.311 247.081M626.397 135.167L616.183 124.953M748.524 241.213L738.311 231M642.478 135.167L632.264 124.953M748.524 225.132L738.311 214.702M658.776 135.167L648.345 124.953M748.524 208.834L738.311 198.621M674.857 135.167L664.643 124.953M748.524 192.753L738.311 182.54M690.937 135.167L680.724 124.953M748.524 176.673L738.311 166.459M707.018 135.167L696.805 124.953M748.524 160.592L738.311 150.161M723.317 135.167L712.886 124.953M748.524 144.294L729.184 124.953M748.524 128.213L745.265 124.953" stroke="#0B0504" stroke-opacity="0.3" stroke-width="0.48" stroke-linecap="round" stroke-linejoin="round"/>
<path d="M413.651 272.506H439.293M429.08 272.506V246.863" stroke="#0B0504" stroke-opacity="0.3" stroke-width="1.08" stroke-linecap="round" stroke-linejoin="round"/>
<path d="M506.007 407.238V470.258H277.615" stroke="#0B0504" stroke-opacity="0.3" stroke-width="1.08" stroke-linecap="round" stroke-linejoin="round"/>
<path d="M429.079 378.988H413.65H380.185V398.328H413.65H429.079M262.186 549.792V378.988H277.615H290.436V394.417H277.615V549.792" stroke="#0B0504" stroke-opacity="0.3" stroke-width="1.08" stroke-linecap="round" stroke-linejoin="round"/>
<path d="M380.185 195.579H239.151V124.953" stroke="#0B0504" stroke-opacity="0.3" stroke-width="1.08" stroke-linecap="round" stroke-linejoin="round"/>
<path d="M118.546 548.489H144.188V565.004H118.546" stroke="#0B0504" stroke-opacity="0.3" stroke-width="1.08" stroke-linecap="round" stroke-linejoin="round"/>
<path d="M429.08 272.506V124.953H748.524V378.987H429.08V362.472" stroke="#0B0504" stroke-opacity="0.3" stroke-width="0.12" stroke-linecap="round" stroke-linejoin="round"/>
<path d="M439.293 272.506V135.167H738.31V368.774H439.293V362.472H429.08M290.436 394.417H277.615V540.666H608.577V407.238H380.185" stroke="#0B0504" stroke-opacity="0.3" stroke-width="1.08" stroke-linecap="round" stroke-linejoin="round"/>
<path d="M461.024 470.257H439.511M461.024 540.665H439.511M449.724 459.826V551.096" stroke="#0B0504" stroke-opacity="0.3" stroke-width="0.6" stroke-linecap="round" stroke-linejoin="round"/>
<path d="M454.506 475.907L455.592 474.82L444.075 465.476L454.506 475.907ZM455.592 474.82L444.075 465.476L445.161 464.39L455.592 474.82Z" fill="#0B0504" fill-opacity="0.3"/>
<path d="M445.16 535.016L444.074 536.103L455.591 545.23L445.16 535.016ZM444.074 536.103L455.591 545.23L454.505 546.316L444.074 536.103Z" fill="#0B0504" fill-opacity="0.3"/>
<path d="M506.006 551.097V605.859M608.576 551.097V605.859M495.793 595.645H619.007" stroke="#0B0504" stroke-opacity="0.3" stroke-width="0.6" stroke-linecap="round" stroke-linejoin="round"/>
<path d="M511.657 591.081L510.57 589.995L501.443 601.295L511.657 591.081ZM510.57 589.995L501.443 601.295L500.357 600.208L510.57 589.995Z" fill="#0B0504" fill-opacity="0.3"/>
<path d="M602.927 600.208L604.014 601.295L613.141 589.995L602.927 600.208ZM604.014 601.295L613.141 589.995L614.227 591.081L604.014 601.295Z" fill="#0B0504" fill-opacity="0.3"/>
<path d="M420.387 408.977L423.212 408.325V407.239H412.781V408.325L415.388 408.977M420.387 408.977H415.388M420.387 408.977V413.106H415.388V408.977M420.387 422.668V422.016V421.581V421.146L420.169 420.929V420.494L419.952 420.277L419.735 420.06L419.517 419.843L419.3 419.625L418.865 419.408L418.648 419.191H418.431H417.996H417.562H417.344H416.91L416.692 419.408M416.692 419.408L416.04 419.843M416.692 419.408V418.104M415.388 420.712L415.171 421.581V422.016V422.233L415.388 422.668V423.102L415.606 423.319L415.823 423.537L416.04 423.754L416.258 423.971L416.692 424.189L416.91 424.406H417.344H417.562H417.996H418.431H418.865L419.083 424.189L419.735 423.754M419.3 418.104V419.408M419.735 413.106V414.192H416.258V413.106H419.735ZM420.604 414.192V418.104H415.171V414.192H420.604Z" stroke="#0B0504" stroke-opacity="0.3" stroke-width="1.08" stroke-linecap="round" stroke-linejoin="round"/>
<path d="M419.083 424.188L419.734 429.838H416.258L416.909 424.405M414.736 419.19L421.69 423.536L421.038 424.405L414.302 420.059L414.736 419.19Z" stroke="#0B0504" stroke-opacity="0.3" stroke-width="1.08" stroke-linecap="round" stroke-linejoin="round"/>
<path d="M434.729 408.977L437.554 408.325V407.239H427.124V408.325L429.731 408.977M434.729 408.977H429.731M434.729 408.977V413.106H429.731V408.977M434.729 422.668V422.016V421.581V421.146V420.929L434.512 420.494L434.295 420.277L434.077 420.06L433.86 419.843L433.643 419.625L433.208 419.408L432.991 419.191H432.774H432.339H432.122H431.687H431.252L431.035 419.408M431.035 419.408L430.383 419.843M431.035 419.408V418.104M429.731 420.712L429.514 421.581V422.016V422.233L429.731 422.668V423.102L429.949 423.319L430.166 423.537L430.383 423.754L430.6 423.971L431.035 424.189L431.252 424.406H431.687H431.904H432.339H432.774H433.208L433.643 424.189L434.077 423.754M433.643 418.104V419.408M434.077 413.106V414.192H430.6V413.106H434.077ZM434.947 414.192V418.104H429.514V414.192H434.947Z" stroke="#0B0504" stroke-opacity="0.3" stroke-width="1.08" stroke-linecap="round" stroke-linejoin="round"/>
<path d="M433.425 424.188L434.077 429.838H430.6L431.252 424.405M429.296 419.19L436.033 423.536L435.381 424.405L428.645 420.059L429.296 419.19Z" stroke="#0B0504" stroke-opacity="0.3" stroke-width="1.08" stroke-linecap="round" stroke-linejoin="round"/>
<path d="M380.185 398.329V407.238" stroke="#0B0504" stroke-opacity="0.3" stroke-width="1.08" stroke-linecap="round" stroke-linejoin="round"/>
<path d="M426.689 402.457L424.516 402.24L425.168 407.238L426.689 402.457ZM424.516 402.24L425.168 407.238L422.778 402.675L424.516 402.24ZM425.168 407.238L422.778 402.675L421.256 403.979L425.168 407.238Z" fill="#0B0504" fill-opacity="0.3"/>
<path d="M421.256 403.978L420.17 405.934L425.168 407.238L421.256 403.978ZM420.17 405.934L425.168 407.238L419.953 407.89L420.17 405.934ZM425.168 407.238L419.953 407.89L420.605 409.845L425.168 407.238Z" fill="#0B0504" fill-opacity="0.3"/>
<path d="M420.604 409.846L421.908 411.367L425.168 407.238L420.604 409.846ZM421.908 411.367L425.168 407.238L423.647 412.236L421.908 411.367ZM425.168 407.238L423.647 412.236L425.603 412.454L425.168 407.238ZM425.603 412.454L427.558 411.802L425.168 407.238L425.603 412.454ZM427.558 411.802L425.168 407.238L429.08 410.498L427.558 411.802ZM425.168 407.238L429.08 410.498L430.166 408.759L425.168 407.238ZM430.166 408.759V406.804L425.168 407.238L430.166 408.759ZM430.166 406.804L425.168 407.238L429.731 404.848L430.166 406.804ZM425.168 407.238L429.731 404.848L428.428 403.327L425.168 407.238Z" fill="#0B0504" fill-opacity="0.3"/>
<path d="M428.428 403.326L426.689 402.457L425.168 407.238L428.428 403.326Z" fill="#0B0504" fill-opacity="0.3"/>
<path d="M66.6075 490.033L65.0864 488.946L62.9133 493.51L66.6075 490.033ZM65.0864 488.946L62.9133 493.51L63.1306 488.294L65.0864 488.946ZM62.9133 493.51L63.1306 488.294L61.1748 488.729L62.9133 493.51Z" fill="#0B0504" fill-opacity="0.3"/>
<path d="M61.1752 488.729L59.4367 489.598L62.9137 493.51L61.1752 488.729ZM59.4367 489.598L62.9137 493.51L58.1329 491.337L59.4367 489.598ZM62.9137 493.51L58.1329 491.337L57.6982 493.292L62.9137 493.51Z" fill="#0B0504" fill-opacity="0.3"/>
<path d="M57.6982 493.293L57.9156 495.248L62.9137 493.51L57.6982 493.293ZM57.9156 495.248L62.9137 493.51L59.0021 496.987L57.9156 495.248ZM62.9137 493.51L59.0021 496.987L60.7406 498.073L62.9137 493.51Z" fill="#0B0504" fill-opacity="0.3"/>
<path d="M60.7412 498.073L62.4797 498.725L62.9143 493.51L60.7412 498.073ZM62.4797 498.725L62.9143 493.51L64.6528 498.291L62.4797 498.725ZM62.9143 493.51L64.6528 498.291L66.3912 497.204L62.9143 493.51ZM66.3912 497.204L67.4778 495.683L62.9143 493.51L66.3912 497.204ZM67.4778 495.683L62.9143 493.51L67.9124 493.727L67.4778 495.683ZM62.9143 493.51L67.9124 493.727L67.6951 491.771L62.9143 493.51Z" fill="#0B0504" fill-opacity="0.3"/>
<path d="M67.6944 491.771L66.6078 490.033L62.9136 493.51L67.6944 491.771Z" fill="#0B0504" fill-opacity="0.3"/>
<path d="M54.9833 412.67C41.8415 412.67 31.188 423.324 31.188 436.466M31.188 436.574V519.152M31.188 519.043C31.188 532.185 41.8415 542.839 54.9833 542.839M54.8747 543.056H87.0364M87.1451 542.839C100.287 542.839 110.94 532.185 110.94 519.043M110.94 519.152V436.574M110.94 436.466C110.94 423.324 100.287 412.67 87.1451 412.67M87.0364 412.67H54.8747" stroke="#0B0504" stroke-opacity="0.3" stroke-width="1.08" stroke-linecap="round" stroke-linejoin="round"/>
<path d="M24.0163 482.861L23.3644 480.036H22.2778V490.467H23.3644L24.0163 487.859M24.0163 482.861V487.859M24.0163 482.861H28.1452V487.859H24.0163M37.7068 482.861H36.8375H36.4029H36.1856L35.751 483.079H35.5337L35.3164 483.296L34.8818 483.513L34.6644 483.73L34.4471 483.948M34.4471 483.948V484.382L34.2298 484.6V484.817L34.0125 485.252V485.686L34.2298 485.904V486.338L34.4471 486.555L34.8818 487.207M34.4471 483.948H32.926M35.751 487.859L36.4029 488.077H36.8375H37.2722H37.7068L37.9241 487.859L38.3587 487.642L38.576 487.425L38.7933 487.207L39.0106 486.99L39.2279 486.555V486.338L39.4452 485.904V485.686V485.252V484.817L39.2279 484.382L39.0106 484.165L38.576 483.513M32.926 486.555H34.2298M28.1452 483.513H29.2317V486.99H28.1452V483.513ZM29.2317 482.644H32.926V488.077H29.2317V482.644Z" stroke="#0B0504" stroke-opacity="0.3" stroke-width="1.08" stroke-linecap="round" stroke-linejoin="round"/>
<path d="M39.2281 484.165L44.8781 483.513V486.99L39.2281 486.338M34.0127 488.511L38.3589 481.558L39.4454 482.209L35.0992 488.946L34.0127 488.511Z" stroke="#0B0504" stroke-opacity="0.3" stroke-width="1.08" stroke-linecap="round" stroke-linejoin="round"/>
<path d="M24.0163 468.519L23.3644 465.694H22.2778V476.125H23.3644L24.0163 473.517M24.0163 468.519V473.517M24.0163 468.519H28.1452V473.517H24.0163M37.7068 468.519H36.8375H36.4029H36.1856L35.751 468.736H35.5337L35.3164 468.953L34.8818 469.171L34.6644 469.388L34.4471 469.605M34.4471 469.605V470.04L34.2298 470.257V470.474L34.0125 470.909V471.344L34.2298 471.561V471.996L34.4471 472.213L34.8818 472.865M34.4471 469.605H32.926M35.751 473.517L36.4029 473.734H36.8375H37.2722L37.7068 473.517H37.9241L38.3587 473.299L38.576 473.082L38.7933 472.865L39.0106 472.648L39.2279 472.213V471.996L39.4452 471.561V471.344V470.909V470.474L39.2279 470.04L39.0106 469.823L38.576 469.171M32.926 472.213H34.2298M28.1452 469.171H29.2317V472.648H28.1452V469.171ZM29.2317 468.301H32.926V473.734H29.2317V468.301Z" stroke="#0B0504" stroke-opacity="0.3" stroke-width="1.08" stroke-linecap="round" stroke-linejoin="round"/>
<path d="M39.2281 469.823L44.8781 469.171V472.648L39.2281 471.996M34.0127 473.952L38.3589 467.215L39.4454 467.867L35.0992 474.604L34.0127 473.952Z" stroke="#0B0504" stroke-opacity="0.3" stroke-width="1.08" stroke-linecap="round" stroke-linejoin="round"/>
<path d="M119.849 397.024V373.772M22.2775 397.024V373.772M130.063 384.203H12.064" stroke="#0B0504" stroke-opacity="0.3" stroke-width="0.6" stroke-linecap="round" stroke-linejoin="round"/>
<path d="M113.982 388.766L115.068 389.853L124.413 378.553L113.982 388.766ZM115.068 389.853L124.413 378.553L125.499 379.64L115.068 389.853Z" fill="#0B0504" fill-opacity="0.3"/>
<path d="M27.928 379.64L26.8415 378.554L17.7145 389.854L27.928 379.64ZM26.8415 378.554L17.7145 389.854L16.6279 388.767L26.8415 378.554Z" fill="#0B0504" fill-opacity="0.3"/>
<path d="M12.0636 407.238H-15.752M12.0636 548.489H-15.752M-5.32112 397.024V558.702" stroke="#0B0504" stroke-opacity="0.3" stroke-width="0.6" stroke-linecap="round" stroke-linejoin="round"/>
<path d="M-0.757666 412.888L0.32888 411.802L-10.9712 402.675L-0.757666 412.888ZM0.32888 411.802L-10.9712 402.675L-9.88465 401.588L0.32888 411.802Z" fill="#0B0504" fill-opacity="0.3"/>
<path d="M-9.88465 542.839L-10.9712 543.925L0.32888 553.052L-9.88465 542.839ZM-10.9712 543.925L0.32888 553.052L-0.757666 554.139L-10.9712 543.925Z" fill="#0B0504" fill-opacity="0.3"/>
<path d="M277.617 481.558L289.134 470.258M277.617 500.029L307.605 470.258M277.617 518.501L325.859 470.258M277.617 536.972L344.331 470.258M292.176 540.666L362.802 470.258M310.648 540.666L381.273 470.258M329.119 540.666L399.744 470.258M347.59 540.666L418.216 470.258M366.061 540.666L417.781 488.947L436.47 470.258M384.533 540.666L410.175 515.024L426.691 498.508M506.008 419.191L517.96 407.239M436.47 488.512L454.941 470.258M402.787 540.666L426.691 516.98M506.008 437.662L536.214 407.239M454.941 488.729L473.412 470.258M421.258 540.666L438.208 523.716M506.008 456.133L554.686 407.239M454.941 507.201L491.883 470.258M439.729 540.666L506.008 474.387L573.157 407.239M458.201 540.666L506.008 492.858L591.628 407.239M476.672 540.666L506.008 511.33L608.578 408.76M495.143 540.666L506.008 529.801L608.578 427.231M513.397 540.666L608.578 445.485M531.868 540.666L608.578 463.956M550.34 540.666L608.578 482.427M568.811 540.666L608.578 500.899M587.282 540.666L608.578 519.37M605.753 540.666L608.578 537.841" stroke="#0B0504" stroke-opacity="0.3" stroke-width="0.48" stroke-linecap="round" stroke-linejoin="round"/>
<path d="M673.336 277.07L670.946 279.243L670.077 287.936L674.64 291.847L677.682 290.761L678.334 283.807L676.596 277.07M710.713 277.07L708.106 279.243L707.454 287.936L711.8 291.847L714.842 290.761L715.494 283.807L713.973 277.07M730.489 302.713H727.446L720.492 299.67L720.058 291.847L726.36 283.807L730.489 282.503M730.489 339.873L727.446 340.09L720.492 337.048L720.058 329.224L726.36 320.967L730.489 319.663M663.775 348.13L663.123 342.915L660.515 340.09H658.125L654.865 341.828L655.517 348.13M701.152 348.13L700.283 342.915L697.675 340.09H695.502L692.025 341.828L692.894 348.13M663.123 277.07L660.515 279.678L656.604 277.07M700.283 277.07L697.675 279.678L693.763 277.07M702.673 277.07L701.152 279.678L704.846 281.199L705.933 278.591L705.498 277.07M665.296 277.07L663.775 279.678L667.469 281.199L668.556 278.591L668.121 277.07M711.8 311.405L706.585 309.015L704.846 302.713L706.585 296.411L711.8 294.455L716.798 296.845L718.971 302.713L717.015 308.797L711.8 310.971M674.64 311.405L669.425 309.015L667.469 302.713L669.425 296.411L674.64 294.455L679.421 296.845L681.594 302.713L679.856 308.797L674.64 310.971M710.713 348.13L706.585 346.392L704.846 340.09L706.585 333.571L711.8 331.832L716.798 334.005L718.971 340.09L717.015 345.957L712.235 348.13M673.336 348.13L669.425 346.392L667.469 340.09L669.425 333.571L674.64 331.832L679.421 334.005L681.594 340.09L679.856 345.957L675.075 348.13M643.348 299.67L644.434 302.713L643.348 306.407M643.348 336.83L644.434 340.09L643.348 343.784M730.489 313.361L729.402 304.669L730.489 304.017M730.054 348.13L729.402 341.828L730.489 341.176M643.348 322.488L646.607 324.444L654.213 317.707V307.928L650.736 303.147L645.521 304.669L643.348 309.015M643.348 285.111L646.607 287.067L654.213 280.33V277.07M728.533 348.13V345.305L725.273 340.307L720.058 341.828L716.798 348.13M728.533 277.07V280.33L721.144 287.067L716.798 284.459L716.146 277.07M691.373 348.13V345.305L688.113 340.307L682.898 341.828L679.638 348.13M691.373 277.07V280.33L683.984 287.067L679.421 284.459L678.769 277.07M654.213 348.13V345.305L650.736 340.307L645.521 341.828L643.348 346.175M674.64 313.144L670.946 316.621L670.077 325.096L674.64 329.224L677.682 328.138L678.334 320.967L676.379 313.578L674.64 313.144ZM711.8 313.144L708.106 316.621L707.454 325.096L711.8 329.224L714.842 328.138L715.494 320.967L713.756 313.578L711.8 313.144ZM660.732 302.278L652.909 302.713L645.955 299.67L645.521 291.847L651.823 283.807L661.167 280.765L667.904 284.893L668.556 293.803L660.732 302.278ZM698.11 302.278L690.286 302.713L683.115 299.67L682.898 291.847L689.2 283.807L698.544 280.765L705.063 284.893L705.933 293.803L698.11 302.278ZM660.732 339.655L652.909 340.09L645.955 337.048L645.521 329.224L651.823 320.967L661.167 317.924L667.904 322.053L668.556 330.963L660.732 339.655ZM698.11 339.655L690.286 340.09L683.115 337.048L682.898 329.224L689.2 320.967L698.544 317.924L705.063 322.053L705.933 330.963L698.11 339.655ZM660.515 302.713L663.123 305.755L664.209 313.144L660.515 316.838L655.952 314.013L654.865 304.669L658.125 302.713H660.515ZM697.675 302.713L700.283 305.755L701.369 313.144L697.675 316.838L693.329 314.013L692.025 304.669L695.502 302.713H697.675ZM668.556 315.751L667.469 318.359L663.775 316.838L667.252 311.405L668.556 315.751ZM705.933 315.751L704.846 318.359L701.152 316.838L704.412 311.405L705.933 315.751ZM679.421 321.836L683.984 324.444L691.373 317.707V307.928L688.113 303.147L682.898 304.669L678.769 312.492L679.421 321.836ZM716.798 321.836L721.144 324.444L728.533 317.707V307.928L725.273 303.147L720.058 304.669L715.929 312.492L716.798 321.836Z" stroke="#0B0504" stroke-opacity="0.3" stroke-width="0.48" stroke-linecap="round" stroke-linejoin="round"/>
<path d="M643.348 277.07V348.13H730.489V277.07M682.246 358.67C682.246 361.37 684.435 363.559 687.135 363.559C689.836 363.559 692.025 361.37 692.025 358.67C692.025 355.969 689.836 353.78 687.135 353.78C684.435 353.78 682.246 355.969 682.246 358.67Z" stroke="#0B0504" stroke-opacity="0.3" stroke-width="1.08" stroke-linecap="round" stroke-linejoin="round"/>
<path d="M643.347 277.07H730.487M635.523 266.205V368.775H738.311V266.205H635.523Z" stroke="#0B0504" stroke-opacity="0.3" stroke-width="1.08" stroke-linecap="round" stroke-linejoin="round"/>
<path d="M738.311 237.954H439.293" stroke="#0B0504" stroke-opacity="0.3" stroke-width="1.08" stroke-linecap="round" stroke-linejoin="round"/>
<path d="M439.293 174.935H738.311M439.293 173.848H738.311M439.293 162.114H738.311M439.293 160.81H738.311M439.293 187.756H738.311M439.293 186.67H738.311M439.293 213.616H738.311M439.293 212.312H738.311M439.293 200.795H738.311M439.293 199.491H738.311M439.293 226.437H738.311M439.293 225.133H738.311M439.293 149.293H738.311M439.293 147.989H738.311" stroke="#0B0504" stroke-opacity="0.3" stroke-width="0.48" stroke-linecap="round" stroke-linejoin="round"/>
<path d="M738.311 263.597H439.293" stroke="#0B0504" stroke-opacity="0.3" stroke-width="1.08" stroke-linecap="round" stroke-linejoin="round"/>
<path d="M439.293 239.259H738.311M439.293 252.08H738.311M439.293 250.776H738.311" stroke="#0B0504" stroke-opacity="0.3" stroke-width="0.48" stroke-linecap="round" stroke-linejoin="round"/>
<path d="M503.617 253.601L496.011 239.259M496.011 239.259V263.597M496.011 239.259L488.188 253.601M596.408 253.601L588.802 239.259M588.802 239.259V263.597M588.802 239.259L581.196 253.601M673.987 253.601L681.593 239.259M681.593 239.259V263.597M681.593 239.259L689.199 253.601" stroke="#0B0504" stroke-opacity="0.3" stroke-width="0.12" stroke-linecap="round" stroke-linejoin="round"/>
<path d="M257.84 158.419L259.796 157.985L257.406 153.421L257.84 158.419ZM259.796 157.985L257.406 153.421L261.317 156.681L259.796 157.985ZM257.406 153.421L261.317 156.681L262.404 154.942L257.406 153.421Z" fill="#0B0504" fill-opacity="0.3"/>
<path d="M262.404 154.942L262.621 152.987L257.406 153.421L262.404 154.942ZM262.621 152.987L257.406 153.421L261.969 151.031L262.621 152.987ZM257.406 153.421L261.969 151.031L260.665 149.51L257.406 153.421Z" fill="#0B0504" fill-opacity="0.3"/>
<path d="M260.665 149.51L258.927 148.424L257.406 153.422L260.665 149.51ZM258.927 148.424L257.406 153.422L256.971 148.206L258.927 148.424ZM257.406 153.422L256.971 148.206L255.015 148.858L257.406 153.422Z" fill="#0B0504" fill-opacity="0.3"/>
<path d="M255.015 148.858L253.494 150.161L257.406 153.421L255.015 148.858ZM253.494 150.161L257.406 153.421L252.408 151.9L253.494 150.161ZM257.406 153.421L252.408 151.9V153.856L257.406 153.421Z" fill="#0B0504" fill-opacity="0.3"/>
<path d="M252.408 153.856L252.842 155.812L257.406 153.421L252.408 153.856ZM252.842 155.812L257.406 153.421L254.146 157.333L252.842 155.812ZM257.406 153.421L254.146 157.333L255.885 158.202L257.406 153.421Z" fill="#0B0504" fill-opacity="0.3"/>
<path d="M255.884 158.202L257.84 158.419L257.405 153.421L255.884 158.202Z" fill="#0B0504" fill-opacity="0.3"/>
<path d="M311.298 152.117H313.254L312.385 147.119L311.298 152.117ZM313.254 152.117L312.385 147.119L315.21 151.465L313.254 152.117ZM312.385 147.119L315.21 151.465L316.514 149.944L312.385 147.119Z" fill="#0B0504" fill-opacity="0.3"/>
<path d="M316.514 149.945L317.383 148.206L312.385 147.12L316.514 149.945ZM317.383 148.206L312.385 147.12L317.383 146.251V148.206ZM312.385 147.12L317.383 146.251L316.514 144.295L312.385 147.12Z" fill="#0B0504" fill-opacity="0.3"/>
<path d="M316.514 144.294L315.21 142.99L312.385 147.119L316.514 144.294ZM315.21 142.99L312.385 147.119L313.254 142.121L315.21 142.99ZM312.385 147.119L313.254 142.121H311.298L312.385 147.119Z" fill="#0B0504" fill-opacity="0.3"/>
<path d="M311.299 142.121L309.343 142.99L312.385 147.119L311.299 142.121ZM309.343 142.99L312.385 147.119L308.039 144.294L309.343 142.99ZM312.385 147.119L308.039 144.294L307.17 146.25L312.385 147.119Z" fill="#0B0504" fill-opacity="0.3"/>
<path d="M307.17 146.25V148.206L312.385 147.119L307.17 146.25ZM307.17 148.206L312.385 147.119L308.039 149.944L307.17 148.206ZM312.385 147.119L308.039 149.944L309.343 151.465L312.385 147.119Z" fill="#0B0504" fill-opacity="0.3"/>
<path d="M309.342 151.465L311.298 152.117L312.385 147.119L309.342 151.465Z" fill="#0B0504" fill-opacity="0.3"/>
<path d="M271.749 137.123H345.416V149.51H271.749V137.123ZM380.186 141.035H407.784V157.115H380.186V141.035Z" stroke="#0B0504" stroke-opacity="0.3" stroke-width="0.12" stroke-linecap="round" stroke-linejoin="round"/>
<path d="M393.876 157.115L396.701 145.163L407.784 141.034M393.876 157.115V141.034H407.784M393.876 157.115H407.784V141.034M401.482 168.198H429.08V184.496H401.482V168.198Z" stroke="#0B0504" stroke-opacity="0.3" stroke-width="0.12" stroke-linecap="round" stroke-linejoin="round"/>
<path d="M401.482 184.496L404.307 172.544L415.172 168.198M401.482 184.496V168.198H415.172M401.482 184.496H415.172V168.198" stroke="#0B0504" stroke-opacity="0.3" stroke-width="0.12" stroke-linecap="round" stroke-linejoin="round"/>
<path d="M233.937 559.789H228.069V565.004H233.937V559.789ZM144.188 559.789H149.403V565.004H144.188V559.789Z" stroke="#0B0504" stroke-opacity="0.3" stroke-width="0.48" stroke-linecap="round" stroke-linejoin="round"/>
<path d="M148.751 565.005V563.918H149.403M229.156 565.005V563.918H228.069M228.721 565.005V569.133H227.417M227.417 643.888V566.96H228.069V565.005M225.244 637.368H230.894M225.244 636.065H230.894M225.244 627.372H230.894M225.244 626.286H230.894M225.244 623.243L223.071 621.288V638.238L225.244 640.193V623.243ZM230.894 623.243L233.067 621.288V638.238L230.894 640.193V623.243Z" stroke="#0B0504" stroke-opacity="0.3" stroke-width="0.48" stroke-linecap="round" stroke-linejoin="round"/>
<path d="M216.335 641.932L218.942 642.584L227.417 643.888L228.069 643.453V569.133M211.336 640.628L210.684 640.411L202.644 637.586L201.775 637.151M197.211 634.978L194.821 633.891L188.302 629.763M183.955 626.72L180.696 624.33L176.132 620.201M172.655 616.507L168.527 612.161L166.136 608.684M163.094 604.555L159.182 597.818L158.096 595.428M155.923 590.864L155.488 589.995L152.663 581.955L152.446 581.303M151.359 576.305L150.707 573.697L149.403 565.005M418.867 272.507V278.374H413.651V272.507H418.867ZM418.867 362.472V357.04H413.651V362.472H418.867Z" stroke="#0B0504" stroke-opacity="0.3" stroke-width="0.48" stroke-linecap="round" stroke-linejoin="round"/>
<path d="M413.651 357.692H414.738V357.04M413.651 277.287H414.738V278.374M413.651 277.939H409.522V279.026M334.985 279.026H411.913V278.374H413.651M341.505 281.416V275.549M342.591 281.416V275.549M351.284 281.416V275.549M352.587 281.416V275.549M355.412 281.416L357.368 283.372H340.635L338.462 281.416H355.412ZM355.412 275.549L357.368 273.593H340.635L338.462 275.549H355.412Z" stroke="#0B0504" stroke-opacity="0.3" stroke-width="0.48" stroke-linecap="round" stroke-linejoin="round"/>
<path d="M336.941 290.109L336.289 287.501L334.985 279.026L335.203 278.591H409.522M338.028 295.107L338.245 295.759L341.287 303.799L341.722 304.668M343.895 309.449L344.982 311.622L348.893 318.359M351.935 322.488L354.543 325.747L358.455 330.311M362.149 334.005L366.712 337.917L369.972 340.524M374.318 343.349L380.838 347.478L383.228 348.347M387.791 350.52L388.661 350.955L396.701 353.78L397.57 353.997M402.568 355.301L405.176 355.953L413.651 357.04M290.437 384.421H296.304V378.988H290.437V384.421ZM380.186 384.421H374.97V378.988H380.186V384.421Z" stroke="#0B0504" stroke-opacity="0.3" stroke-width="0.48" stroke-linecap="round" stroke-linejoin="round"/>
<path d="M375.623 378.988V380.292H374.971M295.219 378.988V380.292H296.305M295.653 378.988V374.859H296.957M296.957 300.322V377.249H296.305V378.988M299.13 306.841H293.48M299.13 308.145H293.48M299.13 316.62H293.48M299.13 317.924H293.48M299.13 320.749L301.303 322.922V305.972L299.13 304.016V320.749ZM293.48 320.749L291.307 322.922V305.972L293.48 304.016V320.749Z" stroke="#0B0504" stroke-opacity="0.3" stroke-width="0.48" stroke-linecap="round" stroke-linejoin="round"/>
<path d="M308.039 302.278L305.431 301.626L296.956 300.322L296.521 300.539V374.859M313.037 303.582L313.689 303.799L321.729 306.624L322.599 307.059M327.379 309.232L329.552 310.318L336.289 314.447M340.418 317.272L343.678 319.88L348.241 324.009M351.718 327.703L355.847 332.049L358.237 335.526M361.28 339.655L365.191 346.392L366.278 348.565M368.451 353.346L368.885 354.215L371.71 362.255L371.928 362.907M373.014 367.905L373.666 370.513L374.97 378.988" stroke="#0B0504" stroke-opacity="0.3" stroke-width="0.48" stroke-linecap="round" stroke-linejoin="round"/>
<path d="M748.525 135.167H834.362M748.525 237.954H834.362M823.931 124.953V248.168" stroke="#0B0504" stroke-opacity="0.3" stroke-width="0.6" stroke-linecap="round" stroke-linejoin="round"/>
<path d="M828.494 141.034L829.798 139.948L818.28 130.603L828.494 141.034ZM829.798 139.948L818.28 130.603L819.367 129.517L829.798 139.948Z" fill="#0B0504" fill-opacity="0.3"/>
<path d="M819.367 232.304L818.28 233.391L829.798 242.518L819.367 232.304ZM818.28 233.391L829.798 242.518L828.494 243.604L818.28 233.391Z" fill="#0B0504" fill-opacity="0.3"/>
<path d="M748.524 237.955H834.361M748.524 263.597H834.361M823.931 227.741V273.811" stroke="#0B0504" stroke-opacity="0.3" stroke-width="0.6" stroke-linecap="round" stroke-linejoin="round"/>
<path d="M828.494 243.604L829.798 242.517L818.281 233.39L828.494 243.604ZM829.798 242.517L818.281 233.39L819.367 232.304L829.798 242.517Z" fill="#0B0504" fill-opacity="0.3"/>
<path d="M819.367 257.947L818.28 259.034L829.798 268.161L819.367 257.947ZM818.28 259.034L829.798 268.161L828.494 269.247L818.28 259.034Z" fill="#0B0504" fill-opacity="0.3"/>
<path d="M449.507 272.507H478.844M444.509 362.473H478.844M468.631 262.293V372.686" stroke="#0B0504" stroke-opacity="0.3" stroke-width="0.6" stroke-linecap="round" stroke-linejoin="round"/>
<path d="M473.194 278.156L474.281 277.07L462.98 267.943L473.194 278.156ZM474.281 277.07L462.98 267.943L464.067 266.856L474.281 277.07Z" fill="#0B0504" fill-opacity="0.3"/>
<path d="M464.066 356.606L462.979 357.692L474.28 367.037L464.066 356.606ZM462.979 357.692L474.28 367.037L473.193 368.123L462.979 357.692Z" fill="#0B0504" fill-opacity="0.3"/>
<path d="M262.187 560.006V632.805M233.937 560.006V632.805M272.4 622.374H223.723" stroke="#0B0504" stroke-opacity="0.3" stroke-width="0.6" stroke-linecap="round" stroke-linejoin="round"/>
<path d="M256.537 626.937L257.623 628.241L266.75 616.724L256.537 626.937ZM257.623 628.241L266.75 616.724L267.837 617.81L257.623 628.241Z" fill="#0B0504" fill-opacity="0.3"/>
<path d="M239.586 617.81L238.5 616.724L229.373 628.241L239.586 617.81ZM238.5 616.724L229.373 628.241L228.286 626.937L238.5 616.724Z" fill="#0B0504" fill-opacity="0.3"/>
<path d="M228.938 195.579H198.298M233.719 124.954H198.298M208.729 205.793V114.74" stroke="#0B0504" stroke-opacity="0.3" stroke-width="0.6" stroke-linecap="round" stroke-linejoin="round"/>
<path d="M203.948 189.929L202.861 191.016L214.379 200.143L203.948 189.929ZM202.861 191.016L214.379 200.143L213.292 201.229L202.861 191.016Z" fill="#0B0504" fill-opacity="0.3"/>
<path d="M213.292 130.604L214.379 129.517L202.861 120.39L213.292 130.604ZM214.379 129.517L202.861 120.39L203.948 119.304L214.379 129.517Z" fill="#0B0504" fill-opacity="0.3"/>
<path d="M130.171 174.283C135.152 174.283 139.189 170.246 139.189 165.265C139.189 160.284 135.152 156.247 130.171 156.247C125.19 156.247 121.153 160.284 121.153 165.265C121.153 170.246 125.19 174.283 130.171 174.283Z" stroke="#0B0504" stroke-opacity="0.3" stroke-width="0.48" stroke-linecap="round" stroke-linejoin="round"/>
<path d="M130.171 166.677C130.951 166.677 131.584 166.045 131.584 165.265C131.584 164.484 130.951 163.852 130.171 163.852C129.391 163.852 128.759 164.484 128.759 165.265C128.759 166.045 129.391 166.677 130.171 166.677Z" stroke="#0B0504" stroke-opacity="0.3" stroke-width="0.48" stroke-linecap="round" stroke-linejoin="round"/>
<path d="M129.194 164.287L129.411 130.387H131.367L130.932 164.287M138.973 134.733H143.753V130.822H138.973M138.973 134.733V130.822M138.973 134.733H131.15M138.973 130.822H138.538V127.127M121.588 134.516L129.411 134.733M127.455 126.91H120.719V124.954H127.455V126.91ZM127.455 126.91H133.757M133.757 126.91L139.842 127.127V125.171H133.757V126.91ZM133.757 126.91V127.996H138.538M127.455 125.606H133.757M130.28 126.91V124.085M136.582 126.91V123.216M123.978 126.91L124.196 122.998M122.24 130.822V126.91H122.023V130.822H122.24ZM122.24 130.822H121.588M122.24 127.779L127.021 127.996V126.91M122.24 129.3H125.717V129.735H127.021M127.021 131.039H129.194M128.759 129.3L128.976 126.91M138.538 129.518L134.844 129.3V129.952H133.757M133.757 131.039H131.584M131.801 129.3V126.91M116.807 134.516H121.805V130.822H116.807V134.516ZM127.021 129.3H129.194L128.976 132.777H127.021V129.3ZM133.757 129.3H131.584V132.777H133.54L133.757 129.3Z" stroke="#0B0504" stroke-opacity="0.3" stroke-width="0.48" stroke-linecap="round" stroke-linejoin="round"/>
<path d="M130.172 174.065C130.472 174.065 130.715 173.822 130.715 173.522C130.715 173.222 130.472 172.979 130.172 172.979C129.872 172.979 129.628 173.222 129.628 173.522C129.628 173.822 129.872 174.065 130.172 174.065Z" stroke="#0B0504" stroke-opacity="0.3" stroke-width="0.48" stroke-linecap="round" stroke-linejoin="round"/>
<path d="M124.304 171.458C124.604 171.458 124.847 171.215 124.847 170.915C124.847 170.615 124.604 170.372 124.304 170.372C124.003 170.372 123.76 170.615 123.76 170.915C123.76 171.215 124.003 171.458 124.304 171.458Z" stroke="#0B0504" stroke-opacity="0.3" stroke-width="0.48" stroke-linecap="round" stroke-linejoin="round"/>
<path d="M121.914 165.808C122.214 165.808 122.457 165.565 122.457 165.264C122.457 164.964 122.214 164.721 121.914 164.721C121.614 164.721 121.371 164.964 121.371 165.264C121.371 165.565 121.614 165.808 121.914 165.808Z" stroke="#0B0504" stroke-opacity="0.3" stroke-width="0.48" stroke-linecap="round" stroke-linejoin="round"/>
<path d="M124.739 159.941C125.039 159.941 125.282 159.697 125.282 159.397C125.282 159.097 125.039 158.854 124.739 158.854C124.439 158.854 124.196 159.097 124.196 159.397C124.196 159.697 124.439 159.941 124.739 159.941Z" stroke="#0B0504" stroke-opacity="0.3" stroke-width="0.48" stroke-linecap="round" stroke-linejoin="round"/>
<path d="M135.821 160.157C136.121 160.157 136.364 159.914 136.364 159.614C136.364 159.314 136.121 159.071 135.821 159.071C135.521 159.071 135.278 159.314 135.278 159.614C135.278 159.914 135.521 160.157 135.821 160.157Z" stroke="#0B0504" stroke-opacity="0.3" stroke-width="0.48" stroke-linecap="round" stroke-linejoin="round"/>
<path d="M137.994 165.808C138.294 165.808 138.537 165.565 138.537 165.264C138.537 164.964 138.294 164.721 137.994 164.721C137.694 164.721 137.451 164.964 137.451 165.264C137.451 165.565 137.694 165.808 137.994 165.808Z" stroke="#0B0504" stroke-opacity="0.3" stroke-width="0.48" stroke-linecap="round" stroke-linejoin="round"/>
<path d="M135.604 171.676C135.904 171.676 136.148 171.432 136.148 171.132C136.148 170.832 135.904 170.589 135.604 170.589C135.304 170.589 135.061 170.832 135.061 171.132C135.061 171.432 135.304 171.676 135.604 171.676Z" stroke="#0B0504" stroke-opacity="0.3" stroke-width="0.48" stroke-linecap="round" stroke-linejoin="round"/>
<path d="M147.448 148.423V182.54H113.33V148.423H147.448Z" stroke="#0B0504" stroke-opacity="0.3" stroke-width="0.48" stroke-linecap="round" stroke-linejoin="round"/>
<path d="M72.4761 287.936L73.128 285.98L67.9126 285.545L72.4761 287.936ZM73.128 285.98L67.9126 285.545L72.9107 284.024L73.128 285.98ZM67.9126 285.545L72.9107 284.024L71.8242 282.068L67.9126 285.545Z" fill="#0B0504" fill-opacity="0.3"/>
<path d="M71.8238 282.068L70.3027 280.982L67.9123 285.545L71.8238 282.068ZM70.3027 280.982L67.9123 285.545L68.3469 280.33L70.3027 280.982ZM67.9123 285.545L68.3469 280.33L66.3911 280.547L67.9123 285.545Z" fill="#0B0504" fill-opacity="0.3"/>
<path d="M66.3905 280.547L64.652 281.634L67.9117 285.545L66.3905 280.547ZM64.652 281.634L67.9117 285.545L63.3482 283.155L64.652 281.634ZM67.9117 285.545L63.3482 283.155L62.9136 285.111L67.9117 285.545Z" fill="#0B0504" fill-opacity="0.3"/>
<path d="M62.9136 285.111L63.1309 287.066L67.9117 285.545L62.9136 285.111ZM63.1309 287.066L67.9117 285.545L64.0001 288.805L63.1309 287.066ZM67.9117 285.545L64.0001 288.805L65.5213 290.109L67.9117 285.545Z" fill="#0B0504" fill-opacity="0.3"/>
<path d="M65.522 290.108L67.4778 290.543L67.9124 285.545L65.522 290.108ZM67.4778 290.543L67.9124 285.545L69.4335 290.325L67.4778 290.543ZM67.9124 285.545L69.4335 290.325L71.3893 289.456L67.9124 285.545ZM71.3893 289.456L72.4759 287.935L67.9124 285.545L71.3893 289.456Z" fill="#0B0504" fill-opacity="0.3"/>
<path d="M102.247 285.437C102.247 266.534 86.9235 251.211 68.0209 251.211C49.1183 251.211 33.7947 266.534 33.7947 285.437C33.7947 304.339 49.1183 319.663 68.0209 319.663C86.9235 319.663 102.247 304.339 102.247 285.437Z" stroke="#0B0504" stroke-opacity="0.3" stroke-width="0.48" stroke-linecap="round" stroke-linejoin="round"/>
<path d="M52.7042 322.908C52.6575 325.008 59.477 326.863 67.9361 327.051C76.3951 327.239 83.2904 325.689 83.3371 323.589C83.3838 321.49 76.5643 319.635 68.1052 319.447C59.6462 319.259 52.7509 320.808 52.7042 322.908Z" stroke="#0B0504" stroke-opacity="0.3" stroke-width="0.479999" stroke-linecap="round" stroke-linejoin="round"/>
<path d="M52.7041 247.748C52.7508 249.848 59.6461 251.397 68.1051 251.209C76.5642 251.021 83.3837 249.166 83.337 247.067C83.2903 244.967 76.395 243.417 67.936 243.605C59.4769 243.794 52.6574 245.648 52.7041 247.748Z" stroke="#0B0504" stroke-opacity="0.3" stroke-width="0.479999" stroke-linecap="round" stroke-linejoin="round"/>
<path d="M88.5566 285.437C88.5566 274.095 79.3625 264.901 68.0209 264.901C56.6794 264.901 47.4852 274.095 47.4852 285.437C47.4852 296.778 56.6794 305.973 68.0209 305.973C79.3625 305.973 88.5566 296.778 88.5566 285.437Z" stroke="#0B0504" stroke-opacity="0.3" stroke-width="0.48" stroke-linecap="round" stroke-linejoin="round"/>
<path d="M67.9128 305.972V319.662M52.0492 298.366L41.4011 307.058M47.4857 285.545H33.7953M83.7763 298.366L94.4245 307.058M88.5571 285.545H102.248M67.9128 264.901V251.21M52.0492 272.506L41.4011 263.814M83.7763 272.506L94.4245 263.814M52.7012 323.574H21.8433V247.516H52.7012" stroke="#0B0504" stroke-opacity="0.3" stroke-width="0.48" stroke-linecap="round" stroke-linejoin="round"/>
<path d="M239.152 124.953H22.2778M262.187 507.2H247.627V510.46H262.187V507.2Z" stroke="#0B0504" stroke-opacity="0.3" stroke-width="0.12" stroke-linecap="round" stroke-linejoin="round"/>
<path d="M247.628 507.2H251.974V510.46H247.628V507.2ZM262.188 492.858H247.628V495.9H262.188V492.858Z" stroke="#0B0504" stroke-opacity="0.3" stroke-width="0.12" stroke-linecap="round" stroke-linejoin="round"/>
<path d="M247.628 492.858H251.974V495.9H247.628V492.858ZM262.188 478.515H247.628V481.558H262.188V478.515Z" stroke="#0B0504" stroke-opacity="0.3" stroke-width="0.12" stroke-linecap="round" stroke-linejoin="round"/>
<path d="M247.628 478.515H251.974V481.558H247.628V478.515ZM262.188 464.173H247.628V467.215H262.188V464.173Z" stroke="#0B0504" stroke-opacity="0.3" stroke-width="0.12" stroke-linecap="round" stroke-linejoin="round"/>
<path d="M247.628 464.173H251.974V467.215H247.628V464.173ZM262.188 449.613H247.628V452.873H262.188V449.613Z" stroke="#0B0504" stroke-opacity="0.3" stroke-width="0.12" stroke-linecap="round" stroke-linejoin="round"/>
<path d="M247.628 449.613H251.974V452.873H247.628V449.613Z" stroke="#0B0504" stroke-opacity="0.3" stroke-width="0.12" stroke-linecap="round" stroke-linejoin="round"/>
</g>
</svg>
