<svg width="905" height="523" viewBox="0 0 905 523" fill="none" xmlns="http://www.w3.org/2000/svg">
<g opacity="0.3">
<path d="M302.311 193.678V49.5588H37.73V373.126M184.806 373.126H302.311V311.805" stroke="#0B0504" stroke-opacity="0.3" stroke-width="1.44" stroke-linecap="round" stroke-linejoin="round"/>
<path d="M292.04 193.677V59.8303H48.0023L47.8467 362.854M292.04 362.698V311.805" stroke="#0B0504" stroke-opacity="0.3" stroke-width="0.48" stroke-linecap="round" stroke-linejoin="round"/>
<path d="M48.0024 358.341H165.663V59.831M165.663 148.077H292.04M165.663 177.492H292.04" stroke="#0B0504" stroke-opacity="0.3" stroke-width="0.48" stroke-linecap="round" stroke-linejoin="round"/>
<path d="M587.592 193.522V49.5588H844.236V472.889H587.592V311.65" stroke="#0B0504" stroke-opacity="0.3" stroke-width="1.44" stroke-linecap="round" stroke-linejoin="round"/>
<path d="M597.864 193.522V59.8303H833.964V462.616H597.864V311.649" stroke="#0B0504" stroke-opacity="0.3" stroke-width="0.48" stroke-linecap="round" stroke-linejoin="round"/>
<path d="M597.864 433.202H833.964" stroke="#0B0504" stroke-opacity="0.3" stroke-width="0.12" stroke-linecap="round" stroke-linejoin="round"/>
<path d="M570.005 320.365L578.721 311.65M570.005 354.917L587.592 337.33M586.503 373.126L587.592 372.037M570.005 331.883L587.592 314.14M570.005 366.589L587.592 348.847M1 34.7734L15.6298 20.1437M1 69.4803L50.3366 20.1437M1 104.187L37.7301 67.457M55.4726 49.5589L84.8878 20.1437M1 138.894L37.7301 102.008M90.1794 49.5589L119.595 20.1437M1 173.445L37.7301 136.715M124.886 49.5589L154.301 20.1437M1 208.152L37.7301 171.422M159.593 49.5589L189.008 20.1437M1 242.859L37.7301 205.973M194.144 49.5589L223.559 20.1437M1 277.41L9.09307 269.317M228.851 49.5589L258.266 20.1437M29.637 248.773L37.7301 240.68M1 312.117L9.09307 304.024M263.558 49.5589L292.973 20.1437M14.8516 298.265L37.7301 275.387M1 346.824L12.6727 334.995M298.109 49.5589L327.524 20.1437M29.637 318.187L37.7301 310.093M1 381.53L37.7301 344.645M332.816 49.5589L362.231 20.1437M1 416.082L37.7301 379.352M367.523 49.5589L396.938 20.1437M1 450.788L37.7301 414.058M402.23 49.5589L431.645 20.1437M1 485.495L37.7301 448.61M436.781 49.5589L466.196 20.1437M1 520.046L37.7301 483.316M471.488 49.5589L500.903 20.1437M33.6836 521.914L64.9664 490.631M506.194 49.5589L535.61 20.1437M68.3904 521.914L99.6732 490.631M540.746 49.5589L570.161 20.1437M184.806 405.654L217.334 373.126M103.097 521.914L134.38 490.631M575.452 49.5589L604.868 20.1437M203.327 421.684L214.221 410.946M222.626 402.386L252.041 373.126M137.648 521.914L169.087 490.631M610.159 49.5589L639.574 20.1437M184.806 474.912L214.221 445.497M257.177 402.386L286.592 373.126M172.355 521.914L214.221 480.204M644.866 49.5589L674.281 20.1437M291.884 402.386L321.299 373.126M207.062 521.914L214.221 514.91M679.417 49.5589L708.832 20.1437M326.59 402.386L349.469 379.663M714.124 49.5589L743.539 20.1437M748.831 49.5589L778.246 20.1437M783.382 49.5589L812.797 20.1437M473.2 394.604L494.677 373.126M818.089 49.5589L847.504 20.1437M499.813 402.386L529.229 373.126M844.236 58.1188L873.651 28.7036M534.52 402.386L563.935 373.126M844.236 92.8257L873.651 63.4105M558.177 413.436L587.592 384.021M844.236 127.377L873.651 97.9616M558.177 448.143L587.592 418.727M844.236 162.084L873.651 132.668M558.177 482.694L587.592 453.279M844.236 196.79L873.651 167.375M573.274 502.304L602.689 472.889M844.236 231.497L873.651 202.082M607.98 502.304L637.396 472.889M844.236 266.049L873.651 236.633M642.687 502.304L672.102 472.889M844.236 300.755L873.651 271.34M677.394 502.304L706.809 472.889M844.236 335.462L873.651 306.047M711.945 502.304L741.36 472.889M844.236 370.013L873.651 340.598M746.652 502.304L775.133 473.823L776.067 472.889M844.236 404.72L873.651 375.305M781.359 502.304L810.774 472.889M844.236 439.427L873.651 410.012M815.91 502.304L873.651 444.719M850.617 502.304L873.651 479.27M1 46.4461L27.1468 20.1437M1 80.9973L61.8537 20.1437M1 115.704L37.7301 78.9741M67.1453 49.5589L96.5605 20.1437M1 150.411L37.7301 113.681M101.696 49.5589L131.112 20.1437M1 184.962L37.7301 148.232M136.403 49.5589L165.819 20.1437M1 219.669L37.7301 182.939M171.11 49.5589L200.525 20.1437M1 254.376L9.09307 246.283M205.817 49.5589L235.077 20.1437M12.2058 243.17L37.7301 217.646M1 289.083L10.0269 279.9M240.368 49.5589L269.783 20.1437M29.637 260.29L37.7301 252.197M1 323.634L9.09307 315.541M275.075 49.5589L304.49 20.1437M26.3687 298.265L37.7301 286.904M1 358.341L24.1898 334.995M309.782 49.5589L339.197 20.1437M29.637 329.704L37.7301 321.611M1 393.047L37.7301 356.317M344.333 49.5589L373.748 20.1437M1 427.599L37.7301 390.869M379.04 49.5589L408.455 20.1437M1 462.305L37.7301 425.575M413.747 49.5589L443.162 20.1437M1 497.012L37.7301 460.282M448.453 49.5589L477.713 20.1437M10.6494 521.914L41.9323 490.631M483.005 49.5589L512.42 20.1437M45.3563 521.914L76.6391 490.631M517.711 49.5589L547.127 20.1437M184.806 382.464L194.144 373.126M79.9074 521.914L111.19 490.631M552.418 49.5589L581.833 20.1437M184.806 417.171L228.851 373.126M114.614 521.914L145.897 490.631M586.969 49.5589L616.385 20.1437M184.806 451.878L195.389 441.295M234.143 402.386L263.558 373.126M149.321 521.914L180.604 490.631M621.676 49.5589L651.091 20.1437M184.806 486.429L214.221 457.169M268.85 402.386L298.265 373.126M183.872 521.914L214.221 491.721M656.383 49.5589L685.798 20.1437M303.401 402.386L332.816 373.126M338.108 402.386L340.598 399.895M691.09 49.5589L720.35 20.1437M346.045 394.604L349.469 391.18M725.641 49.5589L755.056 20.1437M760.348 49.5589L789.763 20.1437M467.13 377.484L471.488 373.126M795.055 49.5589L824.47 20.1437M476.779 402.386L506.194 373.126M829.606 49.5589L859.021 20.1437M511.486 402.386L540.901 373.126M844.236 69.6359L873.651 40.2207M546.037 402.386L575.452 373.126M844.236 104.343L873.651 74.9275M558.177 424.953L587.592 395.538M844.236 139.05L873.651 109.634M558.177 459.66L587.592 430.244M844.236 173.601L873.651 144.186M558.177 494.366L587.592 464.951M844.236 208.308L873.651 178.892M584.946 502.304L614.361 472.889M844.236 243.014L873.651 213.599M619.497 502.304L648.913 472.889M844.236 277.566L873.651 248.15M654.204 502.304L683.619 472.889M844.236 312.272L873.651 282.857M688.911 502.304L718.326 472.889M844.236 346.979L873.651 317.564M723.618 502.304L753.033 472.889M844.236 381.686L873.651 352.271M758.169 502.304L787.584 472.889M844.236 416.237L873.651 386.822M792.876 502.304L822.291 472.889M844.236 450.944L873.651 421.529M827.583 502.304L873.651 456.236M862.134 502.304L873.651 490.787" stroke="#0B0504" stroke-opacity="0.3" stroke-width="0.48" stroke-linecap="round" stroke-linejoin="round"/>
<path d="M587.592 373.126H467.129" stroke="#0B0504" stroke-opacity="0.3" stroke-width="1.44" stroke-linecap="round" stroke-linejoin="round"/>
<path d="M570.005 77.7289L587.592 59.9864M570.005 112.28L587.592 94.6932M570.005 146.987L587.592 129.4M570.005 181.694L587.592 163.951M570.005 54.5391L574.985 49.5588M570.005 89.2459L587.592 71.5034M570.005 123.953L587.592 106.21M570.005 158.504L587.592 140.917M570.005 193.211L587.592 175.624M302.311 67.9238L320.054 50.3369M302.311 102.631L320.054 85.0438M302.311 137.337L320.054 119.595M302.311 172.044L320.054 154.302M315.384 193.678L320.054 189.009M302.311 79.5965L320.054 61.854M302.311 114.148L320.054 96.5608M302.311 148.855L320.054 131.268M302.311 183.561L320.054 165.819M302.311 345.267L320.054 327.68M309.315 373.126L320.054 362.231M302.311 322.233L312.739 311.805M302.311 356.784L320.054 339.197" stroke="#0B0504" stroke-opacity="0.3" stroke-width="0.48" stroke-linecap="round" stroke-linejoin="round"/>
<path d="M349.469 373.126H192.121M37.73 373.126V49.5588H844.236V472.889H587.592V373.126M349.469 402.386H214.221" stroke="#0B0504" stroke-opacity="0.3" stroke-width="1.44" stroke-linecap="round" stroke-linejoin="round"/>
<path d="M1 402.385V20.1434H873.651V502.304H558.177V402.385H467.13V373.126M349.469 373.126V402.385" stroke="#0B0504" stroke-opacity="0.3" stroke-width="1.44" stroke-linecap="round" stroke-linejoin="round"/>
<path d="M302.311 49.5588V193.678" stroke="#0B0504" stroke-opacity="0.3" stroke-width="0.12" stroke-linecap="round" stroke-linejoin="round"/>
<path d="M302.311 311.805V373.126M320.054 49.5588V193.678M320.054 311.805V373.126M570.005 49.5588V193.522M570.005 311.65V373.126M587.592 49.5588V193.522" stroke="#0B0504" stroke-opacity="0.3" stroke-width="1.44" stroke-linecap="round" stroke-linejoin="round"/>
<path d="M587.592 311.65V373.126" stroke="#0B0504" stroke-opacity="0.3" stroke-width="0.12" stroke-linecap="round" stroke-linejoin="round"/>
<path d="M302.311 193.678H320.054M302.311 311.806H320.054M587.592 193.522H570.005M587.592 311.65H570.005" stroke="#0B0504" stroke-opacity="0.3" stroke-width="1.44" stroke-linecap="round" stroke-linejoin="round"/>
<path d="M165.663 245.193V59.8309" stroke="#0B0504" stroke-opacity="0.3" stroke-width="0.48" stroke-linecap="round" stroke-linejoin="round"/>
<path d="M9.09326 243.792L9.71581 243.17M9.09326 245.504L11.2722 243.17M9.09326 247.061L12.9842 243.17M9.09326 248.773L14.5405 243.17M9.09326 250.329L16.2525 243.17M9.09326 252.041L17.9645 243.17M9.09326 253.753L13.1398 249.551M14.5405 248.306L19.5209 243.17M9.09326 255.309L12.9842 251.418M17.0307 247.372L21.2329 243.17M9.09326 257.021L12.6729 253.442M19.3652 246.594L22.7892 243.17M9.09326 258.578L12.3616 255.309M21.8554 245.815L24.5012 243.17M9.09326 260.29L12.206 257.177M24.3456 244.882L26.2132 243.17M9.09326 262.002L11.8947 259.045M26.8358 244.103L27.7696 243.17M9.09326 263.558L11.5834 261.068M29.3259 243.17H29.4816M9.09326 265.27L11.2722 262.935M9.09326 266.826L11.1165 264.803M9.09326 268.538L10.8053 266.826M9.09326 270.25L10.494 268.694M9.09326 271.807L10.3383 270.562M9.09326 273.519L10.0271 272.429M9.09326 275.075L9.71581 274.452M9.09326 276.787L9.56017 276.32M9.09326 278.499L9.2489 278.188" stroke="#0B0504" stroke-opacity="0.3" stroke-width="0.48" stroke-linecap="round" stroke-linejoin="round"/>
<path d="M9.09326 243.17H29.6372V279.9H9.09326V243.17Z" stroke="#0B0504" stroke-opacity="0.3" stroke-width="0.12" stroke-linecap="round" stroke-linejoin="round"/>
<path d="M29.6372 243.17L13.2954 248.617L9.09326 279.9M9.09326 298.265H29.6372V334.995H9.09326V298.265Z" stroke="#0B0504" stroke-opacity="0.3" stroke-width="0.12" stroke-linecap="round" stroke-linejoin="round"/>
<path d="M29.6372 298.265L13.2954 303.712L9.09326 334.995" stroke="#0B0504" stroke-opacity="0.3" stroke-width="0.12" stroke-linecap="round" stroke-linejoin="round"/>
<path d="M9.09326 298.888L9.71581 298.265M9.09326 300.6L11.2722 298.265M9.09326 302.156L12.9842 298.265M9.09326 303.868L14.5405 298.265M9.09326 305.58L16.2525 298.265M9.09326 307.137L17.9645 298.265M9.09326 308.849L13.1398 304.646M14.5405 303.401L19.5209 298.265M9.09326 310.405L12.9842 306.67M17.0307 302.623L21.2329 298.265M9.09326 312.117L12.6729 308.537M19.3652 301.689L22.7892 298.265M9.09326 313.829L12.3616 310.405M21.8554 300.911L24.5012 298.265M9.09326 315.385L12.206 312.273M24.3456 299.977L26.2132 298.265M9.09326 317.097L11.8947 314.296M26.8358 299.199L27.7696 298.265M9.09326 318.809L11.5834 316.163M29.3259 298.421L29.4816 298.265M9.09326 320.366L11.2722 318.031M9.09326 322.078L11.1165 320.054M9.09326 323.634L10.8053 321.922M9.09326 325.346L10.494 323.79M9.09326 327.058L10.3383 325.657M9.09326 328.614L10.0271 327.681M9.09326 330.326L9.71581 329.548M9.09326 331.883L9.56017 331.416M9.09326 333.595L9.2489 333.283" stroke="#0B0504" stroke-opacity="0.3" stroke-width="0.48" stroke-linecap="round" stroke-linejoin="round"/>
<path d="M165.663 148.076H292.039M165.663 177.491H292.039" stroke="#0B0504" stroke-opacity="0.3" stroke-width="0.48" stroke-linecap="round" stroke-linejoin="round"/>
<path d="M48.0024 52.5166V1.00109M165.663 52.5166V1.00109M40.6875 8.31598H172.978" stroke="#0B0504" stroke-opacity="0.3" stroke-width="0.6" stroke-linecap="round" stroke-linejoin="round"/>
<path d="M51.1146 5.82484L50.4921 5.35793L45.5117 11.4277L51.1146 5.82484ZM50.4921 5.35793L45.5117 11.4277L44.8892 10.8052L50.4921 5.35793Z" fill="#0B0504" fill-opacity="0.3"/>
<path d="M162.55 10.8052L163.173 11.4277L168.153 5.35793L162.55 10.8052ZM163.173 11.4277L168.153 5.35793L168.62 5.82484L163.173 11.4277Z" fill="#0B0504" fill-opacity="0.3"/>
<path d="M165.663 53.917V1.00076M292.039 52.5163V1.00076M158.348 8.31565H299.509" stroke="#0B0504" stroke-opacity="0.3" stroke-width="0.6" stroke-linecap="round" stroke-linejoin="round"/>
<path d="M168.62 5.82582L168.153 5.35891L163.172 11.4287L168.62 5.82582ZM168.153 5.35891L163.172 11.4287L162.55 10.8062L168.153 5.35891Z" fill="#0B0504" fill-opacity="0.3"/>
<path d="M289.083 10.8052L289.549 11.4277L294.53 5.35793L289.083 10.8052ZM289.549 11.4277L294.53 5.35793L295.152 5.82484L289.549 11.4277Z" fill="#0B0504" fill-opacity="0.3"/>
<path d="M723.618 177.492H904M753.033 59.831H904M896.685 184.807V52.5161" stroke="#0B0504" stroke-opacity="0.3" stroke-width="0.6" stroke-linecap="round" stroke-linejoin="round"/>
<path d="M894.195 174.379L893.573 175.002L899.798 179.982L894.195 174.379ZM893.573 175.002L899.798 179.982L899.176 180.604L893.573 175.002Z" fill="#0B0504" fill-opacity="0.3"/>
<path d="M899.176 62.9434L899.798 62.3208L893.573 57.3405L899.176 62.9434ZM899.798 62.3208L893.573 57.3405L894.195 56.8736L899.798 62.3208Z" fill="#0B0504" fill-opacity="0.3"/>
<path d="M753.033 177.492H904M723.618 344.957H904M896.685 170.177V352.271" stroke="#0B0504" stroke-opacity="0.3" stroke-width="0.6" stroke-linecap="round" stroke-linejoin="round"/>
<path d="M899.176 180.605L899.798 179.983L893.573 175.003L899.176 180.605ZM899.798 179.983L893.573 175.003L894.195 174.38L899.798 179.983Z" fill="#0B0504" fill-opacity="0.3"/>
<path d="M894.195 341.843L893.573 342.465L899.798 347.446L894.195 341.843ZM893.573 342.465L899.798 347.446L899.176 348.068L893.573 342.465Z" fill="#0B0504" fill-opacity="0.3"/>
<path d="M753.033 344.956H904M753.033 433.202H904M896.685 337.641V440.517" stroke="#0B0504" stroke-opacity="0.3" stroke-width="0.6" stroke-linecap="round" stroke-linejoin="round"/>
<path d="M899.175 348.069L899.797 347.447L893.572 342.466L899.175 348.069ZM899.797 347.447L893.572 342.466L894.194 341.844L899.797 347.447Z" fill="#0B0504" fill-opacity="0.3"/>
<path d="M894.195 430.089L893.573 430.712L899.798 435.692L894.195 430.089ZM893.573 430.712L899.798 435.692L899.176 436.314L893.573 430.712Z" fill="#0B0504" fill-opacity="0.3"/>
<path d="M841.278 433.202H904M841.278 462.617H904M896.685 425.887V469.932" stroke="#0B0504" stroke-opacity="0.3" stroke-width="0.6" stroke-linecap="round" stroke-linejoin="round"/>
<path d="M899.175 436.314L899.797 435.692L893.572 430.712L899.175 436.314ZM899.797 435.692L893.572 430.712L894.194 430.089L899.797 435.692Z" fill="#0B0504" fill-opacity="0.3"/>
<path d="M894.195 459.504L893.573 460.127L899.798 465.107L894.195 459.504ZM893.573 460.127L899.798 465.107L899.176 465.574L893.573 460.127Z" fill="#0B0504" fill-opacity="0.3"/>
<path d="M616.074 134.069L629.303 120.84M636.618 120.84L649.847 134.069M636.618 113.525L649.847 100.296M616.074 100.296L629.303 113.525M638.174 117.027C638.174 114.234 635.909 111.969 633.116 111.969C630.322 111.969 628.058 114.234 628.058 117.027C628.058 119.821 630.322 122.085 633.116 122.085C635.909 122.085 638.174 119.821 638.174 117.027Z" stroke="#0B0504" stroke-opacity="0.3" stroke-width="0.48" stroke-linecap="round" stroke-linejoin="round"/>
<path d="M657.006 117.027C657.006 103.833 646.31 93.1367 633.116 93.1367C619.922 93.1367 609.226 103.833 609.226 117.027C609.226 130.221 619.922 140.917 633.116 140.917C646.31 140.917 657.006 130.221 657.006 117.027Z" stroke="#0B0504" stroke-opacity="0.3" stroke-width="0.96" stroke-linecap="round" stroke-linejoin="round"/>
<path d="M597.864 177.492H716.303V344.956H597.864" stroke="#0B0504" stroke-opacity="0.3" stroke-width="0.48" stroke-linecap="round" stroke-linejoin="round"/>
<path d="M37.73 373.126V490.631H184.806V441.294M184.806 421.684V373.126" stroke="#0B0504" stroke-opacity="0.3" stroke-width="1.44" stroke-linecap="round" stroke-linejoin="round"/>
<path d="M47.8467 362.698V480.515H174.534V362.698" stroke="#0B0504" stroke-opacity="0.3" stroke-width="0.48" stroke-linecap="round" stroke-linejoin="round"/>
<path d="M1 373.126V521.914H214.221" stroke="#0B0504" stroke-opacity="0.3" stroke-width="0.12" stroke-linecap="round" stroke-linejoin="round"/>
<path d="M1 373.126V521.914H214.221V402.386" stroke="#0B0504" stroke-opacity="0.3" stroke-width="1.44" stroke-linecap="round" stroke-linejoin="round"/>
<path d="M164.262 418.571L162.239 416.237L154.146 415.614L150.255 419.817L151.189 422.618L157.881 423.396L164.262 421.684M164.262 453.901L162.239 451.411L154.146 450.788L150.255 454.99L151.189 457.792L157.881 458.57L164.262 457.014M140.139 472.577L139.983 469.776L142.784 463.083L150.255 462.772L157.881 468.686L159.126 472.577M104.965 472.577L104.809 469.776L107.611 463.083L114.926 462.772L122.707 468.686L123.952 472.577M97.1831 409.545L102.008 408.922L104.809 406.432V404.253L103.097 401.14L97.1831 401.763M97.1831 444.874L102.008 444.096L104.809 441.606V439.582L103.097 436.314L97.1831 437.092M164.262 408.922L161.772 406.432L164.262 402.697M164.262 444.096L161.772 441.606L164.262 437.87M164.262 446.275L161.772 444.874L160.371 448.298L162.861 449.387L164.262 448.92M164.262 411.101L161.772 409.545L160.371 413.124L162.861 414.214L164.262 413.747M131.89 454.99L134.069 450.01L139.983 448.298L146.053 450.01L147.765 454.99L145.586 459.659L139.983 461.683L134.38 459.971L132.201 454.99M131.89 419.817L134.069 414.836L139.983 413.124L146.053 414.836L147.765 419.817L145.586 424.33L139.983 426.509L134.38 424.797L132.201 419.817M97.1831 453.901L98.7395 450.01L104.809 448.298L110.723 450.01L112.591 454.99L110.412 459.659L104.809 461.683L99.2064 459.971L97.1831 455.302M97.1831 418.571L98.7395 414.836L104.809 413.124L110.723 414.836L112.591 419.817L110.412 424.33L104.809 426.509L99.2064 424.797L97.1831 420.128M142.94 390.246L139.983 391.335L136.403 390.246M107.766 390.246L104.809 391.335L101.23 390.246M129.867 472.577L138.271 471.488L138.738 472.577M97.1831 472.266L103.097 471.488L103.564 472.577M121.462 390.246L119.595 393.358L125.976 400.362H135.003L139.672 397.249L138.271 392.269L134.069 390.246M156.636 390.246L154.768 393.358L161.149 400.362H164.262M97.1831 470.865H99.8289L104.498 467.752L103.097 462.772L97.1831 459.659M164.262 470.865H161.149L154.768 463.862L157.259 459.659L164.262 459.037M97.1831 435.691H99.8289L104.498 432.423L103.097 427.598L97.1831 424.486M164.262 435.691H161.149L154.768 428.532L157.259 424.33L164.262 423.863M97.1831 400.362H99.8289L104.498 397.249L103.097 392.269L98.8951 390.246M130.178 419.817L126.91 416.237L118.817 415.614L114.926 419.817L116.015 422.618L122.707 423.396L129.711 421.529L130.178 419.817ZM130.178 454.99L126.91 451.411L118.817 450.788L114.926 454.99L116.015 457.792L122.707 458.57L129.711 456.702L130.178 454.99ZM140.294 406.743L139.983 399.428L142.784 392.736L150.255 392.269L157.881 398.339L160.838 407.054L156.947 413.435L148.387 414.214L140.294 406.743ZM140.294 441.917L139.983 434.602L142.784 427.91L150.255 427.598L157.881 433.513L160.838 442.384L156.947 448.609L148.387 449.387L140.294 441.917ZM105.121 406.743L104.809 399.428L107.611 392.736L114.926 392.269L122.707 398.339L125.509 407.054L121.618 413.435L113.214 414.214L105.121 406.743ZM105.121 441.917L104.809 434.602L107.611 427.91L114.926 427.598L122.707 433.513L125.509 442.384L121.618 448.609L113.214 449.387L105.121 441.917ZM139.983 406.432L137.182 408.922L130.178 410.011L126.598 406.432L129.4 402.23L138.271 401.14L139.983 404.253V406.432ZM139.983 441.606L137.182 444.096L130.178 445.185L126.598 441.606L129.4 437.403L138.271 436.314L139.983 439.582V441.606ZM127.688 414.214L125.198 413.124L126.598 409.545L131.89 412.813L127.688 414.214ZM127.688 449.387L125.198 448.298L126.598 444.874L131.89 447.987L127.688 449.387ZM122.085 424.33L119.595 428.532L125.976 435.691H135.003L139.672 432.423L138.271 427.598L130.8 423.707L122.085 424.33ZM122.085 459.659L119.595 463.862L125.976 470.865H135.003L139.672 467.752L138.271 462.772L130.8 458.881L122.085 459.659Z" stroke="#0B0504" stroke-opacity="0.3" stroke-width="0.48" stroke-linecap="round" stroke-linejoin="round"/>
<path d="M164.262 390.246H97.1831V472.577H164.262" stroke="#0B0504" stroke-opacity="0.3" stroke-width="1.08" stroke-linecap="round" stroke-linejoin="round"/>
<path d="M86.9887 426.82C84.453 426.82 82.3975 428.876 82.3975 431.412C82.3975 433.947 84.453 436.003 86.9887 436.003C89.5244 436.003 91.58 433.947 91.58 431.412C91.58 428.876 89.5244 426.82 86.9887 426.82Z" stroke="#0B0504" stroke-opacity="0.3" stroke-width="1.08" stroke-linecap="round" stroke-linejoin="round"/>
<path d="M164.262 390.246V472.578M174.534 382.931H77.5728V479.893H174.534V382.931Z" stroke="#0B0504" stroke-opacity="0.3" stroke-width="1.08" stroke-linecap="round" stroke-linejoin="round"/>
<path d="M292.039 362.699H174.534M174.534 421.685H214.221V441.295H174.534V421.685Z" stroke="#0B0504" stroke-opacity="0.3" stroke-width="0.48" stroke-linecap="round" stroke-linejoin="round"/>
<path d="M292.039 311.806H302.311M292.039 193.678H302.311M597.864 193.522H587.592M597.864 311.65H587.592" stroke="#0B0504" stroke-opacity="0.3" stroke-width="0.12" stroke-linecap="round" stroke-linejoin="round"/>
<path d="M240.679 430.867H283.012H286.903" stroke="#0B0504" stroke-opacity="0.3" stroke-width="0.48" stroke-linecap="round" stroke-linejoin="round"/>
<path d="M253.441 443.396C253.441 441.118 251.595 439.272 249.317 439.272C247.039 439.272 245.192 441.118 245.192 443.396C245.192 445.674 247.039 447.521 249.317 447.521C251.595 447.521 253.441 445.674 253.441 443.396Z" stroke="#0B0504" stroke-opacity="0.3" stroke-width="1.68" stroke-linecap="round" stroke-linejoin="round"/>
<path d="M253.441 463.473C253.441 461.195 251.595 459.349 249.317 459.349C247.039 459.349 245.192 461.195 245.192 463.473C245.192 465.751 247.039 467.598 249.317 467.598C251.595 467.598 253.441 465.751 253.441 463.473Z" stroke="#0B0504" stroke-opacity="0.3" stroke-width="1.68" stroke-linecap="round" stroke-linejoin="round"/>
<path d="M253.441 484.639C253.441 482.362 251.595 480.515 249.317 480.515C247.039 480.515 245.192 482.362 245.192 484.639C245.192 486.917 247.039 488.764 249.317 488.764C251.595 488.764 253.441 486.917 253.441 484.639Z" stroke="#0B0504" stroke-opacity="0.3" stroke-width="1.68" stroke-linecap="round" stroke-linejoin="round"/>
<path d="M58.8962 352.193C58.8962 349.915 57.0496 348.069 54.7718 348.069C52.494 348.069 50.6475 349.915 50.6475 352.193C50.6475 354.471 52.494 356.317 54.7718 356.317C57.0496 356.317 58.8962 354.471 58.8962 352.193ZM288.926 80.9195C288.926 78.6417 287.08 76.7952 284.802 76.7952C282.524 76.7952 280.677 78.6417 280.677 80.9195C280.677 83.1973 282.524 85.0439 284.802 85.0439C287.08 85.0439 288.926 83.1973 288.926 80.9195Z" stroke="#0B0504" stroke-opacity="0.3" stroke-width="1.68" stroke-linecap="round" stroke-linejoin="round"/>
<path d="M278.498 67.2233C278.498 64.9455 276.652 63.0989 274.374 63.0989C272.096 63.0989 270.25 64.9455 270.25 67.2233C270.25 69.5011 272.096 71.3477 274.374 71.3477C276.652 71.3477 278.498 69.5011 278.498 67.2233Z" stroke="#0B0504" stroke-opacity="0.3" stroke-width="1.68" stroke-linecap="round" stroke-linejoin="round"/>
<path d="M289.86 67.535C289.86 65.2572 288.013 63.4106 285.736 63.4106C283.458 63.4106 281.611 65.2572 281.611 67.535C281.611 69.8128 283.458 71.6593 285.736 71.6593C288.013 71.6593 289.86 69.8128 289.86 67.535ZM609.225 68.3131C609.225 66.0353 607.379 64.1888 605.101 64.1888C602.823 64.1888 600.976 66.0353 600.976 68.3131C600.976 70.591 602.823 72.4375 605.101 72.4375C607.379 72.4375 609.225 70.591 609.225 68.3131Z" stroke="#0B0504" stroke-opacity="0.3" stroke-width="1.68" stroke-linecap="round" stroke-linejoin="round"/>
<path d="M831.318 455.224C831.318 452.946 829.471 451.1 827.193 451.1C824.916 451.1 823.069 452.946 823.069 455.224C823.069 457.502 824.916 459.349 827.193 459.349C829.471 459.349 831.318 457.502 831.318 455.224ZM621.209 68.3133C621.209 66.0355 619.363 64.1889 617.085 64.1889C614.807 64.1889 612.96 66.0355 612.96 68.3133C612.96 70.5911 614.807 72.4376 617.085 72.4376C619.363 72.4376 621.209 70.5911 621.209 68.3133Z" stroke="#0B0504" stroke-opacity="0.3" stroke-width="1.68" stroke-linecap="round" stroke-linejoin="round"/>
<path d="M731.711 261.146C731.711 258.868 729.865 257.022 727.587 257.022C725.309 257.022 723.462 258.868 723.462 261.146C723.462 263.424 725.309 265.271 727.587 265.271C729.865 265.271 731.711 263.424 731.711 261.146Z" stroke="#0B0504" stroke-opacity="0.3" stroke-width="1.68" stroke-linecap="round" stroke-linejoin="round"/>
</g>
</svg>
