<svg width="215" height="254" viewBox="0 0 215 254" fill="none" xmlns="http://www.w3.org/2000/svg">
<path d="M157.866 49.6739L157.865 49.6734C142.43 41.2671 123.774 37.5583 109.929 39.962C106.222 40.6336 101.587 42.2964 97.0901 44.4913C92.5931 46.6861 88.305 49.3784 85.2747 52.0668L85.2677 52.0731L85.2605 52.0792C82.6548 54.3045 78.6912 58.9643 74.9983 63.8999C71.9465 67.9787 69.1494 72.1524 67.5007 75.1822C73.5356 68.7089 81.1111 62.1541 86.3238 59.0079L86.3244 59.0075C106.631 46.7705 130.958 47.2971 157.005 60.2949C161.202 62.3814 166.456 65.2564 170.544 67.6237C172.587 68.8068 174.351 69.8705 175.551 70.6501C176.144 71.0355 176.628 71.3701 176.942 71.6236C177.075 71.7314 177.269 71.8953 177.401 72.084C177.44 72.139 177.497 72.2285 177.541 72.346C177.583 72.4574 177.642 72.6702 177.589 72.9309C177.448 73.6153 176.817 73.7369 176.678 73.7535C176.48 73.7772 176.305 73.7396 176.247 73.7273L176.246 73.7269C176.156 73.7077 176.065 73.6815 175.979 73.6547C175.805 73.6003 175.593 73.523 175.356 73.4306C174.878 73.2447 174.241 72.9757 173.496 72.6481C172.002 71.9914 170.032 71.0822 167.938 70.0874L167.938 70.0874L167.926 70.0815C143.361 58.0069 120.245 56.8272 98.6778 66.4513L98.6778 66.4514L98.6723 66.4538C95.4752 67.8574 91.7572 69.7804 88.7212 71.528C87.2032 72.4018 85.8681 73.2246 84.8605 73.9103C84.3559 74.2536 83.9446 74.555 83.6378 74.8055C83.5417 74.8839 83.4618 74.9526 83.3961 75.0117C83.5438 75.2974 83.7931 75.6988 84.1464 76.2082C84.8864 77.275 86.0027 78.7023 87.3457 80.3048C90.0296 83.5071 93.5615 87.3409 96.6641 90.2767L96.6705 90.2828C98.8911 92.4218 103.891 96.0908 108.151 98.6951L108.154 98.6975C111.318 100.652 113.379 101.815 115.3 102.641C117.207 103.46 119.007 103.96 121.664 104.551C133.266 107.021 143.451 105.002 164.681 95.5096C178.256 89.3914 187.79 86.3167 194.98 85.7014C196.546 85.5591 197.617 85.4105 198.302 85.1954C198.64 85.0893 198.804 84.99 198.875 84.9291C198.894 84.9135 198.903 84.9029 198.907 84.898C198.907 84.897 198.907 84.8957 198.907 84.8941C198.911 84.8619 198.914 84.7326 198.801 84.4516C198.691 84.1757 198.497 83.819 198.193 83.3603C197.583 82.4414 196.623 81.2452 195.285 79.6594C185.021 67.6858 172.491 57.6187 157.866 49.6739Z" stroke="#6B7537" stroke-width="2"/>
<path d="M76.8686 204.28L76.8676 204.28C71.818 202.525 66.0702 202.358 62.1222 203.737C61.0981 204.104 59.8186 204.812 58.5833 205.691C57.3479 206.57 56.2212 207.573 55.4794 208.489L55.4735 208.496L55.4674 208.503C55.0644 208.982 54.5333 209.792 53.9739 210.756C54.395 210.315 54.7993 209.925 55.1712 209.607L55.1717 209.607C61.003 204.629 68.756 203.56 77.5714 206.273C78.9826 206.705 80.7554 207.325 82.1398 207.847C82.8306 208.108 83.4387 208.349 83.8625 208.534C84.0669 208.623 84.2604 208.713 84.4028 208.794L84.4058 208.796C84.4539 208.823 84.5967 208.904 84.7195 209.029C84.7575 209.068 84.8215 209.139 84.88 209.24C84.9351 209.335 85.0265 209.529 85.0164 209.788C84.9897 210.475 84.3977 210.689 84.2828 210.722C84.1108 210.772 83.9597 210.764 83.9273 210.763L83.924 210.762C83.866 210.76 83.8133 210.753 83.7751 210.748C83.6967 210.737 83.6103 210.72 83.5268 210.703C83.3563 210.667 83.1362 210.614 82.8875 210.551C82.3867 210.423 81.7291 210.242 81.0325 210.042L81.0325 210.042L81.0197 210.039C73.0312 207.632 66.0972 208.443 60.1677 212.361L60.1677 212.361L60.1626 212.365C59.2777 212.942 58.255 213.706 57.4279 214.383C57.0552 214.689 56.7312 214.97 56.4824 215.202C56.7341 215.448 57.0698 215.752 57.4641 216.09C58.4344 216.923 59.6918 217.902 60.7669 218.628L60.7669 218.628L60.7742 218.633C61.5061 219.136 63.1754 219.986 64.5922 220.559L64.5965 220.561C65.6619 220.998 66.314 221.233 66.8927 221.376C67.4575 221.515 67.9851 221.574 68.812 221.619C72.2687 221.776 75.1358 220.742 81.135 216.771C84.9993 214.197 87.848 212.713 90.1412 212.128C90.2182 212.108 90.2901 212.089 90.3575 212.07C90.1744 211.901 89.9428 211.698 89.6546 211.452C85.9641 208.358 81.6829 205.948 76.8686 204.28ZM83.4176 210.535C83.4263 210.54 83.4313 210.543 83.4315 210.543C83.4317 210.543 83.4274 210.54 83.4176 210.535ZM56.0763 214.763C56.0762 214.763 56.0771 214.765 56.0791 214.768C56.0773 214.765 56.0763 214.763 56.0763 214.763ZM91.0218 211.842C91.0218 211.842 91.0205 211.843 91.0181 211.844C91.0207 211.843 91.0219 211.842 91.0218 211.842ZM90.8334 212.576C90.8348 212.579 90.8356 212.58 90.8357 212.58C90.8357 212.58 90.835 212.579 90.8334 212.576Z" stroke="#6B7537" stroke-width="2"/>
<path d="M72.8117 126.37L72.8114 126.369C70.3175 118.614 65.2461 111.436 59.8903 107.857C58.4688 106.922 56.4076 106.007 54.2011 105.308C51.9946 104.609 49.7181 104.149 47.8831 104.084L47.8737 104.084L47.8643 104.084C46.3234 104 43.5213 104.291 40.6768 104.772C40.1741 104.857 39.6755 104.947 39.1874 105.041C41.839 105.102 44.3519 105.337 46.129 105.73L46.1297 105.73C57.1997 108.19 65.4056 116.397 70.0908 129.352C70.8458 131.431 71.7037 134.117 72.3283 136.25C72.6402 137.315 72.8982 138.256 73.0566 138.922C73.1339 139.247 73.1958 139.54 73.2242 139.756C73.2344 139.834 73.2583 140.02 73.2298 140.209C73.2212 140.266 73.2026 140.362 73.1563 140.471C73.1125 140.574 73.012 140.765 72.7972 140.914C72.2308 141.307 71.7007 140.963 71.6011 140.888C71.4542 140.778 71.3659 140.648 71.3443 140.616L71.3423 140.613C71.3052 140.559 71.2736 140.505 71.2493 140.461C71.1995 140.371 71.1466 140.264 71.0939 140.151C70.9869 139.923 70.8544 139.618 70.7062 139.264C70.4086 138.551 70.0319 137.6 69.6415 136.583L69.6415 136.583L69.6368 136.571C65.2465 124.653 57.8838 116.914 47.6239 113.27L47.6239 113.27L47.6182 113.268C46.1006 112.719 44.2357 112.175 42.6551 111.79C41.8649 111.598 41.1596 111.449 40.6136 111.359C40.486 111.338 40.37 111.32 40.2658 111.307C40.2573 111.356 40.2486 111.409 40.2397 111.466C40.1496 112.044 40.0684 112.871 40.0068 113.842C39.8837 115.781 39.8439 118.203 39.9468 120.178L39.9468 120.178L39.9472 120.187C40.0072 121.577 40.5081 124.397 41.1074 126.64L41.1085 126.644C41.5496 128.327 41.8653 129.356 42.234 130.219C42.597 131.068 43.025 131.787 43.7279 132.835C46.7689 137.278 50.7425 139.838 60.9898 143.469C67.5852 145.783 71.887 147.845 74.6007 150.019C75.0235 150.354 75.3345 150.584 75.5663 150.73C75.5755 150.686 75.5847 150.638 75.594 150.586C75.6781 150.111 75.7374 149.424 75.7962 148.453C76.1785 141.138 75.1888 133.736 72.8117 126.37ZM71.244 140.04C71.2443 140.048 71.2447 140.052 71.2448 140.052C71.2449 140.052 71.2448 140.049 71.244 140.04ZM75.9102 150.909C75.9101 150.908 75.9075 150.908 75.9026 150.906C75.9079 150.908 75.9103 150.909 75.9102 150.909ZM75.4577 151.093C75.4567 151.094 75.4562 151.095 75.4561 151.095C75.4561 151.096 75.4566 151.095 75.4577 151.093Z" stroke="#6B7537" stroke-width="2"/>
</svg>
