<svg width="976" height="857" viewBox="0 0 976 857" fill="none" xmlns="http://www.w3.org/2000/svg">
<path d="M622.697 151.94L622.696 151.939C607.261 143.533 588.605 139.824 574.76 142.228C571.053 142.9 566.418 144.563 561.922 146.757C557.425 148.952 553.137 151.645 550.106 154.333L550.099 154.339L550.092 154.345C547.486 156.571 543.523 161.23 539.83 166.166C536.778 170.245 533.981 174.418 532.332 177.448C538.367 170.975 545.943 164.42 551.155 161.274L551.156 161.274C571.462 149.037 595.79 149.563 621.837 162.561C626.033 164.648 631.288 167.522 635.375 169.89C637.418 171.073 639.182 172.137 640.382 172.916C640.975 173.302 641.46 173.636 641.774 173.89C641.907 173.997 642.101 174.161 642.233 174.35C642.271 174.405 642.328 174.495 642.372 174.612C642.414 174.724 642.474 174.936 642.42 175.197C642.279 175.881 641.649 176.003 641.51 176.02C641.312 176.043 641.137 176.006 641.079 175.993L641.077 175.993C640.988 175.974 640.896 175.948 640.81 175.921C640.637 175.866 640.425 175.789 640.187 175.697C639.709 175.511 639.073 175.242 638.327 174.914C636.834 174.258 634.864 173.348 632.77 172.353L632.77 172.354L632.758 172.348C608.193 160.273 585.077 159.093 563.509 168.717L563.509 168.717L563.504 168.72C560.307 170.123 556.589 172.047 553.553 173.794C552.035 174.668 550.7 175.491 549.692 176.176C549.187 176.52 548.776 176.821 548.469 177.072C548.373 177.15 548.293 177.219 548.228 177.278C548.375 177.563 548.625 177.965 548.978 178.474C549.718 179.541 550.834 180.968 552.177 182.571C554.861 185.773 558.393 189.607 561.496 192.543L561.496 192.543L561.502 192.549C563.723 194.688 568.722 198.357 572.982 200.961L572.986 200.964C576.149 202.918 578.211 204.081 580.131 204.907C582.038 205.726 583.838 206.226 586.495 206.817C598.097 209.287 608.282 207.269 629.512 197.776C643.088 191.658 652.621 188.583 659.811 187.967C661.377 187.825 662.449 187.677 663.133 187.462C663.471 187.355 663.636 187.256 663.707 187.195C663.725 187.18 663.734 187.169 663.738 187.164C663.738 187.163 663.738 187.162 663.739 187.16C663.743 187.128 663.745 186.999 663.633 186.718C663.523 186.442 663.328 186.085 663.024 185.626C662.415 184.707 661.454 183.511 660.117 181.925C649.852 169.952 637.322 159.885 622.697 151.94Z" stroke="#6B7537" stroke-width="2"/>
<path d="M547.201 315.124L547.201 315.123C545.604 310.022 542.315 305.305 538.856 302.954C537.952 302.35 536.62 301.744 535.179 301.275C533.737 300.806 532.261 300.498 531.083 300.447L531.074 300.447L531.064 300.447C530.44 300.408 529.472 300.464 528.365 300.588C528.971 300.664 529.524 300.757 530.001 300.866L530.002 300.866C537.473 302.587 542.949 308.178 546.019 316.875C546.513 318.266 547.07 320.06 547.475 321.483C547.677 322.193 547.845 322.826 547.949 323.276C547.999 323.494 548.042 323.703 548.062 323.865L548.062 323.868C548.069 323.923 548.089 324.086 548.062 324.259C548.053 324.313 548.034 324.407 547.988 324.514C547.944 324.615 547.843 324.803 547.629 324.95C547.061 325.337 546.537 324.989 546.442 324.917C546.299 324.808 546.215 324.682 546.197 324.655L546.196 324.653C546.163 324.604 546.137 324.558 546.119 324.524C546.081 324.455 546.042 324.375 546.007 324.298C545.934 324.14 545.846 323.931 545.748 323.694C545.553 323.215 545.307 322.579 545.052 321.901L545.052 321.901L545.048 321.888C542.224 314.038 537.443 308.95 530.764 306.52L530.764 306.52L530.758 306.518C529.768 306.151 528.545 305.784 527.508 305.523C527.041 305.406 526.622 305.313 526.288 305.251C526.24 305.6 526.195 306.051 526.158 306.569C526.068 307.844 526.029 309.438 526.087 310.733L526.087 310.733L526.087 310.742C526.119 311.63 526.43 313.477 526.813 314.956L526.815 314.961C527.098 316.077 527.297 316.741 527.527 317.291C527.752 317.827 528.019 318.286 528.475 318.977C530.407 321.848 532.945 323.536 539.707 325.99C544.077 327.562 546.965 328.967 548.801 330.46C548.863 330.51 548.921 330.557 548.976 330.6C549.003 330.352 549.028 330.045 549.054 329.667C549.342 324.859 548.729 319.985 547.201 315.124ZM546.077 324.11C546.078 324.12 546.078 324.126 546.079 324.126C546.079 324.126 546.078 324.121 546.077 324.11ZM526.398 304.664C526.398 304.664 526.397 304.665 526.396 304.668C526.397 304.665 526.398 304.664 526.398 304.664ZM549.555 330.997C549.555 330.997 549.554 330.997 549.551 330.996C549.554 330.997 549.555 330.997 549.555 330.997ZM548.853 331.283C548.852 331.286 548.851 331.287 548.851 331.287C548.851 331.287 548.852 331.286 548.853 331.283Z" stroke="#6B7537" stroke-width="2"/>
<path d="M467.888 574.107L467.889 574.108C471.58 576.989 474.585 580.357 476.874 584.144C477.016 584.384 477.134 584.589 477.231 584.763C477.211 584.762 477.191 584.76 477.17 584.759C477.17 584.759 477.169 584.759 477.168 584.759L477.093 585.756C475.084 585.595 472.285 586.003 468.167 587.091L467.888 574.107ZM467.888 574.107C464.022 571.082 459.081 569.233 455.252 569.258C454.26 569.272 452.942 569.507 451.608 569.903C450.274 570.299 449.001 570.835 448.09 571.407L448.082 571.412L448.074 571.417C447.692 571.646 447.182 572.029 446.608 572.505C446.893 572.369 447.164 572.249 447.417 572.149L447.417 572.149C454.013 569.537 461.115 570.925 468.003 575.927C469.106 576.725 470.467 577.794 471.519 578.663C472.043 579.096 472.502 579.488 472.818 579.777C472.97 579.916 473.114 580.055 473.217 580.171L473.22 580.173C473.254 580.212 473.361 580.332 473.435 580.488C473.458 580.537 473.496 580.624 473.518 580.738C473.54 580.846 473.564 581.058 473.47 581.301C473.223 581.941 472.594 581.952 472.475 581.946C472.297 581.938 472.157 581.882 472.128 581.87C472.127 581.87 472.126 581.869 472.125 581.869C472.072 581.848 472.026 581.826 471.993 581.809C471.926 581.775 471.854 581.734 471.785 581.693C471.646 581.611 471.469 581.498 471.271 581.368C470.872 581.107 470.352 580.753 469.804 580.372L469.804 580.372L469.793 580.364C463.566 575.898 457.306 574.547 450.999 576.187L450.999 576.188L450.993 576.189C450.053 576.427 448.937 576.787 448.017 577.131C447.638 577.272 447.302 577.407 447.03 577.526C447.171 577.801 447.358 578.137 447.58 578.514C448.177 579.526 448.979 580.752 449.697 581.701L449.697 581.701L449.702 581.709C450.185 582.359 451.382 583.592 452.443 584.512L452.447 584.515C453.245 585.213 453.739 585.609 454.196 585.902C454.64 586.188 455.077 586.394 455.782 586.679C458.723 587.836 461.508 587.795 467.914 586.124L467.888 574.107ZM471.72 581.497C471.727 581.505 471.73 581.509 471.731 581.509C471.731 581.509 471.728 581.506 471.721 581.498C471.721 581.498 471.72 581.497 471.72 581.497ZM446.775 576.964C446.775 576.964 446.775 576.965 446.776 576.969C446.775 576.965 446.775 576.964 446.775 576.964ZM478 584.773C478 584.773 477.998 584.774 477.995 584.775C477.998 584.774 478 584.773 478 584.773Z" stroke="#6B7537" stroke-width="2"/>
<path d="M537.644 228.637L537.643 228.636C535.15 220.881 530.078 213.703 524.722 210.123C523.301 209.189 521.24 208.274 519.033 207.574C516.827 206.875 514.55 206.416 512.715 206.351L512.706 206.351L512.696 206.35C511.155 206.267 508.353 206.558 505.509 207.039C505.006 207.124 504.508 207.214 504.019 207.308C506.671 207.368 509.184 207.603 510.961 207.997L510.962 207.997C522.032 210.456 530.238 218.664 534.923 231.619C535.678 233.697 536.536 236.383 537.16 238.516C537.472 239.581 537.73 240.523 537.889 241.188C537.966 241.513 538.028 241.806 538.056 242.023C538.066 242.101 538.09 242.287 538.062 242.476C538.053 242.532 538.035 242.628 537.988 242.738C537.944 242.841 537.844 243.032 537.629 243.181C537.063 243.574 536.533 243.229 536.433 243.155C536.286 243.045 536.198 242.915 536.176 242.883L536.174 242.88C536.137 242.826 536.106 242.771 536.081 242.727C536.031 242.637 535.979 242.53 535.926 242.418C535.819 242.19 535.686 241.885 535.538 241.53C535.241 240.818 534.864 239.867 534.474 238.85L534.473 238.85L534.469 238.837C530.078 226.92 522.716 219.18 512.456 215.536L512.456 215.537L512.45 215.534C510.933 214.985 509.068 214.441 507.487 214.057C506.697 213.865 505.992 213.715 505.446 213.625C505.318 213.604 505.202 213.587 505.098 213.573C505.089 213.623 505.081 213.676 505.072 213.732C504.982 214.311 504.9 215.138 504.839 216.109C504.716 218.048 504.676 220.47 504.779 222.445L504.779 222.445L504.779 222.454C504.839 223.843 505.34 226.663 505.939 228.906L505.941 228.911C506.382 230.593 506.697 231.622 507.066 232.485C507.429 233.335 507.857 234.054 508.56 235.102C511.601 239.545 515.575 242.105 525.822 245.735C532.417 248.05 536.719 250.112 539.433 252.286C539.856 252.621 540.166 252.85 540.398 252.996C540.408 252.953 540.417 252.905 540.426 252.853C540.51 252.378 540.569 251.69 540.628 250.719C541.011 243.405 540.021 236.002 537.644 228.637ZM536.076 242.307C536.076 242.315 536.077 242.319 536.077 242.319C536.077 242.319 536.077 242.315 536.076 242.307ZM540.742 253.175C540.742 253.175 540.74 253.174 540.735 253.173C540.74 253.175 540.742 253.175 540.742 253.175ZM540.29 253.359C540.289 253.361 540.288 253.362 540.288 253.362C540.288 253.362 540.289 253.361 540.29 253.359Z" stroke="#6B7537" stroke-width="2"/>
<path d="M57.119 504.606L57.1181 504.606C50.4321 509.26 45.052 516.21 43.1962 522.378C42.7185 524.011 42.4464 526.25 42.4233 528.564C42.4002 530.879 42.6271 533.19 43.102 534.964L43.1045 534.973L43.1067 534.982C43.4777 536.48 44.5761 539.074 45.8682 541.654C46.0965 542.109 46.3285 542.56 46.5609 542.999C45.8433 540.446 45.3327 537.974 45.189 536.16L45.1889 536.159C44.3018 524.854 49.7489 514.606 60.7666 506.335C62.533 505.005 64.8504 503.399 66.7072 502.177C67.6345 501.568 68.4593 501.045 69.0494 500.699C69.3374 500.53 69.5994 500.385 69.7983 500.295C69.8702 500.262 70.0408 500.185 70.2298 500.157C70.2864 500.149 70.3837 500.138 70.5018 500.151C70.6135 500.162 70.8251 500.202 71.0305 500.364C71.5722 500.791 71.3977 501.399 71.3556 501.516C71.2935 501.688 71.1949 501.811 71.1707 501.841L71.1685 501.844C71.1274 501.895 71.0847 501.941 71.0498 501.977C70.9785 502.051 70.8914 502.133 70.7995 502.216C70.6128 502.385 70.3597 502.601 70.0639 502.847C69.4697 503.34 68.6709 503.978 67.8124 504.649L67.8124 504.649L67.8017 504.657C57.6906 512.342 52.4436 521.647 51.9613 532.524L51.9613 532.524L51.961 532.53C51.8798 534.142 51.9054 536.085 52.0002 537.709C52.0475 538.52 52.1114 539.238 52.185 539.787C52.2022 539.915 52.2196 540.031 52.2369 540.135C52.2866 540.128 52.3398 540.121 52.3966 540.113C52.9761 540.03 53.791 539.866 54.7375 539.641C56.6272 539.191 58.9551 538.52 60.8138 537.844L60.8138 537.844L60.8221 537.841C62.1333 537.377 64.6834 536.073 66.6528 534.844L66.6568 534.841C68.1364 533.927 69.0282 533.324 69.7453 532.719C70.4514 532.124 71.014 531.504 71.8104 530.525C75.1691 526.317 76.4544 521.769 76.9278 510.908C77.2116 503.923 77.9244 499.207 79.2095 495.976C79.4063 495.473 79.5345 495.109 79.6064 494.844C79.562 494.848 79.5136 494.854 79.4608 494.86C78.9822 494.918 78.3074 495.063 77.3618 495.291C70.2554 497.065 63.4663 500.178 57.119 504.606ZM70.6494 502.105C70.6566 502.103 70.6604 502.101 70.6605 502.101C70.6606 502.101 70.657 502.102 70.6494 502.105ZM79.6767 494.463C79.6766 494.463 79.6766 494.466 79.6769 494.471C79.677 494.466 79.6768 494.463 79.6767 494.463ZM79.9852 494.842C79.9871 494.843 79.9881 494.843 79.9882 494.843C79.9884 494.843 79.9874 494.843 79.9852 494.842Z" stroke="#6B7537" stroke-width="2"/>
<path d="M767.024 803.617L767.023 803.617C759.018 805.129 751.267 809.271 747.05 814.141C745.947 815.436 744.783 817.368 743.815 819.47C742.847 821.573 742.109 823.775 741.817 825.588L741.816 825.597L741.814 825.606C741.54 827.125 741.481 829.942 741.606 832.824C741.628 833.333 741.655 833.839 741.687 834.335C742.077 831.711 742.622 829.247 743.233 827.532L743.233 827.532C747.047 816.852 756.209 809.728 769.645 806.687C771.801 806.195 774.573 805.677 776.767 805.322C777.862 805.145 778.828 805.006 779.509 804.931C779.841 804.895 780.139 804.87 780.357 804.868C780.436 804.868 780.624 804.867 780.808 804.919C780.863 804.934 780.956 804.965 781.058 805.024C781.156 805.081 781.332 805.204 781.453 805.436C781.773 806.046 781.365 806.53 781.279 806.619C781.152 806.751 781.012 806.823 780.978 806.84L780.974 806.842C780.916 806.872 780.858 806.897 780.811 806.915C780.716 806.954 780.603 806.993 780.485 807.031C780.246 807.109 779.926 807.203 779.556 807.306C778.812 807.513 777.822 807.769 776.764 808.03L776.764 808.03L776.751 808.033C764.382 810.911 755.788 817.256 750.899 826.985L750.9 826.985L750.897 826.99C750.163 828.428 749.392 830.211 748.815 831.731C748.526 832.492 748.29 833.173 748.133 833.704C748.097 833.828 748.065 833.941 748.038 834.042C748.086 834.057 748.138 834.072 748.193 834.088C748.756 834.249 749.567 834.432 750.523 834.614C752.431 834.977 754.829 835.317 756.802 835.46L756.802 835.46L756.811 835.46C758.197 835.573 761.058 835.426 763.358 835.11L763.362 835.109C765.086 834.88 766.147 834.695 767.048 834.436C767.936 834.181 768.703 833.846 769.83 833.278C774.616 830.812 777.649 827.186 782.523 817.469C785.638 811.212 788.218 807.199 790.712 804.776C791.097 804.398 791.363 804.118 791.537 803.906C791.495 803.891 791.448 803.876 791.398 803.86C790.937 803.718 790.262 803.574 789.306 803.395C782.095 802.108 774.627 802.172 767.024 803.617ZM780.394 806.869C780.401 806.869 780.405 806.869 780.406 806.869C780.406 806.869 780.402 806.869 780.394 806.869ZM791.757 803.587C791.757 803.587 791.756 803.589 791.754 803.594C791.756 803.589 791.757 803.587 791.757 803.587ZM791.883 804.059C791.885 804.06 791.886 804.06 791.886 804.061C791.886 804.061 791.885 804.06 791.883 804.059Z" stroke="#6B7537" stroke-width="2"/>
</svg>
