<svg width="215" height="254" viewBox="0 0 215 254" fill="none" xmlns="http://www.w3.org/2000/svg">
<path d="M56.8207 49.6319L56.8216 49.6314C72.257 41.2251 90.9123 37.5163 104.758 39.92C108.465 40.5916 113.099 42.2544 117.596 44.4493C122.093 46.6441 126.382 49.3364 129.412 52.0248L129.419 52.0311L129.426 52.0372C132.032 54.2625 135.995 58.9223 139.688 63.8579C142.74 67.9367 145.537 72.1104 147.186 75.1402C141.151 68.667 133.575 62.1121 128.363 58.9659L128.362 58.9655C108.056 46.7285 83.7285 47.2552 57.6813 60.2529C53.4847 62.3394 48.2302 65.2144 44.1427 67.5817C42.1 68.7648 40.3358 69.8285 39.1357 70.6081C38.5426 70.9935 38.0581 71.3281 37.7445 71.5816C37.6112 71.6894 37.4173 71.8533 37.2852 72.042C37.2467 72.097 37.1899 72.1865 37.1456 72.3041C37.1037 72.4155 37.0443 72.6282 37.098 72.8889C37.2389 73.5733 37.8691 73.6949 38.0082 73.7115C38.2066 73.7352 38.3816 73.6976 38.4391 73.6853L38.4407 73.6849C38.53 73.6657 38.622 73.6395 38.7077 73.6127C38.8811 73.5583 39.0934 73.481 39.3307 73.3887C39.8087 73.2027 40.4452 72.9337 41.1906 72.6061C42.6845 71.9494 44.654 71.0402 46.7484 70.0454L46.7485 70.0454L46.7605 70.0395C71.3252 57.9649 94.4415 56.7852 116.009 66.4094L116.009 66.4094L116.014 66.4118C119.211 67.8154 122.929 69.7384 125.965 71.486C127.483 72.3598 128.818 73.1826 129.826 73.8683C130.331 74.2116 130.742 74.513 131.049 74.7635C131.145 74.8419 131.225 74.9106 131.29 74.9697C131.143 75.2554 130.893 75.6568 130.54 76.1662C129.8 77.2331 128.684 78.6603 127.341 80.2628C124.657 83.4651 121.125 87.2989 118.022 90.2347L118.016 90.2408C115.795 92.3798 110.796 96.0488 106.536 98.6531L106.532 98.6555C103.369 100.61 101.307 101.773 99.387 102.599C97.4798 103.418 95.6799 103.918 93.0229 104.509C81.4206 106.979 71.2356 104.96 50.0059 95.4676C36.4301 89.3494 26.8969 86.2748 19.707 85.6594C18.1407 85.5171 17.0695 85.3685 16.3847 85.1534C16.0466 85.0473 15.8823 84.9481 15.8111 84.8871C15.7929 84.8715 15.7838 84.861 15.78 84.856C15.7798 84.855 15.7796 84.8537 15.7794 84.8521C15.7753 84.8199 15.7729 84.6906 15.8852 84.4096C15.9955 84.1337 16.1897 83.777 16.4939 83.3183C17.1033 82.3994 18.0639 81.2032 19.4011 79.6174C29.6659 67.6438 42.1959 57.5767 56.8207 49.6319Z" stroke="#6B7537" stroke-width="2"/>
<path d="M137.818 204.239L137.819 204.239C142.869 202.484 148.617 202.317 152.564 203.696C153.589 204.063 154.868 204.772 156.103 205.65C157.339 206.529 158.465 207.532 159.207 208.448L159.213 208.455L159.219 208.462C159.622 208.941 160.153 209.751 160.713 210.715C160.291 210.274 159.887 209.884 159.515 209.566L159.515 209.566C153.683 204.588 145.93 203.519 137.115 206.232C135.704 206.664 133.931 207.284 132.547 207.806C131.856 208.067 131.248 208.308 130.824 208.493C130.62 208.582 130.426 208.672 130.284 208.753L130.281 208.755C130.233 208.782 130.09 208.863 129.967 208.988C129.929 209.027 129.865 209.098 129.807 209.199C129.751 209.294 129.66 209.487 129.67 209.747C129.697 210.434 130.289 210.648 130.404 210.681C130.576 210.731 130.727 210.723 130.759 210.722L130.763 210.721C130.821 210.719 130.873 210.712 130.911 210.707C130.99 210.696 131.076 210.679 131.16 210.662C131.33 210.626 131.55 210.573 131.799 210.51C132.3 210.382 132.957 210.201 133.654 210.001L133.654 210.001L133.667 209.998C141.655 207.591 148.589 208.402 154.519 212.32L154.519 212.32L154.524 212.324C155.409 212.901 156.431 213.664 157.259 214.342C157.631 214.648 157.955 214.929 158.204 215.161C157.952 215.407 157.617 215.711 157.222 216.049C156.252 216.882 154.995 217.861 153.92 218.587L153.92 218.587L153.912 218.592C153.18 219.095 151.511 219.945 150.094 220.518L150.09 220.52C149.025 220.957 148.373 221.192 147.794 221.335C147.229 221.474 146.701 221.533 145.875 221.578C142.418 221.735 139.551 220.702 133.552 216.731C129.688 214.156 126.839 212.672 124.545 212.087C124.468 212.067 124.396 212.048 124.329 212.029C124.512 211.86 124.744 211.657 125.032 211.411C128.722 208.317 133.004 205.907 137.818 204.239ZM131.269 210.494C131.26 210.499 131.255 210.502 131.255 210.502C131.255 210.502 131.259 210.499 131.269 210.494ZM158.61 214.722C158.61 214.722 158.609 214.724 158.607 214.726C158.609 214.724 158.61 214.722 158.61 214.722ZM123.665 211.801C123.665 211.801 123.666 211.802 123.668 211.803C123.666 211.802 123.665 211.801 123.665 211.801Z" stroke="#6B7537" stroke-width="2"/>
<path d="M141.874 126.329L141.875 126.328C144.369 118.573 149.44 111.395 154.796 107.815C156.217 106.881 158.279 105.966 160.485 105.266C162.691 104.567 164.968 104.108 166.803 104.043L166.812 104.043L166.822 104.042C168.363 103.959 171.165 104.25 174.009 104.731C174.512 104.816 175.011 104.906 175.499 104.999C172.847 105.06 170.334 105.295 168.557 105.689L168.556 105.689C157.486 108.148 149.28 116.355 144.595 129.311C143.84 131.389 142.982 134.075 142.358 136.208C142.046 137.273 141.788 138.215 141.629 138.88C141.552 139.205 141.49 139.498 141.462 139.715C141.452 139.793 141.428 139.979 141.456 140.168C141.465 140.224 141.483 140.32 141.53 140.43C141.574 140.533 141.674 140.724 141.889 140.873C142.455 141.266 142.985 140.921 143.085 140.847C143.232 140.737 143.32 140.607 143.342 140.575L143.344 140.572C143.381 140.517 143.412 140.463 143.437 140.419C143.487 140.329 143.539 140.222 143.592 140.11C143.699 139.882 143.832 139.577 143.98 139.222C144.277 138.51 144.654 137.559 145.044 136.542L145.045 136.542L145.049 136.529C149.44 124.612 156.802 116.872 167.062 113.228L167.062 113.228L167.068 113.226C168.585 112.677 170.45 112.133 172.031 111.749C172.821 111.556 173.526 111.407 174.072 111.317C174.2 111.296 174.316 111.279 174.42 111.265C174.429 111.315 174.437 111.368 174.446 111.424C174.536 112.003 174.618 112.83 174.679 113.801C174.802 115.739 174.842 118.162 174.739 120.137L174.739 120.137L174.739 120.146C174.679 121.535 174.178 124.355 173.579 126.598L173.578 126.603C173.136 128.285 172.821 129.314 172.452 130.177C172.089 131.027 171.661 131.746 170.958 132.794C167.917 137.237 163.943 139.797 153.696 143.427C147.101 145.742 142.799 147.804 140.085 149.978C139.663 150.313 139.352 150.542 139.12 150.688C139.111 150.645 139.101 150.597 139.092 150.544C139.008 150.07 138.949 149.382 138.89 148.411C138.508 141.096 139.497 133.694 141.874 126.329ZM143.442 139.999C143.442 140.006 143.441 140.01 143.441 140.011C143.441 140.011 143.441 140.007 143.442 139.999ZM138.776 150.867C138.776 150.867 138.779 150.866 138.783 150.865C138.778 150.867 138.776 150.867 138.776 150.867ZM139.228 151.051C139.229 151.053 139.23 151.054 139.23 151.054C139.23 151.054 139.229 151.053 139.228 151.051Z" stroke="#6B7537" stroke-width="2"/>
</svg>
