<svg width="203" height="545" viewBox="0 0 203 545" fill="none" xmlns="http://www.w3.org/2000/svg">
<path d="M60.8204 62.9894L60.8198 62.9902C45.8847 84.3915 37.3355 111.334 38.6185 132.225C39.0048 137.846 40.7074 144.981 43.2109 151.981C45.7144 158.981 48.9921 165.771 52.4845 170.714L52.49 170.722L52.4953 170.729C55.3751 174.973 61.6162 181.595 68.2763 187.837C74.9361 194.078 81.8902 199.821 86.1562 202.349C86.1563 202.349 86.1563 202.349 86.1564 202.349C86.1565 202.349 86.1566 202.349 86.1567 202.349L86.5887 202.605L86.2801 202.261L86.2786 202.259C77.119 192.002 67.7308 178.571 63.6942 169.826L63.6939 169.826C49.0959 138.142 53.7906 102.618 77.1007 66.5251C80.8486 60.7032 85.9301 53.4517 90.076 47.8313C92.1483 45.022 93.9956 42.6083 95.3307 40.9797C95.9931 40.1718 96.5512 39.5302 96.9565 39.129C97.1376 38.9496 97.368 38.7362 97.6013 38.6086C97.668 38.5721 97.7701 38.5226 97.8978 38.4901C98.0191 38.4592 98.242 38.4235 98.4993 38.5069C99.172 38.7251 99.2275 39.3733 99.2287 39.5276C99.2305 39.7399 99.169 39.9276 99.1436 40.0037C99.1073 40.1124 99.0602 40.2283 99.0097 40.3433C98.9077 40.5751 98.765 40.8637 98.5924 41.194C98.2455 41.8576 97.7499 42.7431 97.1473 43.784C95.9406 45.8687 94.2841 48.6129 92.4799 51.5292L92.4799 51.5293L92.4727 51.5406C70.6348 85.8027 65.084 119.761 75.7685 153.217L75.7703 153.222C77.3189 158.174 79.5469 163.974 81.6273 168.738C82.6675 171.12 83.665 173.231 84.5166 174.839C84.9429 175.644 85.3263 176.312 85.6549 176.82C85.8581 177.134 86.0235 177.361 86.1499 177.515C86.221 177.494 86.3087 177.465 86.4145 177.426C86.8937 177.25 87.5736 176.927 88.433 176.462C90.1415 175.538 92.4371 174.12 95.0192 172.403C100.18 168.97 106.412 164.39 111.254 160.291L111.254 160.291L111.261 160.285C114.808 157.337 121.046 150.551 125.584 144.697L125.586 144.694C128.98 140.357 131.047 137.491 132.593 134.768C134.133 132.058 135.174 129.459 136.481 125.635C142.06 108.82 140.714 93.3844 130.209 60.5794C123.43 39.6183 120.486 25.1571 120.754 14.5657C120.8 12.242 120.759 10.5922 120.543 9.49195C120.322 8.36407 120.006 8.21799 119.84 8.178C119.684 8.14036 119.405 8.13444 118.932 8.26533C118.463 8.39477 117.874 8.63832 117.135 9.01825C115.656 9.77896 113.718 11.0115 111.167 12.7193C91.8261 25.8975 74.9286 42.7275 60.8204 62.9894ZM85.9136 177.563C85.9129 177.564 85.9223 177.564 85.9438 177.562C85.9251 177.561 85.9143 177.562 85.9136 177.563Z" stroke="#6B7537" stroke-width="2"/>
<path d="M82.8954 235.948L82.8944 235.947C75.1624 233.383 66.3748 233.239 60.3241 235.449C58.7306 236.045 56.7751 237.169 54.9082 238.537C53.0413 239.906 51.3268 241.472 50.1914 242.915L50.1855 242.922L50.1796 242.93C49.2026 244.124 47.7837 246.558 46.4928 249.138C46.2647 249.594 46.043 250.049 45.8305 250.499C47.4449 248.394 49.1178 246.504 50.4844 245.302L50.485 245.302C59.0046 237.818 70.4731 236.039 83.6964 239.904C85.8196 240.521 88.4941 241.414 90.5845 242.169C91.6283 242.546 92.5406 242.894 93.1714 243.159C93.4792 243.288 93.7522 243.411 93.9438 243.516C94.0131 243.554 94.1772 243.644 94.3128 243.779C94.3534 243.819 94.4199 243.891 94.4809 243.993C94.5384 244.089 94.633 244.283 94.6265 244.544C94.6096 245.233 94.0184 245.458 93.8995 245.494C93.7241 245.548 93.567 245.542 93.5284 245.541L93.5248 245.541C93.4591 245.539 93.3966 245.532 93.3468 245.526C93.2449 245.513 93.1271 245.492 93.0054 245.469C92.7582 245.421 92.4336 245.347 92.0599 245.258C91.3091 245.077 90.3194 244.82 89.2678 244.535L89.2678 244.535L89.2549 244.531C77.0439 241.041 66.4501 242.415 57.4528 248.546L57.4528 248.546L57.4478 248.549C56.1086 249.45 54.5688 250.635 53.3254 251.683C52.7038 252.208 52.1672 252.689 51.7722 253.077C51.6799 253.167 51.5974 253.251 51.5248 253.327C51.5596 253.363 51.5972 253.401 51.6377 253.442C52.0515 253.856 52.6714 254.41 53.4187 255.033C54.9108 256.276 56.8426 257.738 58.4978 258.821L58.4978 258.821L58.5052 258.826C59.6622 259.598 62.2342 260.858 64.3984 261.698L64.4028 261.7C66.0211 262.337 67.0382 262.69 67.9522 262.901C68.8522 263.11 69.6854 263.189 70.9462 263.24C76.3275 263.408 80.7394 261.711 89.7188 255.583C95.4805 251.625 99.6838 249.37 103.041 248.463C103.561 248.319 103.929 248.204 104.184 248.103C104.154 248.07 104.121 248.034 104.085 247.996C103.751 247.647 103.231 247.194 102.482 246.573C96.8032 241.947 90.2437 238.376 82.8954 235.948ZM93.0043 245.282C93.0106 245.286 93.0142 245.288 93.0144 245.288C93.0146 245.288 93.0114 245.286 93.0043 245.282ZM104.532 247.931C104.531 247.931 104.529 247.932 104.525 247.936C104.53 247.932 104.532 247.931 104.532 247.931ZM104.413 248.405C104.414 248.406 104.414 248.407 104.414 248.408C104.414 248.408 104.414 248.407 104.413 248.405Z" stroke="#6B7537" stroke-width="2"/>
<path d="M179.252 329.605L179.251 329.604C174.241 322.186 166.686 316.163 159.925 314.024C158.13 313.472 155.67 313.138 153.126 313.077C150.582 313.016 148.035 313.229 146.072 313.726L146.062 313.728L146.053 313.73C144.394 314.117 141.523 315.285 138.674 316.663C137.887 317.043 137.114 317.434 136.379 317.822C139.49 316.948 142.567 316.329 144.758 316.186L144.759 316.186C157.129 315.39 168.255 321.499 177.141 333.69C178.571 335.645 180.295 338.21 181.605 340.264C182.26 341.289 182.818 342.2 183.188 342.851C183.369 343.169 183.521 343.455 183.615 343.669C183.65 343.749 183.727 343.926 183.753 344.118C183.76 344.176 183.769 344.274 183.755 344.393C183.742 344.505 183.698 344.716 183.534 344.92C183.099 345.456 182.493 345.273 182.375 345.229C182.202 345.164 182.08 345.062 182.049 345.037L182.046 345.034C181.993 344.991 181.946 344.946 181.908 344.908C181.83 344.831 181.743 344.736 181.654 344.635C181.473 344.429 181.241 344.149 180.977 343.822C180.446 343.163 179.759 342.278 179.036 341.327L179.036 341.327L179.028 341.316C170.742 330.09 160.594 324.175 148.64 323.476L148.64 323.476L148.634 323.476C146.863 323.362 144.729 323.36 142.944 323.439C142.051 323.478 141.26 323.537 140.655 323.61C140.474 323.632 140.315 323.654 140.178 323.676C140.186 323.757 140.196 323.846 140.209 323.945C140.292 324.587 140.46 325.486 140.693 326.529C141.157 328.611 141.858 331.178 142.572 333.231L142.572 333.231L142.575 333.239C143.067 334.693 144.462 337.517 145.781 339.699L145.784 339.703C146.764 341.34 147.414 342.332 148.071 343.134C148.719 343.924 149.396 344.556 150.459 345.446C155.046 349.214 160.041 350.695 171.95 351.382C179.603 351.801 184.751 352.655 188.259 354.107C188.891 354.365 189.33 354.523 189.634 354.599C189.631 354.516 189.624 354.417 189.611 354.3C189.554 353.768 189.405 353.021 189.169 351.98C187.33 344.148 184.016 336.643 179.252 329.605ZM181.796 344.503C181.798 344.509 181.8 344.512 181.8 344.512C181.8 344.513 181.799 344.51 181.796 344.503ZM189.95 354.65C189.95 354.65 189.947 354.65 189.94 354.65C189.947 354.65 189.95 354.65 189.95 354.65Z" stroke="#6B7537" stroke-width="2"/>
<path d="M39.0583 517.957L39.0592 517.956C43.1768 515.727 47.4665 514.321 51.8529 513.74C52.1296 513.705 52.3642 513.679 52.5631 513.66C52.5538 513.678 52.5443 513.696 52.5346 513.714C52.5342 513.715 52.5338 513.715 52.5334 513.716L53.4174 514.184C52.4658 515.96 51.7198 518.689 51.0682 522.898L39.0583 517.957ZM39.0583 517.957C34.7389 520.289 31.0664 524.077 29.5565 527.596C29.1725 528.51 28.8598 529.812 28.6892 531.193C28.5185 532.574 28.4997 533.955 28.6591 535.019L28.6604 535.029L28.6617 535.038C28.7193 535.48 28.8655 536.101 29.0722 536.816C29.0617 536.501 29.0607 536.205 29.0699 535.933L29.0699 535.933C29.3158 528.843 33.4309 522.89 40.7716 518.58C41.9443 517.889 43.4693 517.069 44.6858 516.453C45.2929 516.146 45.8363 515.882 46.2274 515.709C46.4154 515.625 46.6001 515.548 46.7475 515.5L46.7512 515.499C46.8005 515.483 46.9531 515.433 47.1259 515.428C47.1797 515.426 47.2747 515.426 47.3884 515.451C47.4958 515.475 47.6998 515.538 47.8845 515.721C48.3724 516.203 48.1304 516.784 48.0778 516.891C47.9988 517.051 47.8918 517.156 47.8694 517.179C47.8684 517.179 47.8677 517.18 47.8671 517.181C47.8267 517.221 47.7875 517.254 47.7592 517.278C47.701 517.326 47.6344 517.375 47.57 517.422C47.4383 517.516 47.2644 517.634 47.0662 517.763C46.6672 518.025 46.1348 518.359 45.5657 518.708L45.5658 518.708L45.5542 518.715C38.9694 522.635 35.2254 527.83 34.2045 534.267L34.2045 534.267L34.2035 534.273C34.0459 535.23 33.9289 536.396 33.8752 537.377C33.8531 537.781 33.8422 538.143 33.8428 538.44C34.1509 538.42 34.5343 538.384 34.9685 538.331C36.1348 538.19 37.579 537.945 38.7365 537.667L38.7365 537.667L38.7452 537.665C39.5342 537.482 41.1433 536.88 42.4112 536.275L42.4154 536.273C43.3741 535.821 43.9349 535.527 44.3864 535.226C44.8261 534.933 45.19 534.615 45.7334 534.083C47.9704 531.851 49.0481 529.283 50.0802 522.743L39.0583 517.957ZM47.3637 517.403C47.3739 517.4 47.3794 517.399 47.3794 517.398C47.3794 517.398 47.3749 517.399 47.3651 517.403C47.3646 517.403 47.3642 517.403 47.3637 517.403ZM33.2251 538.449C33.225 538.449 33.2267 538.449 33.2302 538.449C33.2269 538.449 33.2251 538.449 33.2251 538.449ZM52.88 512.96C52.8799 512.96 52.8795 512.961 52.879 512.965C52.8798 512.961 52.88 512.96 52.88 512.96Z" stroke="#6B7537" stroke-width="2"/>
</svg>
