<svg width="765" height="838" viewBox="0 0 765 838" fill="none" xmlns="http://www.w3.org/2000/svg">
<path d="M144.82 152.489L144.821 152.489C160.256 144.083 178.912 140.374 192.757 142.777C196.464 143.449 201.099 145.112 205.596 147.307C210.093 149.502 214.381 152.194 217.411 154.882L217.418 154.889L217.426 154.895C220.031 157.12 223.995 161.78 227.688 166.715C230.74 170.794 233.537 174.968 235.185 177.998C229.15 171.524 221.575 164.97 216.362 161.823L216.362 161.823C196.055 149.586 171.728 150.113 145.681 163.11C141.484 165.197 136.23 168.072 132.142 170.439C130.099 171.622 128.335 172.686 127.135 173.466C126.542 173.851 126.058 174.186 125.744 174.439C125.611 174.547 125.417 174.711 125.285 174.899C125.246 174.954 125.189 175.044 125.145 175.161C125.103 175.273 125.044 175.486 125.097 175.746C125.238 176.431 125.869 176.552 126.008 176.569C126.206 176.593 126.381 176.555 126.439 176.543L126.44 176.542C126.53 176.523 126.621 176.497 126.707 176.47C126.881 176.416 127.093 176.338 127.33 176.246C127.808 176.06 128.445 175.791 129.19 175.463C130.684 174.807 132.654 173.898 134.748 172.903L134.748 172.903L134.76 172.897C159.325 160.822 182.441 159.643 204.008 169.267L204.008 169.267L204.014 169.269C207.211 170.673 210.929 172.596 213.965 174.343C215.483 175.217 216.818 176.04 217.826 176.726C218.33 177.069 218.741 177.37 219.048 177.621C219.144 177.699 219.224 177.768 219.29 177.827C219.142 178.113 218.893 178.514 218.54 179.024C217.8 180.09 216.683 181.518 215.34 183.12C212.656 186.323 209.124 190.156 206.022 193.092L206.016 193.098C203.795 195.237 198.795 198.906 194.536 201.511L194.532 201.513C191.368 203.467 189.307 204.631 187.387 205.456C185.479 206.276 183.679 206.776 181.022 207.367C169.42 209.836 159.235 207.818 138.005 198.325C124.43 192.207 114.896 189.132 107.707 188.517C106.14 188.375 105.069 188.226 104.384 188.011C104.046 187.905 103.882 187.805 103.811 187.745C103.792 187.729 103.783 187.718 103.779 187.713C103.779 187.712 103.779 187.711 103.779 187.709C103.775 187.677 103.772 187.548 103.885 187.267C103.995 186.991 104.189 186.634 104.493 186.176C105.103 185.257 106.063 184.061 107.401 182.475C117.665 170.501 130.195 160.434 144.82 152.489Z" stroke="#6B7537" stroke-width="2"/>
<path d="M225.817 307.096L225.818 307.095C230.868 305.341 236.616 305.174 240.564 306.552C241.588 306.919 242.868 307.628 244.103 308.507C245.338 309.385 246.465 310.388 247.207 311.304L247.213 311.311L247.219 311.319C247.622 311.797 248.153 312.608 248.712 313.571C248.291 313.13 247.887 312.741 247.515 312.423L247.514 312.422C241.683 307.445 233.93 306.375 225.115 309.088C223.703 309.52 221.931 310.14 220.546 310.662C219.855 310.923 219.247 311.165 218.824 311.35C218.619 311.439 218.426 311.529 218.283 311.61L218.28 311.611C218.232 311.638 218.089 311.719 217.967 311.845C217.929 311.883 217.865 311.954 217.806 312.055C217.751 312.151 217.66 312.344 217.67 312.604C217.696 313.29 218.288 313.504 218.403 313.537C218.575 313.587 218.726 313.58 218.759 313.578L218.762 313.578C218.82 313.575 218.873 313.569 218.911 313.563C218.989 313.552 219.076 313.536 219.159 313.518C219.33 313.483 219.55 313.43 219.799 313.366C220.299 313.238 220.957 313.058 221.653 312.858L221.654 312.858L221.666 312.854C229.655 310.447 236.589 311.258 242.518 315.177L242.518 315.177L242.523 315.18C243.408 315.757 244.431 316.521 245.258 317.199C245.631 317.504 245.955 317.785 246.204 318.017C245.952 318.263 245.616 318.568 245.222 318.906C244.252 319.738 242.994 320.718 241.919 321.443L241.919 321.443L241.912 321.448C241.18 321.951 239.511 322.801 238.094 323.374L238.089 323.376C237.024 323.813 236.372 324.048 235.793 324.191C235.229 324.33 234.701 324.389 233.874 324.434C230.417 324.591 227.55 323.558 221.552 319.587C217.687 317.013 214.838 315.529 212.545 314.944C212.468 314.924 212.396 314.904 212.329 314.886C212.512 314.716 212.743 314.513 213.031 314.268C216.722 311.173 221.003 308.763 225.817 307.096ZM219.268 313.35C219.26 313.356 219.255 313.358 219.255 313.358C219.254 313.358 219.259 313.356 219.268 313.35ZM246.61 317.579C246.61 317.579 246.609 317.58 246.607 317.583C246.609 317.58 246.61 317.579 246.61 317.579ZM211.664 314.657C211.664 314.657 211.666 314.658 211.668 314.66C211.665 314.658 211.664 314.657 211.664 314.657Z" stroke="#6B7537" stroke-width="2"/>
<path d="M329.629 594.657L329.63 594.656C333.496 591.631 338.437 589.782 342.266 589.807C343.258 589.821 344.576 590.055 345.91 590.452C347.244 590.848 348.517 591.384 349.428 591.956L349.436 591.961L349.444 591.965C349.826 592.195 350.337 592.578 350.91 593.053C350.625 592.918 350.354 592.798 350.101 592.698L350.101 592.698C343.505 590.085 336.403 591.474 329.514 596.476C328.412 597.274 327.051 598.343 325.999 599.211C325.475 599.645 325.016 600.037 324.7 600.326C324.548 600.465 324.404 600.603 324.301 600.719L324.298 600.722C324.264 600.761 324.157 600.881 324.083 601.037C324.06 601.086 324.022 601.173 324 601.287C323.978 601.395 323.954 601.607 324.048 601.85C324.295 602.49 324.924 602.501 325.043 602.495C325.221 602.487 325.361 602.431 325.39 602.419L325.393 602.418C325.446 602.397 325.492 602.375 325.525 602.358C325.592 602.324 325.665 602.283 325.733 602.242C325.872 602.159 326.049 602.047 326.247 601.917C326.646 601.656 327.166 601.302 327.714 600.92L327.714 600.92L327.725 600.913C333.953 596.447 340.212 595.095 346.519 596.736L346.519 596.736L346.525 596.738C347.465 596.976 348.581 597.336 349.501 597.679C349.88 597.821 350.216 597.956 350.488 598.075C350.347 598.35 350.16 598.686 349.938 599.063C349.341 600.075 348.539 601.301 347.821 602.25L347.821 602.25L347.816 602.257C347.333 602.907 346.136 604.141 345.075 605.061L345.071 605.064C344.273 605.761 343.779 606.157 343.323 606.451C342.878 606.736 342.441 606.943 341.736 607.228C338.796 608.384 336.011 608.344 329.605 606.672C325.469 605.58 322.534 605.133 320.348 605.308C320.327 605.309 320.307 605.311 320.287 605.312C320.384 605.137 320.502 604.933 320.644 604.693C322.933 600.906 325.938 597.538 329.629 594.657ZM325.798 602.046C325.786 602.061 325.783 602.063 325.797 602.047C325.797 602.046 325.798 602.046 325.798 602.046ZM350.743 597.513C350.744 597.512 350.743 597.514 350.742 597.518C350.743 597.514 350.743 597.513 350.743 597.513ZM319.518 605.322C319.518 605.322 319.52 605.323 319.523 605.323C319.52 605.323 319.518 605.322 319.518 605.322Z" stroke="#6B7537" stroke-width="2"/>
<path d="M229.874 229.186L229.875 229.185C232.369 221.43 237.44 214.252 242.796 210.672C244.217 209.738 246.279 208.822 248.485 208.123C250.691 207.424 252.968 206.965 254.803 206.9L254.812 206.9L254.822 206.899C256.363 206.816 259.165 207.107 262.009 207.588C262.512 207.673 263.011 207.763 263.499 207.856C260.847 207.917 258.334 208.152 256.557 208.546L256.556 208.546C245.486 211.005 237.28 219.212 232.595 232.168C231.84 234.246 230.982 236.932 230.358 239.065C230.046 240.13 229.788 241.072 229.629 241.737C229.552 242.062 229.49 242.355 229.462 242.572C229.452 242.65 229.428 242.836 229.456 243.025C229.465 243.081 229.483 243.177 229.53 243.287C229.574 243.39 229.674 243.58 229.889 243.73C230.455 244.123 230.985 243.778 231.085 243.704C231.232 243.594 231.32 243.464 231.342 243.432L231.344 243.429C231.381 243.374 231.412 243.32 231.437 243.276C231.487 243.186 231.539 243.079 231.592 242.967C231.699 242.739 231.832 242.434 231.98 242.079C232.277 241.366 232.654 240.416 233.044 239.399L233.045 239.399L233.049 239.386C237.44 227.469 244.802 219.729 255.062 216.085L255.062 216.085L255.068 216.083C256.585 215.534 258.45 214.99 260.031 214.606C260.821 214.413 261.526 214.264 262.072 214.174C262.2 214.153 262.316 214.136 262.42 214.122C262.429 214.171 262.437 214.224 262.446 214.281C262.536 214.86 262.618 215.687 262.679 216.658C262.802 218.596 262.842 221.019 262.739 222.994L262.739 222.994L262.739 223.003C262.679 224.392 262.178 227.212 261.579 229.455L261.578 229.46C261.136 231.142 260.821 232.171 260.452 233.034C260.089 233.883 259.661 234.603 258.958 235.651C255.917 240.094 251.943 242.654 241.696 246.284C235.101 248.599 230.799 250.661 228.085 252.835C227.663 253.17 227.352 253.399 227.12 253.545C227.111 253.502 227.101 253.454 227.092 253.401C227.008 252.927 226.949 252.239 226.89 251.268C226.508 243.953 227.497 236.551 229.874 229.186ZM231.442 242.856C231.442 242.863 231.441 242.867 231.441 242.868C231.441 242.868 231.441 242.864 231.442 242.856ZM226.776 253.724C226.776 253.724 226.779 253.723 226.783 253.722C226.778 253.724 226.776 253.724 226.776 253.724ZM227.228 253.908C227.229 253.91 227.23 253.911 227.23 253.911C227.23 253.911 227.229 253.91 227.228 253.908Z" stroke="#6B7537" stroke-width="2"/>
<path d="M710.399 505.155L710.4 505.156C717.086 509.809 722.466 516.759 724.322 522.928C724.8 524.561 725.072 526.799 725.095 529.114C725.118 531.428 724.891 533.74 724.416 535.513L724.414 535.522L724.411 535.531C724.04 537.029 722.942 539.624 721.65 542.203C721.422 542.659 721.19 543.109 720.957 543.549C721.675 540.995 722.185 538.524 722.329 536.709L722.329 536.708C723.216 525.403 717.769 515.155 706.751 506.884C704.985 505.554 702.668 503.948 700.811 502.727C699.884 502.117 699.059 501.595 698.469 501.248C698.181 501.079 697.919 500.935 697.72 500.844C697.648 500.811 697.477 500.734 697.288 500.706C697.232 500.698 697.134 500.688 697.016 500.7C696.905 500.711 696.693 500.752 696.488 500.914C695.946 501.34 696.12 501.948 696.162 502.065C696.225 502.238 696.323 502.36 696.347 502.39L696.35 502.393C696.391 502.444 696.433 502.49 696.468 502.526C696.54 502.6 696.627 502.682 696.719 502.766C696.905 502.935 697.158 503.151 697.454 503.396C698.048 503.889 698.847 504.527 699.706 505.198L699.706 505.198L699.716 505.207C709.827 512.892 715.074 522.197 715.557 533.074L715.557 533.074L715.557 533.08C715.638 534.692 715.613 536.634 715.518 538.258C715.471 539.07 715.407 539.788 715.333 540.336C715.316 540.464 715.298 540.58 715.281 540.684C715.231 540.678 715.178 540.671 715.121 540.662C714.542 540.579 713.727 540.415 712.781 540.19C710.891 539.74 708.563 539.07 706.704 538.393L706.704 538.393L706.696 538.39C705.385 537.926 702.835 536.622 700.865 535.393L700.861 535.391C699.382 534.477 698.49 533.874 697.773 533.269C697.067 532.673 696.504 532.053 695.708 531.075C692.349 526.867 691.064 522.318 690.59 511.456C690.306 504.472 689.594 499.756 688.309 496.525C688.112 496.023 687.984 495.658 687.912 495.394C687.956 495.398 688.005 495.403 688.057 495.409C688.536 495.468 689.211 495.612 690.157 495.84C697.263 497.615 704.052 500.727 710.399 505.155ZM696.869 502.654C696.862 502.652 696.858 502.65 696.858 502.65C696.857 502.65 696.861 502.651 696.869 502.654ZM687.841 495.013C687.841 495.013 687.841 495.015 687.841 495.02C687.841 495.015 687.841 495.012 687.841 495.013ZM687.533 495.391C687.531 495.392 687.53 495.392 687.53 495.392C687.53 495.392 687.531 495.392 687.533 495.391Z" stroke="#6B7537" stroke-width="2"/>
<path d="M36.7735 784.617L36.7745 784.617C44.7791 786.129 52.531 790.271 56.7473 795.141C57.8509 796.436 59.0148 798.368 59.9824 800.47C60.95 802.573 61.6883 804.775 61.9802 806.588L61.9817 806.597L61.9833 806.606C62.2574 808.125 62.316 810.942 62.1918 813.824C62.1698 814.333 62.1424 814.839 62.11 815.335C61.7206 812.711 61.1757 810.247 60.5648 808.532L60.5645 808.532C56.7507 797.852 47.5888 790.728 34.1521 787.687C31.9962 787.195 29.2246 786.677 27.0306 786.322C25.9351 786.145 24.9689 786.006 24.2887 785.931C23.9568 785.895 23.6585 785.87 23.44 785.868C23.361 785.868 23.1737 785.867 22.9898 785.919C22.9347 785.934 22.8418 785.965 22.739 786.024C22.6418 786.081 22.4652 786.204 22.3439 786.436C22.0241 787.046 22.4319 787.53 22.5181 787.619C22.6454 787.751 22.7854 787.823 22.8198 787.84L22.823 787.842C22.8815 787.872 22.9393 787.897 22.9859 787.915C23.0812 787.954 23.1942 787.993 23.3121 788.031C23.5516 788.109 23.8709 788.203 24.2412 788.306C24.9851 788.513 25.9751 788.769 27.033 789.03L27.0329 789.03L27.046 789.033C39.4158 791.911 48.0095 798.256 52.8979 807.985L52.8979 807.985L52.9006 807.99C53.634 809.428 54.405 811.211 54.9826 812.731C55.2715 813.492 55.5069 814.173 55.664 814.704C55.7007 814.828 55.7323 814.941 55.7589 815.042C55.7109 815.057 55.6594 815.072 55.6043 815.088C55.0415 815.249 54.2307 815.432 53.2749 815.614C51.3666 815.977 48.968 816.317 46.9952 816.46L46.9952 816.46L46.9864 816.46C45.6001 816.573 42.7398 816.426 40.4398 816.11L40.4352 816.109C38.7111 815.88 37.6507 815.695 36.7489 815.436C35.861 815.181 35.0941 814.846 33.9672 814.278C29.1812 811.812 26.148 808.186 21.2739 798.468C18.1588 792.211 15.5795 788.199 13.0855 785.776C12.7003 785.398 12.4343 785.118 12.2606 784.906C12.3027 784.891 12.349 784.876 12.3998 784.86C12.8605 784.718 13.5355 784.574 14.4919 784.395C21.7024 783.108 29.1705 783.172 36.7735 784.617ZM23.4037 787.869C23.3963 787.869 23.3921 787.869 23.3918 787.869C23.3915 787.869 23.3953 787.869 23.4037 787.869ZM12.0405 784.587C12.0407 784.587 12.0418 784.589 12.0435 784.594C12.0412 784.589 12.0404 784.587 12.0405 784.587ZM11.9139 785.059C11.9124 785.06 11.9116 785.06 11.9115 785.061C11.9113 785.061 11.9121 785.06 11.9139 785.059Z" stroke="#6B7537" stroke-width="2"/>
</svg>
