<svg width="321" height="581" viewBox="0 0 321 581" fill="none" xmlns="http://www.w3.org/2000/svg">
<path d="M167.343 77.7734L167.342 77.774C146.902 93.9994 130.992 117.364 126.236 137.746C124.996 143.242 124.583 150.566 124.976 157.989C125.37 165.413 126.564 172.858 128.494 178.594L128.497 178.603L128.5 178.612C130.044 183.503 134.126 191.636 138.719 199.524C143.311 207.411 148.328 214.906 151.691 218.55C151.691 218.55 151.692 218.55 151.692 218.55C151.692 218.55 151.692 218.55 151.692 218.55L152.032 218.919L151.835 218.501L151.834 218.499C145.997 206.048 140.85 190.49 139.488 180.955L139.488 180.955C134.579 146.417 149.255 113.726 181.928 85.825C187.187 81.3209 194.133 75.8292 199.715 71.6322C202.505 69.5343 204.966 67.751 206.712 66.5732C207.578 65.9889 208.297 65.5341 208.8 65.2658C209.025 65.1459 209.307 65.0073 209.567 64.9519C209.641 64.9361 209.753 64.918 209.885 64.9234C210.01 64.9286 210.234 64.9582 210.456 65.1118C211.038 65.5136 210.906 66.1505 210.863 66.2987C210.804 66.5026 210.691 66.6648 210.645 66.7304C210.579 66.8242 210.501 66.9218 210.419 67.0174C210.255 67.2103 210.036 67.446 209.776 67.7129C209.253 68.2494 208.525 68.9557 207.649 69.7803C205.896 71.432 203.523 73.5866 200.959 75.8637L200.959 75.8638L200.948 75.8726C170.21 102.442 155.163 133.387 155.815 168.501L155.815 168.507C155.88 173.695 156.353 179.89 156.982 185.051C157.296 187.631 157.647 189.938 158.002 191.723C158.18 192.617 158.356 193.366 158.525 193.947C158.63 194.307 158.723 194.571 158.8 194.755C158.874 194.755 158.966 194.753 159.079 194.746C159.589 194.714 160.333 194.6 161.289 194.401C163.191 194.005 165.796 193.304 168.762 192.398C174.691 190.588 181.973 187.985 187.787 185.445L187.787 185.445L187.795 185.442C192.038 183.633 199.959 178.919 205.983 174.61L205.987 174.608C210.48 171.425 213.281 169.272 215.543 167.106C217.795 164.95 219.536 162.758 221.885 159.469C232.047 144.957 235.179 129.783 234.514 95.3438C234.024 73.319 235.347 58.6207 238.637 48.5498C239.347 46.3368 239.78 44.7444 239.889 43.6285C240 42.4845 239.739 42.254 239.592 42.1682C239.453 42.0875 239.188 42.0019 238.696 41.9916C238.211 41.9814 237.576 42.046 236.76 42.1983C235.124 42.5033 232.914 43.129 229.981 44.0344C207.675 51.1191 186.665 62.4027 167.343 77.7734ZM158.56 194.733C158.559 194.734 158.568 194.737 158.589 194.741C158.572 194.735 158.561 194.733 158.56 194.733Z" stroke="#6B7537" stroke-width="2"/>
<path d="M138.942 249.806L138.941 249.805C132.268 245.133 123.889 242.478 117.459 242.862C115.762 242.977 113.566 243.493 111.386 244.269C109.205 245.045 107.114 246.055 105.612 247.112L105.605 247.117L105.597 247.123C104.319 247.987 102.262 249.913 100.286 252.014C99.9368 252.386 99.5939 252.759 99.2616 253.128C101.411 251.575 103.555 250.243 105.209 249.483L105.21 249.483C115.516 244.753 127.014 246.334 138.576 253.826C140.433 255.026 142.739 256.648 144.526 257.97C145.418 258.63 146.192 259.224 146.721 259.659C146.979 259.871 147.205 260.067 147.359 260.222C147.414 260.279 147.545 260.412 147.637 260.58C147.664 260.63 147.707 260.718 147.737 260.833C147.764 260.942 147.799 261.155 147.718 261.403C147.504 262.059 146.874 262.104 146.749 262.105C146.566 262.106 146.417 262.056 146.38 262.044L146.377 262.043C146.315 262.022 146.257 261.997 146.211 261.977C146.117 261.936 146.01 261.882 145.9 261.825C145.677 261.708 145.387 261.544 145.055 261.351C144.387 260.964 143.512 260.434 142.587 259.859L142.587 259.859L142.575 259.852C131.876 253.009 121.333 251.291 110.956 254.587L110.956 254.587L110.95 254.589C109.409 255.069 107.595 255.762 106.103 256.411C105.357 256.735 104.705 257.043 104.216 257.301C104.101 257.361 103.998 257.417 103.907 257.469C103.93 257.514 103.955 257.561 103.982 257.612C104.26 258.127 104.695 258.835 105.233 259.646C106.306 261.265 107.738 263.219 109.014 264.731L109.014 264.731L109.019 264.738C109.907 265.809 112.01 267.753 113.843 269.178L113.846 269.181C115.214 270.255 116.088 270.884 116.903 271.349C117.705 271.806 118.481 272.121 119.674 272.531C124.782 274.234 129.495 273.872 139.854 270.573C146.508 268.432 151.181 267.476 154.657 267.568C155.196 267.58 155.583 267.575 155.856 267.551C155.837 267.511 155.815 267.467 155.791 267.42C155.571 266.99 155.203 266.407 154.663 265.598C150.548 259.538 145.286 254.238 138.942 249.806ZM145.953 261.645C145.957 261.651 145.96 261.654 145.96 261.654C145.961 261.654 145.958 261.651 145.953 261.645ZM156.238 267.486C156.238 267.485 156.235 267.486 156.23 267.488C156.236 267.487 156.238 267.486 156.238 267.486ZM155.988 267.906C155.989 267.908 155.989 267.909 155.989 267.909C155.989 267.909 155.989 267.908 155.988 267.906Z" stroke="#6B7537" stroke-width="2"/>
<path d="M204.427 367.143L204.427 367.142C201.752 358.6 196.239 350.664 190.373 346.678C188.812 345.635 186.551 344.61 184.131 343.823C181.712 343.036 179.21 342.51 177.187 342.423L177.177 342.423L177.168 342.423C175.467 342.317 172.382 342.615 169.258 343.118C168.395 343.257 167.542 343.41 166.727 343.571C169.958 343.626 173.083 343.914 175.223 344.405L175.224 344.405C187.304 347.186 196.213 356.226 201.234 370.452C202.044 372.735 202.961 375.686 203.628 378.029C203.961 379.199 204.235 380.232 204.403 380.961C204.485 381.318 204.549 381.635 204.578 381.868C204.589 381.954 204.611 382.146 204.581 382.338C204.572 382.395 204.552 382.491 204.505 382.601C204.46 382.705 204.358 382.895 204.141 383.042C203.571 383.432 203.043 383.083 202.943 383.007C202.796 382.895 202.708 382.763 202.685 382.729L202.683 382.726C202.645 382.67 202.613 382.613 202.587 382.566C202.535 382.47 202.479 382.354 202.422 382.231C202.308 381.982 202.166 381.648 202.006 381.258C201.686 380.475 201.282 379.43 200.862 378.312L200.862 378.312L200.858 378.299C196.135 365.17 188.107 356.595 176.854 352.501L176.854 352.501L176.848 352.499C175.184 351.882 173.14 351.269 171.407 350.833C170.541 350.615 169.766 350.445 169.165 350.342C168.986 350.311 168.827 350.286 168.689 350.269C168.674 350.348 168.658 350.437 168.642 350.535C168.538 351.173 168.441 352.083 168.365 353.149C168.214 355.277 168.15 357.937 168.246 360.108L168.246 360.108L168.246 360.117C168.301 361.652 168.828 364.756 169.467 367.224L169.469 367.229C169.938 369.078 170.277 370.216 170.677 371.172C171.072 372.115 171.539 372.913 172.303 374.071C175.618 378.996 179.979 381.845 191.192 385.915C198.404 388.509 203.092 390.802 206.036 393.198C206.568 393.627 206.943 393.904 207.214 394.063C207.234 393.983 207.256 393.886 207.277 393.771C207.374 393.245 207.446 392.486 207.518 391.422C208 383.39 206.975 375.251 204.427 367.143ZM202.597 382.145C202.597 382.151 202.597 382.155 202.597 382.155C202.597 382.156 202.597 382.153 202.597 382.145ZM207.502 394.203C207.501 394.203 207.498 394.202 207.492 394.201C207.499 394.203 207.502 394.203 207.502 394.203Z" stroke="#6B7537" stroke-width="2"/>
<path d="M16.1486 507.435L16.1496 507.435C20.7332 506.479 25.2459 506.361 29.6149 507.061C29.8899 507.107 30.1223 507.149 30.3183 507.188C30.3043 507.202 30.29 507.217 30.2754 507.231C30.2748 507.232 30.2743 507.233 30.2737 507.233L30.9867 507.934C29.5659 509.364 28.0696 511.764 26.2394 515.61L16.1486 507.435ZM16.1486 507.435C11.3421 508.432 6.73825 511.009 4.28356 513.948C3.65365 514.714 2.98099 515.872 2.42192 517.146C1.86281 518.421 1.44904 519.739 1.29692 520.803L1.29558 520.813L1.29408 520.822C1.2228 521.262 1.18492 521.899 1.17796 522.644C1.25811 522.339 1.34189 522.055 1.4287 521.797L1.42892 521.796C3.69557 515.074 9.34354 510.55 17.6116 508.523C18.9331 508.197 20.6289 507.849 21.9709 507.607C22.6406 507.487 23.2368 507.39 23.6612 507.335C23.8652 507.309 24.0642 507.289 24.2191 507.285L24.223 507.285C24.2749 507.284 24.4353 507.28 24.6025 507.324C24.6546 507.337 24.7454 507.365 24.8473 507.422C24.9433 507.475 25.1207 507.594 25.2454 507.822C25.5745 508.424 25.1763 508.911 25.0953 508.998C24.9738 509.129 24.841 509.199 24.8132 509.214C24.8121 509.215 24.8111 509.215 24.8103 509.216C24.7602 509.243 24.713 509.263 24.6792 509.278C24.6096 509.307 24.5316 509.336 24.4567 509.361C24.3035 509.414 24.1032 509.477 23.8762 509.544C23.419 509.68 22.8131 509.848 22.1678 510.02L22.1679 510.02L22.1548 510.023C14.723 511.892 9.64767 515.797 6.82538 521.672L6.82539 521.672L6.82274 521.677C6.39768 522.548 5.95143 523.632 5.6189 524.557C5.48212 524.937 5.36788 525.281 5.28339 525.566C5.58418 525.635 5.96207 525.71 6.3931 525.784C7.55097 525.983 9.00468 526.162 10.1935 526.227L10.1935 526.227L10.2023 526.228C11.0105 526.279 12.7249 526.162 14.1129 525.946L14.1175 525.946C15.1654 525.787 15.7871 525.666 16.3059 525.507C16.8111 525.352 17.2507 525.152 17.9238 524.798C20.7064 523.301 22.4748 521.148 25.3373 515.179L16.1486 507.435ZM24.2644 509.284C24.2749 509.285 24.2807 509.285 24.2808 509.284C24.2808 509.284 24.2761 509.284 24.2659 509.284C24.2654 509.284 24.2649 509.284 24.2644 509.284ZM4.68902 525.397C4.68895 525.397 4.69047 525.398 4.69377 525.4C4.69074 525.398 4.68909 525.397 4.68902 525.397ZM30.8225 506.608C30.8224 506.608 30.8215 506.609 30.82 506.612C30.8218 506.609 30.8225 506.608 30.8225 506.608Z" stroke="#6B7537" stroke-width="2"/>
</svg>
