<svg width="94" height="101" viewBox="0 0 94 101" fill="none" xmlns="http://www.w3.org/2000/svg">
<path d="M50.9265 11.4177L50.9275 11.4182C58.2137 15.0611 64.5382 21.1639 67.2626 27.0012C67.9704 28.5482 68.562 30.7245 68.918 33.0116C69.274 35.2987 69.3822 37.6186 69.1675 39.4421L69.1664 39.4515L69.1655 39.4609C69.014 40.9965 68.3005 43.7219 67.3931 46.4604C67.2328 46.9443 67.0681 47.4235 66.9014 47.8916C67.2439 45.2616 67.3935 42.7421 67.2744 40.9259L67.2744 40.9252C66.5249 29.61 59.6594 20.2528 47.5658 13.6541C45.6264 12.5922 43.1019 11.3364 41.0886 10.395C40.0832 9.92495 39.1918 9.527 38.558 9.26927C38.2487 9.14351 37.9686 9.03783 37.7588 8.97694C37.6829 8.95492 37.5029 8.90307 37.3119 8.90259C37.2546 8.90244 37.1569 8.90623 37.0417 8.93545C36.9329 8.96305 36.7293 9.03336 36.5493 9.22305C36.0747 9.72313 36.3349 10.2995 36.3934 10.4092C36.4797 10.5711 36.5948 10.6781 36.6231 10.7044L36.6257 10.7068C36.6738 10.7517 36.7227 10.7911 36.7624 10.8219C36.8436 10.8848 36.9416 10.9533 37.0446 11.0225C37.2536 11.1628 37.5351 11.3402 37.8632 11.5405C38.5222 11.9429 39.4046 12.4596 40.3507 12.9999L40.3507 13L40.3624 13.0065C51.4745 19.156 58.0063 27.6089 60.0493 38.3031L60.0493 38.3031L60.0505 38.3091C60.3629 39.8926 60.6171 41.8184 60.7571 43.439C60.8271 44.2493 60.8673 44.969 60.8734 45.5224C60.8748 45.6517 60.8743 45.769 60.8722 45.874C60.822 45.875 60.7683 45.8756 60.711 45.8757C60.1255 45.8769 59.2955 45.8315 58.3265 45.745C56.3917 45.5722 53.9915 45.2436 52.0548 44.8419L52.0548 44.8418L52.0461 44.8401C50.6818 44.5697 47.9706 43.6464 45.8447 42.7133L45.8404 42.7115C44.2446 42.02 43.2753 41.5517 42.4786 41.0562C41.6942 40.5684 41.0481 40.0361 40.1192 39.1822C36.1898 35.5017 34.2631 31.1853 32.2312 20.5055C30.9449 13.635 29.5607 9.06993 27.8238 6.05757C27.5567 5.58869 27.3774 5.24654 27.2682 4.99518C27.3127 4.99276 27.3614 4.99087 27.4145 4.98965C27.8965 4.97861 28.5851 5.02442 29.5537 5.11384C36.8415 5.84697 44.0079 7.94954 50.9265 11.4177ZM37.1771 10.891C37.1696 10.8895 37.1656 10.8885 37.1655 10.8884C37.1654 10.8882 37.1691 10.8889 37.1771 10.891ZM27.1437 4.62813C27.1439 4.62825 27.1443 4.63096 27.1447 4.63595C27.1438 4.63051 27.1436 4.62802 27.1437 4.62813ZM26.893 5.04739C26.8912 5.04817 26.8902 5.04855 26.8901 5.04857C26.8899 5.0486 26.8909 5.04817 26.893 5.04739Z" stroke="#6B7537" stroke-width="2"/>
<path d="M52.6953 75.2655L52.696 75.2646C55.4644 71.7643 59.4321 69.0769 62.8088 68.2817C63.6809 68.0837 64.8915 68.0085 66.1539 68.0731C67.4164 68.1378 68.652 68.3383 69.5729 68.6463L69.5818 68.6492L69.5908 68.6521C69.8378 68.7295 70.1464 68.8518 70.4975 69.0087C70.4542 69.002 70.4115 68.9957 70.3693 68.9897L70.3686 68.9896C63.923 68.0851 57.8966 70.8603 52.8495 76.7911C52.0419 77.7374 51.0636 78.9795 50.317 79.9762C49.9445 80.4735 49.6207 80.9215 49.4018 81.2473C49.2969 81.4034 49.1963 81.5603 49.1278 81.6895L49.1258 81.6931C49.1031 81.7358 49.0294 81.8742 48.9942 82.0409C48.9832 82.0932 48.9673 82.1864 48.9723 82.3025C48.977 82.412 49.0037 82.6236 49.1516 82.837C49.5422 83.4007 50.1556 83.263 50.269 83.2298C50.4397 83.1799 50.5614 83.0932 50.5862 83.0756C50.5872 83.0748 50.5881 83.0742 50.5888 83.0737C50.6343 83.0417 50.6729 83.0098 50.6994 82.9872C50.754 82.9406 50.8107 82.887 50.8629 82.836C50.97 82.7313 51.1039 82.5925 51.2521 82.4346C51.5507 82.1165 51.9361 81.6903 52.34 81.2339L52.3401 81.2339L52.3488 81.2238C56.897 75.9432 62.1325 73.4149 68.0472 73.5143L68.0472 73.5143L68.0532 73.5144C68.9338 73.5238 69.9971 73.6028 70.8845 73.7093C71.2081 73.7481 71.5008 73.7897 71.7472 73.8314C71.6834 74.0857 71.5982 74.3902 71.4952 74.7297C71.1848 75.7527 70.7381 77.0084 70.3066 78.0007L70.3066 78.0007L70.3032 78.0089C70.0181 78.6807 69.2262 80.0253 68.4843 81.0664L68.4817 81.0702C67.9246 81.8596 67.5745 82.3125 67.2375 82.6657C66.9104 83.0085 66.5727 83.2815 66.0108 83.6843C63.6757 85.3247 61.2214 85.8876 55.1875 85.7817C51.3544 85.7032 48.6711 85.927 46.7614 86.5313C46.801 86.3937 46.8472 86.2392 46.9004 86.0654C48.1126 82.2271 50.0485 78.6047 52.6953 75.2655ZM45.9503 86.7514C45.9503 86.7513 45.9524 86.7511 45.9564 86.7511C45.9523 86.7514 45.9503 86.7514 45.9503 86.7514ZM50.8943 82.6273C50.8948 82.6262 50.8954 82.6251 50.8961 82.6239C50.888 82.6414 50.8854 82.644 50.8943 82.6273Z" stroke="#6B7537" stroke-width="2"/>
</svg>
