<svg width="274" height="259" viewBox="0 0 274 259" fill="none" xmlns="http://www.w3.org/2000/svg">
<path d="M104.658 55.4411L104.658 55.4417C76.8579 75.4416 54.5386 105.088 47.0294 131.55C45.0557 138.702 44.0604 148.292 44.1152 158.05C44.17 167.808 45.2743 177.655 47.4547 185.317L47.4573 185.326L47.4597 185.335C49.186 191.867 54.0388 202.789 59.5622 213.399C65.0856 224.009 71.2006 234.155 75.3993 239.16L77.119 241.207L76.1144 238.786L76.1135 238.783C69.2524 222.144 63.4917 201.495 62.3037 188.974L62.3036 188.973C58.0309 143.601 79.1914 101.823 123.619 67.3785C130.773 61.8146 140.198 55.0617 147.76 49.9172C151.54 47.3457 154.867 45.1677 157.218 43.7385C158.386 43.0282 159.343 42.4847 160.003 42.1721C160.306 42.0287 160.647 41.8832 160.943 41.8346C161.027 41.8209 161.147 41.8077 161.284 41.8199C161.414 41.8314 161.641 41.8731 161.859 42.0396C162.428 42.4733 162.267 43.112 162.212 43.2709C162.14 43.4815 162.011 43.6518 161.949 43.7327C161.865 43.8408 161.763 43.9559 161.654 44.0726C161.435 44.3074 161.138 44.5967 160.784 44.9281C160.072 45.5933 159.078 46.4692 157.883 47.4932C155.489 49.5433 152.252 52.214 148.757 55.0344L148.746 55.0427C106.813 87.9578 85.1482 127.605 83.8234 173.706L83.8232 173.712C83.5864 180.519 83.8222 188.667 84.3254 195.469C84.577 198.87 84.8944 201.92 85.2501 204.288C85.4281 205.473 85.6137 206.475 85.8021 207.257C85.9466 207.858 86.0818 208.282 86.1948 208.551C86.3263 208.568 86.5189 208.579 86.7837 208.575C87.4749 208.565 88.4727 208.458 89.7417 208.256C92.2683 207.853 95.732 207.095 99.6736 206.092C107.554 204.088 117.258 201.129 125.036 198.161L125.044 198.158C130.739 196.042 141.419 190.35 149.578 185.079L149.582 185.076C155.662 181.188 159.478 178.533 162.59 175.823C165.692 173.122 168.122 170.344 171.403 166.179C185.665 147.735 190.707 127.986 191.969 82.8564C192.692 54.0071 195.333 34.8971 200.244 21.9726C201.31 19.123 201.987 17.0363 202.204 15.545C202.424 14.0258 202.116 13.5364 201.767 13.3106C201.53 13.1568 201.129 13.0207 200.459 12.9749C199.794 12.9294 198.936 12.9774 197.848 13.1276C195.669 13.4283 192.721 14.1147 188.827 15.1179C159.157 23.0182 130.927 36.5007 104.658 55.4411ZM160.389 42.4784C160.39 42.4768 160.387 42.4805 160.382 42.4888C160.386 42.4828 160.389 42.4794 160.389 42.4784ZM86.0147 208.513C86.0138 208.514 86.0217 208.517 86.0411 208.522C86.0252 208.515 86.0155 208.513 86.0147 208.513Z" stroke="#6B7537" stroke-width="2"/>
<path d="M158.781 201.657L158.779 201.657C147.112 201.244 134.945 204.581 127.467 210.092C125.486 211.575 123.236 213.925 121.217 216.562C119.198 219.198 117.459 222.059 116.466 224.532L116.462 224.54L116.459 224.549C115.582 226.619 114.61 230.553 113.878 234.599C113.493 236.723 113.183 238.832 112.987 240.671C114.612 235.824 116.728 230.976 118.573 228.062L118.574 228.061C127.125 214.577 141.931 207.6 161.445 207.591C164.582 207.585 168.585 207.735 171.738 207.93C173.312 208.027 174.69 208.137 175.647 208.245C176.118 208.298 176.522 208.355 176.803 208.417C176.913 208.441 177.12 208.489 177.301 208.587C177.355 208.616 177.441 208.668 177.53 208.751C177.614 208.829 177.761 208.99 177.828 209.244C178.007 209.914 177.501 210.298 177.392 210.37C177.234 210.474 177.074 210.515 177.029 210.527L177.026 210.527C176.953 210.546 176.879 210.56 176.815 210.57C176.684 210.591 176.526 210.609 176.354 210.625C176.006 210.657 175.54 210.687 174.995 210.714C173.903 210.767 172.452 210.812 170.903 210.843L170.903 210.843L170.889 210.843C152.7 210.96 138.644 217.118 128.709 229.21L128.709 229.21L128.705 229.215C127.224 230.996 125.584 233.244 124.298 235.185C123.655 236.155 123.108 237.037 122.716 237.738C122.537 238.057 122.396 238.329 122.295 238.548C122.438 238.639 122.621 238.746 122.845 238.869C123.592 239.278 124.674 239.793 125.95 240.348C128.499 241.455 131.739 242.686 134.453 243.509L134.453 243.509L134.462 243.512C136.393 244.117 140.447 244.813 143.756 245.097L143.76 245.097C146.23 245.321 147.787 245.398 149.154 245.32C150.507 245.242 151.707 245.01 153.461 244.572C161.019 242.613 166.443 238.44 176.276 226.453C182.562 218.745 187.368 214.028 191.528 211.484C192.423 210.931 192.988 210.54 193.304 210.235C193.343 210.198 193.374 210.165 193.399 210.138C193.396 210.135 193.393 210.133 193.39 210.13C193.266 210.019 193.065 209.877 192.756 209.7C192.137 209.343 191.224 208.923 189.952 208.374C180.29 204.303 169.845 202.037 158.781 201.657ZM193.492 210.015C193.491 210.015 193.488 210.021 193.484 210.032C193.491 210.02 193.493 210.014 193.492 210.015Z" stroke="#6B7537" stroke-width="2"/>
</svg>
