<svg width="193" height="227" viewBox="0 0 193 227" fill="none" xmlns="http://www.w3.org/2000/svg">
<path d="M102.694 18.1125L102.695 18.1128C127.649 25.7521 150.993 41.6918 162.864 58.9295C166.026 63.5926 169.085 70.2597 171.43 77.3142C173.775 84.3687 175.382 91.7356 175.68 97.7806L175.681 97.79L175.682 97.7994C176.031 102.916 175.201 111.978 173.806 120.998C172.412 130.018 170.478 138.828 168.678 143.448C168.678 143.448 168.678 143.448 168.678 143.448C168.678 143.449 168.678 143.449 168.678 143.449L168.496 143.916L168.527 143.455L168.527 143.453C169.413 129.73 168.522 113.367 166.308 103.994L166.308 103.993C158.264 70.0482 132.663 44.9758 92.0569 30.9346C85.5164 28.6622 77.0446 26.0867 70.3151 24.2184C66.9514 23.2845 64.0087 22.5233 61.9534 22.0644C60.9337 21.8368 60.0987 21.6758 59.5323 21.6099C59.2791 21.5804 58.9662 21.5544 58.7038 21.5978C58.6288 21.6102 58.5179 21.6343 58.3973 21.6874C58.2828 21.7378 58.0852 21.8472 57.9341 22.0715C57.5391 22.6581 57.895 23.2026 57.9892 23.3248C58.1188 23.493 58.2829 23.6029 58.3498 23.6471C58.4454 23.7103 58.554 23.7725 58.6647 23.8319C58.8878 23.9515 59.1782 24.0907 59.5177 24.2443C60.2 24.5529 61.1362 24.9443 62.2524 25.3923C64.4879 26.2894 67.4841 27.4285 70.7027 28.6119L70.7027 28.6119L70.7153 28.6164C109.034 42.1244 134.343 65.4362 146.561 98.3626L146.563 98.3683C148.397 103.222 150.219 109.161 151.519 114.195C152.169 116.712 152.685 118.988 153.006 120.779C153.167 121.676 153.277 122.438 153.331 123.041C153.365 123.414 153.375 123.694 153.37 123.893C153.302 123.921 153.215 123.952 153.107 123.987C152.621 124.143 151.887 124.308 150.924 124.472C149.009 124.798 146.327 125.097 143.236 125.338C137.055 125.817 129.325 126.054 122.986 125.813L122.986 125.813L122.977 125.813C118.366 125.679 109.271 124.183 102.09 122.372L102.085 122.371C96.7397 121.049 93.3455 120.068 90.449 118.878C87.5659 117.693 85.1438 116.289 81.7566 114.085C66.9963 104.287 58.5381 91.3047 46.5799 59.0013C38.9924 38.3189 32.3927 25.1191 25.6516 16.9456C24.1821 15.1449 23.1972 13.8207 22.6886 12.8215C22.1674 11.7972 22.326 11.4873 22.4318 11.3537C22.5314 11.2278 22.7474 11.0511 23.201 10.8621C23.6496 10.6752 24.2636 10.5037 25.0795 10.3472C26.7132 10.0339 28.999 9.80925 32.0601 9.58093C55.4126 8.02967 79.093 10.8602 102.694 18.1125ZM153.586 123.785C153.587 123.786 153.58 123.792 153.561 123.803C153.576 123.791 153.585 123.785 153.586 123.785Z" stroke="#6B7537" stroke-width="2"/>
<path d="M119.945 135.948L119.946 135.947C127.678 133.383 136.465 133.239 142.516 135.449C144.11 136.045 146.065 137.169 147.932 138.537C149.799 139.906 151.514 141.472 152.649 142.915L152.655 142.922L152.661 142.93C153.638 144.124 155.057 146.558 156.348 149.138C156.576 149.594 156.797 150.049 157.01 150.499C155.395 148.394 153.723 146.504 152.356 145.302L152.355 145.302C143.836 137.818 132.367 136.039 119.144 139.904C117.021 140.521 114.346 141.414 112.256 142.169C111.212 142.546 110.3 142.894 109.669 143.159C109.361 143.288 109.088 143.411 108.897 143.516C108.827 143.554 108.663 143.644 108.528 143.779C108.487 143.819 108.42 143.891 108.359 143.993C108.302 144.089 108.207 144.283 108.214 144.544C108.231 145.233 108.822 145.458 108.941 145.494C109.116 145.548 109.273 145.542 109.312 145.541L109.316 145.541C109.381 145.539 109.444 145.532 109.494 145.526C109.595 145.513 109.713 145.492 109.835 145.469C110.082 145.421 110.407 145.347 110.78 145.258C111.531 145.077 112.521 144.82 113.573 144.535L113.573 144.535L113.585 144.531C125.796 141.041 136.39 142.415 145.388 148.546L145.387 148.546L145.393 148.549C146.732 149.45 148.272 150.635 149.515 151.683C150.137 152.208 150.673 152.689 151.068 153.077C151.16 153.167 151.243 153.251 151.316 153.327C151.281 153.363 151.243 153.401 151.203 153.442C150.789 153.856 150.169 154.41 149.422 155.033C147.93 156.276 145.998 157.738 144.343 158.821L144.343 158.821L144.335 158.826C143.178 159.598 140.606 160.858 138.442 161.698L138.438 161.7C136.819 162.337 135.802 162.69 134.888 162.901C133.988 163.11 133.155 163.189 131.894 163.24C126.513 163.408 122.101 161.711 113.122 155.583C107.36 151.625 103.156 149.37 99.7997 148.463C99.2794 148.319 98.9109 148.204 98.6561 148.103C98.6859 148.07 98.719 148.034 98.7558 147.996C99.0894 147.647 99.6093 147.194 100.358 146.573C106.037 141.947 112.597 138.376 119.945 135.948ZM109.836 145.282C109.83 145.286 109.826 145.288 109.826 145.288C109.826 145.288 109.829 145.286 109.836 145.282ZM98.3088 147.931C98.309 147.931 98.3112 147.932 98.315 147.936C98.3105 147.932 98.3086 147.931 98.3088 147.931ZM98.4272 148.405C98.4265 148.406 98.4261 148.407 98.426 148.408C98.426 148.408 98.4263 148.407 98.4272 148.405Z" stroke="#6B7537" stroke-width="2"/>
<path d="M134.589 182.605L134.59 182.604C139.6 175.186 147.155 169.163 153.916 167.024C155.711 166.472 158.171 166.138 160.715 166.077C163.258 166.016 165.806 166.229 167.769 166.726L167.778 166.728L167.788 166.73C169.447 167.117 172.317 168.285 175.167 169.663C175.954 170.043 176.727 170.434 177.462 170.822C174.35 169.948 171.274 169.329 169.083 169.186L169.082 169.186C156.712 168.39 145.586 174.499 136.7 186.69C135.27 188.645 133.545 191.21 132.236 193.264C131.581 194.289 131.022 195.2 130.653 195.851C130.472 196.169 130.32 196.455 130.226 196.669C130.191 196.749 130.114 196.926 130.088 197.118C130.081 197.176 130.072 197.274 130.086 197.393C130.099 197.505 130.142 197.716 130.307 197.92C130.742 198.456 131.348 198.273 131.466 198.229C131.639 198.164 131.761 198.062 131.792 198.037L131.795 198.034C131.847 197.991 131.895 197.946 131.933 197.908C132.011 197.831 132.098 197.736 132.187 197.635C132.368 197.429 132.6 197.149 132.864 196.822C133.395 196.163 134.082 195.278 134.804 194.327L134.804 194.327L134.812 194.316C143.098 183.09 153.247 177.175 165.201 176.476L165.201 176.476L165.207 176.476C166.978 176.362 169.112 176.36 170.897 176.439C171.789 176.478 172.58 176.537 173.186 176.61C173.366 176.632 173.526 176.654 173.663 176.676C173.655 176.757 173.645 176.846 173.632 176.945C173.549 177.587 173.381 178.486 173.148 179.529C172.684 181.611 171.983 184.178 171.268 186.231L171.268 186.231L171.266 186.239C170.774 187.693 169.379 190.517 168.06 192.699L168.057 192.703C167.077 194.34 166.427 195.332 165.769 196.134C165.121 196.924 164.445 197.556 163.382 198.446C158.795 202.214 153.8 203.695 141.891 204.382C134.238 204.801 129.09 205.655 125.582 207.107C124.95 207.365 124.511 207.523 124.206 207.599C124.21 207.516 124.217 207.417 124.23 207.3C124.287 206.768 124.436 206.021 124.672 204.98C126.511 197.148 129.824 189.643 134.589 182.605ZM132.044 197.503C132.043 197.509 132.041 197.512 132.041 197.512C132.041 197.513 132.042 197.51 132.044 197.503ZM123.891 207.65C123.891 207.65 123.894 207.65 123.901 207.65C123.893 207.65 123.89 207.65 123.891 207.65Z" stroke="#6B7537" stroke-width="2"/>
</svg>
