<svg width="322" height="330" viewBox="0 0 322 330" fill="none" xmlns="http://www.w3.org/2000/svg">
<path d="M159.423 92.3741L159.422 92.3745C135.552 102.925 114.268 121.525 104.529 140.051C101.944 145.057 99.6984 152.04 98.2079 159.324C96.7174 166.607 95.9975 174.112 96.4194 180.15L96.4201 180.159L96.4205 180.169C96.6815 185.291 98.5823 194.19 101.039 202.98C103.496 211.771 106.462 220.288 108.798 224.662C108.798 224.662 108.798 224.662 108.798 224.662C108.798 224.662 108.798 224.663 108.798 224.663L109.035 225.105L108.95 224.651L108.949 224.649C106.438 211.129 105.379 194.776 106.464 185.206L106.464 185.205C110.417 150.545 132.858 122.608 171.508 103.842C177.732 100.808 185.838 97.2443 192.298 94.5896C195.527 93.2627 198.358 92.1572 200.344 91.4574C201.33 91.1102 202.14 90.8512 202.694 90.7184C202.942 90.659 203.25 90.596 203.516 90.6079C203.592 90.6113 203.704 90.6221 203.83 90.6605C203.95 90.697 204.159 90.7821 204.336 90.9868C204.798 91.5223 204.509 92.1052 204.43 92.2378C204.322 92.4203 204.172 92.5488 204.111 92.6007C204.023 92.6748 203.923 92.7495 203.82 92.8215C203.612 92.9669 203.341 93.1396 203.022 93.3324C202.381 93.7199 201.498 94.2198 200.443 94.7972C198.33 95.9536 195.49 97.4406 192.435 98.998L192.435 98.9981L192.423 99.004C155.981 116.969 133.621 143.123 125.402 177.268L125.401 177.274C124.156 182.311 123.053 188.425 122.36 193.577C122.014 196.153 121.772 198.475 121.666 200.292C121.613 201.201 121.594 201.971 121.611 202.576C121.622 202.95 121.646 203.229 121.674 203.427C121.746 203.446 121.836 203.467 121.946 203.488C122.447 203.586 123.196 203.663 124.172 203.711C126.112 203.807 128.81 203.786 131.909 203.657C138.102 203.399 145.806 202.715 152.071 201.723L152.071 201.723L152.08 201.722C156.642 201.04 165.495 198.475 172.411 195.823L172.415 195.822C177.566 193.874 180.819 192.496 183.554 190.971C186.276 189.452 188.514 187.77 191.615 185.179C205.107 173.696 211.962 159.801 219.998 126.306C225.074 104.869 230.059 90.9781 235.781 82.0615C237.026 80.099 237.847 78.6672 238.233 77.6146C238.629 76.5356 238.434 76.2468 238.313 76.1266C238.2 76.0135 237.964 75.8637 237.491 75.73C237.024 75.5977 236.394 75.5003 235.565 75.4419C233.906 75.325 231.609 75.3735 228.543 75.5105C205.171 76.7449 181.995 82.369 159.423 92.3741ZM121.447 203.345C121.446 203.346 121.454 203.351 121.474 203.36C121.458 203.35 121.448 203.345 121.447 203.345Z" stroke="#6B7537" stroke-width="2"/>
<path d="M17.5373 189.243L17.5369 189.244C14.3219 196.729 13.429 205.472 15.1149 211.69C15.5726 213.328 16.5252 215.372 17.7292 217.349C18.9332 219.326 20.3476 221.168 21.6884 222.422L21.6953 222.429L21.7021 222.436C22.8088 223.511 25.1127 225.132 27.573 226.639C28.0078 226.905 28.4428 227.165 28.8723 227.415C26.9133 225.627 25.1733 223.798 24.0921 222.334L24.0916 222.334C17.362 213.206 16.568 201.628 21.5478 188.783C22.344 186.72 23.462 184.131 24.3925 182.113C24.8571 181.105 25.2812 180.226 25.5991 179.62C25.7542 179.324 25.9 179.063 26.0209 178.881C26.0647 178.815 26.1687 178.659 26.3143 178.536C26.358 178.499 26.435 178.439 26.5419 178.387C26.6428 178.337 26.8437 178.26 27.1037 178.288C27.7889 178.364 27.9621 178.972 27.9883 179.094C28.0268 179.273 28.0079 179.429 28.0032 179.468L28.0028 179.471C27.995 179.536 27.9832 179.598 27.9727 179.647C27.9512 179.748 27.9206 179.863 27.8866 179.983C27.8175 180.225 27.7169 180.542 27.5955 180.907C27.3518 181.639 27.0112 182.603 26.6371 183.627L26.6372 183.627L26.6324 183.639C22.1126 195.508 22.5779 206.18 27.9187 215.668L27.9187 215.668L27.9217 215.673C28.7049 217.085 29.7535 218.72 30.6924 220.048C31.1619 220.712 31.5956 221.288 31.9481 221.715C32.0305 221.814 32.1065 221.904 32.176 221.982C32.2149 221.951 32.2563 221.917 32.3001 221.88C32.7482 221.503 33.3529 220.932 34.0373 220.241C35.4037 218.86 37.0252 217.06 38.2454 215.504L38.2454 215.504L38.2509 215.497C39.1186 214.41 40.5938 211.955 41.6156 209.87L41.6177 209.866C42.3905 208.308 42.8287 207.325 43.1176 206.432C43.402 205.553 43.552 204.73 43.7105 203.478C44.337 198.131 43.0233 193.59 37.6834 184.121C34.2321 178.042 32.3434 173.661 31.7262 170.239C31.6277 169.709 31.5438 169.332 31.465 169.069C31.4295 169.096 31.3911 169.126 31.3497 169.16C30.9744 169.462 30.4779 169.941 29.7957 170.635C24.7017 175.898 20.5842 182.129 17.5373 189.243ZM27.7005 179.968C27.7052 179.962 27.7077 179.958 27.7076 179.958C27.7076 179.958 27.7053 179.961 27.7005 179.968ZM31.3232 168.709C31.3232 168.709 31.3246 168.711 31.3276 168.715C31.3247 168.71 31.3232 168.708 31.3232 168.709ZM31.786 168.867C31.7876 168.866 31.7883 168.866 31.7883 168.866C31.7883 168.866 31.7876 168.866 31.786 168.867Z" stroke="#6B7537" stroke-width="2"/>
<path d="M230.155 213.664L230.154 213.663C222.53 208.972 213.164 206.6 206.122 207.441C204.259 207.678 201.88 208.388 199.538 209.382C197.195 210.375 194.963 211.62 193.379 212.882L193.371 212.888L193.364 212.894C192.011 213.93 189.879 216.178 187.851 218.608C187.291 219.28 186.747 219.955 186.238 220.611C188.712 218.532 191.26 216.699 193.197 215.665L193.197 215.665C204.139 209.838 216.793 210.815 229.916 218.256C232.025 219.448 234.654 221.073 236.694 222.403C237.713 223.068 238.598 223.667 239.203 224.108C239.499 224.323 239.756 224.52 239.93 224.677C239.994 224.735 240.137 224.865 240.24 225.03C240.271 225.079 240.32 225.165 240.356 225.278C240.39 225.386 240.438 225.597 240.371 225.85C240.196 226.518 239.569 226.601 239.443 226.609C239.259 226.621 239.106 226.58 239.067 226.569L239.063 226.568C238.998 226.55 238.936 226.529 238.885 226.51C238.783 226.472 238.665 226.421 238.541 226.365C238.292 226.253 237.965 226.094 237.589 225.904C236.834 225.523 235.843 225 234.793 224.431L234.793 224.432L234.781 224.425C222.603 217.615 210.918 216.412 199.74 220.705L199.74 220.705L199.734 220.707C198.074 221.334 196.129 222.212 194.535 223.02C193.738 223.424 193.042 223.804 192.52 224.121C192.365 224.215 192.229 224.3 192.113 224.378C192.154 224.448 192.2 224.525 192.253 224.61C192.592 225.16 193.117 225.91 193.759 226.764C195.041 228.469 196.737 230.518 198.235 232.094L198.235 232.094L198.241 232.1C199.289 233.223 201.724 235.22 203.826 236.663L203.83 236.666C205.398 237.753 206.399 238.389 207.329 238.848C208.245 239.301 209.122 239.597 210.457 239.969C216.19 241.511 221.351 240.8 232.483 236.514C239.628 233.74 244.67 232.394 248.465 232.271C249.147 232.245 249.612 232.208 249.921 232.151C249.884 232.077 249.836 231.99 249.777 231.889C249.505 231.428 249.061 230.809 248.417 229.958C243.511 223.581 237.398 218.111 230.155 213.664ZM238.617 226.187C238.621 226.191 238.623 226.193 238.624 226.194C238.624 226.194 238.622 226.192 238.617 226.187ZM250.23 232.068C250.229 232.068 250.226 232.069 250.221 232.072C250.227 232.069 250.23 232.068 250.23 232.068Z" stroke="#6B7537" stroke-width="2"/>
</svg>
