<svg width="61" height="49" viewBox="0 0 61 49" fill="none" xmlns="http://www.w3.org/2000/svg">
<path d="M30.5358 3.20785L30.5348 3.20807C21.3626 5.18607 12.5506 10.1844 7.82687 15.9327C6.58625 17.4658 5.30008 19.7315 4.2475 22.1825C3.19491 24.6334 2.4071 27.197 2.12296 29.3046L2.1217 29.3139L2.12026 29.3233C1.84766 31.0925 1.86449 34.3427 2.09216 37.6498C2.16584 38.7201 2.26036 39.7785 2.37111 40.7768C2.72992 37.2569 3.34812 33.8387 4.09413 31.5621L4.09435 31.5614C8.13931 19.2465 18.4007 10.8244 33.7046 6.945C36.1618 6.31832 39.3259 5.64253 41.8325 5.17049C43.0844 4.93474 44.1869 4.74703 44.962 4.64178C45.3413 4.59026 45.6767 4.55361 45.9193 4.54602C46.0104 4.54318 46.2064 4.53812 46.3965 4.5864C46.4533 4.60081 46.548 4.62914 46.653 4.6865C46.7523 4.7407 46.9326 4.8599 47.0601 5.08893C47.3961 5.69235 47.0005 6.18725 46.9151 6.28052C46.79 6.41735 46.6495 6.49372 46.6132 6.51344L46.61 6.51516C46.5494 6.54826 46.4884 6.5762 46.4375 6.59818C46.3337 6.64299 46.2087 6.69 46.0756 6.73709C45.806 6.8325 45.4445 6.9487 45.0229 7.07769C44.1768 7.33662 43.0491 7.65915 41.8428 7.98994L41.8428 7.99003L41.8298 7.9934C27.6753 11.6716 17.9544 19.2361 12.6059 30.5975L12.6059 30.5975L12.6033 30.603C11.8008 32.2813 10.9661 34.3565 10.3461 36.1237C10.0361 37.0073 9.78461 37.8004 9.61855 38.4191C9.5641 38.622 9.52036 38.8006 9.48711 38.9536C9.57955 38.9809 9.68525 39.0101 9.80469 39.041C10.462 39.2112 11.4035 39.3985 12.5083 39.5793C14.7147 39.9402 17.4848 40.2607 19.7611 40.3671L19.7611 40.367L19.7699 40.3675C21.3803 40.4571 24.6723 40.2022 27.3092 39.7703L27.3138 39.7696C29.2878 39.4557 30.5091 39.2101 31.5481 38.8829C32.5733 38.5599 33.4536 38.1472 34.7343 37.4605C40.2006 34.464 43.5936 30.1752 48.9073 18.8657C52.2991 11.5911 55.1343 6.92652 57.9084 4.08982C58.4371 3.54363 58.7733 3.16303 58.963 2.88817C58.8693 2.8526 58.7509 2.81353 58.6024 2.77179C58.06 2.61924 57.2727 2.47243 56.1696 2.29537C47.833 1.02712 39.2409 1.32099 30.5358 3.20785ZM46.0208 6.54453C46.0264 6.54489 46.0294 6.54493 46.0295 6.54486C46.0296 6.54479 46.0269 6.54462 46.0208 6.54453ZM59.1064 2.63892C59.1061 2.63906 59.1047 2.64278 59.1029 2.64965C59.1058 2.64221 59.1067 2.63877 59.1064 2.63892Z" stroke="#6B7537" stroke-width="2"/>
</svg>
