<svg width="60" height="49" viewBox="0 0 60 49" fill="none" xmlns="http://www.w3.org/2000/svg">
<path d="M30.0682 2.75583L30.0692 2.75605C39.2414 4.73404 48.0534 9.7324 52.7771 15.4806C54.0178 17.0137 55.3039 19.2795 56.3565 21.7304C57.4091 24.1814 58.1969 26.745 58.481 28.8526L58.4823 28.8619L58.4837 28.8712C58.7563 30.6405 58.7395 33.8906 58.5118 37.1978C58.4382 38.2681 58.3436 39.3265 58.2329 40.3248C57.8741 36.8049 57.2559 33.3867 56.5099 31.1101L56.5097 31.1094C52.4647 18.7945 42.2033 10.3724 26.8994 6.49297C24.4422 5.86629 21.2781 5.1905 18.7715 4.71847C17.5196 4.48271 16.4171 4.295 15.642 4.18975C15.2627 4.13824 14.9273 4.10158 14.6847 4.094C14.5936 4.09115 14.3976 4.08609 14.2075 4.13437C14.1508 4.14879 14.056 4.17712 13.951 4.23447C13.8517 4.28868 13.6714 4.40787 13.5439 4.6369C13.2079 5.24032 13.6035 5.73522 13.6889 5.82849C13.8141 5.96532 13.9545 6.0417 13.9908 6.06142L13.994 6.06313C14.0546 6.09624 14.1156 6.12417 14.1665 6.14616C14.2703 6.19096 14.3953 6.23797 14.5284 6.28506C14.798 6.38047 15.1596 6.49668 15.5811 6.62566C16.4272 6.8846 17.5549 7.20712 18.7612 7.53792L18.7612 7.538L18.7742 7.54138C32.9287 11.2196 42.6496 18.7841 47.9981 30.1455L47.9981 30.1455L48.0007 30.151C48.8032 31.8293 49.6379 33.9045 50.2579 35.6717C50.5679 36.5553 50.8194 37.3483 50.9854 37.9671C51.0399 38.17 51.0836 38.3486 51.1169 38.5015C51.0245 38.5288 50.9188 38.5581 50.7993 38.589C50.142 38.7591 49.2006 38.9465 48.0957 39.1272C45.8893 39.4882 43.1192 39.8087 40.8429 39.9151L40.8429 39.915L40.8341 39.9155C39.2238 40.0051 35.9317 39.7502 33.2948 39.3183L33.2902 39.3176C31.3162 39.0037 30.0949 38.7581 29.0559 38.4308C28.0307 38.1079 27.1504 37.6951 25.8697 37.0084C20.4034 34.012 17.0104 29.7232 11.6967 18.4137C8.3049 11.1391 5.46975 6.4745 2.6956 3.63779C2.16691 3.0916 1.83072 2.711 1.64101 2.43614C1.73466 2.40057 1.85315 2.3615 2.00158 2.31976C2.54404 2.16721 3.33128 2.02041 4.43438 1.84334C12.771 0.575091 21.3631 0.868968 30.0682 2.75583ZM14.5832 6.0925C14.5776 6.09286 14.5746 6.09291 14.5745 6.09284C14.5744 6.09277 14.5771 6.09259 14.5832 6.0925ZM1.49759 2.18689C1.49788 2.18703 1.49935 2.19075 1.50114 2.19762C1.4982 2.19018 1.49731 2.18675 1.49759 2.18689Z" stroke="#6B7537" stroke-width="2"/>
</svg>
